<svg xmlns="http://www.w3.org/2000/svg" fill="none" viewBox="0 0 1280 584" height="584" width="1280">
<g clip-path="url(#clip0_64_9059)">
<rect fill="#D97917" rx="12" height="584" width="1280"></rect>
<circle fill="#E5993E" r="188.1" cy="291.9" cx="639.901"></circle>
<circle stroke-width="4.5" stroke="#BB5504" r="349.65" cy="291.9" cx="639.9"></circle>
<path stroke-linejoin="round" stroke-linecap="round" stroke-width="3" stroke="white" d="M398.809 261.3C403.109 227.075 414.527 195.066 431.534 166.8M398.809 322.5C403.269 358.002 415.389 391.121 433.462 420.15M480.192 475.05C512.931 503.622 553.401 523.559 598.05 531.31M680.85 531.464C727.947 523.472 770.431 501.928 804.15 470.985M846.619 419.7C864.46 390.902 876.452 358.099 880.935 322.95M880.935 260.85C876.638 227.157 865.441 195.62 848.806 167.7M680.85 52.3357C728.789 60.4712 771.948 82.6464 805.95 114.483M598.95 52.3357C552.895 60.1515 511.251 80.9255 477.9 110.775"></path>
<rect fill="white" rx="38.3" height="76.6" width="153" y="253.9" x="562.898"></rect>
<path fill="#232222" d="M611.497 284.212C607.086 284.212 603.509 287.788 603.509 292.2C603.509 296.611 607.086 300.187 611.497 300.187C615.908 300.187 619.484 296.611 619.484 292.2C619.484 287.788 615.908 284.212 611.497 284.212ZM601.484 292.2C601.484 286.67 605.967 282.187 611.497 282.187C617.027 282.187 621.509 286.67 621.509 292.2C621.509 297.73 617.027 302.212 611.497 302.212C605.967 302.212 601.484 297.73 601.484 292.2Z" clip-rule="evenodd" fill-rule="evenodd"></path>
<path fill="#232222" d="M601.484 292.2C601.484 291.641 601.938 291.187 602.497 291.187H620.497C621.056 291.187 621.509 291.641 621.509 292.2C621.509 292.759 621.056 293.212 620.497 293.212H602.497C601.938 293.212 601.484 292.759 601.484 292.2Z" clip-rule="evenodd" fill-rule="evenodd"></path>
<path fill="#232222" d="M611.497 282.187C611.781 282.187 612.053 282.307 612.245 282.517C614.662 285.163 616.035 288.596 616.11 292.179C616.11 292.193 616.11 292.207 616.11 292.221C616.035 295.803 614.662 299.237 612.245 301.883C612.053 302.093 611.781 302.212 611.497 302.212C611.212 302.212 610.942 302.093 610.75 301.883C608.333 299.237 606.96 295.803 606.885 292.221C606.885 292.207 606.885 292.193 606.885 292.179C606.96 288.596 608.333 285.163 610.75 282.517C610.942 282.307 611.212 282.187 611.497 282.187ZM608.91 292.2C608.971 294.893 609.882 297.488 611.498 299.619C613.113 297.488 614.024 294.893 614.085 292.2C614.024 289.506 613.113 286.912 611.498 284.78C609.882 286.912 608.971 289.506 608.91 292.2Z" clip-rule="evenodd" fill-rule="evenodd"></path>
<path fill="#232222" d="M647.561 288.326L644.797 301.2H642.863L640.68 291.162H640.537L638.354 301.2H636.42L633.655 288.326H635.625L637.369 298.649H637.583L639.659 288.338H641.558L643.634 298.649H643.848L645.592 288.326H647.561ZM662.218 288.326L659.454 301.2H657.52L655.336 291.162H655.194L653.011 301.2H651.077L648.312 288.326H650.282L652.026 298.649H652.24L654.316 288.338H656.214L658.291 298.649H658.504L660.249 288.326H662.218ZM676.875 288.326L674.111 301.2H672.177L669.993 291.162H669.851L667.668 301.2H665.734L662.969 288.326H664.939L666.683 298.649H666.896L668.973 288.338H670.871L672.948 298.649H673.161L674.906 288.326H676.875Z"></path>
<rect fill="white" rx="21.6" height="43.2" width="64.8" y="115.5" x="418.5"></rect>
<g clip-path="url(#clip1_64_9059)">
<path fill="#232222" d="M444.487 131.7C444.487 131.141 444.94 130.688 445.5 130.688H445.509C446.068 130.688 446.521 131.141 446.521 131.7C446.521 132.259 446.068 132.713 445.509 132.713H445.5C444.94 132.713 444.487 132.259 444.487 131.7Z"></path>
<path fill="#232222" d="M443.699 127.088C442.146 127.088 440.887 128.347 440.887 129.9V133.5C440.887 135.054 442.146 136.313 443.699 136.313H458.099C459.653 136.313 460.912 135.054 460.912 133.5V129.9C460.912 128.347 459.653 127.088 458.099 127.088H443.699ZM442.912 129.9C442.912 129.465 443.264 129.113 443.699 129.113H458.099C458.534 129.113 458.887 129.465 458.887 129.9V133.5C458.887 133.935 458.534 134.288 458.099 134.288H443.699C443.264 134.288 442.912 133.935 442.912 133.5V129.9Z" clip-rule="evenodd" fill-rule="evenodd"></path>
<path fill="#232222" d="M445.5 141.488C444.94 141.488 444.487 141.941 444.487 142.5C444.487 143.059 444.94 143.513 445.5 143.513H445.509C446.068 143.513 446.521 143.059 446.521 142.5C446.521 141.941 446.068 141.488 445.509 141.488H445.5Z"></path>
<path fill="#232222" d="M443.699 137.888C442.146 137.888 440.887 139.147 440.887 140.7V144.3C440.887 145.854 442.146 147.113 443.699 147.113H458.099C459.653 147.113 460.912 145.854 460.912 144.3V140.7C460.912 139.147 459.653 137.888 458.099 137.888H443.699ZM442.912 140.7C442.912 140.265 443.264 139.913 443.699 139.913H458.099C458.534 139.913 458.887 140.265 458.887 140.7V144.3C458.887 144.735 458.534 145.088 458.099 145.088H443.699C443.264 145.088 442.912 144.735 442.912 144.3V140.7Z" clip-rule="evenodd" fill-rule="evenodd"></path>
</g>
<rect fill="white" rx="21.6" height="43.2" width="64.8" y="115.5" x="805.5"></rect>
<g clip-path="url(#clip2_64_9059)">
<path fill="#232222" d="M837.899 129.112C833.488 129.112 829.912 132.688 829.912 137.1C829.912 141.511 833.488 145.087 837.899 145.087C842.311 145.087 845.887 141.511 845.887 137.1C845.887 132.688 842.311 129.112 837.899 129.112ZM827.887 137.1C827.887 131.57 832.369 127.087 837.899 127.087C843.429 127.087 847.912 131.57 847.912 137.1C847.912 142.63 843.429 147.112 837.899 147.112C832.369 147.112 827.887 142.63 827.887 137.1Z" clip-rule="evenodd" fill-rule="evenodd"></path>
<path fill="#232222" d="M827.887 137.1C827.887 136.541 828.34 136.087 828.899 136.087H846.899C847.458 136.087 847.912 136.541 847.912 137.1C847.912 137.659 847.458 138.112 846.899 138.112H828.899C828.34 138.112 827.887 137.659 827.887 137.1Z" clip-rule="evenodd" fill-rule="evenodd"></path>
<path fill="#232222" d="M837.899 127.087C838.184 127.087 838.456 127.207 838.647 127.417C841.064 130.063 842.438 133.496 842.512 137.079C842.512 137.093 842.512 137.107 842.512 137.121C842.438 140.703 841.064 144.137 838.647 146.783C838.456 146.993 838.184 147.112 837.899 147.112C837.615 147.112 837.344 146.993 837.152 146.783C834.736 144.137 833.362 140.703 833.288 137.121C833.287 137.107 833.287 137.093 833.288 137.079C833.362 133.496 834.736 130.063 837.152 127.417C837.344 127.207 837.615 127.087 837.899 127.087ZM835.313 137.1C835.373 139.793 836.284 142.388 837.9 144.519C839.516 142.388 840.427 139.793 840.487 137.1C840.427 134.407 839.516 131.812 837.9 129.68C836.284 131.812 835.373 134.407 835.313 137.1Z" clip-rule="evenodd" fill-rule="evenodd"></path>
</g>
<rect fill="white" rx="21.6" height="43.2" width="64.8" y="428.7" x="418.5"></rect>
<g clip-path="url(#clip3_64_9059)">
<path fill="#232222" d="M440.887 444C440.887 442.447 442.146 441.188 443.699 441.188H458.099C459.653 441.188 460.912 442.447 460.912 444V453C460.912 454.553 459.653 455.813 458.099 455.813H451.912V457.388H454.499C455.058 457.388 455.512 457.841 455.512 458.4C455.512 458.959 455.058 459.413 454.499 459.413H450.921C450.914 459.413 450.907 459.413 450.9 459.413C450.893 459.413 450.885 459.413 450.878 459.413H447.299C446.74 459.413 446.287 458.959 446.287 458.4C446.287 457.841 446.74 457.388 447.299 457.388H449.887V455.813H443.699C442.146 455.813 440.887 454.553 440.887 453V444ZM443.699 443.213C443.264 443.213 442.912 443.565 442.912 444V453C442.912 453.435 443.264 453.788 443.699 453.788H458.099C458.534 453.788 458.887 453.435 458.887 453V444C458.887 443.565 458.534 443.213 458.099 443.213H443.699Z" clip-rule="evenodd" fill-rule="evenodd"></path>
</g>
<rect fill="white" rx="21.6" height="43.2" width="64.8" y="428.7" x="805.5"></rect>
<path fill="#232222" d="M831.854 441.131C833.448 440.599 835.586 440.288 837.902 440.288C840.217 440.288 842.355 440.599 843.949 441.131C844.741 441.395 845.455 441.731 845.992 442.154C846.517 442.568 847.014 443.184 847.014 444V456.6C847.014 457.414 846.523 458.03 845.998 458.446C845.462 458.87 844.75 459.207 843.96 459.471C842.368 460.002 840.229 460.313 837.902 460.313C835.574 460.313 833.435 460.002 831.843 459.471C831.053 459.207 830.341 458.87 829.806 458.446C829.281 458.03 828.789 457.414 828.789 456.6V444C828.789 443.184 829.286 442.568 829.811 442.154C830.348 441.731 831.062 441.395 831.854 441.131ZM830.821 444C830.841 443.962 830.899 443.875 831.065 443.745C831.348 443.522 831.82 443.276 832.494 443.052C833.831 442.606 835.743 442.313 837.902 442.313C840.06 442.313 841.972 442.606 843.309 443.052C843.983 443.276 844.455 443.522 844.738 443.745C844.904 443.875 844.962 443.962 844.982 444C844.962 444.039 844.904 444.126 844.738 444.256C844.455 444.479 843.983 444.724 843.309 444.949C841.972 445.395 840.06 445.688 837.902 445.688C835.743 445.688 833.831 445.395 832.494 444.949C831.82 444.724 831.348 444.479 831.065 444.256C830.899 444.126 830.841 444.039 830.821 444ZM830.814 452.76V456.587C830.823 456.612 830.869 456.705 831.063 456.859C831.344 457.081 831.813 457.326 832.485 457.55C833.818 457.995 835.729 458.288 837.902 458.288C840.074 458.288 841.985 457.995 843.318 457.55C843.99 457.326 844.459 457.081 844.74 456.859C844.934 456.705 844.98 456.612 844.989 456.587V452.76C844.669 452.913 844.323 453.05 843.96 453.171C842.368 453.702 840.229 454.013 837.902 454.013C835.574 454.013 833.435 453.702 831.843 453.171C831.481 453.05 831.134 452.913 830.814 452.76ZM844.989 450.286C844.98 450.312 844.934 450.405 844.74 450.559C844.459 450.781 843.99 451.026 843.318 451.25C841.985 451.695 840.074 451.988 837.902 451.988C835.729 451.988 833.818 451.695 832.485 451.25C831.813 451.026 831.344 450.781 831.063 450.559C830.869 450.405 830.823 450.312 830.814 450.286V446.455C831.137 446.61 831.487 446.748 831.854 446.87C833.448 447.402 835.586 447.713 837.902 447.713C840.217 447.713 842.355 447.402 843.949 446.87C844.316 446.748 844.666 446.61 844.989 446.455V450.286Z" clip-rule="evenodd" fill-rule="evenodd"></path>
<rect fill="#D97917" rx="21.6" height="43.2" width="64.8" y="27.3" x="611.102"></rect>
<g clip-path="url(#clip4_64_9059)">
<path fill="white" d="M643.146 38.952C643.375 38.8661 643.628 38.8661 643.857 38.952L651.057 41.652C651.452 41.8002 651.714 42.178 651.714 42.6001V48.9001C651.714 52.0521 649.629 54.5591 647.768 56.1871C646.817 57.0196 645.87 57.67 645.163 58.1118C644.809 58.3333 644.512 58.5041 644.301 58.6207C644.196 58.679 644.112 58.7238 644.053 58.7548C644.038 58.7625 644.025 58.7694 644.014 58.7754C644.002 58.7814 643.992 58.7865 643.984 58.7908L643.964 58.8009L643.958 58.804L643.956 58.805C643.956 58.805 643.954 58.8057 643.502 57.9001C643.049 58.8057 643.048 58.8054 643.048 58.8054L643.045 58.804L643.039 58.8009L643.019 58.7908C643.003 58.7823 642.98 58.7703 642.95 58.7548C642.891 58.7238 642.807 58.679 642.702 58.6207C642.491 58.5041 642.194 58.3333 641.84 58.1118C641.133 57.67 640.186 57.0196 639.235 56.1871C637.374 54.5591 635.289 52.0521 635.289 48.9001V42.6001C635.289 42.178 635.551 41.8002 635.946 41.652L643.146 38.952ZM643.502 57.9001L643.048 58.8054C643.333 58.9479 643.669 58.9482 643.954 58.8057L643.502 57.9001ZM643.502 56.7471C643.664 56.6543 643.863 56.5364 644.09 56.3946C644.733 55.9926 645.586 55.4055 646.435 54.6631C648.174 53.141 649.689 51.1481 649.689 48.9001V43.3017L643.502 40.9814L637.314 43.3017V48.9001C637.314 51.1481 638.829 53.141 640.568 54.6631C641.417 55.4055 642.27 55.9926 642.913 56.3946C643.14 56.5364 643.339 56.6543 643.502 56.7471Z" clip-rule="evenodd" fill-rule="evenodd"></path>
</g>
<rect fill="#BB5504" rx="21.6" height="43.2" width="64.8" y="27.3" x="608.898"></rect>
<g clip-path="url(#clip5_64_9059)">
<path fill="white" d="M635.789 47.0379V44.4504C635.789 42.9884 636.37 41.5862 637.404 40.5524C638.438 39.5186 639.84 38.9379 641.302 38.9379C642.764 38.9379 644.166 39.5186 645.2 40.5524C646.233 41.5862 646.814 42.9884 646.814 44.4504V47.0379H647.6C649.153 47.0379 650.413 48.2971 650.413 49.8504V56.1504C650.413 57.7037 649.153 58.9629 647.6 58.9629H635C633.447 58.9629 632.188 57.7037 632.188 56.1504V49.8504C632.188 48.2971 633.447 47.0379 635 47.0379H635.789ZM638.836 41.9843C639.49 41.3303 640.377 40.9629 641.302 40.9629C642.227 40.9629 643.114 41.3303 643.768 41.9843C644.422 42.6384 644.789 43.5254 644.789 44.4504V47.0379H637.814V44.4504C637.814 43.5254 638.182 42.6384 638.836 41.9843ZM635 49.0629C634.565 49.0629 634.213 49.4154 634.213 49.8504V56.1504C634.213 56.5853 634.565 56.9379 635 56.9379H647.6C648.035 56.9379 648.388 56.5853 648.388 56.1504V49.8504C648.388 49.4154 648.035 49.0629 647.6 49.0629H635Z" clip-rule="evenodd" fill-rule="evenodd"></path>
</g>
<rect fill="#BB5504" rx="21.6" height="43.2" width="64.8" y="513.3" x="608.898"></rect>
<g clip-path="url(#clip6_64_9059)">
<path fill="white" d="M635.789 533.038V530.45C635.789 528.988 636.37 527.586 637.404 526.552C638.438 525.519 639.84 524.938 641.302 524.938C642.764 524.938 644.166 525.519 645.2 526.552C646.233 527.586 646.814 528.988 646.814 530.45V533.038H647.6C649.153 533.038 650.413 534.297 650.413 535.85V542.15C650.413 543.704 649.153 544.963 647.6 544.963H635C633.447 544.963 632.188 543.704 632.188 542.15V535.85C632.188 534.297 633.447 533.038 635 533.038H635.789ZM638.836 527.984C639.49 527.33 640.377 526.963 641.302 526.963C642.227 526.963 643.114 527.33 643.768 527.984C644.422 528.638 644.789 529.525 644.789 530.45V533.038H637.814V530.45C637.814 529.525 638.182 528.638 638.836 527.984ZM635 535.063C634.565 535.063 634.213 535.415 634.213 535.85V542.15C634.213 542.585 634.565 542.938 635 542.938H647.6C648.035 542.938 648.388 542.585 648.388 542.15V535.85C648.388 535.415 648.035 535.063 647.6 535.063H635Z" clip-rule="evenodd" fill-rule="evenodd"></path>
</g>
<rect fill="#BB5504" rx="21.6" height="43.2" width="64.8" y="270.3" x="851.102"></rect>
<g clip-path="url(#clip7_64_9059)">
<path fill="white" d="M877.992 290.038V287.45C877.992 285.988 878.573 284.586 879.607 283.552C880.641 282.519 882.043 281.938 883.505 281.938C884.967 281.938 886.369 282.519 887.403 283.552C888.437 284.586 889.017 285.988 889.017 287.45V290.038H889.803C891.356 290.038 892.616 291.297 892.616 292.85V299.15C892.616 300.704 891.356 301.963 889.803 301.963H877.203C875.65 301.963 874.391 300.704 874.391 299.15V292.85C874.391 291.297 875.65 290.038 877.203 290.038H877.992ZM881.039 284.984C881.693 284.33 882.58 283.963 883.505 283.963C884.43 283.963 885.317 284.33 885.971 284.984C886.625 285.638 886.992 286.525 886.992 287.45V290.038H880.017V287.45C880.017 286.525 880.385 285.638 881.039 284.984ZM877.203 292.063C876.768 292.063 876.416 292.415 876.416 292.85V299.15C876.416 299.585 876.768 299.938 877.203 299.938H889.803C890.238 299.938 890.591 299.585 890.591 299.15V292.85C890.591 292.415 890.238 292.063 889.803 292.063H877.203Z" clip-rule="evenodd" fill-rule="evenodd"></path>
</g>
<rect fill="#BB5504" rx="21.6" height="43.2" width="64.8" y="270.3" x="364.102"></rect>
<g clip-path="url(#clip8_64_9059)">
<path fill="white" d="M390.992 290.038V287.45C390.992 285.988 391.573 284.586 392.607 283.552C393.641 282.519 395.043 281.938 396.505 281.938C397.967 281.938 399.369 282.519 400.403 283.552C401.437 284.586 402.017 285.988 402.017 287.45V290.038H402.803C404.356 290.038 405.616 291.297 405.616 292.85V299.15C405.616 300.704 404.356 301.963 402.803 301.963H390.203C388.65 301.963 387.391 300.704 387.391 299.15V292.85C387.391 291.297 388.65 290.038 390.203 290.038H390.992ZM394.039 284.984C394.693 284.33 395.58 283.963 396.505 283.963C397.43 283.963 398.317 284.33 398.971 284.984C399.625 285.638 399.992 286.525 399.992 287.45V290.038H393.017V287.45C393.017 286.525 393.385 285.638 394.039 284.984ZM390.203 292.063C389.768 292.063 389.416 292.415 389.416 292.85V299.15C389.416 299.585 389.768 299.938 390.203 299.938H402.803C403.238 299.938 403.591 299.585 403.591 299.15V292.85C403.591 292.415 403.238 292.063 402.803 292.063H390.203Z" clip-rule="evenodd" fill-rule="evenodd"></path>
</g>
</g>
<defs>
<clipPath id="clip0_64_9059">
<rect fill="white" rx="12" height="584" width="1280"></rect>
</clipPath>
<clipPath id="clip1_64_9059">
<rect transform="translate(440.102 126.3)" fill="white" height="21.6" width="21.6"></rect>
</clipPath>
<clipPath id="clip2_64_9059">
<rect transform="translate(827.102 126.3)" fill="white" height="21.6" width="21.6"></rect>
</clipPath>
<clipPath id="clip3_64_9059">
<rect transform="translate(440.102 439.5)" fill="white" height="21.6" width="21.6"></rect>
</clipPath>
<clipPath id="clip4_64_9059">
<rect transform="translate(632.703 38.1001)" fill="white" height="21.6" width="21.6"></rect>
</clipPath>
<clipPath id="clip5_64_9059">
<rect transform="translate(630.5 38.1001)" fill="white" height="21.6" width="21.6"></rect>
</clipPath>
<clipPath id="clip6_64_9059">
<rect transform="translate(630.5 524.1)" fill="white" height="21.6" width="21.6"></rect>
</clipPath>
<clipPath id="clip7_64_9059">
<rect transform="translate(872.703 281.1)" fill="white" height="21.6" width="21.6"></rect>
</clipPath>
<clipPath id="clip8_64_9059">
<rect transform="translate(385.703 281.1)" fill="white" height="21.6" width="21.6"></rect>
</clipPath>
</defs>
</svg>
