<svg width="139" height="140" viewBox="0 0 139 140" fill="none" xmlns="http://www.w3.org/2000/svg">
<rect x="0.304688" y="0.605469" width="138.697" height="138.697" rx="12" fill="black"></rect>
<path fill-rule="evenodd" clip-rule="evenodd" d="M70.7384 39.5508C53.4644 39.5508 39.5 53.8565 39.5 71.5546C39.5 85.7017 48.4475 97.6768 60.86 101.915C62.4118 102.234 62.9803 101.227 62.9803 100.379C62.9803 99.6374 62.9291 97.0942 62.9291 94.4444C54.2394 96.3523 52.4298 90.6293 52.4298 90.6293C51.0333 86.9203 48.9641 85.967 48.9641 85.967C46.12 84.0064 49.1713 84.0064 49.1713 84.0064C52.3262 84.2184 53.9817 87.2915 53.9817 87.2915C56.774 92.1659 61.2737 90.7886 63.0839 89.9407C63.3422 87.8742 64.1703 86.4436 65.0495 85.649C58.1188 84.907 50.8268 82.1519 50.8268 69.8587C50.8268 66.3616 52.0672 63.5005 54.0328 61.2753C53.7227 60.4807 52.6363 57.1949 54.3436 52.7972C54.3436 52.7972 56.9812 51.9493 62.9285 56.0823C65.4747 55.3818 68.1006 55.0254 70.7384 55.0224C73.376 55.0224 76.0648 55.3937 78.5477 56.0823C84.4956 51.9493 87.1333 52.7972 87.1333 52.7972C88.8405 57.1949 87.7535 60.4807 87.4434 61.2753C89.4608 63.5005 90.6501 66.3616 90.6501 69.8587C90.6501 82.1519 83.3581 84.8537 76.3756 85.649C77.5138 86.6556 78.4959 88.5628 78.4959 91.5833C78.4959 95.875 78.4448 99.3194 78.4448 100.379C78.4448 101.227 79.0139 102.234 80.5651 101.916C92.9776 97.6762 101.925 85.7017 101.925 71.5546C101.976 53.8565 87.9607 39.5508 70.7384 39.5508Z" fill="white"></path>
</svg>
