<svg width="139" height="140" viewBox="0 0 139 140" fill="none" xmlns="http://www.w3.org/2000/svg">
<rect x="0.0078125" y="0.605469" width="138.697" height="138.697" rx="12" fill="#326EE5"></rect>
<g clip-path="url(#clip0_74_46846)">
<path d="M69.2598 39.3394C68.6973 39.3724 68.1471 39.5181 67.642 39.7679L45.7337 50.218C44.5897 50.7625 43.7582 51.7985 43.4731 53.033L38.1106 76.4868C37.855 77.5876 38.0614 78.7415 38.7003 79.6851C38.775 79.7991 38.8536 79.9092 38.9362 80.0154L54.0724 98.8358C54.8725 99.8187 56.0736 100.383 57.3395 100.377H81.6165C82.8864 100.379 84.0894 99.7872 84.8875 98.8181L100.016 79.9937C100.81 79.0108 101.107 77.7134 100.802 76.4829L95.4042 53.0094C95.1192 51.7749 94.2838 50.7389 93.1436 50.1944L71.2708 39.7699C70.6405 39.459 69.9423 39.311 69.2401 39.3394H69.2598Z" fill="white"></path>
<path d="M69.4603 47.332C68.7055 47.3851 68.1335 48.0319 68.1728 48.7867V49.1563C68.2082 49.575 68.2711 49.9898 68.3536 50.4006C68.4742 51.1874 68.5176 51.984 68.4834 52.7792C68.4087 53.0407 68.2593 53.2766 68.0548 53.4574L68.0253 54.0118C67.2292 54.0786 66.439 54.2005 65.6605 54.3774C62.3856 55.1165 59.4036 56.815 57.1017 59.2624L56.6299 58.9282C56.3704 59.0068 56.0913 58.9773 55.8534 58.8496C55.2154 58.3773 54.6248 57.844 54.0902 57.2573C53.8216 56.9364 53.5348 56.6312 53.2311 56.3432L52.9402 56.1112C52.6807 55.9028 52.3623 55.7829 52.0301 55.7672C51.8318 55.7567 51.6339 55.7932 51.4525 55.8739C51.271 55.9545 51.1113 56.0769 50.9862 56.2311C50.542 56.8543 50.6874 57.7173 51.3086 58.1635L51.5799 58.3797C51.9291 58.6121 52.2914 58.8241 52.665 59.0147C53.3609 59.4019 54.0174 59.856 54.6268 60.3907C54.7827 60.613 54.8733 60.8745 54.8882 61.1456L55.3168 61.5388C53.0031 65.0103 52.0536 69.2151 52.6473 73.3452L52.0969 73.5025C51.9534 73.7305 51.7627 73.9252 51.5347 74.0687C50.7668 74.2737 49.9807 74.4034 49.1876 74.4559C48.7667 74.4645 48.3466 74.4973 47.9295 74.5542L47.5816 74.6328H47.5423C47.3008 74.6663 47.0734 74.7662 46.8853 74.9213C46.6973 75.0764 46.5559 75.2807 46.4771 75.5113C46.3982 75.742 46.3849 75.99 46.4387 76.2278C46.4924 76.4656 46.6111 76.6838 46.7815 76.8581C46.9535 77.0315 47.1703 77.1537 47.4078 77.211C47.6452 77.2683 47.8939 77.2584 48.1261 77.1825H48.1516L48.5055 77.1431C48.9045 77.0252 49.2977 76.8797 49.681 76.7146C50.4181 76.4197 51.1828 76.1937 51.9652 76.0462C52.2365 76.062 52.4959 76.1544 52.7161 76.3116L53.3058 76.2133C54.5836 80.1783 57.2688 83.5378 60.8543 85.655L60.6145 86.1563C60.7246 86.3863 60.7658 86.6418 60.7324 86.8954C60.4081 87.6463 60.011 88.3658 59.5471 89.042C59.2926 89.3775 59.0576 89.7273 58.8433 90.0898L58.6762 90.4436C58.555 90.6539 58.4943 90.8936 58.5007 91.1363C58.5071 91.379 58.5805 91.6151 58.7127 91.8187C58.8449 92.0223 59.0308 92.1854 59.2498 92.29C59.4689 92.3946 59.7126 92.4366 59.954 92.4114C60.196 92.3842 60.4257 92.2904 60.6176 92.1405C60.8095 91.9906 60.9561 91.7904 61.041 91.5622L61.2042 91.228C61.3536 90.8348 61.4794 90.4338 61.5816 90.0289C61.9296 89.1698 62.1183 88.2479 62.594 87.6778C62.7495 87.5316 62.9454 87.4357 63.1562 87.4026L63.451 86.8659C67.3378 88.3599 71.6385 88.3704 75.5325 86.8954L75.794 87.3967C76.0613 87.436 76.3011 87.5834 76.4623 87.7997C76.8319 88.5034 77.1307 89.2406 77.3587 90.0013C77.4627 90.4087 77.59 90.8097 77.7401 91.2024L77.9032 91.5366C77.989 91.7639 78.136 91.9631 78.328 92.1121C78.52 92.2611 78.7494 92.354 78.9909 92.3807C79.2325 92.4073 79.4767 92.3666 79.6965 92.2631C79.9163 92.1596 80.1032 91.9973 80.2366 91.7941C80.3686 91.5898 80.4414 91.3528 80.4469 91.1096C80.4525 90.8663 80.3906 90.6263 80.268 90.4161L80.097 90.0623C79.8827 89.7011 79.6477 89.3525 79.3933 89.0184C78.9411 88.3658 78.5519 87.6699 78.2138 86.9406C78.1823 86.8073 78.1778 86.669 78.2008 86.5339C78.2238 86.3988 78.2736 86.2697 78.3475 86.1543C78.2636 85.9828 78.1907 85.8062 78.1293 85.6255C81.7069 83.4926 84.3804 80.1213 85.6443 76.1504L86.2026 76.2487C86.4031 76.0659 86.6665 75.9696 86.9358 75.9774C87.7162 76.1268 88.4809 76.3706 89.22 76.6458C89.6033 76.8227 89.9965 76.9721 90.3955 77.0979C90.4899 77.1235 90.6275 77.1451 90.7336 77.1707H90.7592C90.9912 77.2456 91.2395 77.2546 91.4763 77.1968C91.7132 77.139 91.9294 77.0165 92.1007 76.8431C92.2721 76.6697 92.392 76.4521 92.447 76.2146C92.502 75.977 92.4901 75.7289 92.4124 75.4978C92.3329 75.2669 92.1909 75.0626 92.002 74.9078C91.8132 74.753 91.585 74.6537 91.343 74.621L90.9617 74.5306C90.5446 74.4737 90.1245 74.4409 89.7036 74.4323C88.9094 74.3812 88.1231 74.2515 87.3565 74.0451C87.1206 73.9134 86.924 73.7168 86.7904 73.4789L86.2596 73.3217C86.8255 69.1935 85.856 65.0012 83.5351 61.5407L83.999 61.1122C83.9793 60.8429 84.0678 60.5755 84.2428 60.3691C84.8462 59.8501 85.5008 59.3921 86.1888 59.0009C86.5624 58.8102 86.9247 58.5982 87.2739 58.366L87.5609 58.134C87.7722 58.0029 87.9421 57.8145 88.0509 57.5909C88.1596 57.3672 88.2028 57.1173 88.1754 56.8701C88.1481 56.6229 88.0513 56.3885 87.8963 56.194C87.7413 55.9995 87.5344 55.8529 87.2995 55.7711C87.0648 55.6895 86.8118 55.6758 86.5697 55.7318C86.3276 55.7878 86.1063 55.9112 85.9313 56.0876L85.6404 56.3196C85.3368 56.6076 85.05 56.9128 84.7814 57.2337C84.2624 57.8274 83.6884 58.3679 83.0653 58.8515C82.8138 58.9539 82.5387 58.9839 82.2711 58.938L81.7738 59.2919C78.9038 56.2842 75.0372 54.4167 70.8934 54.0432C70.8934 53.8466 70.8678 53.5518 70.8639 53.4594C70.6417 53.306 70.4865 53.0721 70.4353 52.8067C70.4081 52.0129 70.4581 51.2182 70.5847 50.434C70.6693 50.0212 70.7282 49.6084 70.7656 49.1897V48.7965C70.8049 48.0417 70.2348 47.3949 69.478 47.3419L69.4603 47.332ZM67.8209 57.4873L67.4278 64.3538H67.3983C67.3786 64.7784 67.129 65.1401 66.7456 65.3445C66.3623 65.5489 65.9082 65.488 65.5662 65.2384L59.9343 61.2478C61.7269 59.4871 63.9757 58.2623 66.4272 57.7114C66.8872 57.6131 67.3511 57.5384 67.817 57.4873H67.8209ZM71.0998 57.4873C74.0582 57.8549 76.8122 59.1837 78.9431 61.2694L73.3643 65.2344C73.0203 65.5096 72.5485 65.5647 72.1495 65.376C71.7504 65.1872 71.4949 64.7862 71.489 64.3459L71.0998 57.4873ZM57.8899 63.8309L63.0402 68.4269V68.4563C63.3606 68.7355 63.5002 69.1699 63.4058 69.5847C63.3115 69.9995 62.993 70.3278 62.5861 70.4398V70.4595L55.9773 72.3604C55.6502 69.3828 56.3239 66.3811 57.8919 63.8289L57.8899 63.8309ZM80.9934 63.8309C82.5581 66.3765 83.2501 69.3626 82.9631 72.3368L76.3444 70.43V70.4044C75.9316 70.2924 75.6171 69.9641 75.5247 69.5493C75.4323 69.1345 75.5699 68.704 75.8903 68.421L81.0012 63.8466L80.9934 63.8309ZM68.4047 68.7846H70.512L71.7996 70.4202L71.3317 72.4646L69.4387 73.3747L67.5418 72.4646L67.0955 70.4202L68.4047 68.7846ZM75.1551 74.3635C75.2436 74.3537 75.3517 74.3537 75.4205 74.3635L82.2357 75.5135C81.2529 78.3442 79.3127 80.7622 76.7808 82.38L74.1467 76.003C74.0743 75.8319 74.044 75.6459 74.0584 75.4607C74.0729 75.2755 74.1316 75.0964 74.2297 74.9386C74.3277 74.7809 74.4623 74.6489 74.6219 74.554C74.7816 74.459 74.9618 74.4038 75.1472 74.393L75.1551 74.3635ZM63.7086 74.393C64.0938 74.3989 64.4496 74.5975 64.66 74.9198C64.8703 75.2422 64.9037 75.6472 64.7524 76.001V76.0266L62.134 82.3525C59.6277 80.7464 57.7248 78.358 56.7125 75.5568L63.4687 74.4107C63.5434 74.4028 63.6201 74.4028 63.6968 74.4107L63.7086 74.393ZM69.4171 77.1451C69.6319 77.1383 69.8443 77.1914 70.0307 77.2983C70.2171 77.4052 70.3701 77.5618 70.4727 77.7506H70.4983L73.8282 83.76L72.4974 84.1531C70.0481 84.7134 67.4907 84.5817 65.1101 83.7718L68.4519 77.7624C68.6544 77.4085 69.0279 77.1923 69.4348 77.1825L69.4171 77.1451Z" fill="#326EE5" stroke="white" stroke-width="0.108117"></path>
</g>
<defs>
<clipPath id="clip0_74_46846">
<rect width="62.9039" height="62.9051" fill="white" transform="translate(38.0039 38.4043)"></rect>
</clipPath>
</defs>
</svg>
