<svg width="140" height="141" viewBox="0 0 140 141" fill="none" xmlns="http://www.w3.org/2000/svg">
<rect x="0.648438" y="0.605469" width="138.697" height="139.653" rx="12" fill="#F6F4F2"></rect>
<path fill-rule="evenodd" clip-rule="evenodd" d="M72.6094 45.8936C76.602 40.7458 82.1523 40.7207 82.1523 40.7207C82.1523 40.7207 82.9779 45.5605 79.0117 50.2229C74.7767 55.2013 69.9629 54.3867 69.9629 54.3867C69.9629 54.3867 69.059 50.4715 72.6094 45.8936V45.8936ZM70.4707 57.777C72.5247 57.777 76.3366 55.0149 81.2984 55.0149C89.8394 55.0149 93.1994 60.9604 93.1994 60.9604C93.1994 60.9604 86.6278 64.2473 86.6278 72.2228C86.6278 81.2199 94.8142 84.3207 94.8142 84.3207C94.8142 84.3207 89.0916 100.078 81.362 100.078C77.8118 100.078 75.0519 97.7373 71.3112 97.7373C67.4993 97.7373 63.7166 100.165 61.2526 100.165C54.1944 100.165 45.2773 85.2179 45.2773 73.203C45.2773 61.3818 52.8251 55.1805 59.9045 55.1805C64.5067 55.1805 68.0781 57.777 70.4707 57.777V57.777Z" fill="black"></path>
</svg>
