<svg width="140" height="140" viewBox="0 0 140 140" fill="none" xmlns="http://www.w3.org/2000/svg">
<rect x="0.648438" y="0.214844" width="138.697" height="139.653" rx="12" fill="#2396ED"></rect>
<path d="M90.3289 56.2245L88.8751 55.1519L87.8637 56.6937C86.5995 58.7046 85.9675 61.52 86.157 64.2013C86.2203 65.1398 86.5363 66.8156 87.4845 68.2903C86.5995 68.8266 84.7665 69.4969 82.3644 69.4969H36.6632L36.5369 70.0332C36.0944 72.7145 36.0944 81.0935 41.2776 87.5286C45.1967 92.422 51.012 94.9021 58.6605 94.9021C75.2216 94.9021 87.4845 86.7912 93.2366 72.1111C95.5122 72.1781 100.379 72.1111 102.845 67.0837L102.845 67.0823C102.909 66.9477 103.036 66.6779 103.477 65.6761L103.73 65.1398L102.339 64.2684C100.822 63.1958 97.3454 62.7937 94.6273 63.3299C94.3112 60.6486 92.8574 58.3025 90.3289 56.2245Z" fill="white"></path>
<path d="M48.5468 68.1563V61.453H41.5937V68.1563H48.5468Z" fill="white"></path>
<path d="M56.7642 68.1563V61.453H49.811V68.1563H56.7642Z" fill="white"></path>
<path d="M64.9816 68.1563V61.453H58.0284V68.1563H64.9816Z" fill="white"></path>
<path d="M73.1989 68.1563V61.453H66.2458V68.1563H73.1989Z" fill="white"></path>
<path d="M81.4163 68.1563V61.453H74.4631V68.1563H81.4163Z" fill="white"></path>
<path d="M73.1989 60.1124V53.4091H66.2458V60.1124H73.1989Z" fill="white"></path>
<path d="M64.9816 60.1124V53.4091H58.0284V60.1124H64.9816Z" fill="white"></path>
<path d="M56.7642 60.1124V53.4091H49.811V60.1124H56.7642Z" fill="white"></path>
<path d="M73.1989 52.0685V45.3652H66.2458V52.0685H73.1989Z" fill="white"></path>
</svg>
