<svg width="139" height="140" viewBox="0 0 139 140" fill="none" xmlns="http://www.w3.org/2000/svg">
<rect y="0.605469" width="138.697" height="138.697" rx="12" fill="#FF9A22"></rect>
<path fill-rule="evenodd" clip-rule="evenodd" d="M74.7652 39.6494C76.5963 42.8778 75.483 46.9905 72.2785 48.8353L52.3547 60.3056C51.8272 60.6093 51.502 61.173 51.502 61.7834V79.7949C51.502 80.4053 51.8272 80.969 52.3547 81.2727L68.1188 90.3482C68.6417 90.6492 69.2844 90.6492 69.8071 90.3482L85.5713 81.2727C86.0987 80.969 86.424 80.4053 86.424 79.7949V68.5938L72.2469 76.6528C69.0326 78.4801 64.9565 77.336 63.1429 74.0977C61.3294 70.8592 62.4648 66.7526 65.6791 64.9255L85.9648 53.394C92.1441 49.8815 99.7893 54.3794 99.7893 61.5275V81.1599C99.7893 85.7583 97.3435 90.004 93.381 92.2855L75.2732 102.71C71.3631 104.961 66.5629 104.961 62.6529 102.71L44.5451 92.2855C40.5823 90.004 38.1367 85.7583 38.1367 81.1599V60.4184C38.1367 55.8202 40.5823 51.5743 44.5451 49.293L65.6476 37.1441C68.852 35.2993 72.9341 36.4209 74.7652 39.6494Z" fill="white"></path>
</svg>
