<svg width="28" height="28" viewBox="0 0 28 28" fill="none" xmlns="http://www.w3.org/2000/svg"><rect x="0.439453" width="27.2195" height="27.2195" rx="13.6098" fill="currentColor"></rect><path class=" transition-colors duration-300 group-hover:fill-heading-black" d="M8.68685 18.6518H10.8825V11.5871H8.68685V18.6518Z" fill="white"></path><path class=" transition-colors duration-300 group-hover:fill-heading-black" d="M8.50195 9.34036C8.50195 10.0352 9.07976 10.6143 9.77312 10.6143C10.4896 10.6143 11.0443 10.0584 11.0443 9.34036C11.0443 8.64547 10.4665 8.06641 9.77312 8.06641C9.07976 8.06641 8.50195 8.64547 8.50195 9.34036Z" fill="white"></path><path class=" transition-colors duration-300 group-hover:fill-heading-black" d="M16.8917 18.6518H19.0873V14.7836C19.0873 12.8843 18.6713 11.425 16.4525 11.425C15.3894 11.425 14.6729 12.0041 14.3724 12.56H14.3493V11.5871H12.2461V18.6518H14.4418V15.1542C14.4418 14.2509 14.6267 13.3475 15.7592 13.3475C16.8686 13.3475 16.8917 14.413 16.8917 15.2237V18.6518Z" fill="white"></path></svg>