<svg width="400" height="430" viewBox="0 0 400 430" fill="none" xmlns="http://www.w3.org/2000/svg">
<rect width="400" height="429" transform="translate(0 0.800781)" fill="#175134"></rect>
<g clip-path="url(#clip0_786_87626)">
<rect x="81.0508" y="46.9336" width="237.901" height="335.772" rx="12.0456" fill="#FAF9F8"></rect>
<ellipse cx="130.817" cy="97.0684" rx="1.81685" ry="1.78319" fill="#141414"></ellipse>
<ellipse cx="136.266" cy="97.0684" rx="1.81685" ry="1.78319" fill="#141414"></ellipse>
<ellipse opacity="0.2" cx="130.817" cy="102.416" rx="1.81685" ry="1.78319" fill="#141414"></ellipse>
<ellipse opacity="0.2" cx="141.719" cy="102.416" rx="1.81685" ry="1.78319" fill="#141414"></ellipse>
<ellipse cx="136.266" cy="102.416" rx="1.81685" ry="1.78319" fill="#141414"></ellipse>
<ellipse cx="141.719" cy="97.0684" rx="1.81685" ry="1.78319" fill="#141414"></ellipse>
<ellipse opacity="0.2" cx="130.817" cy="91.7168" rx="1.81685" ry="1.78319" fill="#141414"></ellipse>
<ellipse opacity="0.2" cx="136.266" cy="91.7168" rx="1.81685" ry="1.78319" fill="#141414"></ellipse>
<ellipse opacity="0.2" cx="141.719" cy="91.7168" rx="1.81685" ry="1.78319" fill="#141414"></ellipse>
<path d="M154.539 103.115C155.053 103.115 155.471 103.067 155.969 102.973V101.143C155.664 101.253 155.326 101.285 155.005 101.285C154.217 101.285 153.928 100.906 153.928 100.18V96.4574H155.969V94.6274H153.928V91.9141H151.678V94.6274H150.215V96.4574H151.678V100.385C151.678 102.121 152.61 103.115 154.539 103.115Z" fill="#141414"></path>
<path d="M159.644 103.115C160.849 103.115 161.653 102.72 162.055 102.105C162.087 102.373 162.184 102.736 162.312 102.957H164.337C164.225 102.578 164.144 101.979 164.144 101.584V97.2619C164.144 95.4793 162.843 94.4697 160.641 94.4697C158.969 94.4697 157.667 95.0849 156.944 95.9841L158.23 97.2304C158.808 96.5993 159.548 96.2681 160.448 96.2681C161.541 96.2681 162.023 96.6309 162.023 97.1673C162.023 97.6247 161.701 97.9402 159.965 97.9402C158.294 97.9402 156.606 98.6186 156.606 100.512C156.606 102.263 157.892 103.115 159.644 103.115ZM160.094 101.442C159.226 101.442 158.824 101.08 158.824 100.433C158.824 99.8648 159.306 99.4862 160.11 99.4862C161.396 99.4862 161.75 99.4074 162.023 99.1392V99.8175C162.023 100.717 161.251 101.442 160.094 101.442Z" fill="#141414"></path>
<path d="M165.607 93.5705H167.954V91.5039H165.607V93.5705ZM165.655 102.957H167.906V94.6274H165.655V102.957Z" fill="#141414"></path>
<path d="M169.545 102.957H171.795V91.7563H169.545V102.957Z" fill="#141414"></path>
<path d="M176.472 103.115C178.948 103.115 180.218 101.837 180.218 100.496C180.218 99.2812 179.591 98.382 177.533 98.0191C176.087 97.7667 175.187 97.4512 175.187 96.9622C175.187 96.5362 175.701 96.2365 176.569 96.2365C177.34 96.2365 177.983 96.4889 178.466 97.0411L179.896 95.8579C179.173 94.9745 177.983 94.4697 176.569 94.4697C174.399 94.4697 173.049 95.6055 173.049 96.9937C173.049 98.5082 174.463 99.1865 175.99 99.4547C177.26 99.6755 177.967 99.9122 177.967 100.449C177.967 100.906 177.469 101.285 176.521 101.285C175.588 101.285 174.865 100.859 174.528 100.228L172.631 101.111C173.097 102.247 174.688 103.115 176.472 103.115Z" fill="#141414"></path>
<path d="M185.248 103.115C186.856 103.115 188.013 102.484 188.881 101.064L187.081 100.165C186.743 100.827 186.197 101.285 185.248 101.285C183.818 101.285 183.046 100.149 183.046 98.7763C183.046 97.4039 183.866 96.2996 185.248 96.2996C186.116 96.2996 186.695 96.7571 187.032 97.4512L188.849 96.5047C188.238 95.1953 187.032 94.4697 185.248 94.4697C182.307 94.4697 180.796 96.5836 180.796 98.7763C180.796 101.158 182.628 103.115 185.248 103.115Z" fill="#141414"></path>
<path d="M192.465 103.115C193.671 103.115 194.474 102.72 194.876 102.105C194.908 102.373 195.005 102.736 195.133 102.957H197.159C197.046 102.578 196.966 101.979 196.966 101.584V97.2619C196.966 95.4793 195.664 94.4697 193.462 94.4697C191.79 94.4697 190.488 95.0849 189.765 95.9841L191.051 97.2304C191.629 96.5993 192.369 96.2681 193.269 96.2681C194.362 96.2681 194.844 96.6309 194.844 97.1673C194.844 97.6247 194.523 97.9402 192.787 97.9402C191.115 97.9402 189.427 98.6186 189.427 100.512C189.427 102.263 190.713 103.115 192.465 103.115ZM192.915 101.442C192.047 101.442 191.646 101.08 191.646 100.433C191.646 99.8648 192.128 99.4862 192.931 99.4862C194.217 99.4862 194.571 99.4074 194.844 99.1392V99.8175C194.844 100.717 194.073 101.442 192.915 101.442Z" fill="#141414"></path>
<path d="M198.288 102.957H200.539V91.7563H198.288V102.957Z" fill="#141414"></path>
<path d="M205.939 103.115C207.595 103.115 208.929 102.468 209.668 101.316L207.964 100.243C207.514 100.938 206.92 101.316 205.939 101.316C204.83 101.316 204.026 100.717 203.817 99.5493H210.215V98.7763C210.215 96.5836 208.848 94.4697 205.923 94.4697C203.142 94.4697 201.631 96.5993 201.631 98.7921C201.631 101.916 204.026 103.115 205.939 103.115ZM203.898 97.814C204.251 96.7571 204.991 96.2681 205.971 96.2681C207.08 96.2681 207.755 96.9149 207.98 97.814H203.898Z" fill="#141414"></path>
<path d="M137.693 152.353H140.706L142.827 155.118L143.828 156.347L147.208 160.757H144.076L141.816 157.814L141.043 156.743L137.693 152.353ZM147.862 148.785C147.862 150.952 147.466 152.815 146.673 154.374C145.88 155.927 144.793 157.123 143.412 157.962C142.038 158.795 140.475 159.211 138.724 159.211C136.966 159.211 135.397 158.795 134.016 157.962C132.642 157.123 131.558 155.924 130.765 154.365C129.972 152.805 129.576 150.945 129.576 148.785C129.576 146.617 129.972 144.757 130.765 143.204C131.558 141.645 132.642 140.449 134.016 139.617C135.397 138.777 136.966 138.358 138.724 138.358C140.475 138.358 142.038 138.777 143.412 139.617C144.793 140.449 145.88 141.645 146.673 143.204C147.466 144.757 147.862 146.617 147.862 148.785ZM144.829 148.785C144.829 147.133 144.562 145.742 144.026 144.612C143.498 143.475 142.771 142.616 141.846 142.035C140.928 141.447 139.887 141.153 138.724 141.153C137.554 141.153 136.51 141.447 135.592 142.035C134.674 142.616 133.947 143.475 133.412 144.612C132.883 145.742 132.619 147.133 132.619 148.785C132.619 150.436 132.883 151.831 133.412 152.967C133.947 154.097 134.674 154.956 135.592 155.544C136.51 156.125 137.554 156.416 138.724 156.416C139.887 156.416 140.928 156.125 141.846 155.544C142.771 154.956 143.498 154.097 144.026 152.967C144.562 151.831 144.829 150.436 144.829 148.785ZM160.528 152.62V143.71H163.501V158.934H160.587V156.297H160.429C160.079 157.11 159.517 157.787 158.744 158.329C157.977 158.864 157.023 159.132 155.88 159.132C154.902 159.132 154.036 158.917 153.283 158.488C152.536 158.051 151.948 157.407 151.519 156.555C151.096 155.703 150.884 154.649 150.884 153.393V143.71H153.848V153.036C153.848 154.074 154.135 154.9 154.71 155.514C155.285 156.129 156.032 156.436 156.95 156.436C157.505 156.436 158.057 156.297 158.605 156.02C159.16 155.742 159.619 155.323 159.983 154.761C160.353 154.199 160.535 153.486 160.528 152.62ZM166.925 158.934V143.71H169.888V158.934H166.925ZM168.422 141.361C167.906 141.361 167.463 141.189 167.093 140.846C166.73 140.495 166.548 140.079 166.548 139.597C166.548 139.108 166.73 138.692 167.093 138.348C167.463 137.998 167.906 137.823 168.422 137.823C168.937 137.823 169.376 137.998 169.74 138.348C170.11 138.692 170.295 139.108 170.295 139.597C170.295 140.079 170.11 140.495 169.74 140.846C169.376 141.189 168.937 141.361 168.422 141.361ZM179.73 159.241C178.256 159.241 176.987 158.907 175.924 158.24C174.866 157.566 174.054 156.637 173.485 155.455C172.917 154.272 172.633 152.917 172.633 151.391C172.633 149.845 172.924 148.481 173.505 147.298C174.087 146.108 174.906 145.18 175.963 144.513C177.02 143.845 178.266 143.512 179.7 143.512C180.856 143.512 181.887 143.726 182.792 144.156C183.697 144.579 184.427 145.174 184.982 145.94C185.544 146.706 185.878 147.602 185.984 148.626H183.099C182.941 147.912 182.577 147.298 182.009 146.782C181.447 146.267 180.694 146.009 179.749 146.009C178.923 146.009 178.2 146.227 177.579 146.664C176.964 147.093 176.485 147.707 176.142 148.507C175.798 149.3 175.626 150.238 175.626 151.322C175.626 152.432 175.795 153.39 176.132 154.196C176.469 155.002 176.944 155.627 177.559 156.069C178.18 156.512 178.91 156.733 179.749 156.733C180.311 156.733 180.82 156.631 181.276 156.426C181.738 156.215 182.125 155.914 182.435 155.524C182.752 155.134 182.974 154.665 183.099 154.117H185.984C185.878 155.101 185.557 155.98 185.022 156.753C184.487 157.526 183.77 158.134 182.871 158.577C181.979 159.019 180.932 159.241 179.73 159.241ZM191.32 153.77L191.3 150.152H191.816L197.881 143.71H201.429L194.511 151.044H194.046L191.32 153.77ZM188.594 158.934V138.635H191.558V158.934H188.594ZM198.208 158.934L192.757 151.698L194.799 149.627L201.846 158.934H198.208ZM214.98 147.427L212.294 147.902C212.182 147.559 212.003 147.232 211.759 146.921C211.521 146.611 211.197 146.356 210.787 146.158C210.378 145.96 209.866 145.861 209.251 145.861C208.412 145.861 207.712 146.049 207.15 146.426C206.588 146.796 206.308 147.275 206.308 147.863C206.308 148.372 206.496 148.781 206.873 149.092C207.249 149.402 207.857 149.657 208.696 149.855L211.115 150.41C212.515 150.734 213.559 151.233 214.246 151.907C214.934 152.581 215.277 153.456 215.277 154.533C215.277 155.445 215.013 156.258 214.484 156.971C213.962 157.678 213.232 158.233 212.294 158.636C211.362 159.039 210.282 159.241 209.053 159.241C207.348 159.241 205.957 158.877 204.88 158.151C203.803 157.417 203.143 156.376 202.898 155.029L205.762 154.592C205.941 155.339 206.308 155.904 206.863 156.287C207.418 156.664 208.141 156.852 209.033 156.852C210.004 156.852 210.781 156.651 211.362 156.248C211.944 155.838 212.234 155.339 212.234 154.751C212.234 154.275 212.056 153.876 211.699 153.552C211.349 153.228 210.811 152.984 210.084 152.818L207.507 152.253C206.086 151.93 205.036 151.414 204.355 150.707C203.681 150 203.344 149.105 203.344 148.021C203.344 147.123 203.595 146.336 204.097 145.662C204.6 144.989 205.293 144.463 206.179 144.087C207.064 143.703 208.078 143.512 209.221 143.512C210.867 143.512 212.162 143.869 213.107 144.582C214.052 145.289 214.676 146.237 214.98 147.427ZM225.084 143.71V146.089H216.768V143.71H225.084ZM218.998 140.063H221.962V154.464C221.962 155.038 222.048 155.471 222.219 155.762C222.391 156.046 222.612 156.241 222.883 156.347C223.161 156.446 223.462 156.495 223.785 156.495C224.023 156.495 224.231 156.479 224.41 156.446C224.588 156.413 224.727 156.386 224.826 156.367L225.361 158.815C225.189 158.881 224.945 158.947 224.628 159.013C224.311 159.086 223.914 159.125 223.438 159.132C222.659 159.145 221.932 159.006 221.258 158.716C220.584 158.425 220.039 157.976 219.623 157.368C219.206 156.76 218.998 155.997 218.998 155.078V140.063ZM232.234 159.271C231.269 159.271 230.397 159.092 229.617 158.735C228.838 158.372 228.22 157.847 227.764 157.159C227.315 156.472 227.09 155.63 227.09 154.632C227.09 153.773 227.255 153.066 227.586 152.511C227.916 151.956 228.362 151.517 228.924 151.193C229.485 150.869 230.113 150.625 230.807 150.459C231.501 150.294 232.208 150.169 232.928 150.083C233.84 149.977 234.58 149.891 235.148 149.825C235.716 149.752 236.129 149.637 236.387 149.478C236.644 149.32 236.773 149.062 236.773 148.705V148.636C236.773 147.77 236.529 147.1 236.04 146.624C235.558 146.148 234.837 145.91 233.879 145.91C232.881 145.91 232.095 146.132 231.52 146.574C230.952 147.01 230.559 147.496 230.341 148.031L227.556 147.397C227.886 146.472 228.369 145.725 229.003 145.157C229.644 144.582 230.381 144.166 231.213 143.908C232.046 143.644 232.921 143.512 233.84 143.512C234.447 143.512 235.092 143.584 235.772 143.73C236.459 143.869 237.1 144.126 237.695 144.503C238.296 144.879 238.789 145.418 239.172 146.118C239.555 146.812 239.747 147.714 239.747 148.824V158.934H236.853V156.852H236.734C236.542 157.235 236.255 157.612 235.871 157.982C235.488 158.352 234.996 158.659 234.395 158.904C233.793 159.148 233.073 159.271 232.234 159.271ZM232.878 156.892C233.697 156.892 234.398 156.73 234.979 156.406C235.567 156.082 236.013 155.66 236.317 155.138C236.628 154.609 236.783 154.044 236.783 153.443V151.48C236.677 151.586 236.473 151.685 236.169 151.778C235.871 151.864 235.531 151.94 235.148 152.006C234.765 152.065 234.391 152.121 234.028 152.174C233.664 152.22 233.361 152.26 233.116 152.293C232.541 152.366 232.016 152.488 231.54 152.66C231.071 152.832 230.694 153.079 230.41 153.403C230.133 153.72 229.994 154.143 229.994 154.672C229.994 155.405 230.265 155.96 230.807 156.337C231.349 156.707 232.039 156.892 232.878 156.892ZM243.136 158.934V143.71H246V146.128H246.159C246.436 145.309 246.925 144.665 247.625 144.196C248.332 143.72 249.132 143.482 250.024 143.482C250.209 143.482 250.427 143.489 250.678 143.502C250.936 143.515 251.137 143.532 251.283 143.551V146.386C251.164 146.353 250.952 146.317 250.648 146.277C250.344 146.231 250.04 146.208 249.736 146.208C249.036 146.208 248.412 146.356 247.863 146.654C247.321 146.944 246.892 147.351 246.575 147.873C246.258 148.388 246.099 148.976 246.099 149.637V158.934H243.136ZM261.295 143.71V146.089H252.979V143.71H261.295ZM255.209 140.063H258.173V154.464C258.173 155.038 258.259 155.471 258.43 155.762C258.602 156.046 258.824 156.241 259.094 156.347C259.372 156.446 259.673 156.495 259.996 156.495C260.234 156.495 260.442 156.479 260.621 156.446C260.799 156.413 260.938 156.386 261.037 156.367L261.572 158.815C261.4 158.881 261.156 158.947 260.839 159.013C260.522 159.086 260.125 159.125 259.649 159.132C258.87 159.145 258.143 159.006 257.469 158.716C256.795 158.425 256.25 157.976 255.834 157.368C255.417 156.76 255.209 155.997 255.209 155.078V140.063Z" fill="#302C2C"></path>
<path d="M138.125 181.533C138.015 181.19 137.868 180.882 137.683 180.61C137.502 180.334 137.285 180.1 137.032 179.908C136.779 179.711 136.49 179.562 136.165 179.46C135.844 179.358 135.491 179.307 135.106 179.307C134.453 179.307 133.864 179.475 133.339 179.811C132.814 180.148 132.398 180.64 132.093 181.29C131.791 181.936 131.639 182.727 131.639 183.663C131.639 184.603 131.792 185.398 132.098 186.048C132.404 186.697 132.823 187.19 133.356 187.526C133.888 187.862 134.494 188.03 135.174 188.03C135.804 188.03 136.354 187.902 136.822 187.645C137.294 187.388 137.659 187.026 137.915 186.557C138.176 186.085 138.306 185.53 138.306 184.892L138.759 184.977H135.44V183.533H140V184.853C140 185.827 139.792 186.673 139.377 187.39C138.965 188.104 138.395 188.655 137.666 189.044C136.941 189.433 136.11 189.627 135.174 189.627C134.124 189.627 133.203 189.386 132.41 188.902C131.621 188.419 131.005 187.734 130.563 186.846C130.121 185.955 129.901 184.898 129.901 183.674C129.901 182.749 130.029 181.919 130.286 181.182C130.543 180.446 130.903 179.821 131.368 179.307C131.836 178.79 132.385 178.395 133.016 178.124C133.65 177.848 134.343 177.71 135.095 177.71C135.721 177.71 136.305 177.803 136.845 177.988C137.389 178.173 137.872 178.435 138.295 178.775C138.721 179.115 139.075 179.519 139.354 179.987C139.633 180.452 139.822 180.967 139.92 181.533H138.125ZM147.597 185.861V180.769H149.296V189.469H147.631V187.962H147.54C147.34 188.427 147.019 188.814 146.577 189.123C146.139 189.429 145.593 189.582 144.94 189.582C144.381 189.582 143.887 189.459 143.456 189.214C143.029 188.965 142.693 188.596 142.448 188.109C142.206 187.622 142.085 187.02 142.085 186.303V180.769H143.779V186.099C143.779 186.691 143.943 187.163 144.272 187.515C144.6 187.866 145.027 188.041 145.552 188.041C145.869 188.041 146.184 187.962 146.498 187.804C146.815 187.645 147.077 187.405 147.285 187.084C147.497 186.763 147.6 186.355 147.597 185.861ZM151.571 189.469V180.769H153.265V189.469H151.571ZM152.427 179.426C152.132 179.426 151.879 179.328 151.668 179.132C151.46 178.932 151.356 178.694 151.356 178.418C151.356 178.139 151.46 177.901 151.668 177.704C151.879 177.504 152.132 177.404 152.427 177.404C152.721 177.404 152.972 177.504 153.18 177.704C153.391 177.901 153.497 178.139 153.497 178.418C153.497 178.694 153.391 178.932 153.18 179.132C152.972 179.328 152.721 179.426 152.427 179.426ZM158.8 189.639C158.098 189.639 157.471 189.459 156.92 189.101C156.372 188.738 155.942 188.223 155.628 187.554C155.319 186.882 155.164 186.076 155.164 185.136C155.164 184.195 155.321 183.391 155.634 182.723C155.951 182.054 156.385 181.543 156.937 181.188C157.488 180.833 158.113 180.655 158.812 180.655C159.352 180.655 159.786 180.746 160.114 180.927C160.447 181.105 160.703 181.312 160.885 181.55C161.07 181.788 161.213 181.998 161.315 182.179H161.417V177.869H163.111V189.469H161.457V188.115H161.315C161.213 188.3 161.066 188.512 160.873 188.749C160.684 188.987 160.424 189.195 160.092 189.372C159.759 189.55 159.329 189.639 158.8 189.639ZM159.174 188.194C159.661 188.194 160.073 188.066 160.409 187.809C160.749 187.549 161.005 187.188 161.179 186.727C161.357 186.267 161.445 185.73 161.445 185.119C161.445 184.515 161.358 183.986 161.185 183.533C161.011 183.08 160.756 182.727 160.42 182.474C160.084 182.221 159.669 182.094 159.174 182.094C158.664 182.094 158.239 182.226 157.9 182.491C157.56 182.755 157.303 183.116 157.129 183.572C156.959 184.029 156.874 184.545 156.874 185.119C156.874 185.7 156.961 186.223 157.135 186.688C157.309 187.152 157.565 187.52 157.905 187.792C158.249 188.06 158.672 188.194 159.174 188.194ZM169.277 189.644C168.42 189.644 167.682 189.461 167.063 189.095C166.447 188.725 165.971 188.206 165.635 187.537C165.303 186.865 165.137 186.078 165.137 185.175C165.137 184.284 165.303 183.499 165.635 182.819C165.971 182.139 166.44 181.609 167.04 181.227C167.644 180.846 168.35 180.655 169.158 180.655C169.649 180.655 170.125 180.737 170.586 180.899C171.046 181.061 171.46 181.316 171.826 181.664C172.192 182.011 172.481 182.462 172.693 183.017C172.904 183.569 173.01 184.239 173.01 185.028V185.628H166.094V184.36H171.35C171.35 183.914 171.26 183.52 171.079 183.176C170.897 182.829 170.642 182.555 170.314 182.355C169.989 182.155 169.608 182.054 169.17 182.054C168.694 182.054 168.279 182.172 167.924 182.406C167.572 182.636 167.301 182.938 167.108 183.312C166.919 183.682 166.825 184.084 166.825 184.518V185.51C166.825 186.091 166.927 186.586 167.131 186.994C167.338 187.401 167.627 187.713 167.997 187.928C168.367 188.14 168.8 188.245 169.294 188.245C169.615 188.245 169.908 188.2 170.172 188.109C170.437 188.015 170.665 187.875 170.858 187.69C171.05 187.505 171.197 187.277 171.299 187.005L172.902 187.294C172.774 187.766 172.544 188.179 172.211 188.534C171.883 188.885 171.469 189.159 170.971 189.355C170.476 189.548 169.912 189.644 169.277 189.644Z" fill="#787676"></path>
<path d="M81 46.9336H107V382.934H81V46.9336Z" fill="#E6E4E2"></path>
<path d="M227.328 339.036C227.328 308.677 254.117 284.078 287.179 284.078C320.242 284.078 347.031 308.677 347.031 339.036H227.328Z" fill="#487961"></path>
<path d="M227.328 393.888C227.328 363.529 254.117 338.93 287.179 338.93C320.242 338.93 347.031 363.529 347.031 393.888H227.328Z" fill="#487961"></path>
<path d="M227.328 284.833C227.328 251.147 254.117 223.852 287.179 223.852C320.242 223.852 347.031 251.147 347.031 284.833H227.328Z" fill="#487961"></path>
<path d="M106.119 339.036C106.119 308.677 133.246 284.078 166.724 284.078C200.202 284.078 227.328 308.677 227.328 339.036H106.119Z" fill="#487961"></path>
<path d="M106.119 393.888C106.119 363.529 133.246 338.93 166.724 338.93C200.202 338.93 227.328 363.529 227.328 393.888H106.119Z" fill="#487961"></path>
</g>
<defs>
<clipPath id="clip0_786_87626">
<rect x="81.0508" y="46.9336" width="237.901" height="335.772" rx="12.0456" fill="white"></rect>
</clipPath>
</defs>
</svg>
