<svg class="" width="17" height="17" viewBox="0 0 17 17" fill="none" xmlns="http://www.w3.org/2000/svg"><g clip-path="url(#clip0_74_78367)"><path d="M9.03228 3.3017C8.73939 3.00881 8.26452 3.00881 7.97162 3.3017C7.67873 3.59459 7.67873 4.06947 7.97162 4.36236L11.3583 7.74902H3.83594C3.42172 7.74902 3.08594 8.08481 3.08594 8.49902C3.08594 8.91324 3.42172 9.24902 3.83594 9.24902H11.3576L7.97162 12.635C7.67873 12.9279 7.67873 13.4028 7.97162 13.6957C8.26452 13.9886 8.73939 13.9886 9.03228 13.6957L13.6763 9.0517C13.8256 8.9146 13.9193 8.71775 13.9193 8.49902C13.9193 8.2852 13.8298 8.09228 13.6862 7.95566L9.03228 3.3017Z" fill="black"></path></g><defs><clipPath id="clip0_74_78367"><rect width="16" height="16" fill="white" transform="translate(0.5 0.5)"></rect></clipPath></defs></svg>