<svg width="199" height="81" viewBox="0 0 199 81" fill="none" xmlns="http://www.w3.org/2000/svg">
<g clip-path="url(#clip0_74_46665)">
<path d="M28.844 20C17.9341 20 9 28.9851 9 40.0638V40.1511C9 51.317 17.9341 60.3021 28.844 60.3021C39.8398 60.3021 48.688 51.2298 48.688 40.1511C48.7739 29.0723 39.8398 20 28.844 20ZM23.8615 21.9191C25.3219 21.483 26.9541 21.2213 28.5863 21.2213C28.6722 21.2213 28.7581 21.2213 28.844 21.2213C28.9299 21.2213 29.0158 21.2213 29.1017 21.2213C31.6789 21.3085 33.8265 22.966 34.7714 25.234C34.9432 25.7574 35.1151 26.1936 35.201 26.717C35.2869 26.9787 35.2869 27.3277 35.2869 27.6766C35.2869 29.1596 34.7714 30.4681 33.9983 31.6021C33.1392 31.0787 32.1943 30.7298 31.2493 30.4681C32.0225 29.7702 32.452 28.8106 32.452 27.7638C32.452 26.9787 32.1943 26.2809 31.7648 25.6702C31.0775 24.7979 30.0467 24.1872 28.844 24.1872C26.7823 24.1872 24.8065 24.6234 22.9166 25.3213C22.4011 25.4957 21.8857 25.7574 21.4562 26.0191C18.6213 27.5021 16.3019 29.8574 14.8415 32.7362C13.2952 33.0851 11.9208 33.9574 10.8899 35.1787C12.6939 28.7234 17.5905 23.6638 23.8615 21.9191ZM36.4895 27.4149C38.5512 28.6362 40.2693 30.3809 41.472 32.4745C41.3861 32.4745 41.3002 32.4745 41.2143 32.4745C39.4962 32.4745 37.9499 32.9979 36.7472 33.9574C36.2318 33.3468 35.7164 32.7362 35.0291 32.2128C35.9741 30.9043 36.4895 29.334 36.4895 27.6766C36.4895 27.5894 36.4895 27.5021 36.4895 27.4149ZM43.276 37.1851C42.6747 36.7489 41.9874 36.4872 41.2143 36.4872C40.0975 36.4872 39.1526 36.9234 38.5512 37.7085C37.9499 38.3191 37.6922 39.1915 37.6922 40.1511C37.6922 41.7213 37.2627 43.2043 36.5754 44.5128C36.4036 44.8617 36.1459 45.2106 35.8882 45.5596C35.4587 46.1702 34.8573 46.6936 34.3419 47.1298C33.6547 46.4319 32.7956 45.8213 31.7648 45.4723C32.7956 44.9489 33.6547 44.0766 34.256 42.9426C34.6855 42.1574 34.9432 41.1106 34.9432 40.1511C34.9432 38.4936 35.5446 36.9234 36.5754 35.7894C36.8331 35.5277 37.1768 35.1787 37.4345 34.917C38.5512 34.1319 39.8398 33.6085 41.3002 33.6085C41.6438 33.6085 41.9874 33.6085 42.2451 33.6957C42.6747 34.8298 43.0183 35.9638 43.276 37.1851ZM43.5337 40.0638V40.1511V40.2383C43.4478 41.5468 42.417 42.5936 41.1284 42.5936C39.8398 42.5936 38.7231 41.4596 38.7231 40.1511C38.7231 38.8426 39.8398 37.7085 41.1284 37.7085C42.417 37.7085 43.5337 38.7553 43.5337 40.0638ZM35.0291 48.0894C35.6305 47.566 36.2318 47.0426 36.7472 46.3447C38.0358 47.3043 39.5821 47.8277 41.2143 47.8277C41.3002 47.8277 41.3861 47.8277 41.472 47.8277C40.2693 49.9213 38.5512 51.666 36.4895 52.8872C36.4895 52.8 36.4895 52.7128 36.4895 52.6255C36.4895 50.9681 35.8882 49.3106 35.0291 48.0894ZM31.2493 49.9213C30.648 49.3106 29.789 49.0489 28.844 49.0489C27.2977 49.0489 25.8373 48.6128 24.5488 47.9149C24.2051 47.7404 23.8615 47.4787 23.5179 47.217C22.9166 46.7809 22.4011 46.1702 21.9716 45.6468C22.6589 44.9489 23.2602 44.0766 23.6897 43.0298C24.2051 44.0766 25.0642 44.9489 26.181 45.5596C26.9541 45.9957 27.985 46.2574 28.9299 46.2574C30.5621 46.2574 32.1084 46.8681 33.2251 47.9149C33.4829 48.1766 33.8265 48.5255 34.0842 48.7872C34.8573 49.9213 35.3728 51.2298 35.3728 52.7128C35.3728 53.0617 35.3728 53.3234 35.2869 53.6723C34.1701 54.1957 33.0533 54.5447 31.8507 54.8064C32.2802 54.1957 32.5379 53.4979 32.5379 52.7128C32.452 51.5787 32.0225 50.6191 31.2493 49.9213ZM31.2493 52.6255C31.2493 53.8468 30.3044 54.8936 29.1017 55.0681C29.0158 55.0681 28.9299 55.0681 28.844 55.0681C28.7581 55.0681 28.6722 55.0681 28.5863 55.0681C27.3836 54.9809 26.4387 53.934 26.4387 52.6255C26.4387 51.317 27.5554 50.183 28.844 50.183C30.2185 50.2702 31.2493 51.317 31.2493 52.6255ZM21.2844 52.8872C19.2227 51.666 17.5046 49.834 16.3019 47.8277C16.3878 47.8277 16.4737 47.8277 16.5596 47.8277C18.2777 47.8277 19.824 47.3043 21.0267 46.3447C21.5421 46.9553 22.1434 47.566 22.7448 48.0894C21.7998 49.3979 21.2844 50.9681 21.2844 52.6255C21.2844 52.8 21.2844 52.8872 21.2844 52.8872ZM16.5596 43.8149C17.5905 43.8149 18.5354 43.3787 19.2227 42.5936L19.3086 42.5064C19.3945 42.4191 19.3945 42.3319 19.4804 42.2447L19.5663 42.1574C19.5663 42.1574 19.5663 42.0702 19.6522 42.0702C19.6522 41.983 19.7381 41.983 19.7381 41.8957C19.7381 41.8957 19.7381 41.8085 19.824 41.8085C19.824 41.7213 19.824 41.7213 19.9099 41.634V41.5468V41.4596C19.9099 41.3723 19.9099 41.2851 19.9958 41.2851V41.1979V41.1106V41.0234V40.9362C19.9958 40.8489 19.9958 40.8489 19.9958 40.7617V40.6745C19.9958 40.5872 19.9958 40.5872 19.9958 40.5C19.9958 38.9298 20.4253 37.4468 21.1126 36.1383C21.2844 35.7894 21.5421 35.4404 21.7998 35.0915C22.2293 34.4809 22.7448 33.9574 23.3461 33.5213C24.0333 34.2191 24.8924 34.8298 25.9232 35.266C24.8924 35.7894 24.0333 36.6617 23.432 37.7957C23.0025 38.5809 22.7448 39.5404 22.7448 40.5872C22.7448 42.2447 22.0575 43.8149 21.0267 44.9489C20.769 45.2106 20.4253 45.5596 20.1676 45.734C19.0509 46.5191 17.7623 47.0426 16.3878 47.0426C16.0442 47.0426 15.7006 47.0426 15.357 46.9553C14.8415 45.8213 14.4979 44.6872 14.2402 43.466C15.0992 43.5532 15.7865 43.8149 16.5596 43.8149ZM14.1543 40.1511C14.1543 40.0638 14.1543 40.0638 14.1543 39.9766C14.2402 38.6681 15.271 37.6213 16.5596 37.6213C17.8482 37.6213 18.965 38.7553 18.965 40.0638C18.965 41.3723 17.8482 42.4191 16.5596 42.4191C15.271 42.5936 14.2402 41.5468 14.1543 40.1511ZM22.7448 32.3C22.1434 32.8234 21.5421 33.3468 21.1126 33.9574C19.824 32.9979 18.2777 32.4745 16.5596 32.4745C16.4737 32.4745 16.3878 32.4745 16.3019 32.4745C17.5046 30.4681 19.2227 28.7234 21.2844 27.4149C21.2844 27.5021 21.2844 27.5894 21.2844 27.6766C21.2844 29.4213 21.7998 30.9915 22.7448 32.3ZM26.5246 30.4681C27.1259 31.0787 27.985 31.3404 28.9299 31.3404C30.4762 31.3404 31.9366 31.7766 33.2251 32.4745C33.5688 32.6489 33.9124 32.9106 34.256 33.1723C34.8573 33.6085 35.3728 34.2191 35.8023 34.7426C35.1151 35.4404 34.5137 36.3128 34.1701 37.3596C33.6547 36.3128 32.7956 35.4404 31.6789 34.8298C30.9057 34.3936 29.8749 34.1319 28.9299 34.1319C27.2977 34.1319 25.7514 33.5213 24.6347 32.4745C24.377 32.2128 24.0333 31.8638 23.7756 31.6021C23.0025 30.4681 22.487 29.1596 22.487 27.6766C22.487 27.3277 22.4871 26.9787 22.573 26.717C23.6897 26.1936 24.8065 25.8447 26.0091 25.583C25.5796 26.1936 25.3219 26.9787 25.3219 27.7638C25.236 28.8106 25.7514 29.7702 26.5246 30.4681ZM26.4387 27.6766C26.4387 26.3681 27.4695 25.3213 28.7581 25.234H28.844H28.9299C30.2185 25.3213 31.2493 26.3681 31.2493 27.6766C31.2493 28.9851 30.1326 30.1191 28.844 30.1191C27.5554 30.1191 26.4387 29.0723 26.4387 27.6766ZM33.5688 40.1511C33.5688 42.7681 31.5071 44.9489 28.844 44.9489C26.181 44.9489 24.1192 42.8553 24.1192 40.1511C24.1192 37.534 26.2669 35.4404 28.844 35.4404C31.4211 35.4404 33.5688 37.534 33.5688 40.1511ZM10.8899 45.2106C10.4604 43.7277 10.2886 42.0702 10.2027 40.5C10.2027 40.4128 10.2027 40.3255 10.2027 40.2383V40.1511C10.2027 40.0638 10.2027 39.9766 10.2027 39.8894C10.2886 37.2723 11.9208 35.0915 14.1543 34.1319C14.6697 33.9574 15.0992 33.783 15.6147 33.6957C15.8724 33.6085 16.216 33.6085 16.5596 33.6085C18.02 33.6085 19.3086 34.1319 20.4253 34.917C19.9099 35.7894 19.5663 36.7489 19.3086 37.7085C18.6213 36.9234 17.6764 36.4872 16.6455 36.4872C15.8724 36.4872 15.1851 36.7489 14.5838 37.1851C13.7248 37.883 13.1234 38.9298 13.1234 40.0638V40.1511C13.1234 42.2447 13.553 44.2511 14.2402 46.083C14.412 46.6064 14.6697 47.1298 14.9274 47.566C16.3878 50.4447 18.7931 52.8872 21.628 54.3702C21.9716 55.9404 22.8307 57.3362 24.0333 58.383C17.5905 56.7255 12.608 51.5787 10.8899 45.2106ZM33.9124 58.4702C32.452 58.9064 30.8198 59.1681 29.1876 59.1681C29.1017 59.1681 29.0158 59.1681 28.9299 59.1681C28.844 59.1681 28.7581 59.1681 28.6722 59.1681C26.0951 59.0809 23.9474 57.4234 23.0025 55.1553C22.8307 54.6319 22.6589 54.1957 22.573 53.6723C22.4871 53.4106 22.487 53.0617 22.487 52.7128C22.487 51.2298 23.0025 49.9213 23.7756 48.7872C24.6347 49.3106 25.5796 49.6596 26.5246 49.9213C25.7514 50.5319 25.3219 51.5787 25.3219 52.6255C25.3219 53.4106 25.5796 54.1085 26.0091 54.7191C26.6105 55.5915 27.5554 56.1149 28.5863 56.2021C28.6722 56.2021 28.7581 56.2021 28.844 56.2021C28.9299 56.2021 29.0158 56.2021 29.1017 56.2021C31.0775 56.2021 32.9674 55.766 34.6855 55.0681C35.201 54.8936 35.7164 54.6319 36.1459 54.3702C38.9808 52.8872 41.3002 50.4447 42.8465 47.566C44.3928 47.217 45.7672 46.3447 46.7981 45.1234C45.1659 51.666 40.1834 56.7255 33.9124 58.4702ZM47.5712 40.1511C47.5712 40.2383 47.5712 40.3255 47.5712 40.4128C47.4853 43.0298 45.8531 45.2106 43.6196 46.1702C43.1042 46.3447 42.6747 46.5191 42.1592 46.6064C41.9015 46.6936 41.5579 46.6936 41.2143 46.6936C39.7539 46.6936 38.4653 46.1702 37.4345 45.3851C37.9499 44.5128 38.2935 43.5532 38.5512 42.5936C39.2385 43.3787 40.1834 43.8149 41.2143 43.8149C41.9874 43.8149 42.6747 43.5532 43.276 43.117C44.1351 42.4191 44.7364 41.3723 44.7364 40.1511C44.7364 38.0574 44.3069 36.0511 43.6196 34.1319C43.4478 33.6085 43.1901 33.0851 42.9324 32.6489C41.472 29.7702 39.0667 27.4149 36.2318 25.8447C35.8882 24.2745 35.0291 22.8787 33.8265 21.8319C40.0975 23.5766 45.08 28.6362 46.7981 35.0043C47.2276 36.4872 47.4853 38.1447 47.4853 39.8021C47.5712 39.9766 47.5712 40.0638 47.5712 40.1511Z" fill="#1F1F30"></path>
<path fill-rule="evenodd" clip-rule="evenodd" d="M66.6406 32.9922H70.7641L74.6298 43.6347H74.7157L78.4955 32.9922H82.6189V47.9964H80.0418V35.9581L75.4888 47.9964H73.6848L69.3037 35.9581V47.9964H66.8124V32.9922H66.6406ZM89.749 32.9922H99.5422V35.3475H92.4121V39.1858H99.1985V41.4539H92.4121V45.7283H99.9717V47.9964H89.749V32.9922ZM111.225 39.4475C111.569 39.4475 111.998 39.4475 112.342 39.3603C112.686 39.273 113.029 39.1858 113.373 39.0113C113.631 38.8369 113.888 38.6624 114.146 38.3134C114.318 38.0517 114.404 37.6156 114.404 37.1794C114.404 36.7432 114.318 36.3943 114.146 36.1326C113.974 35.8709 113.716 35.6964 113.459 35.522C113.201 35.3475 112.857 35.2603 112.514 35.173C112.17 35.0858 111.827 35.0858 111.483 35.0858H109.078V39.273H111.225V39.4475ZM106.415 32.9922H111.569C112.256 32.9922 112.943 33.0794 113.631 33.2539C114.318 33.4283 114.833 33.6028 115.349 33.9517C115.864 34.3007 116.294 34.7369 116.551 35.2603C116.895 35.7837 116.981 36.4815 116.981 37.2666C116.981 38.3134 116.637 39.273 116.036 39.8837C115.435 40.5815 114.575 41.0177 113.545 41.2794L117.496 47.9092H114.318L110.882 41.5411H108.992V47.9964H106.329V32.9922H106.415ZM134.162 36.4815C133.732 35.9581 133.303 35.522 132.616 35.3475C132.014 35.0858 131.413 34.9986 130.812 34.9986C130.038 34.9986 129.351 35.173 128.75 35.4347C128.148 35.6964 127.547 36.1326 127.118 36.5688C126.688 37.0922 126.344 37.6156 126.087 38.3134C125.829 39.0113 125.743 39.7092 125.743 40.4943C125.743 41.2794 125.829 42.0645 126.087 42.7624C126.344 43.4603 126.688 43.9837 127.118 44.5071C127.547 45.0305 128.063 45.3794 128.664 45.6411C129.265 45.9028 129.952 46.0773 130.726 46.0773C131.499 46.0773 132.186 45.9028 132.873 45.6411C133.475 45.2922 133.99 44.9432 134.334 44.4198L136.481 45.9028C135.794 46.7751 135.021 47.3858 134.076 47.822C133.131 48.2581 132.014 48.5198 130.726 48.5198C129.609 48.5198 128.492 48.3454 127.547 47.9092C126.602 47.5603 125.743 46.9496 125.056 46.2517C124.369 45.5539 123.853 44.6815 123.424 43.722C122.994 42.7624 122.822 41.7156 122.822 40.4943C122.822 39.273 122.994 38.2262 123.424 37.2666C123.853 36.3071 124.369 35.4347 125.142 34.8241C125.829 34.1262 126.688 33.6028 127.633 33.2539C128.578 32.9049 129.695 32.7305 130.812 32.7305C131.327 32.7305 131.756 32.8177 132.272 32.9049C132.787 32.9922 133.303 33.1666 133.732 33.3411C134.248 33.5156 134.677 33.7773 135.107 34.039C135.536 34.3007 135.88 34.6496 136.138 35.0858L134.162 36.4815ZM153.662 42.5007C153.662 43.373 153.49 44.2454 153.233 44.9432C152.889 45.6411 152.545 46.2517 151.944 46.7751C151.429 47.2986 150.827 47.6475 150.054 47.9092C149.367 48.1709 148.508 48.3454 147.735 48.3454C146.962 48.3454 146.103 48.1709 145.415 47.9092C144.728 47.6475 144.041 47.2113 143.525 46.7751C143.01 46.2517 142.58 45.6411 142.237 44.9432C141.893 44.2454 141.807 43.373 141.807 42.5007V32.9922H144.47V42.4134C144.47 42.8496 144.556 43.2858 144.642 43.722C144.728 44.1581 144.9 44.5071 145.158 44.856C145.415 45.2049 145.759 45.4666 146.188 45.6411C146.618 45.8156 147.133 45.99 147.735 45.99C148.336 45.99 148.852 45.9028 149.281 45.6411C149.711 45.3794 150.054 45.1177 150.312 44.856C150.57 44.5071 150.741 44.1581 150.827 43.722C150.913 43.2858 150.999 42.8496 150.999 42.4134V32.9922H153.662V42.5007ZM165.517 39.273C165.861 39.273 166.241 39.273 166.648 39.273C166.992 39.1858 167.321 39.1858 167.665 39.0113C167.922 38.8369 168.18 38.6624 168.438 38.3134C168.61 38.0517 168.696 37.6156 168.696 37.1794C168.696 36.7432 168.61 36.3943 168.438 36.1326C168.266 35.8709 168.008 35.6964 167.751 35.522C167.493 35.3475 167.149 35.2603 166.806 35.173C166.462 35.0858 166.118 35.0858 165.775 35.0858H163.369V39.273H165.517ZM160.792 32.9922H165.947C166.634 32.9922 167.321 33.0794 168.008 33.2539C168.696 33.4283 169.211 33.6028 169.726 33.9517C170.242 34.3007 170.671 34.7369 170.929 35.2603C171.273 35.7837 171.359 36.4815 171.359 37.2666C171.359 38.3134 171.015 39.273 170.414 39.8837C169.812 40.5815 168.953 41.0177 167.922 41.2794L171.874 47.9092H168.696L165.259 41.5411H163.369V47.9964H160.706V32.9922H160.792ZM181.238 41.4539L175.654 32.9922H178.832L182.526 39.273L186.306 32.9922H189.313L183.729 41.4539V47.9964H181.066V41.4539H181.238Z" fill="#1F1F30"></path>
</g>
<defs>
<clipPath id="clip0_74_46665">
<rect width="180.4" height="41" fill="white" transform="translate(9 20)"></rect>
</clipPath>
</defs>
</svg>
