<svg width="180" height="212" viewBox="0 0 180 212" fill="none" xmlns="http://www.w3.org/2000/svg">
<rect y="0.933594" width="180" height="210.968" rx="12" fill="white"></rect>
<path d="M31.6154 184.605C31.5756 184.233 31.408 183.944 31.1126 183.736C30.82 183.529 30.4393 183.425 29.9705 183.425C29.641 183.425 29.3583 183.475 29.1225 183.574C28.8867 183.674 28.7063 183.809 28.5813 183.979C28.4563 184.15 28.3924 184.344 28.3896 184.563C28.3896 184.745 28.4308 184.902 28.5131 185.036C28.5984 185.169 28.7134 185.283 28.8583 185.377C29.0032 185.468 29.1637 185.544 29.3398 185.607C29.516 185.669 29.6935 185.722 29.8725 185.765L30.6907 185.969C31.0202 186.046 31.337 186.15 31.641 186.28C31.9478 186.411 32.2219 186.576 32.4634 186.775C32.7077 186.973 32.9009 187.213 33.043 187.495C33.185 187.776 33.256 188.105 33.256 188.483C33.256 188.995 33.1254 189.445 32.864 189.834C32.6026 190.221 32.2248 190.523 31.7305 190.742C31.239 190.958 30.6438 191.066 29.945 191.066C29.266 191.066 28.6765 190.961 28.1765 190.75C27.6793 190.54 27.2901 190.233 27.0089 189.83C26.7305 189.426 26.5799 188.935 26.5572 188.355H28.1126C28.1353 188.659 28.229 188.912 28.3938 189.114C28.5586 189.316 28.7731 189.466 29.0373 189.566C29.3043 189.665 29.6026 189.715 29.9322 189.715C30.2759 189.715 30.5771 189.664 30.8356 189.561C31.0969 189.456 31.3015 189.311 31.4492 189.127C31.5969 188.939 31.6722 188.721 31.6751 188.471C31.6722 188.243 31.6055 188.056 31.4748 187.908C31.3441 187.757 31.1609 187.632 30.9251 187.533C30.6921 187.431 30.4194 187.34 30.1069 187.26L29.114 187.005C28.3952 186.82 27.8271 186.54 27.4094 186.165C26.9947 185.787 26.7873 185.286 26.7873 184.661C26.7873 184.147 26.9265 183.696 27.2049 183.31C27.4862 182.924 27.8683 182.624 28.3512 182.411C28.8342 182.195 29.381 182.087 29.9918 182.087C30.6112 182.087 31.1538 182.195 31.6197 182.411C32.0884 182.624 32.4563 182.921 32.7234 183.301C32.9904 183.679 33.1282 184.114 33.1367 184.605H31.6154ZM34.6655 190.934V182.206H40.3416V183.532H36.2464V185.901H40.0476V187.226H36.2464V189.608H40.3757V190.934H34.6655ZM49.4247 185.151H47.831C47.7855 184.89 47.7017 184.658 47.5795 184.456C47.4574 184.252 47.3054 184.078 47.1236 183.936C46.9418 183.794 46.7344 183.688 46.5014 183.617C46.2713 183.543 46.0227 183.506 45.7557 183.506C45.2813 183.506 44.8608 183.625 44.4943 183.864C44.1278 184.1 43.8409 184.446 43.6335 184.904C43.4261 185.358 43.3224 185.914 43.3224 186.57C43.3224 187.238 43.4261 187.8 43.6335 188.257C43.8438 188.712 44.1307 189.056 44.4943 189.289C44.8608 189.519 45.2798 189.634 45.7514 189.634C46.0128 189.634 46.2571 189.6 46.4844 189.532C46.7145 189.461 46.9205 189.357 47.1023 189.221C47.2869 189.084 47.4418 188.917 47.5668 188.718C47.6946 188.519 47.7827 188.292 47.831 188.036L49.4247 188.044C49.3651 188.459 49.2358 188.848 49.0369 189.212C48.8409 189.576 48.5838 189.897 48.2656 190.175C47.9474 190.451 47.5753 190.667 47.1491 190.823C46.723 190.976 46.25 191.053 45.7301 191.053C44.9631 191.053 44.2784 190.875 43.6761 190.52C43.0739 190.165 42.5994 189.652 42.2528 188.982C41.9063 188.311 41.733 187.507 41.733 186.57C41.733 185.63 41.9077 184.826 42.2571 184.158C42.6065 183.488 43.0824 182.975 43.6847 182.62C44.2869 182.265 44.9688 182.087 45.7301 182.087C46.2159 182.087 46.6676 182.155 47.0852 182.292C47.5028 182.428 47.875 182.628 48.2017 182.892C48.5284 183.154 48.7969 183.475 49.0071 183.855C49.2202 184.233 49.3594 184.665 49.4247 185.151ZM56.3739 182.206H57.9549V187.908C57.9549 188.533 57.8072 189.083 57.5117 189.557C57.2191 190.032 56.8072 190.402 56.2759 190.669C55.7447 190.934 55.1239 191.066 54.4137 191.066C53.7006 191.066 53.0785 190.934 52.5472 190.669C52.016 190.402 51.604 190.032 51.3114 189.557C51.0188 189.083 50.8725 188.533 50.8725 187.908V182.206H52.4535V187.776C52.4535 188.14 52.533 188.463 52.6921 188.748C52.854 189.032 53.0813 189.255 53.3739 189.417C53.6665 189.576 54.0131 189.655 54.4137 189.655C54.8143 189.655 55.1609 189.576 55.4535 189.417C55.7489 189.255 55.9762 189.032 56.1353 188.748C56.2944 188.463 56.3739 188.14 56.3739 187.776V182.206ZM59.6733 190.934V182.206H62.946C63.6165 182.206 64.179 182.323 64.6335 182.556C65.0909 182.789 65.4361 183.115 65.669 183.536C65.9048 183.953 66.0227 184.441 66.0227 184.998C66.0227 185.557 65.9034 186.043 65.6648 186.455C65.429 186.864 65.081 187.181 64.6207 187.405C64.1605 187.627 63.5952 187.738 62.9247 187.738H60.5938V186.425H62.7116C63.1037 186.425 63.4247 186.371 63.6747 186.263C63.9247 186.152 64.1094 185.992 64.2287 185.782C64.3509 185.569 64.4119 185.307 64.4119 184.998C64.4119 184.688 64.3509 184.424 64.2287 184.205C64.1065 183.983 63.9205 183.816 63.6705 183.702C63.4205 183.586 63.098 183.527 62.7031 183.527H61.2543V190.934H59.6733ZM64.1818 186.979L66.3423 190.934H64.5781L62.456 186.979H64.1818ZM69.0589 182.206V190.934H67.478V182.206H69.0589ZM70.3874 183.532V182.206H77.3505V183.532H74.6531V190.934H73.0849V183.532H70.3874ZM78.0962 182.206H79.8817L82.0167 186.067H82.1019L84.2369 182.206H86.0224L82.8477 187.678V190.934H81.271V187.678L78.0962 182.206ZM90.1186 190.934V182.206H93.4595C94.0902 182.206 94.6143 182.306 95.032 182.505C95.4524 182.701 95.7663 182.969 95.9737 183.31C96.1839 183.651 96.2891 184.037 96.2891 184.469C96.2891 184.824 96.2209 185.128 96.0845 185.381C95.9482 185.631 95.7649 185.834 95.5348 185.99C95.3047 186.147 95.0476 186.259 94.7635 186.327V186.412C95.0732 186.429 95.37 186.525 95.6541 186.698C95.9411 186.868 96.1754 187.11 96.3572 187.422C96.5391 187.735 96.63 188.113 96.63 188.556C96.63 189.007 96.5206 189.414 96.3018 189.775C96.0831 190.132 95.7536 190.415 95.3132 190.623C94.8729 190.83 94.3189 190.934 93.6513 190.934H90.1186ZM91.6996 189.613H93.3999C93.9737 189.613 94.3871 189.503 94.6399 189.284C94.8956 189.063 95.0234 188.779 95.0234 188.432C95.0234 188.174 94.9595 187.941 94.8317 187.733C94.7038 187.523 94.522 187.358 94.2862 187.239C94.0504 187.117 93.7692 187.056 93.4425 187.056H91.6996V189.613ZM91.6996 185.918H93.2635C93.5362 185.918 93.782 185.868 94.0007 185.769C94.2195 185.667 94.3913 185.523 94.5163 185.338C94.6442 185.151 94.7081 184.929 94.7081 184.674C94.7081 184.336 94.5888 184.057 94.3501 183.838C94.1143 183.62 93.7635 183.51 93.2976 183.51H91.6996V185.918ZM103.507 182.206H105.088V187.908C105.088 188.533 104.94 189.083 104.645 189.557C104.352 190.032 103.94 190.402 103.409 190.669C102.877 190.934 102.257 191.066 101.547 191.066C100.833 191.066 100.211 190.934 99.68 190.669C99.1488 190.402 98.7369 190.032 98.4442 189.557C98.1516 189.083 98.0053 188.533 98.0053 187.908V182.206H99.5863V187.776C99.5863 188.14 99.6658 188.463 99.8249 188.748C99.9869 189.032 100.214 189.255 100.507 189.417C100.799 189.576 101.146 189.655 101.547 189.655C101.947 189.655 102.294 189.576 102.586 189.417C102.882 189.255 103.109 189.032 103.268 188.748C103.427 188.463 103.507 188.14 103.507 187.776V182.206ZM106.806 190.934V182.206H108.387V189.608H112.231V190.934H106.806ZM113.603 190.934V182.206H115.184V189.608H119.028V190.934H113.603ZM120.4 190.934V182.206H126.076V183.532H121.981V185.901H125.782V187.226H121.981V189.608H126.11V190.934H120.4ZM127.305 183.532V182.206H134.268V183.532H131.571V190.934H130.003V183.532H127.305ZM137.192 182.206V190.934H135.611V182.206H137.192ZM146.076 182.206V190.934H144.669L140.557 184.989H140.485V190.934H138.904V182.206H140.319L144.426 188.155H144.503V182.206H146.076ZM152.541 184.605C152.501 184.233 152.334 183.944 152.038 183.736C151.746 183.529 151.365 183.425 150.896 183.425C150.567 183.425 150.284 183.475 150.048 183.574C149.813 183.674 149.632 183.809 149.507 183.979C149.382 184.15 149.318 184.344 149.315 184.563C149.315 184.745 149.357 184.902 149.439 185.036C149.524 185.169 149.639 185.283 149.784 185.377C149.929 185.468 150.089 185.544 150.266 185.607C150.442 185.669 150.619 185.722 150.798 185.765L151.616 185.969C151.946 186.046 152.263 186.15 152.567 186.28C152.874 186.411 153.148 186.576 153.389 186.775C153.634 186.973 153.827 187.213 153.969 187.495C154.111 187.776 154.182 188.105 154.182 188.483C154.182 188.995 154.051 189.445 153.79 189.834C153.528 190.221 153.151 190.523 152.656 190.742C152.165 190.958 151.57 191.066 150.871 191.066C150.192 191.066 149.602 190.961 149.102 190.75C148.605 190.54 148.216 190.233 147.935 189.83C147.656 189.426 147.506 188.935 147.483 188.355H149.038C149.061 188.659 149.155 188.912 149.32 189.114C149.484 189.316 149.699 189.466 149.963 189.566C150.23 189.665 150.528 189.715 150.858 189.715C151.202 189.715 151.503 189.664 151.761 189.561C152.023 189.456 152.227 189.311 152.375 189.127C152.523 188.939 152.598 188.721 152.601 188.471C152.598 188.243 152.531 188.056 152.401 187.908C152.27 187.757 152.087 187.632 151.851 187.533C151.618 187.431 151.345 187.34 151.033 187.26L150.04 187.005C149.321 186.82 148.753 186.54 148.335 186.165C147.92 185.787 147.713 185.286 147.713 184.661C147.713 184.147 147.852 183.696 148.131 183.31C148.412 182.924 148.794 182.624 149.277 182.411C149.76 182.195 150.307 182.087 150.918 182.087C151.537 182.087 152.08 182.195 152.545 182.411C153.014 182.624 153.382 182.921 153.649 183.301C153.916 183.679 154.054 184.114 154.062 184.605H152.541Z" fill="#666361"></path>
<rect x="48.3867" y="39.6406" width="83.2258" height="83.2258" rx="41.6129" fill="#2B2A2A"></rect>
<path fill-rule="evenodd" clip-rule="evenodd" d="M76.4029 63.067C77.3562 62.1137 78.6492 61.5781 79.9974 61.5781H93.3307C93.7949 61.5781 94.24 61.7625 94.5682 62.0907L104.568 72.0907C104.896 72.4189 105.081 72.864 105.081 73.3281V93.3281C105.081 94.6763 104.545 95.9693 103.592 96.9226C102.639 97.8759 101.346 98.4115 99.9974 98.4115H79.9974C78.6492 98.4115 77.3562 97.8759 76.4029 96.9226C75.4496 95.9693 74.9141 94.6763 74.9141 93.3281V66.6615C74.9141 65.3133 75.4496 64.0203 76.4029 63.067ZM79.9974 65.0781C79.5775 65.0781 79.1747 65.2449 78.8778 65.5419C78.5809 65.8388 78.4141 66.2415 78.4141 66.6615V93.3281C78.4141 93.748 78.5809 94.1508 78.8778 94.4477C79.1747 94.7446 79.5775 94.9115 79.9974 94.9115H99.9974C100.417 94.9115 100.82 94.7446 101.117 94.4477C101.414 94.1508 101.581 93.748 101.581 93.3281V74.053L92.6059 65.0781H79.9974Z" fill="white"></path>
<path fill-rule="evenodd" clip-rule="evenodd" d="M93.3307 61.5781C94.2972 61.5781 95.0807 62.3616 95.0807 63.3281V71.5781H103.331C104.297 71.5781 105.081 72.3616 105.081 73.3281C105.081 74.2946 104.297 75.0781 103.331 75.0781H93.3307C92.3642 75.0781 91.5807 74.2946 91.5807 73.3281V63.3281C91.5807 62.3616 92.3642 61.5781 93.3307 61.5781Z" fill="white"></path>
<path fill-rule="evenodd" clip-rule="evenodd" d="M81.5807 81.6615C81.5807 80.695 82.3642 79.9115 83.3307 79.9115H96.6641C97.6306 79.9115 98.4141 80.695 98.4141 81.6615C98.4141 82.628 97.6306 83.4115 96.6641 83.4115H83.3307C82.3642 83.4115 81.5807 82.628 81.5807 81.6615Z" fill="white"></path>
<path fill-rule="evenodd" clip-rule="evenodd" d="M81.5807 88.3281C81.5807 87.3616 82.3642 86.5781 83.3307 86.5781H96.6641C97.6306 86.5781 98.4141 87.3616 98.4141 88.3281C98.4141 89.2946 97.6306 90.0781 96.6641 90.0781H83.3307C82.3642 90.0781 81.5807 89.2946 81.5807 88.3281Z" fill="white"></path>
<path fill-rule="evenodd" clip-rule="evenodd" d="M81.5807 74.9948C81.5807 74.0283 82.3642 73.2448 83.3307 73.2448H86.6641C87.6306 73.2448 88.4141 74.0283 88.4141 74.9948C88.4141 75.9613 87.6306 76.7448 86.6641 76.7448H83.3307C82.3642 76.7448 81.5807 75.9613 81.5807 74.9948Z" fill="white"></path>
</svg>
