<svg width="140" height="140" viewBox="0 0 140 140" fill="none" xmlns="http://www.w3.org/2000/svg">
<rect x="0.65625" y="0.257812" width="138.697" height="139.653" rx="12" fill="#092F42"></rect>
<mask id="mask0_74_46875" style="mask-type:luminance" maskUnits="userSpaceOnUse" x="37" y="41" width="66" height="57">
<path d="M102.453 41.5117H37.4609V97.7856H102.453V41.5117Z" fill="white"></path>
</mask>
<g mask="url(#mask0_74_46875)">
<path d="M41.9936 88.0469C39.7589 88.0469 37.4609 89.8232 37.4609 92.9326C37.4609 95.775 39.4813 97.7827 41.9936 97.7827C44.0674 97.7827 44.9917 96.402 44.9917 96.402V97.0039C44.9917 97.2883 45.2628 97.6058 45.5984 97.6058H47.0974V88.2593H44.9917V89.4453C44.9917 89.4453 44.0597 88.0469 41.9936 88.0469ZM42.3687 89.958C44.2084 89.958 45.1735 91.563 45.1735 92.9318C45.1735 94.4566 44.0277 95.9046 42.3726 95.9046C40.9892 95.9046 39.6033 94.7932 39.6033 92.9117C39.6033 91.2134 40.7959 89.958 42.3687 89.958Z" fill="white"></path>
<path d="M50.0247 97.6086C49.7012 97.6086 49.418 97.3784 49.418 97.0067V88.2621H51.5237V89.4188C52.0009 88.7073 52.9331 88.0469 54.364 88.0469C56.7027 88.0469 57.948 89.8961 57.948 91.6254V97.6085H56.4847C56.101 97.6085 55.8423 97.2899 55.8423 96.9713V92.0857C55.8423 91.1271 55.2502 89.963 53.881 89.963C52.4035 89.963 51.5237 91.3481 51.5237 92.6521V97.6085L50.0247 97.6086Z" fill="white"></path>
<path d="M64.0873 88.0487C61.8526 88.0487 59.5547 89.8251 59.5547 92.9344C59.5547 95.7768 61.5751 97.7845 64.0873 97.7845C66.1611 97.7845 67.0853 96.4038 67.0853 96.4038V97.0057C67.0853 97.2902 67.3565 97.6075 67.6921 97.6075H69.1911V83.5879H67.0853V89.4471C67.0853 89.4471 66.1534 88.0487 64.0873 88.0487ZM64.4625 89.9598C66.3022 89.9598 67.2671 91.5648 67.2671 92.9336C67.2671 94.4583 66.1214 95.9064 64.4664 95.9064C63.0828 95.9064 61.697 94.795 61.697 92.9135C61.697 91.2152 62.8896 89.9598 64.4625 89.9598Z" fill="white"></path>
<path d="M72.1141 97.607C71.7908 97.607 71.5078 97.3767 71.5078 97.0051V88.2605H73.6129V89.8183C73.9759 88.9456 74.7582 88.1543 76.1476 88.1543C76.5344 88.1543 76.8966 88.2251 76.8966 88.2251V90.3846C76.8966 90.3846 76.4449 90.2077 75.8972 90.2077C74.4198 90.2077 73.6129 91.5927 73.6129 92.8968V97.607H72.1141Z" fill="white"></path>
<path d="M89.6774 97.6082C89.3541 97.6082 89.0703 97.3779 89.0703 97.0063V88.2617H91.1762V97.6082H89.6774Z" fill="white"></path>
<path d="M97.3484 88.0487C95.1141 88.0487 92.8164 89.8251 92.8164 92.9344C92.8164 95.7768 94.8367 97.7845 97.3484 97.7845C99.4226 97.7845 100.347 96.4038 100.347 96.4038V97.0057C100.347 97.2902 100.618 97.6075 100.953 97.6075H102.453V83.5879H100.347V89.4471C100.347 89.4471 99.4147 88.0487 97.3484 88.0487ZM97.7241 89.9598C99.5637 89.9598 100.528 91.5648 100.528 92.9336C100.528 94.4583 99.383 95.9064 97.7281 95.9064C96.3442 95.9064 94.958 94.795 94.958 92.9135C94.958 91.2152 96.1508 89.9598 97.7241 89.9598Z" fill="white"></path>
<path d="M90.1074 86.2466C90.8762 86.2466 91.5 85.6283 91.5 84.8655C91.5 84.1027 90.8762 83.4844 90.1074 83.4844C89.3386 83.4844 88.7148 84.1027 88.7148 84.8655C88.7148 85.6283 89.3386 86.2466 90.1074 86.2466Z" fill="white"></path>
<path d="M82.4507 88.0469C80.1102 88.0469 77.5391 89.7798 77.5391 92.919C77.5391 95.7797 79.729 97.7862 82.446 97.7862C85.7931 97.7862 87.4282 95.1166 87.4282 92.9372C87.4282 90.2627 85.3231 88.0469 82.4507 88.0469ZM82.4587 89.9975C84.0771 89.9975 85.2843 91.2914 85.2843 92.9249C85.2843 94.5867 84.0026 95.869 82.4634 95.869C81.0344 95.869 79.645 94.7155 79.645 92.9529C79.645 91.1608 80.9662 89.9975 82.4587 89.9975Z" fill="white"></path>
<path d="M85.8192 52.3969L91.2072 43.1391C91.5107 42.6201 91.3277 41.9609 90.8109 41.6593C90.2949 41.3577 89.6236 41.533 89.3264 42.052L83.8678 51.4291C79.7035 49.5424 75.0162 48.4904 69.9745 48.4904C64.9333 48.4904 60.2456 49.5424 56.0811 51.4291L50.6227 42.052C50.3187 41.533 49.6541 41.3577 49.1309 41.6593C48.6077 41.9609 48.4308 42.6201 48.7349 43.1391L54.1226 52.3969C44.832 57.3906 38.5393 66.7186 37.5 77.6386H102.449C101.409 66.7185 95.117 57.3905 85.8192 52.3969ZM55.0629 68.5912C53.5569 68.5912 52.3409 67.3778 52.3409 65.891C52.3409 64.3971 53.5641 63.1907 55.0629 63.1907C56.5689 63.1907 57.7851 64.4041 57.7851 65.891C57.7922 67.3778 56.5689 68.5912 55.0629 68.5912ZM84.8791 68.5912C83.3732 68.5912 82.1566 67.3778 82.1566 65.891C82.1566 64.3971 83.3804 63.1907 84.8791 63.1907C86.3851 63.1907 87.6009 64.4041 87.6009 65.891C87.608 67.3778 86.3851 68.5912 84.8791 68.5912Z" fill="#32DE84"></path>
</g>
</svg>
