<svg width="790" height="215" viewBox="0 0 790 215" fill="none" xmlns="http://www.w3.org/2000/svg">
<rect width="518.4" height="214.8" rx="16" fill="#343433"></rect>
<path d="M40.8 35.4C40.8 38.3823 38.3823 40.8 35.4 40.8C32.4177 40.8 30 38.3823 30 35.4C30 32.4177 32.4177 30 35.4 30C38.3823 30 40.8 32.4177 40.8 35.4Z" fill="#666361"></path>
<path d="M58.8 35.4C58.8 38.3823 56.3823 40.8 53.4 40.8C50.4177 40.8 48 38.3823 48 35.4C48 32.4177 50.4177 30 53.4 30C56.3823 30 58.8 32.4177 58.8 35.4Z" fill="#666361"></path>
<path d="M76.8 35.4C76.8 38.3823 74.3823 40.8 71.4 40.8C68.4177 40.8 66 38.3823 66 35.4C66 32.4177 68.4177 30 71.4 30C74.3823 30 76.8 32.4177 76.8 35.4Z" fill="#666361"></path>
<path opacity="0.2" d="M39.3555 79.8008H31.9873V78.6655H35.1074V70.6968H34.9902L31.9653 72.6523V71.2754L35.1147 69.2319H36.3818V78.6655H39.3555V79.8008ZM31.9946 92.2056C31.9946 90.3452 33.3716 89.0122 35.2979 89.0122C37.2388 89.0122 38.5718 90.2134 38.5718 91.9785C38.5718 93.0771 38.0737 93.9561 36.3892 95.7944L33.8989 98.5044V98.6289H38.7402V99.8008H32.0532V98.9072L35.6274 94.9302C36.9678 93.4287 37.29 92.8647 37.29 92.0298C37.29 90.8945 36.4917 90.1475 35.2612 90.1475C34.0454 90.1475 33.2397 90.9604 33.2397 92.2056V92.2495H31.9946V92.2056ZM34.0747 114.901V113.817H35.2246C36.4111 113.817 37.2388 113.041 37.2388 111.935C37.2388 110.858 36.4478 110.147 35.2539 110.147C34.0674 110.147 33.2764 110.843 33.1738 111.979H31.936C32.0605 110.147 33.3496 109.012 35.3052 109.012C37.1948 109.012 38.5425 110.147 38.5425 111.751C38.5425 113.026 37.876 113.934 36.7407 114.212V114.33C38.147 114.513 38.9819 115.501 38.9819 116.944C38.9819 118.739 37.4731 120.021 35.3638 120.021C33.2764 120.021 31.8262 118.819 31.731 116.996H32.9541C33.0713 118.124 34.0088 118.856 35.3271 118.856C36.7773 118.856 37.6782 118.109 37.6782 116.915C37.6782 115.685 36.748 114.901 35.2832 114.901H34.0747ZM36.6016 139.801V137.567H31.7822V136.52L35.3711 129.232H36.6895L33.1519 136.351V136.446H36.6162V133.429H37.7881V136.432H39.3994V137.567H37.7808V139.801H36.6016ZM35.2759 160.013C33.3057 160.013 31.9141 158.797 31.8042 156.981H33.0493C33.1665 158.087 34.1113 158.849 35.3491 158.849C36.7114 158.849 37.6196 157.889 37.6196 156.454C37.6196 155.003 36.7041 154.022 35.3491 154.022C34.4043 154.022 33.6206 154.454 33.2031 155.201H31.98L32.5146 149.232H38.2935V150.396H33.5327L33.2397 153.846H33.3569C33.877 153.216 34.6313 152.887 35.5615 152.887C37.5171 152.887 38.8794 154.344 38.8794 156.424C38.8794 158.563 37.4219 160.013 35.2759 160.013ZM38.9893 176.41C38.9893 178.504 37.4805 180.021 35.3857 180.021C33.3057 180.021 31.8042 178.512 31.8042 176.41C31.8042 175.172 32.2217 174.051 33.2324 172.579C33.3276 172.418 35.5249 169.342 35.5981 169.232H37.085L34.1992 173.194C33.877 173.648 33.9062 173.619 33.855 173.736L33.9648 173.795C34.2798 173.37 35.0415 173.055 35.7153 173.055C37.5977 173.055 38.9893 174.483 38.9893 176.41ZM35.3931 178.871C36.7261 178.871 37.7368 177.831 37.7368 176.476C37.7368 175.113 36.7261 174.073 35.3931 174.073C34.0674 174.073 33.0566 175.113 33.0566 176.476C33.0566 177.831 34.0674 178.871 35.3931 178.871Z" fill="#E7E3E0"></path>
<path d="M81.0942 80.8042H80.0981C78.3184 80.8042 77.7544 80.2402 77.7544 78.4312V76.7905C77.7544 75.6626 77.0952 75.0034 75.3813 75.1792V73.8535C77.0952 74.0293 77.7544 73.3774 77.7544 72.2422V70.6016C77.7544 68.7925 78.3184 68.2285 80.0981 68.2285H81.0942V69.2319H80.2959C79.1973 69.2319 78.9849 69.4883 78.9849 70.7627V72.7183C78.9849 73.7437 78.2158 74.4248 76.729 74.4614V74.5786C78.2158 74.6079 78.9849 75.2891 78.9849 76.3145V78.27C78.9849 79.5444 79.1973 79.8008 80.2959 79.8008H81.0942V80.8042ZM167.962 94.2197C167.237 94.2197 166.637 93.6045 166.637 92.8647C166.637 92.125 167.237 91.5098 167.962 91.5098C168.688 91.5098 169.288 92.125 169.288 92.8647C169.288 93.6045 168.688 94.2197 167.962 94.2197ZM167.962 99.8447C167.237 99.8447 166.637 99.2368 166.637 98.4897C166.637 97.75 167.237 97.1421 167.962 97.1421C168.688 97.1421 169.288 97.75 169.288 98.4897C169.288 99.2368 168.688 99.8447 167.962 99.8447ZM257.021 102.232H255.841L256.75 97.4717H258.397L257.021 102.232ZM141.045 114.22C140.32 114.22 139.719 113.604 139.719 112.865C139.719 112.125 140.32 111.51 141.045 111.51C141.77 111.51 142.371 112.125 142.371 112.865C142.371 113.604 141.77 114.22 141.045 114.22ZM141.045 119.845C140.32 119.845 139.719 119.237 139.719 118.49C139.719 117.75 140.32 117.142 141.045 117.142C141.77 117.142 142.371 117.75 142.371 118.49C142.371 119.237 141.77 119.845 141.045 119.845ZM157.086 108.229H160.946V109.232H158.294V119.801H160.96V120.804H157.086V108.229ZM171.434 119.801H164.85V118.768H167.567V109.767H164.872V108.734H168.812V118.768H171.434V119.801ZM177.074 109.906C176.488 109.906 176.041 109.466 176.041 108.88C176.041 108.302 176.488 107.862 177.074 107.862C177.66 107.862 178.107 108.302 178.107 108.88C178.107 109.466 177.66 109.906 177.074 109.906ZM180.407 119.801H173.822V118.768H176.547V112.887H173.844V111.854H177.777V118.768H180.407V119.801ZM183.014 114C183.014 112.623 184.186 111.7 185.937 111.7C187.592 111.7 188.713 112.528 188.859 113.854H187.658C187.511 113.158 186.845 112.733 185.915 112.733C184.904 112.733 184.252 113.202 184.252 113.927C184.252 114.535 184.662 114.879 185.658 115.099L186.779 115.355C188.324 115.707 189.027 116.38 189.027 117.53C189.027 118.995 187.804 119.947 185.922 119.947C184.12 119.947 182.926 119.105 182.787 117.743H184.054C184.237 118.475 184.941 118.9 185.966 118.9C187.05 118.9 187.738 118.409 187.738 117.647C187.738 117.018 187.35 116.681 186.339 116.454L185.16 116.183C183.725 115.853 183.014 115.128 183.014 114ZM193.525 109.723H194.755V111.876H197.978V112.938H194.77V117.42C194.77 118.285 195.378 118.753 196.498 118.753C196.945 118.753 197.744 118.731 197.956 118.709V119.764C197.758 119.801 196.791 119.837 196.411 119.837C194.44 119.837 193.525 119.09 193.525 117.435V112.938H191.408V111.876H193.525V109.723ZM207.727 115.692H199.978V114.535H207.727V115.692ZM212.825 119.947C210.723 119.947 209.382 118.578 209.382 116.432V115.23C209.382 113.084 210.723 111.715 212.825 111.715C214.927 111.715 216.267 113.084 216.267 115.23V116.432C216.267 118.578 214.927 119.947 212.825 119.947ZM212.825 112.813C211.462 112.813 210.613 113.78 210.613 115.34V116.314C210.613 117.882 211.462 118.841 212.825 118.841C214.187 118.841 215.037 117.882 215.037 116.314V115.34C215.037 113.78 214.187 112.813 212.825 112.813ZM220.625 119.801V112.938H218.494V111.876H220.625V111.078C220.625 109.54 221.577 108.822 223.533 108.822C223.994 108.822 225.1 108.858 225.364 108.895V109.913C225.02 109.876 223.994 109.847 223.548 109.847C222.442 109.847 221.856 110.257 221.856 111.056V111.876H225.364V112.938H221.87V119.801H220.625ZM234.644 115.692H226.895V114.535H234.644V115.692ZM236.849 114C236.849 112.623 238.021 111.7 239.771 111.7C241.427 111.7 242.547 112.528 242.694 113.854H241.493C241.346 113.158 240.68 112.733 239.749 112.733C238.739 112.733 238.087 113.202 238.087 113.927C238.087 114.535 238.497 114.879 239.493 115.099L240.614 115.355C242.159 115.707 242.862 116.38 242.862 117.53C242.862 118.995 241.639 119.947 239.757 119.947C237.955 119.947 236.761 119.105 236.622 117.743H237.889C238.072 118.475 238.775 118.9 239.801 118.9C240.885 118.9 241.573 118.409 241.573 117.647C241.573 117.018 241.185 116.681 240.174 116.454L238.995 116.183C237.559 115.853 236.849 115.128 236.849 114ZM248.715 119.947C246.613 119.947 245.272 118.578 245.272 116.432V115.23C245.272 113.084 246.613 111.715 248.715 111.715C250.817 111.715 252.157 113.084 252.157 115.23V116.432C252.157 118.578 250.817 119.947 248.715 119.947ZM248.715 112.813C247.352 112.813 246.503 113.78 246.503 115.34V116.314C246.503 117.882 247.352 118.841 248.715 118.841C250.077 118.841 250.926 117.882 250.926 116.314V115.34C250.926 113.78 250.077 112.813 248.715 112.813ZM260.939 111.854V119.801H259.745V118.402H259.643C259.218 119.391 258.31 119.947 257.101 119.947C255.373 119.947 254.435 118.915 254.435 117.01V111.854H255.68V116.695C255.68 118.131 256.266 118.805 257.504 118.805C258.815 118.805 259.694 117.889 259.694 116.534V111.854H260.939ZM266.345 116.241V118.805H268.805V119.801H263.525V118.805H265.129V112.85H263.364V111.854H266.33V113.883H266.491C266.784 112.411 267.773 111.649 269.304 111.649C269.758 111.649 270.19 111.715 270.453 111.825V113.224C270.087 113.092 269.575 113.004 269.142 113.004C267.385 113.004 266.345 114.22 266.345 116.241ZM278.943 114.33H277.712C277.558 113.399 276.782 112.813 275.756 112.813C274.372 112.813 273.603 113.758 273.603 115.465V116.183C273.603 117.889 274.372 118.827 275.756 118.827C276.782 118.827 277.558 118.248 277.712 117.34H278.943C278.745 118.958 277.536 119.947 275.778 119.947C273.618 119.947 272.358 118.622 272.358 116.344V115.304C272.358 113.026 273.618 111.7 275.778 111.7C277.536 111.7 278.737 112.696 278.943 114.33ZM286.75 117.75H287.959C287.717 119.061 286.457 119.947 284.788 119.947C282.605 119.947 281.338 118.636 281.338 116.373V115.179C281.338 113.084 282.678 111.708 284.7 111.708C286.765 111.708 287.981 113.077 287.981 115.377V116.153H282.568V116.476C282.568 117.933 283.433 118.871 284.788 118.871C285.791 118.871 286.531 118.446 286.75 117.75ZM284.692 112.777C283.367 112.777 282.568 113.685 282.568 115.208H286.75C286.75 113.692 285.974 112.777 284.692 112.777ZM290.684 114C290.684 112.623 291.856 111.7 293.606 111.7C295.261 111.7 296.382 112.528 296.529 113.854H295.327C295.181 113.158 294.514 112.733 293.584 112.733C292.573 112.733 291.922 113.202 291.922 113.927C291.922 114.535 292.332 114.879 293.328 115.099L294.448 115.355C295.994 115.707 296.697 116.38 296.697 117.53C296.697 118.995 295.474 119.947 293.592 119.947C291.79 119.947 290.596 119.105 290.457 117.743H291.724C291.907 118.475 292.61 118.9 293.635 118.9C294.719 118.9 295.408 118.409 295.408 117.647C295.408 117.018 295.02 116.681 294.009 116.454L292.83 116.183C291.394 115.853 290.684 115.128 290.684 114ZM302.549 119.845C301.824 119.845 301.224 119.237 301.224 118.49C301.224 117.75 301.824 117.142 302.549 117.142C303.274 117.142 303.875 117.75 303.875 118.49C303.875 119.237 303.274 119.845 302.549 119.845ZM311.522 119.845C310.797 119.845 310.196 119.237 310.196 118.49C310.196 117.75 310.797 117.142 311.522 117.142C312.247 117.142 312.847 117.75 312.847 118.49C312.847 119.237 312.247 119.845 311.522 119.845ZM320.494 119.845C319.769 119.845 319.169 119.237 319.169 118.49C319.169 117.75 319.769 117.142 320.494 117.142C321.219 117.142 321.82 117.75 321.82 118.49C321.82 119.237 321.219 119.845 320.494 119.845ZM331.437 108.229V120.804H327.562V119.801H330.221V109.232H327.577V108.229H331.437ZM337.773 122.232H336.593L337.502 117.472H339.15L337.773 122.232ZM158.99 134.22C158.265 134.22 157.664 133.604 157.664 132.865C157.664 132.125 158.265 131.51 158.99 131.51C159.715 131.51 160.316 132.125 160.316 132.865C160.316 133.604 159.715 134.22 158.99 134.22ZM158.99 139.845C158.265 139.845 157.664 139.237 157.664 138.49C157.664 137.75 158.265 137.142 158.99 137.142C159.715 137.142 160.316 137.75 160.316 138.49C160.316 139.237 159.715 139.845 158.99 139.845ZM265.993 142.232H264.814L265.722 137.472H267.37L265.993 142.232ZM282.634 140.804H281.418L286.567 128.229H287.79L282.634 140.804ZM291.607 140.804H290.391L295.54 128.229H296.763L291.607 140.804ZM302.549 139.947C300.447 139.947 299.107 138.578 299.107 136.432V135.23C299.107 133.084 300.447 131.715 302.549 131.715C304.651 131.715 305.992 133.084 305.992 135.23V136.432C305.992 138.578 304.651 139.947 302.549 139.947ZM302.549 132.813C301.187 132.813 300.337 133.78 300.337 135.34V136.314C300.337 137.882 301.187 138.841 302.549 138.841C303.912 138.841 304.761 137.882 304.761 136.314V135.34C304.761 133.78 303.912 132.813 302.549 132.813ZM312.02 131.722C313.858 131.722 315.059 133.048 315.059 135.091V136.571C315.059 138.607 313.858 139.933 312.02 139.933C310.87 139.933 310.028 139.442 309.683 138.57H309.544V142.481H308.277V131.854H309.508V133.07H309.639C310.057 132.191 310.885 131.722 312.02 131.722ZM311.661 132.865C310.35 132.865 309.515 133.802 309.515 135.267V136.41C309.515 137.882 310.35 138.819 311.661 138.819C312.972 138.819 313.807 137.875 313.807 136.41V135.267C313.807 133.802 312.972 132.865 311.661 132.865ZM319.139 129.723H320.37V131.876H323.592V132.938H320.384V137.42C320.384 138.285 320.992 138.753 322.113 138.753C322.56 138.753 323.358 138.731 323.57 138.709V139.764C323.373 139.801 322.406 139.837 322.025 139.837C320.055 139.837 319.139 139.09 319.139 137.435V132.938H317.023V131.876H319.139V129.723ZM329.606 129.906C329.02 129.906 328.573 129.466 328.573 128.88C328.573 128.302 329.02 127.862 329.606 127.862C330.192 127.862 330.639 128.302 330.639 128.88C330.639 129.466 330.192 129.906 329.606 129.906ZM332.938 139.801H326.354V138.768H329.079V132.887H326.376V131.854H330.309V138.768H332.938V139.801ZM338.439 139.947C336.337 139.947 334.997 138.578 334.997 136.432V135.23C334.997 133.084 336.337 131.715 338.439 131.715C340.541 131.715 341.882 133.084 341.882 135.23V136.432C341.882 138.578 340.541 139.947 338.439 139.947ZM338.439 132.813C337.077 132.813 336.227 133.78 336.227 135.34V136.314C336.227 137.882 337.077 138.841 338.439 138.841C339.801 138.841 340.651 137.882 340.651 136.314V135.34C340.651 133.78 339.801 132.813 338.439 132.813ZM344.16 139.801V131.854H345.354V133.253H345.456C345.881 132.264 346.789 131.708 347.998 131.708C349.726 131.708 350.664 132.74 350.664 134.645V139.801H349.418V134.959C349.418 133.524 348.833 132.85 347.595 132.85C346.284 132.85 345.405 133.766 345.405 135.121V139.801H344.16ZM355.578 139.94C354.062 139.94 353.052 138.988 353.052 137.545C353.052 136.139 354.062 135.304 355.871 135.208L358.054 135.099V134.381C358.054 133.385 357.446 132.835 356.34 132.835C355.425 132.835 354.78 133.224 354.575 133.905H353.352C353.498 132.63 354.729 131.759 356.355 131.759C358.223 131.759 359.292 132.711 359.292 134.366V139.808H358.105V138.614H357.981C357.6 139.464 356.736 139.94 355.578 139.94ZM355.937 138.849C357.139 138.849 358.054 138.05 358.054 136.988V136.051L356.011 136.146C354.897 136.197 354.311 136.673 354.311 137.501C354.311 138.336 354.934 138.849 355.937 138.849ZM368.828 139.801H362.244V138.768H364.961V129.767H362.266V128.734H366.206V138.768H368.828V139.801ZM141.045 154.22C140.32 154.22 139.719 153.604 139.719 152.865C139.719 152.125 140.32 151.51 141.045 151.51C141.77 151.51 142.371 152.125 142.371 152.865C142.371 153.604 141.77 154.22 141.045 154.22ZM141.045 159.845C140.32 159.845 139.719 159.237 139.719 158.49C139.719 157.75 140.32 157.142 141.045 157.142C141.77 157.142 142.371 157.75 142.371 158.49C142.371 159.237 141.77 159.845 141.045 159.845ZM157.086 148.229H160.946V149.232H158.294V159.801H160.96V160.804H157.086V148.229ZM171.434 159.801H164.85V158.768H167.567V149.767H164.872V148.734H168.812V158.768H171.434V159.801ZM177.074 149.906C176.488 149.906 176.041 149.466 176.041 148.88C176.041 148.302 176.488 147.862 177.074 147.862C177.66 147.862 178.107 148.302 178.107 148.88C178.107 149.466 177.66 149.906 177.074 149.906ZM180.407 159.801H173.822V158.768H176.547V152.887H173.844V151.854H177.777V158.768H180.407V159.801ZM183.014 154C183.014 152.623 184.186 151.7 185.937 151.7C187.592 151.7 188.713 152.528 188.859 153.854H187.658C187.511 153.158 186.845 152.733 185.915 152.733C184.904 152.733 184.252 153.202 184.252 153.927C184.252 154.535 184.662 154.879 185.658 155.099L186.779 155.355C188.324 155.707 189.027 156.38 189.027 157.53C189.027 158.995 187.804 159.947 185.922 159.947C184.12 159.947 182.926 159.105 182.787 157.743H184.054C184.237 158.475 184.941 158.9 185.966 158.9C187.05 158.9 187.738 158.409 187.738 157.647C187.738 157.018 187.35 156.681 186.339 156.454L185.16 156.183C183.725 155.853 183.014 155.128 183.014 154ZM193.525 149.723H194.755V151.876H197.978V152.938H194.77V157.42C194.77 158.285 195.378 158.753 196.498 158.753C196.945 158.753 197.744 158.731 197.956 158.709V159.764C197.758 159.801 196.791 159.837 196.411 159.837C194.44 159.837 193.525 159.09 193.525 157.435V152.938H191.408V151.876H193.525V149.723ZM207.727 155.692H199.978V154.535H207.727V155.692ZM212.825 159.947C210.723 159.947 209.382 158.578 209.382 156.432V155.23C209.382 153.084 210.723 151.715 212.825 151.715C214.927 151.715 216.267 153.084 216.267 155.23V156.432C216.267 158.578 214.927 159.947 212.825 159.947ZM212.825 152.813C211.462 152.813 210.613 153.78 210.613 155.34V156.314C210.613 157.882 211.462 158.841 212.825 158.841C214.187 158.841 215.037 157.882 215.037 156.314V155.34C215.037 153.78 214.187 152.813 212.825 152.813ZM220.625 159.801V152.938H218.494V151.876H220.625V151.078C220.625 149.54 221.577 148.822 223.533 148.822C223.994 148.822 225.1 148.858 225.364 148.895V149.913C225.02 149.876 223.994 149.847 223.548 149.847C222.442 149.847 221.856 150.257 221.856 151.056V151.876H225.364V152.938H221.87V159.801H220.625ZM234.644 155.692H226.895V154.535H234.644V155.692ZM239.244 159.933C237.406 159.933 236.205 158.607 236.205 156.563V155.084C236.205 153.048 237.406 151.722 239.244 151.722C240.394 151.722 241.244 152.213 241.588 153.084H241.72V148.734H242.987V159.801H241.764V158.585H241.624C241.214 159.464 240.379 159.933 239.244 159.933ZM239.61 158.797C240.914 158.797 241.756 157.86 241.756 156.388V155.245C241.756 153.78 240.914 152.843 239.61 152.843C238.299 152.843 237.457 153.78 237.457 155.245V156.388C237.457 157.853 238.299 158.797 239.61 158.797ZM250.861 157.75H252.069C251.827 159.061 250.568 159.947 248.898 159.947C246.715 159.947 245.448 158.636 245.448 156.373V155.179C245.448 153.084 246.788 151.708 248.81 151.708C250.875 151.708 252.091 153.077 252.091 155.377V156.153H246.678V156.476C246.678 157.933 247.543 158.871 248.898 158.871C249.901 158.871 250.641 158.446 250.861 157.75ZM248.802 152.777C247.477 152.777 246.678 153.685 246.678 155.208H250.861C250.861 153.692 250.084 152.777 248.802 152.777ZM254.794 154C254.794 152.623 255.966 151.7 257.716 151.7C259.372 151.7 260.492 152.528 260.639 153.854H259.438C259.291 153.158 258.625 152.733 257.694 152.733C256.684 152.733 256.032 153.202 256.032 153.927C256.032 154.535 256.442 154.879 257.438 155.099L258.559 155.355C260.104 155.707 260.807 156.38 260.807 157.53C260.807 158.995 259.584 159.947 257.702 159.947C255.9 159.947 254.706 159.105 254.567 157.743H255.834C256.017 158.475 256.72 158.9 257.746 158.9C258.83 158.9 259.518 158.409 259.518 157.647C259.518 157.018 259.13 156.681 258.119 156.454L256.94 156.183C255.504 155.853 254.794 155.128 254.794 154ZM265.305 149.723H266.535V151.876H269.758V152.938H266.55V157.42C266.55 158.285 267.158 158.753 268.278 158.753C268.725 158.753 269.523 158.731 269.736 158.709V159.764C269.538 159.801 268.571 159.837 268.19 159.837C266.22 159.837 265.305 159.09 265.305 157.435V152.938H263.188V151.876H265.305V149.723ZM275.771 149.906C275.185 149.906 274.738 149.466 274.738 148.88C274.738 148.302 275.185 147.862 275.771 147.862C276.357 147.862 276.804 148.302 276.804 148.88C276.804 149.466 276.357 149.906 275.771 149.906ZM279.104 159.801H272.519V158.768H275.244V152.887H272.541V151.854H276.474V158.768H279.104V159.801ZM281.352 159.801V151.854H282.546V153.253H282.649C283.074 152.264 283.982 151.708 285.19 151.708C286.919 151.708 287.856 152.74 287.856 154.645V159.801H286.611V154.959C286.611 153.524 286.025 152.85 284.788 152.85C283.476 152.85 282.598 153.766 282.598 155.121V159.801H281.352ZM292.771 159.94C291.255 159.94 290.244 158.988 290.244 157.545C290.244 156.139 291.255 155.304 293.064 155.208L295.247 155.099V154.381C295.247 153.385 294.639 152.835 293.533 152.835C292.617 152.835 291.973 153.224 291.768 153.905H290.545C290.691 152.63 291.922 151.759 293.548 151.759C295.415 151.759 296.485 152.711 296.485 154.366V159.808H295.298V158.614H295.174C294.793 159.464 293.928 159.94 292.771 159.94ZM293.13 158.849C294.331 158.849 295.247 158.05 295.247 156.988V156.051L293.203 156.146C292.09 156.197 291.504 156.673 291.504 157.501C291.504 158.336 292.127 158.849 293.13 158.849ZM301.194 149.723H302.425V151.876H305.647V152.938H302.439V157.42C302.439 158.285 303.047 158.753 304.168 158.753C304.615 158.753 305.413 158.731 305.626 158.709V159.764C305.428 159.801 304.461 159.837 304.08 159.837C302.11 159.837 301.194 159.09 301.194 157.435V152.938H299.078V151.876H301.194V149.723ZM311.661 149.906C311.075 149.906 310.628 149.466 310.628 148.88C310.628 148.302 311.075 147.862 311.661 147.862C312.247 147.862 312.694 148.302 312.694 148.88C312.694 149.466 312.247 149.906 311.661 149.906ZM314.993 159.801H308.409V158.768H311.134V152.887H308.431V151.854H312.364V158.768H314.993V159.801ZM320.494 159.947C318.392 159.947 317.052 158.578 317.052 156.432V155.23C317.052 153.084 318.392 151.715 320.494 151.715C322.596 151.715 323.937 153.084 323.937 155.23V156.432C323.937 158.578 322.596 159.947 320.494 159.947ZM320.494 152.813C319.132 152.813 318.282 153.78 318.282 155.34V156.314C318.282 157.882 319.132 158.841 320.494 158.841C321.857 158.841 322.706 157.882 322.706 156.314V155.34C322.706 153.78 321.857 152.813 320.494 152.813ZM326.215 159.801V151.854H327.409V153.253H327.511C327.936 152.264 328.844 151.708 330.053 151.708C331.781 151.708 332.719 152.74 332.719 154.645V159.801H331.474V154.959C331.474 153.524 330.888 152.85 329.65 152.85C328.339 152.85 327.46 153.766 327.46 155.121V159.801H326.215ZM335.546 154C335.546 152.623 336.718 151.7 338.468 151.7C340.124 151.7 341.244 152.528 341.391 153.854H340.19C340.043 153.158 339.377 152.733 338.447 152.733C337.436 152.733 336.784 153.202 336.784 153.927C336.784 154.535 337.194 154.879 338.19 155.099L339.311 155.355C340.856 155.707 341.559 156.38 341.559 157.53C341.559 158.995 340.336 159.947 338.454 159.947C336.652 159.947 335.458 159.105 335.319 157.743H336.586C336.769 158.475 337.472 158.9 338.498 158.9C339.582 158.9 340.27 158.409 340.27 157.647C340.27 157.018 339.882 156.681 338.871 156.454L337.692 156.183C336.257 155.853 335.546 155.128 335.546 154ZM347.412 159.845C346.687 159.845 346.086 159.237 346.086 158.49C346.086 157.75 346.687 157.142 347.412 157.142C348.137 157.142 348.737 157.75 348.737 158.49C348.737 159.237 348.137 159.845 347.412 159.845ZM356.384 159.845C355.659 159.845 355.058 159.237 355.058 158.49C355.058 157.75 355.659 157.142 356.384 157.142C357.109 157.142 357.71 157.75 357.71 158.49C357.71 159.237 357.109 159.845 356.384 159.845ZM365.357 159.845C364.631 159.845 364.031 159.237 364.031 158.49C364.031 157.75 364.631 157.142 365.357 157.142C366.082 157.142 366.682 157.75 366.682 158.49C366.682 159.237 366.082 159.845 365.357 159.845ZM376.299 148.229V160.804H372.425V159.801H375.083V149.232H372.439V148.229H376.299ZM382.635 162.232H381.456L382.364 157.472H384.012L382.635 162.232ZM75.3813 180.804V179.801H76.1797C77.2783 179.801 77.4907 179.544 77.4907 178.27V176.314C77.4907 175.289 78.2598 174.608 79.7466 174.579V174.461C78.2598 174.425 77.4907 173.744 77.4907 172.718V170.763C77.4907 169.488 77.2783 169.232 76.1797 169.232H75.3813V168.229H76.3774C78.1572 168.229 78.7212 168.792 78.7212 170.602V172.242C78.7212 173.377 79.3804 174.029 81.0942 173.854V175.179C79.3804 175.003 78.7212 175.663 78.7212 176.791V178.431C78.7212 180.24 78.1572 180.804 76.3774 180.804H75.3813Z" fill="#E7E3E0"></path>
<path d="M95.421 93.9487H94.0807V89.2319H95.421V93.9487ZM98.2848 93.9487H96.9371V89.2319H98.2848V93.9487ZM104.35 99.9399C102.833 99.9399 101.823 98.9878 101.823 97.5449C101.823 96.1387 102.833 95.3037 104.642 95.2085L106.825 95.0986V94.3809C106.825 93.3848 106.217 92.8354 105.111 92.8354C104.196 92.8354 103.551 93.2236 103.346 93.9048H102.123C102.269 92.6304 103.5 91.7588 105.126 91.7588C106.994 91.7588 108.063 92.7109 108.063 94.3662V99.8081H106.876V98.6143H106.752C106.371 99.4639 105.507 99.9399 104.35 99.9399ZM104.708 98.8486C105.91 98.8486 106.825 98.0503 106.825 96.9883V96.0508L104.782 96.146C103.668 96.1973 103.082 96.6733 103.082 97.501C103.082 98.3359 103.705 98.8486 104.708 98.8486ZM117.438 94.3296H116.208C116.054 93.3994 115.278 92.8135 114.252 92.8135C112.868 92.8135 112.099 93.7583 112.099 95.4648V96.1826C112.099 97.8892 112.868 98.8267 114.252 98.8267C115.278 98.8267 116.054 98.248 116.208 97.3398H117.438C117.24 98.9585 116.032 99.9473 114.274 99.9473C112.113 99.9473 110.854 98.6216 110.854 96.3437V95.3037C110.854 93.0259 112.113 91.7002 114.274 91.7002C116.032 91.7002 117.233 92.6963 117.438 94.3296ZM121.745 89.7227H122.976V91.876H126.198V92.938H122.99V97.4204C122.99 98.2847 123.598 98.7534 124.719 98.7534C125.166 98.7534 125.964 98.7314 126.176 98.7095V99.7642C125.979 99.8008 125.012 99.8374 124.631 99.8374C122.661 99.8374 121.745 99.0903 121.745 97.4351V92.938H119.628V91.876H121.745V89.7227ZM132.212 89.9058C131.626 89.9058 131.179 89.4663 131.179 88.8804C131.179 88.3018 131.626 87.8623 132.212 87.8623C132.798 87.8623 133.244 88.3018 133.244 88.8804C133.244 89.4663 132.798 89.9058 132.212 89.9058ZM135.544 99.8008H128.96V98.7681H131.684V92.8867H128.982V91.854H132.915V98.7681H135.544V99.8008ZM141.045 99.9473C138.943 99.9473 137.603 98.5776 137.603 96.4316V95.2305C137.603 93.0845 138.943 91.7148 141.045 91.7148C143.147 91.7148 144.487 93.0845 144.487 95.2305V96.4316C144.487 98.5776 143.147 99.9473 141.045 99.9473ZM141.045 92.8135C139.683 92.8135 138.833 93.7803 138.833 95.3403V96.3145C138.833 97.8818 139.683 98.8413 141.045 98.8413C142.407 98.8413 143.257 97.8818 143.257 96.3145V95.3403C143.257 93.7803 142.407 92.8135 141.045 92.8135ZM146.766 99.8008V91.854H147.959V93.2529H148.062C148.487 92.2642 149.395 91.7075 150.603 91.7075C152.332 91.7075 153.269 92.7402 153.269 94.6445V99.8008H152.024V94.9595C152.024 93.5239 151.438 92.8501 150.201 92.8501C148.89 92.8501 148.011 93.7656 148.011 95.1206V99.8008H146.766ZM158.228 93.9487H156.888V89.2319H158.228V93.9487ZM161.092 93.9487H159.744V89.2319H161.092V93.9487Z" fill="#C0AAFF"></path>
<path d="M185.146 93.9487H183.805V89.2319H185.146V93.9487ZM188.009 93.9487H186.662V89.2319H188.009V93.9487ZM194.074 99.9399C192.558 99.9399 191.547 98.9878 191.547 97.5449C191.547 96.1387 192.558 95.3037 194.367 95.2085L196.55 95.0986V94.3809C196.55 93.3848 195.942 92.8354 194.836 92.8354C193.92 92.8354 193.276 93.2236 193.071 93.9048H191.848C191.994 92.6304 193.225 91.7588 194.851 91.7588C196.718 91.7588 197.788 92.7109 197.788 94.3662V99.8081H196.601V98.6143H196.476C196.096 99.4639 195.231 99.9399 194.074 99.9399ZM194.433 98.8486C195.634 98.8486 196.55 98.0503 196.55 96.9883V96.0508L194.506 96.146C193.393 96.1973 192.807 96.6733 192.807 97.501C192.807 98.3359 193.43 98.8486 194.433 98.8486ZM207.163 94.3296H205.932C205.779 93.3994 205.002 92.8135 203.977 92.8135C202.592 92.8135 201.823 93.7583 201.823 95.4648V96.1826C201.823 97.8892 202.592 98.8267 203.977 98.8267C205.002 98.8267 205.779 98.248 205.932 97.3398H207.163C206.965 98.9585 205.757 99.9473 203.999 99.9473C201.838 99.9473 200.578 98.6216 200.578 96.3437V95.3037C200.578 93.0259 201.838 91.7002 203.999 91.7002C205.757 91.7002 206.958 92.6963 207.163 94.3296ZM216.135 94.3296H214.905C214.751 93.3994 213.975 92.8135 212.949 92.8135C211.565 92.8135 210.796 93.7583 210.796 95.4648V96.1826C210.796 97.8892 211.565 98.8267 212.949 98.8267C213.975 98.8267 214.751 98.248 214.905 97.3398H216.135C215.938 98.9585 214.729 99.9473 212.971 99.9473C210.811 99.9473 209.551 98.6216 209.551 96.3437V95.3037C209.551 93.0259 210.811 91.7002 212.971 91.7002C214.729 91.7002 215.93 92.6963 216.135 94.3296ZM223.943 97.75H225.152C224.91 99.061 223.65 99.9473 221.98 99.9473C219.798 99.9473 218.531 98.6362 218.531 96.373V95.1792C218.531 93.0845 219.871 91.7075 221.892 91.7075C223.958 91.7075 225.174 93.0771 225.174 95.377V96.1533H219.761V96.4756C219.761 97.9331 220.625 98.8706 221.98 98.8706C222.984 98.8706 223.723 98.4458 223.943 97.75ZM221.885 92.7769C220.559 92.7769 219.761 93.6851 219.761 95.2085H223.943C223.943 93.6924 223.167 92.7769 221.885 92.7769ZM231.268 91.7222C233.106 91.7222 234.307 93.0479 234.307 95.0913V96.5708C234.307 98.6069 233.106 99.9326 231.268 99.9326C230.118 99.9326 229.275 99.4419 228.931 98.5703H228.792V102.481H227.525V91.854H228.755V93.0698H228.887C229.305 92.1909 230.132 91.7222 231.268 91.7222ZM230.909 92.8647C229.598 92.8647 228.763 93.8022 228.763 95.2671V96.4097C228.763 97.8818 229.598 98.8193 230.909 98.8193C232.22 98.8193 233.055 97.8745 233.055 96.4097V95.2671C233.055 93.8022 232.22 92.8647 230.909 92.8647ZM238.387 89.7227H239.618V91.876H242.84V92.938H239.632V97.4204C239.632 98.2847 240.24 98.7534 241.361 98.7534C241.808 98.7534 242.606 98.7314 242.818 98.7095V99.7642C242.621 99.8008 241.654 99.8374 241.273 99.8374C239.303 99.8374 238.387 99.0903 238.387 97.4351V92.938H236.27V91.876H238.387V89.7227ZM247.953 93.9487H246.613V89.2319H247.953V93.9487ZM250.817 93.9487H249.469V89.2319H250.817V93.9487ZM176.173 133.949H174.833V129.232H176.173V133.949ZM179.037 133.949H177.689V129.232H179.037V133.949ZM186.405 131.722C188.244 131.722 189.445 133.048 189.445 135.091V136.571C189.445 138.607 188.244 139.933 186.405 139.933C185.255 139.933 184.413 139.442 184.069 138.57H183.93V142.481H182.663V131.854H183.893V133.07H184.025C184.442 132.191 185.27 131.722 186.405 131.722ZM186.046 132.865C184.735 132.865 183.9 133.802 183.9 135.267V136.41C183.9 137.882 184.735 138.819 186.046 138.819C187.358 138.819 188.192 137.875 188.192 136.41V135.267C188.192 133.802 187.358 132.865 186.046 132.865ZM194.565 136.241V138.805H197.026V139.801H191.745V138.805H193.349V132.85H191.584V131.854H194.55V133.883H194.711C195.004 132.411 195.993 131.649 197.524 131.649C197.978 131.649 198.41 131.715 198.674 131.825V133.224C198.308 133.092 197.795 133.004 197.363 133.004C195.605 133.004 194.565 134.22 194.565 136.241ZM203.852 139.947C201.75 139.947 200.41 138.578 200.41 136.432V135.23C200.41 133.084 201.75 131.715 203.852 131.715C205.954 131.715 207.295 133.084 207.295 135.23V136.432C207.295 138.578 205.954 139.947 203.852 139.947ZM203.852 132.813C202.49 132.813 201.64 133.78 201.64 135.34V136.314C201.64 137.882 202.49 138.841 203.852 138.841C205.215 138.841 206.064 137.882 206.064 136.314V135.34C206.064 133.78 205.215 132.813 203.852 132.813ZM211.47 129.723H212.7V131.876H215.923V132.938H212.715V137.42C212.715 138.285 213.323 138.753 214.443 138.753C214.89 138.753 215.688 138.731 215.901 138.709V139.764C215.703 139.801 214.736 139.837 214.355 139.837C212.385 139.837 211.47 139.09 211.47 137.435V132.938H209.353V131.876H211.47V129.723ZM221.797 139.947C219.695 139.947 218.355 138.578 218.355 136.432V135.23C218.355 133.084 219.695 131.715 221.797 131.715C223.899 131.715 225.24 133.084 225.24 135.23V136.432C225.24 138.578 223.899 139.947 221.797 139.947ZM221.797 132.813C220.435 132.813 219.585 133.78 219.585 135.34V136.314C219.585 137.882 220.435 138.841 221.797 138.841C223.159 138.841 224.009 137.882 224.009 136.314V135.34C224.009 133.78 223.159 132.813 221.797 132.813ZM234.08 134.33H232.85C232.696 133.399 231.92 132.813 230.894 132.813C229.51 132.813 228.741 133.758 228.741 135.465V136.183C228.741 137.889 229.51 138.827 230.894 138.827C231.92 138.827 232.696 138.248 232.85 137.34H234.08C233.882 138.958 232.674 139.947 230.916 139.947C228.755 139.947 227.496 138.622 227.496 136.344V135.304C227.496 133.026 228.755 131.7 230.916 131.7C232.674 131.7 233.875 132.696 234.08 134.33ZM239.742 139.947C237.64 139.947 236.3 138.578 236.3 136.432V135.23C236.3 133.084 237.64 131.715 239.742 131.715C241.844 131.715 243.184 133.084 243.184 135.23V136.432C243.184 138.578 241.844 139.947 239.742 139.947ZM239.742 132.813C238.38 132.813 237.53 133.78 237.53 135.34V136.314C237.53 137.882 238.38 138.841 239.742 138.841C241.104 138.841 241.954 137.882 241.954 136.314V135.34C241.954 133.78 241.104 132.813 239.742 132.813ZM252.186 139.801H245.602V138.768H248.319V129.767H245.624V128.734H249.564V138.768H252.186V139.801ZM256.105 133.861H254.999L255.893 129.093H257.401L256.105 133.861ZM258.932 133.861H257.826L258.72 129.093H260.229L258.932 133.861Z" fill="#B2D862"></path>
<path d="M95.421 113.949H94.0807V109.232H95.421V113.949ZM98.2848 113.949H96.9371V109.232H98.2848V113.949ZM102.262 114C102.262 112.623 103.434 111.7 105.184 111.7C106.84 111.7 107.96 112.528 108.107 113.854H106.906C106.759 113.158 106.093 112.733 105.163 112.733C104.152 112.733 103.5 113.202 103.5 113.927C103.5 114.535 103.91 114.879 104.906 115.099L106.027 115.355C107.572 115.707 108.275 116.38 108.275 117.53C108.275 118.995 107.052 119.947 105.17 119.947C103.368 119.947 102.174 119.105 102.035 117.743H103.302C103.485 118.475 104.188 118.9 105.214 118.9C106.298 118.9 106.986 118.409 106.986 117.647C106.986 117.018 106.598 116.681 105.587 116.454L104.408 116.183C102.973 115.853 102.262 115.128 102.262 114ZM113.813 116.241V118.805H116.274V119.801H110.993V118.805H112.597V112.85H110.832V111.854H113.798V113.883H113.959C114.252 112.411 115.241 111.649 116.772 111.649C117.226 111.649 117.658 111.715 117.922 111.825V113.224C117.555 113.092 117.043 113.004 116.611 113.004C114.853 113.004 113.813 114.22 113.813 116.241ZM126.411 114.33H125.18C125.026 113.399 124.25 112.813 123.225 112.813C121.84 112.813 121.071 113.758 121.071 115.465V116.183C121.071 117.889 121.84 118.827 123.225 118.827C124.25 118.827 125.026 118.248 125.18 117.34H126.411C126.213 118.958 125.004 119.947 123.247 119.947C121.086 119.947 119.826 118.622 119.826 116.344V115.304C119.826 113.026 121.086 111.7 123.247 111.7C125.004 111.7 126.206 112.696 126.411 114.33ZM131.311 113.949H129.971V109.232H131.311V113.949ZM134.175 113.949H132.827V109.232H134.175V113.949ZM95.421 133.949H94.0807V129.232H95.421V133.949ZM98.2848 133.949H96.9371V129.232H98.2848V133.949ZM105.653 131.722C107.492 131.722 108.693 133.048 108.693 135.091V136.571C108.693 138.607 107.492 139.933 105.653 139.933C104.503 139.933 103.661 139.442 103.317 138.57H103.178V142.481H101.911V131.854H103.141V133.07H103.273C103.69 132.191 104.518 131.722 105.653 131.722ZM105.294 132.865C103.983 132.865 103.148 133.802 103.148 135.267V136.41C103.148 137.882 103.983 138.819 105.294 138.819C106.605 138.819 107.44 137.875 107.44 136.41V135.267C107.44 133.802 106.605 132.865 105.294 132.865ZM113.813 136.241V138.805H116.274V139.801H110.993V138.805H112.597V132.85H110.832V131.854H113.798V133.883H113.959C114.252 132.411 115.241 131.649 116.772 131.649C117.226 131.649 117.658 131.715 117.922 131.825V133.224C117.555 133.092 117.043 133.004 116.611 133.004C114.853 133.004 113.813 134.22 113.813 136.241ZM123.1 139.947C120.998 139.947 119.658 138.578 119.658 136.432V135.23C119.658 133.084 120.998 131.715 123.1 131.715C125.202 131.715 126.542 133.084 126.542 135.23V136.432C126.542 138.578 125.202 139.947 123.1 139.947ZM123.1 132.813C121.738 132.813 120.888 133.78 120.888 135.34V136.314C120.888 137.882 121.738 138.841 123.1 138.841C124.462 138.841 125.312 137.882 125.312 136.314V135.34C125.312 133.78 124.462 132.813 123.1 132.813ZM130.718 129.723H131.948V131.876H135.171V132.938H131.963V137.42C131.963 138.285 132.571 138.753 133.691 138.753C134.138 138.753 134.936 138.731 135.149 138.709V139.764C134.951 139.801 133.984 139.837 133.603 139.837C131.633 139.837 130.718 139.09 130.718 137.435V132.938H128.601V131.876H130.718V129.723ZM141.045 139.947C138.943 139.947 137.603 138.578 137.603 136.432V135.23C137.603 133.084 138.943 131.715 141.045 131.715C143.147 131.715 144.487 133.084 144.487 135.23V136.432C144.487 138.578 143.147 139.947 141.045 139.947ZM141.045 132.813C139.683 132.813 138.833 133.78 138.833 135.34V136.314C138.833 137.882 139.683 138.841 141.045 138.841C142.407 138.841 143.257 137.882 143.257 136.314V135.34C143.257 133.78 142.407 132.813 141.045 132.813ZM149.256 133.949H147.915V129.232H149.256V133.949ZM152.12 133.949H150.772V129.232H152.12V133.949ZM95.421 153.949H94.0807V149.232H95.421V153.949ZM98.2848 153.949H96.9371V149.232H98.2848V153.949ZM104.657 159.933C102.819 159.933 101.618 158.607 101.618 156.563V155.084C101.618 153.048 102.819 151.722 104.657 151.722C105.807 151.722 106.657 152.213 107.001 153.084H107.133V148.734H108.4V159.801H107.177V158.585H107.038C106.627 159.464 105.792 159.933 104.657 159.933ZM105.023 158.797C106.327 158.797 107.169 157.86 107.169 156.388V155.245C107.169 153.78 106.327 152.843 105.023 152.843C103.712 152.843 102.87 153.78 102.87 155.245V156.388C102.87 157.853 103.712 158.797 105.023 158.797ZM111.235 154C111.235 152.623 112.406 151.7 114.157 151.7C115.812 151.7 116.933 152.528 117.079 153.854H115.878C115.732 153.158 115.065 152.733 114.135 152.733C113.124 152.733 112.472 153.202 112.472 153.927C112.472 154.535 112.883 154.879 113.879 155.099L114.999 155.355C116.545 155.707 117.248 156.38 117.248 157.53C117.248 158.995 116.025 159.947 114.142 159.947C112.341 159.947 111.147 159.105 111.008 157.743H112.275C112.458 158.475 113.161 158.9 114.186 158.9C115.27 158.9 115.959 158.409 115.959 157.647C115.959 157.018 115.571 156.681 114.56 156.454L113.381 156.183C111.945 155.853 111.235 155.128 111.235 154ZM121.745 149.723H122.976V151.876H126.198V152.938H122.99V157.42C122.99 158.285 123.598 158.753 124.719 158.753C125.166 158.753 125.964 158.731 126.176 158.709V159.764C125.979 159.801 125.012 159.837 124.631 159.837C122.661 159.837 121.745 159.09 121.745 157.435V152.938H119.628V151.876H121.745V149.723ZM131.311 153.949H129.971V149.232H131.311V153.949ZM134.175 153.949H132.827V149.232H134.175V153.949Z" fill="#C0AAFF"></path>
<g opacity="0.05">
<rect x="537" width="291" height="215" rx="16" fill="#DEE8F6"></rect>
<circle cx="643" cy="108" r="106" fill="#343433"></circle>
</g>
</svg>
