<svg width="138" height="103" viewBox="0 0 138 103" fill="none" xmlns="http://www.w3.org/2000/svg">
<path d="M46.0313 45.9706C46.0313 39.8784 48.4514 34.0358 52.7592 29.7279C57.067 25.4201 62.9097 23 69.0018 23C75.094 23 80.9367 25.4201 85.2445 29.7279C89.5523 34.0357 91.9724 39.8784 91.9724 45.9706L80.4871 45.9706C80.4871 42.9245 79.2771 40.0032 77.1232 37.8493C74.9693 35.6953 72.0479 34.4853 69.0018 34.4853C65.9557 34.4853 63.0344 35.6953 60.8805 37.8493C58.7266 40.0032 57.5165 42.9245 57.5165 45.9706L46.0313 45.9706Z" fill="#91BBA6"></path>
<rect x="34.543" y="45.9688" width="68.9118" height="48.0294" rx="6.26471" fill="#487961"></rect>
<rect x="62.7344" y="63.7188" width="12.5294" height="12.5294" rx="6.26471" fill="#CAE6D9"></rect>
</svg>
