<svg width="180" height="212" viewBox="0 0 180 212" fill="none" xmlns="http://www.w3.org/2000/svg">
<rect y="0.96875" width="180" height="210.968" rx="12" fill="white"></rect>
<path d="M18.1241 190.969H16.4366L19.5091 182.241H21.4608L24.5375 190.969H22.85L20.519 184.031H20.4508L18.1241 190.969ZM18.1795 187.547H22.7818V188.817H18.1795V187.547ZM32.747 185.186H31.1532C31.1078 184.925 31.024 184.693 30.9018 184.491C30.7797 184.287 30.6277 184.114 30.4458 183.972C30.264 183.83 30.0566 183.723 29.8237 183.652C29.5936 183.578 29.345 183.541 29.0779 183.541C28.6035 183.541 28.1831 183.661 27.8166 183.899C27.4501 184.135 27.1632 184.482 26.9558 184.939C26.7484 185.393 26.6447 185.949 26.6447 186.605C26.6447 187.273 26.7484 187.835 26.9558 188.293C27.166 188.747 27.4529 189.091 27.8166 189.324C28.1831 189.554 28.6021 189.669 29.0737 189.669C29.335 189.669 29.5794 189.635 29.8066 189.567C30.0368 189.496 30.2427 189.392 30.4245 189.256C30.6092 189.119 30.764 188.952 30.889 188.753C31.0169 188.554 31.1049 188.327 31.1532 188.071L32.747 188.08C32.6873 188.494 32.5581 188.884 32.3592 189.247C32.1632 189.611 31.9061 189.932 31.5879 190.21C31.2697 190.486 30.8976 190.702 30.4714 190.858C30.0453 191.011 29.5723 191.088 29.0524 191.088C28.2853 191.088 27.6007 190.911 26.9984 190.555C26.3961 190.2 25.9217 189.688 25.5751 189.017C25.2285 188.347 25.0552 187.543 25.0552 186.605C25.0552 185.665 25.2299 184.861 25.5794 184.193C25.9288 183.523 26.4047 183.01 27.0069 182.655C27.6092 182.3 28.291 182.122 29.0524 182.122C29.5382 182.122 29.9899 182.19 30.4075 182.327C30.8251 182.463 31.1973 182.663 31.524 182.928C31.8507 183.189 32.1191 183.51 32.3294 183.891C32.5424 184.268 32.6816 184.7 32.747 185.186ZM41.665 185.186H40.0712C40.0257 184.925 39.9419 184.693 39.8198 184.491C39.6976 184.287 39.5456 184.114 39.3638 183.972C39.182 183.83 38.9746 183.723 38.7417 183.652C38.5115 183.578 38.263 183.541 37.9959 183.541C37.5215 183.541 37.101 183.661 36.7346 183.899C36.3681 184.135 36.0811 184.482 35.8738 184.939C35.6664 185.393 35.5627 185.949 35.5627 186.605C35.5627 187.273 35.6664 187.835 35.8738 188.293C36.084 188.747 36.3709 189.091 36.7346 189.324C37.101 189.554 37.5201 189.669 37.9917 189.669C38.253 189.669 38.4973 189.635 38.7246 189.567C38.9547 189.496 39.1607 189.392 39.3425 189.256C39.5272 189.119 39.682 188.952 39.807 188.753C39.9348 188.554 40.0229 188.327 40.0712 188.071L41.665 188.08C41.6053 188.494 41.476 188.884 41.2772 189.247C41.0811 189.611 40.824 189.932 40.5059 190.21C40.1877 190.486 39.8155 190.702 39.3894 190.858C38.9632 191.011 38.4902 191.088 37.9703 191.088C37.2033 191.088 36.5186 190.911 35.9164 190.555C35.3141 190.2 34.8397 189.688 34.4931 189.017C34.1465 188.347 33.9732 187.543 33.9732 186.605C33.9732 185.665 34.1479 184.861 34.4973 184.193C34.8468 183.523 35.3226 183.01 35.9249 182.655C36.5272 182.3 37.209 182.122 37.9703 182.122C38.4561 182.122 38.9078 182.19 39.3255 182.327C39.7431 182.463 40.1152 182.663 40.4419 182.928C40.7686 183.189 41.0371 183.51 41.2473 183.891C41.4604 184.268 41.5996 184.7 41.665 185.186ZM43.1127 190.969V182.241H48.7889V183.567H44.6937V185.936H48.4949V187.261H44.6937V189.643H48.823V190.969H43.1127ZM55.1447 184.641C55.1049 184.268 54.9373 183.979 54.6419 183.771C54.3493 183.564 53.9686 183.46 53.4998 183.46C53.1703 183.46 52.8876 183.51 52.6518 183.609C52.416 183.709 52.2356 183.844 52.1106 184.014C51.9856 184.185 51.9217 184.379 51.9189 184.598C51.9189 184.78 51.96 184.937 52.0424 185.071C52.1277 185.205 52.2427 185.318 52.3876 185.412C52.5325 185.503 52.693 185.58 52.8691 185.642C53.0453 185.705 53.2228 185.757 53.4018 185.8L54.22 186.004C54.5495 186.081 54.8663 186.185 55.1703 186.315C55.4771 186.446 55.7512 186.611 55.9927 186.81C56.237 187.009 56.4302 187.249 56.5723 187.53C56.7143 187.811 56.7853 188.141 56.7853 188.518C56.7853 189.03 56.6547 189.48 56.3933 189.869C56.1319 190.256 55.7541 190.558 55.2598 190.777C54.7683 190.993 54.1731 191.101 53.4743 191.101C52.7953 191.101 52.2058 190.996 51.7058 190.786C51.2086 190.575 50.8194 190.268 50.5382 189.865C50.2598 189.462 50.1092 188.97 50.0865 188.391H51.6419C51.6646 188.695 51.7583 188.947 51.9231 189.149C52.0879 189.351 52.3024 189.501 52.5666 189.601C52.8336 189.7 53.1319 189.75 53.4615 189.75C53.8052 189.75 54.1064 189.699 54.3649 189.597C54.6262 189.491 54.8308 189.347 54.9785 189.162C55.1262 188.974 55.2015 188.756 55.2044 188.506C55.2015 188.278 55.1348 188.091 55.0041 187.943C54.8734 187.793 54.6902 187.668 54.4544 187.568C54.2214 187.466 53.9487 187.375 53.6362 187.295L52.6433 187.04C51.9245 186.855 51.3564 186.575 50.9387 186.2C50.524 185.822 50.3166 185.321 50.3166 184.696C50.3166 184.182 50.4558 183.732 50.7342 183.345C51.0154 182.959 51.3975 182.659 51.8805 182.446C52.3635 182.23 52.9103 182.122 53.5211 182.122C54.1404 182.122 54.6831 182.23 55.149 182.446C55.6177 182.659 55.9856 182.956 56.2527 183.337C56.5197 183.714 56.6575 184.149 56.666 184.641H55.1447ZM62.9377 184.641C62.8979 184.268 62.7303 183.979 62.4348 183.771C62.1422 183.564 61.7615 183.46 61.2928 183.46C60.9632 183.46 60.6806 183.51 60.4448 183.609C60.209 183.709 60.0286 183.844 59.9036 184.014C59.7786 184.185 59.7147 184.379 59.7118 184.598C59.7118 184.78 59.753 184.937 59.8354 185.071C59.9206 185.205 60.0357 185.318 60.1806 185.412C60.3255 185.503 60.486 185.58 60.6621 185.642C60.8382 185.705 61.0158 185.757 61.1948 185.8L62.013 186.004C62.3425 186.081 62.6593 186.185 62.9632 186.315C63.2701 186.446 63.5442 186.611 63.7857 186.81C64.03 187.009 64.2232 187.249 64.3652 187.53C64.5073 187.811 64.5783 188.141 64.5783 188.518C64.5783 189.03 64.4476 189.48 64.1863 189.869C63.9249 190.256 63.5471 190.558 63.0527 190.777C62.5613 190.993 61.9661 191.101 61.2672 191.101C60.5882 191.101 59.9988 190.996 59.4988 190.786C59.0016 190.575 58.6124 190.268 58.3311 189.865C58.0527 189.462 57.9022 188.97 57.8794 188.391H59.4348C59.4576 188.695 59.5513 188.947 59.7161 189.149C59.8809 189.351 60.0953 189.501 60.3596 189.601C60.6266 189.7 60.9249 189.75 61.2544 189.75C61.5982 189.75 61.8993 189.699 62.1578 189.597C62.4192 189.491 62.6238 189.347 62.7715 189.162C62.9192 188.974 62.9945 188.756 62.9973 188.506C62.9945 188.278 62.9277 188.091 62.7971 187.943C62.6664 187.793 62.4831 187.668 62.2473 187.568C62.0144 187.466 61.7417 187.375 61.4292 187.295L60.4363 187.04C59.7175 186.855 59.1493 186.575 58.7317 186.2C58.3169 185.822 58.1096 185.321 58.1096 184.696C58.1096 184.182 58.2488 183.732 58.5272 183.345C58.8084 182.959 59.1905 182.659 59.6735 182.446C60.1564 182.23 60.7033 182.122 61.3141 182.122C61.9334 182.122 62.476 182.23 62.9419 182.446C63.4107 182.659 63.7786 182.956 64.0456 183.337C64.3127 183.714 64.4505 184.149 64.459 184.641H62.9377ZM76.4345 185.186H74.8407C74.7953 184.925 74.7115 184.693 74.5893 184.491C74.4672 184.287 74.3152 184.114 74.1333 183.972C73.9515 183.83 73.7441 183.723 73.5112 183.652C73.2811 183.578 73.0325 183.541 72.7654 183.541C72.291 183.541 71.8706 183.661 71.5041 183.899C71.1376 184.135 70.8507 184.482 70.6433 184.939C70.4359 185.393 70.3322 185.949 70.3322 186.605C70.3322 187.273 70.4359 187.835 70.6433 188.293C70.8535 188.747 71.1404 189.091 71.5041 189.324C71.8706 189.554 72.2896 189.669 72.7612 189.669C73.0225 189.669 73.2669 189.635 73.4941 189.567C73.7243 189.496 73.9302 189.392 74.112 189.256C74.2967 189.119 74.4515 188.952 74.5765 188.753C74.7044 188.554 74.7924 188.327 74.8407 188.071L76.4345 188.08C76.3748 188.494 76.2456 188.884 76.0467 189.247C75.8507 189.611 75.5936 189.932 75.2754 190.21C74.9572 190.486 74.5851 190.702 74.1589 190.858C73.7328 191.011 73.2598 191.088 72.7399 191.088C71.9728 191.088 71.2882 190.911 70.6859 190.555C70.0836 190.2 69.6092 189.688 69.2626 189.017C68.916 188.347 68.7427 187.543 68.7427 186.605C68.7427 185.665 68.9174 184.861 69.2669 184.193C69.6163 183.523 70.0922 183.01 70.6944 182.655C71.2967 182.3 71.9785 182.122 72.7399 182.122C73.2257 182.122 73.6774 182.19 74.095 182.327C74.5126 182.463 74.8848 182.663 75.2115 182.928C75.5382 183.189 75.8066 183.51 76.0169 183.891C76.2299 184.268 76.3691 184.7 76.4345 185.186ZM85.6806 186.605C85.6806 187.545 85.5044 188.351 85.1522 189.021C84.8027 189.689 84.3255 190.2 83.7203 190.555C83.1181 190.911 82.4348 191.088 81.6706 191.088C80.9064 191.088 80.2218 190.911 79.6167 190.555C79.0144 190.197 78.5371 189.685 78.1848 189.017C77.8354 188.347 77.6607 187.543 77.6607 186.605C77.6607 185.665 77.8354 184.861 78.1848 184.193C78.5371 183.523 79.0144 183.01 79.6167 182.655C80.2218 182.3 80.9064 182.122 81.6706 182.122C82.4348 182.122 83.1181 182.3 83.7203 182.655C84.3255 183.01 84.8027 183.523 85.1522 184.193C85.5044 184.861 85.6806 185.665 85.6806 186.605ZM84.0911 186.605C84.0911 185.943 83.9874 185.385 83.78 184.93C83.5755 184.473 83.2914 184.128 82.9277 183.895C82.5641 183.659 82.1451 183.541 81.6706 183.541C81.1962 183.541 80.7772 183.659 80.4135 183.895C80.0499 184.128 79.7644 184.473 79.557 184.93C79.3525 185.385 79.2502 185.943 79.2502 186.605C79.2502 187.267 79.3525 187.827 79.557 188.284C79.7644 188.739 80.0499 189.084 80.4135 189.32C80.7772 189.553 81.1962 189.669 81.6706 189.669C82.1451 189.669 82.5641 189.553 82.9277 189.32C83.2914 189.084 83.5755 188.739 83.78 188.284C83.9874 187.827 84.0911 187.267 84.0911 186.605ZM94.3471 182.241V190.969H92.9409L88.8287 185.024H88.7562V190.969H87.1752V182.241H88.59L92.698 188.19H92.7747V182.241H94.3471ZM95.6863 183.567V182.241H102.649V183.567H99.9519V190.969H98.3837V183.567H95.6863ZM103.992 190.969V182.241H107.264C107.935 182.241 108.497 182.358 108.952 182.591C109.409 182.824 109.754 183.151 109.987 183.571C110.223 183.989 110.341 184.476 110.341 185.033C110.341 185.592 110.222 186.078 109.983 186.49C109.747 186.899 109.399 187.216 108.939 187.44C108.479 187.662 107.914 187.773 107.243 187.773H104.912V186.46H107.03C107.422 186.46 107.743 186.406 107.993 186.298C108.243 186.187 108.428 186.027 108.547 185.817C108.669 185.604 108.73 185.342 108.73 185.033C108.73 184.723 108.669 184.459 108.547 184.24C108.425 184.018 108.239 183.851 107.989 183.737C107.739 183.621 107.416 183.562 107.021 183.562H105.573V190.969H103.992ZM108.5 187.014L110.661 190.969H108.896L106.774 187.014H108.5ZM119.595 186.605C119.595 187.545 119.419 188.351 119.066 189.021C118.717 189.689 118.24 190.2 117.634 190.555C117.032 190.911 116.349 191.088 115.585 191.088C114.82 191.088 114.136 190.911 113.531 190.555C112.928 190.197 112.451 189.685 112.099 189.017C111.749 188.347 111.575 187.543 111.575 186.605C111.575 185.665 111.749 184.861 112.099 184.193C112.451 183.523 112.928 183.01 113.531 182.655C114.136 182.3 114.82 182.122 115.585 182.122C116.349 182.122 117.032 182.3 117.634 182.655C118.24 183.01 118.717 183.523 119.066 184.193C119.419 184.861 119.595 185.665 119.595 186.605ZM118.005 186.605C118.005 185.943 117.901 185.385 117.694 184.93C117.49 184.473 117.205 184.128 116.842 183.895C116.478 183.659 116.059 183.541 115.585 183.541C115.11 183.541 114.691 183.659 114.328 183.895C113.964 184.128 113.678 184.473 113.471 184.93C113.267 185.385 113.164 185.943 113.164 186.605C113.164 187.267 113.267 187.827 113.471 188.284C113.678 188.739 113.964 189.084 114.328 189.32C114.691 189.553 115.11 189.669 115.585 189.669C116.059 189.669 116.478 189.553 116.842 189.32C117.205 189.084 117.49 188.739 117.694 188.284C117.901 187.827 118.005 187.267 118.005 186.605ZM121.089 190.969V182.241H122.67V189.643H126.514V190.969H121.089ZM132.629 184.641C132.589 184.268 132.422 183.979 132.126 183.771C131.834 183.564 131.453 183.46 130.984 183.46C130.655 183.46 130.372 183.51 130.136 183.609C129.9 183.709 129.72 183.844 129.595 184.014C129.47 184.185 129.406 184.379 129.403 184.598C129.403 184.78 129.444 184.937 129.527 185.071C129.612 185.205 129.727 185.318 129.872 185.412C130.017 185.503 130.177 185.58 130.354 185.642C130.53 185.705 130.707 185.757 130.886 185.8L131.704 186.004C132.034 186.081 132.351 186.185 132.655 186.315C132.961 186.446 133.236 186.611 133.477 186.81C133.721 187.009 133.915 187.249 134.057 187.53C134.199 187.811 134.27 188.141 134.27 188.518C134.27 189.03 134.139 189.48 133.878 189.869C133.616 190.256 133.238 190.558 132.744 190.777C132.253 190.993 131.657 191.101 130.959 191.101C130.28 191.101 129.69 190.996 129.19 190.786C128.693 190.575 128.304 190.268 128.023 189.865C127.744 189.462 127.594 188.97 127.571 188.391H129.126C129.149 188.695 129.243 188.947 129.407 189.149C129.572 189.351 129.787 189.501 130.051 189.601C130.318 189.7 130.616 189.75 130.946 189.75C131.29 189.75 131.591 189.699 131.849 189.597C132.111 189.491 132.315 189.347 132.463 189.162C132.611 188.974 132.686 188.756 132.689 188.506C132.686 188.278 132.619 188.091 132.488 187.943C132.358 187.793 132.175 187.668 131.939 187.568C131.706 187.466 131.433 187.375 131.121 187.295L130.128 187.04C129.409 186.855 128.841 186.575 128.423 186.2C128.008 185.822 127.801 185.321 127.801 184.696C127.801 184.182 127.94 183.732 128.219 183.345C128.5 182.959 128.882 182.659 129.365 182.446C129.848 182.23 130.395 182.122 131.006 182.122C131.625 182.122 132.167 182.23 132.633 182.446C133.102 182.659 133.47 182.956 133.737 183.337C134.004 183.714 134.142 184.149 134.15 184.641H132.629ZM138.656 190.969V182.241H140.237V189.643H144.08V190.969H138.656ZM147.034 182.241V190.969H145.453V182.241H147.034ZM153.488 184.641C153.449 184.268 153.281 183.979 152.986 183.771C152.693 183.564 152.312 183.46 151.844 183.46C151.514 183.46 151.231 183.51 150.996 183.609C150.76 183.709 150.579 183.844 150.454 184.014C150.329 184.185 150.265 184.379 150.263 184.598C150.263 184.78 150.304 184.937 150.386 185.071C150.471 185.205 150.586 185.318 150.731 185.412C150.876 185.503 151.037 185.58 151.213 185.642C151.389 185.705 151.567 185.757 151.746 185.8L152.564 186.004C152.893 186.081 153.21 186.185 153.514 186.315C153.821 186.446 154.095 186.611 154.336 186.81C154.581 187.009 154.774 187.249 154.916 187.53C155.058 187.811 155.129 188.141 155.129 188.518C155.129 189.03 154.998 189.48 154.737 189.869C154.476 190.256 154.098 190.558 153.604 190.777C153.112 190.993 152.517 191.101 151.818 191.101C151.139 191.101 150.55 190.996 150.05 190.786C149.552 190.575 149.163 190.268 148.882 189.865C148.604 189.462 148.453 188.97 148.43 188.391H149.986C150.008 188.695 150.102 188.947 150.267 189.149C150.432 189.351 150.646 189.501 150.91 189.601C151.177 189.7 151.476 189.75 151.805 189.75C152.149 189.75 152.45 189.699 152.709 189.597C152.97 189.491 153.175 189.347 153.322 189.162C153.47 188.974 153.545 188.756 153.548 188.506C153.545 188.278 153.479 188.091 153.348 187.943C153.217 187.793 153.034 187.668 152.798 187.568C152.565 187.466 152.292 187.375 151.98 187.295L150.987 187.04C150.268 186.855 149.7 186.575 149.282 186.2C148.868 185.822 148.66 185.321 148.66 184.696C148.66 184.182 148.8 183.732 149.078 183.345C149.359 182.959 149.741 182.659 150.224 182.446C150.707 182.23 151.254 182.122 151.865 182.122C152.484 182.122 153.027 182.23 153.493 182.446C153.961 182.659 154.329 182.956 154.596 183.337C154.863 183.714 155.001 184.149 155.01 184.641H153.488ZM156.155 183.567V182.241H163.118V183.567H160.421V190.969H158.852V183.567H156.155Z" fill="#666361"></path>
<rect x="48.3867" y="39.6797" width="83.2258" height="83.2258" rx="41.6129" fill="#2B2A2A"></rect>
<path fill-rule="evenodd" clip-rule="evenodd" d="M79.7949 75.5547V70.763C79.7949 68.0556 80.8704 65.4591 82.7849 63.5446C84.6993 61.6302 87.2958 60.5547 90.0033 60.5547C92.7107 60.5547 95.3072 61.6302 97.2216 63.5446C99.1361 65.4591 100.212 68.0556 100.212 70.763V75.5547H101.667C104.543 75.5547 106.875 77.8865 106.875 80.763V92.4297C106.875 95.3062 104.543 97.638 101.667 97.638H78.3333C75.4569 97.638 73.125 95.3062 73.125 92.4297V80.763C73.125 77.8865 75.4569 75.5547 78.3333 75.5547H79.7949ZM85.4365 66.1963C86.6477 64.9851 88.2904 64.3047 90.0033 64.3047C91.7161 64.3047 93.3588 64.9851 94.57 66.1963C95.7812 67.4075 96.4616 69.0502 96.4616 70.763V75.5547H83.5449V70.763C83.5449 69.0502 84.2254 67.4075 85.4365 66.1963ZM78.3333 79.3047C77.5279 79.3047 76.875 79.9576 76.875 80.763V92.4297C76.875 93.2351 77.5279 93.888 78.3333 93.888H101.667C102.472 93.888 103.125 93.2351 103.125 92.4297V80.763C103.125 79.9576 102.472 79.3047 101.667 79.3047H78.3333Z" fill="white"></path>
</svg>
