<svg width="100%" height="100%" viewBox="0 0 264 394" fill="none" xmlns="http://www.w3.org/2000/svg"><path d="M0.666016 262.667C0.666019 190.118 59.4508 131.333 131.999 131.333L131.999 262.667L0.666016 262.667Z" fill="#6294F1"></path><path d="M132 394C59.4515 394 0.666676 335.215 0.666682 262.667L132 262.667L132 394Z" fill="#253570"></path><path d="M263.332 394C190.783 394 131.999 335.215 131.999 262.667L263.332 262.667L263.332 394Z" fill="#6294F1"></path><path d="M132 131.333C59.4515 131.333 0.666673 72.5485 0.666676 -8.08502e-05L132 -7.62939e-05L132 131.333Z" fill="#253570"></path><rect x="263.332" y="131.333" width="131.333" height="131.333" rx="65.6667" transform="rotate(90 263.332 131.333)" fill="#253570"></rect><rect x="263.332" width="131.333" height="131.333" rx="65.6667" transform="rotate(90 263.332 0)" fill="#6294F1"></rect></svg>