<svg width="180" height="212" viewBox="0 0 180 212" fill="none" xmlns="http://www.w3.org/2000/svg">
<rect y="0.96875" width="180" height="210.968" rx="12" fill="white"></rect>
<path d="M34.853 190.969V182.241H36.4339V189.643H40.2777V190.969H34.853ZM43.0987 190.969H41.4112L44.4837 182.241H46.4354L49.5121 190.969H47.8246L45.4936 184.031H45.4254L43.0987 190.969ZM43.1541 187.547H47.7564V188.817H43.1541V187.547ZM49.2234 183.567V182.241H56.1864V183.567H53.489V190.969H51.9208V183.567H49.2234ZM57.5948 190.969H55.9073L58.9798 182.241H60.9315L64.0082 190.969H62.3207L59.9897 184.031H59.9215L57.5948 190.969ZM57.6502 187.547H62.2525V188.817H57.6502V187.547ZM72.2177 185.186H70.6239C70.5785 184.925 70.4947 184.693 70.3725 184.491C70.2504 184.287 70.0984 184.114 69.9165 183.972C69.7347 183.83 69.5273 183.723 69.2944 183.652C69.0643 183.578 68.8157 183.541 68.5487 183.541C68.0742 183.541 67.6538 183.661 67.2873 183.899C66.9208 184.135 66.6339 184.482 66.4265 184.939C66.2191 185.393 66.1154 185.949 66.1154 186.605C66.1154 187.273 66.2191 187.835 66.4265 188.293C66.6367 188.747 66.9237 189.091 67.2873 189.324C67.6538 189.554 68.0728 189.669 68.5444 189.669C68.8058 189.669 69.0501 189.635 69.2773 189.567C69.5075 189.496 69.7134 189.392 69.8952 189.256C70.0799 189.119 70.2347 188.952 70.3597 188.753C70.4876 188.554 70.5756 188.327 70.6239 188.071L72.2177 188.08C72.158 188.494 72.0288 188.884 71.8299 189.247C71.6339 189.611 71.3768 189.932 71.0586 190.21C70.7404 190.486 70.3683 190.702 69.9421 190.858C69.516 191.011 69.043 191.088 68.5231 191.088C67.756 191.088 67.0714 190.911 66.4691 190.555C65.8668 190.2 65.3924 189.688 65.0458 189.017C64.6992 188.347 64.5259 187.543 64.5259 186.605C64.5259 185.665 64.7006 184.861 65.0501 184.193C65.3995 183.523 65.8754 183.01 66.4776 182.655C67.0799 182.3 67.7617 182.122 68.5231 182.122C69.0089 182.122 69.4606 182.19 69.8782 182.327C70.2958 182.463 70.668 182.663 70.9947 182.928C71.3214 183.189 71.5898 183.51 71.8001 183.891C72.0131 184.268 72.1523 184.7 72.2177 185.186ZM81.4638 186.605C81.4638 187.545 81.2876 188.351 80.9354 189.021C80.5859 189.689 80.1087 190.2 79.5036 190.555C78.9013 190.911 78.218 191.088 77.4538 191.088C76.6896 191.088 76.005 190.911 75.3999 190.555C74.7976 190.197 74.3203 189.685 73.968 189.017C73.6186 188.347 73.4439 187.543 73.4439 186.605C73.4439 185.665 73.6186 184.861 73.968 184.193C74.3203 183.523 74.7976 183.01 75.3999 182.655C76.005 182.3 76.6896 182.122 77.4538 182.122C78.218 182.122 78.9013 182.3 79.5036 182.655C80.1087 183.01 80.5859 183.523 80.9354 184.193C81.2876 184.861 81.4638 185.665 81.4638 186.605ZM79.8743 186.605C79.8743 185.943 79.7706 185.385 79.5632 184.93C79.3587 184.473 79.0746 184.128 78.7109 183.895C78.3473 183.659 77.9283 183.541 77.4538 183.541C76.9794 183.541 76.5604 183.659 76.1967 183.895C75.8331 184.128 75.5476 184.473 75.3402 184.93C75.1357 185.385 75.0334 185.943 75.0334 186.605C75.0334 187.267 75.1357 187.827 75.3402 188.284C75.5476 188.739 75.8331 189.084 76.1967 189.32C76.5604 189.553 76.9794 189.669 77.4538 189.669C77.9283 189.669 78.3473 189.553 78.7109 189.32C79.0746 189.084 79.3587 188.739 79.5632 188.284C79.7706 187.827 79.8743 187.267 79.8743 186.605ZM82.9585 190.969V182.241H86.2312C86.9016 182.241 87.4641 182.358 87.9187 182.591C88.3761 182.824 88.7212 183.151 88.9542 183.571C89.19 183.989 89.3079 184.476 89.3079 185.033C89.3079 185.592 89.1886 186.078 88.9499 186.49C88.7141 186.899 88.3661 187.216 87.9059 187.44C87.4457 187.662 86.8803 187.773 86.2099 187.773H83.8789V186.46H85.9968C86.3888 186.46 86.7099 186.406 86.9599 186.298C87.2099 186.187 87.3945 186.027 87.5138 185.817C87.636 185.604 87.6971 185.342 87.6971 185.033C87.6971 184.723 87.636 184.459 87.5138 184.24C87.3917 184.018 87.2056 183.851 86.9556 183.737C86.7056 183.621 86.3832 183.562 85.9883 183.562H84.5394V190.969H82.9585ZM87.467 187.014L89.6275 190.969H87.8633L85.7411 187.014H87.467ZM91.8839 190.969H90.1964L93.2688 182.241H95.2205L98.2972 190.969H96.6097L94.2788 184.031H94.2106L91.8839 190.969ZM91.9393 187.547H96.5415V188.817H91.9393V187.547ZM103.544 190.969H101.857L104.929 182.241H106.881L109.957 190.969H108.27L105.939 184.031H105.871L103.544 190.969ZM103.599 187.547H108.202V188.817H103.599V187.547ZM116.608 182.241H118.189V187.943C118.189 188.568 118.042 189.118 117.746 189.592C117.453 190.067 117.042 190.437 116.51 190.705C115.979 190.969 115.358 191.101 114.648 191.101C113.935 191.101 113.313 190.969 112.782 190.705C112.25 190.437 111.838 190.067 111.546 189.592C111.253 189.118 111.107 188.568 111.107 187.943V182.241H112.688V187.811C112.688 188.175 112.767 188.499 112.926 188.783C113.088 189.067 113.316 189.29 113.608 189.452C113.901 189.611 114.248 189.69 114.648 189.69C115.049 189.69 115.395 189.611 115.688 189.452C115.983 189.29 116.211 189.067 116.37 188.783C116.529 188.499 116.608 188.175 116.608 187.811V182.241ZM122.865 190.969H119.908V182.241H122.925C123.791 182.241 124.536 182.416 125.158 182.766C125.783 183.112 126.263 183.611 126.598 184.261C126.933 184.912 127.101 185.69 127.101 186.597C127.101 187.506 126.932 188.287 126.594 188.94C126.259 189.594 125.774 190.095 125.141 190.445C124.51 190.794 123.751 190.969 122.865 190.969ZM121.489 189.601H122.788C123.396 189.601 123.903 189.49 124.31 189.268C124.716 189.044 125.021 188.71 125.226 188.267C125.43 187.821 125.533 187.264 125.533 186.597C125.533 185.929 125.43 185.375 125.226 184.935C125.021 184.491 124.719 184.161 124.318 183.942C123.92 183.72 123.426 183.609 122.835 183.609H121.489V189.601ZM130.184 182.241V190.969H128.603V182.241H130.184ZM131.512 183.567V182.241H138.475V183.567H135.778V190.969H134.21V183.567H131.512ZM144.561 184.641C144.521 184.268 144.353 183.979 144.058 183.771C143.765 183.564 143.385 183.46 142.916 183.46C142.586 183.46 142.304 183.51 142.068 183.609C141.832 183.709 141.652 183.844 141.527 184.014C141.402 184.185 141.338 184.379 141.335 184.598C141.335 184.78 141.376 184.937 141.458 185.071C141.544 185.205 141.659 185.318 141.804 185.412C141.949 185.503 142.109 185.58 142.285 185.642C142.461 185.705 142.639 185.757 142.818 185.8L143.636 186.004C143.966 186.081 144.282 186.185 144.586 186.315C144.893 186.446 145.167 186.611 145.409 186.81C145.653 187.009 145.846 187.249 145.988 187.53C146.13 187.811 146.201 188.141 146.201 188.518C146.201 189.03 146.071 189.48 145.809 189.869C145.548 190.256 145.17 190.558 144.676 190.777C144.184 190.993 143.589 191.101 142.89 191.101C142.211 191.101 141.622 190.996 141.122 190.786C140.625 190.575 140.235 190.268 139.954 189.865C139.676 189.462 139.525 188.97 139.502 188.391H141.058C141.081 188.695 141.174 188.947 141.339 189.149C141.504 189.351 141.718 189.501 141.983 189.601C142.25 189.7 142.548 189.75 142.877 189.75C143.221 189.75 143.522 189.699 143.781 189.597C144.042 189.491 144.247 189.347 144.395 189.162C144.542 188.974 144.618 188.756 144.62 188.506C144.618 188.278 144.551 188.091 144.42 187.943C144.289 187.793 144.106 187.668 143.87 187.568C143.637 187.466 143.365 187.375 143.052 187.295L142.059 187.04C141.341 186.855 140.772 186.575 140.355 186.2C139.94 185.822 139.733 185.321 139.733 184.696C139.733 184.182 139.872 183.732 140.15 183.345C140.431 182.959 140.814 182.659 141.297 182.446C141.779 182.23 142.326 182.122 142.937 182.122C143.556 182.122 144.099 182.23 144.565 182.446C145.034 182.659 145.402 182.956 145.669 183.337C145.936 183.714 146.074 184.149 146.082 184.641H144.561Z" fill="#666361"></path>
<rect x="48.3867" y="39.6797" width="83.2258" height="83.2258" rx="41.6129" fill="#2B2A2A"></rect>
<path d="M88.7927 105.117C88.7927 102.963 88.7583 100.815 88.8042 98.662C88.8214 97.8408 88.5343 97.3871 87.8107 96.9736C83.3199 94.4296 78.8751 91.8051 74.3728 89.2726C73.3678 88.7098 72.9888 88.0551 73.0003 86.8951C73.0519 80.5379 73.0519 74.175 73.0003 67.8178C72.9945 66.7152 73.3506 66.118 74.3211 65.5724C79.0703 62.902 83.7851 60.1685 88.4769 57.4005C89.4129 56.8492 90.1193 56.809 91.0841 57.3775C95.8563 60.1972 100.663 62.9595 105.487 65.693C106.256 66.1294 106.561 66.6348 106.555 67.5077C106.526 74.1061 106.515 80.7045 106.561 87.3029C106.566 88.371 106.009 88.8132 105.223 89.2611C100.743 91.8224 96.2812 94.4238 91.7962 96.9736C91.0841 97.3756 90.7797 97.835 90.8027 98.662C90.8486 100.81 90.8142 102.963 90.8084 105.117H88.7985H88.7927ZM90.8199 95.2738C95.4428 92.5919 99.7441 90.1225 103.999 87.5785C104.333 87.3833 104.522 86.6999 104.522 86.2405C104.556 80.3599 104.574 74.4736 104.505 68.5931C104.499 68.0245 104.034 67.2206 103.546 66.9277C99.2789 64.3837 94.9662 61.9028 90.6304 59.4736C90.2054 59.2324 89.4129 59.2382 88.9822 59.4736C84.6465 61.9028 80.3337 64.3779 76.0611 66.9219C75.5672 67.2148 75.1021 68.0131 75.0906 68.5816C75.0217 74.4621 75.0217 80.3484 75.0906 86.229C75.0963 86.7975 75.5845 87.5555 76.0784 87.8829C77.7954 89.0084 79.6044 89.9904 81.3904 91.0127C83.7793 92.3852 86.1741 93.7462 88.787 95.2393C88.787 93.8381 88.7238 92.701 88.8042 91.5754C88.8731 90.5877 88.4999 90.0134 87.6557 89.5081C84.8705 87.8312 82.1541 86.0395 79.3689 84.3626C78.5649 83.8802 78.2606 83.3289 78.2663 82.4101C78.3008 78.2006 78.2778 73.9912 78.2893 69.7876C78.2893 69.3798 78.3697 68.9721 78.4329 68.3978C78.9727 68.685 79.3574 68.863 79.7135 69.0812C82.6078 70.8557 85.5251 72.5957 88.3678 74.4449C89.3727 75.0996 90.1136 75.1915 91.1645 74.4966C94.0014 72.6302 96.9244 70.9074 99.8188 69.1329C100.204 68.8974 100.611 68.6907 101.094 68.415C101.197 68.7711 101.295 68.9491 101.295 69.1271C101.306 73.7156 101.341 78.3098 101.266 82.8982C101.26 83.3691 100.732 83.9836 100.284 84.2764C97.5159 86.0739 94.6905 87.7795 91.9225 89.5712C91.4574 89.8699 90.9175 90.4212 90.8659 90.9093C90.7223 92.2244 90.8142 93.5624 90.8142 95.2795L90.8199 95.2738ZM98.4922 83.1107C92.313 79.2516 86.4382 75.582 80.2935 71.7458C80.2935 75.4499 80.2648 78.7347 80.3337 82.0195C80.3452 82.4158 80.8391 82.9154 81.2353 83.1681C83.8023 84.822 86.3923 86.4414 89.0052 88.0264C89.3498 88.2332 89.9815 88.3767 90.2744 88.1987C92.9332 86.6137 95.5404 84.9483 98.4864 83.1049L98.4922 83.1107ZM99.1871 71.8549C96.6258 73.4342 94.2541 74.8986 91.6813 76.4893C94.2483 78.1088 96.6028 79.5904 99.1871 81.2156V71.8492V71.8549Z" fill="white"></path>
<path d="M89.6137 72.7821L83.3828 68.6244L84.6577 66.7178L89.6596 70.0486L95.0807 66.6719L96.2924 68.6244L89.6137 72.7821Z" fill="white"></path>
</svg>
