<svg width="180" height="211" viewBox="0 0 180 211" fill="none" xmlns="http://www.w3.org/2000/svg">
<rect width="180" height="210.968" rx="12" fill="white"></rect>
<path d="M63.8303 183.672C63.7905 183.3 63.6229 183.01 63.3274 182.803C63.0348 182.595 62.6541 182.491 62.1854 182.491C61.8558 182.491 61.5732 182.541 61.3374 182.641C61.1016 182.74 60.9212 182.875 60.7962 183.045C60.6712 183.216 60.6072 183.411 60.6044 183.629C60.6044 183.811 60.6456 183.969 60.728 184.102C60.8132 184.236 60.9283 184.349 61.0732 184.443C61.218 184.534 61.3786 184.611 61.5547 184.673C61.7308 184.736 61.9084 184.788 62.0874 184.831L62.9055 185.036C63.2351 185.112 63.5518 185.216 63.8558 185.347C64.1626 185.477 64.4368 185.642 64.6783 185.841C64.9226 186.04 65.1158 186.28 65.2578 186.561C65.3999 186.842 65.4709 187.172 65.4709 187.55C65.4709 188.061 65.3402 188.511 65.0788 188.901C64.8175 189.287 64.4396 189.589 63.9453 189.808C63.4538 190.024 62.8587 190.132 62.1598 190.132C61.4808 190.132 60.8913 190.027 60.3913 189.817C59.8942 189.607 59.505 189.3 59.2237 188.896C58.9453 188.493 58.7947 188.001 58.772 187.422H60.3274C60.3501 187.726 60.4439 187.979 60.6087 188.18C60.7734 188.382 60.9879 188.533 61.2521 188.632C61.5192 188.732 61.8175 188.781 62.147 188.781C62.4908 188.781 62.7919 188.73 63.0504 188.628C63.3118 188.523 63.5163 188.378 63.6641 188.193C63.8118 188.006 63.8871 187.787 63.8899 187.537C63.8871 187.31 63.8203 187.122 63.6896 186.974C63.5589 186.824 63.3757 186.699 63.1399 186.599C62.907 186.497 62.6342 186.406 62.3217 186.327L61.3288 186.071C60.6101 185.886 60.0419 185.607 59.6243 185.232C59.2095 184.854 59.0021 184.352 59.0021 183.727C59.0021 183.213 59.1413 182.763 59.4197 182.376C59.701 181.99 60.0831 181.69 60.5661 181.477C61.049 181.261 61.5959 181.153 62.2067 181.153C62.826 181.153 63.3686 181.261 63.8345 181.477C64.3033 181.69 64.6712 181.987 64.9382 182.368C65.2053 182.746 65.343 183.18 65.3516 183.672H63.8303ZM71.6232 183.672C71.5835 183.3 71.4158 183.01 71.1204 182.803C70.8278 182.595 70.4471 182.491 69.9783 182.491C69.6488 182.491 69.3661 182.541 69.1303 182.641C68.8945 182.74 68.7141 182.875 68.5891 183.045C68.4641 183.216 68.4002 183.411 68.3974 183.629C68.3974 183.811 68.4386 183.969 68.521 184.102C68.6062 184.236 68.7212 184.349 68.8661 184.443C69.011 184.534 69.1715 184.611 69.3477 184.673C69.5238 184.736 69.7013 184.788 69.8803 184.831L70.6985 185.036C71.0281 185.112 71.3448 185.216 71.6488 185.347C71.9556 185.477 72.2298 185.642 72.4712 185.841C72.7156 186.04 72.9087 186.28 73.0508 186.561C73.1928 186.842 73.2638 187.172 73.2638 187.55C73.2638 188.061 73.1332 188.511 72.8718 188.901C72.6104 189.287 72.2326 189.589 71.7383 189.808C71.2468 190.024 70.6516 190.132 69.9528 190.132C69.2738 190.132 68.6843 190.027 68.1843 189.817C67.6871 189.607 67.2979 189.3 67.0167 188.896C66.7383 188.493 66.5877 188.001 66.565 187.422H68.1204C68.1431 187.726 68.2369 187.979 68.4016 188.18C68.5664 188.382 68.7809 188.533 69.0451 188.632C69.3121 188.732 69.6104 188.781 69.94 188.781C70.2837 188.781 70.5849 188.73 70.8434 188.628C71.1048 188.523 71.3093 188.378 71.457 188.193C71.6048 188.006 71.68 187.787 71.6829 187.537C71.68 187.31 71.6133 187.122 71.4826 186.974C71.3519 186.824 71.1687 186.699 70.9329 186.599C70.6999 186.497 70.4272 186.406 70.1147 186.327L69.1218 186.071C68.4031 185.886 67.8349 185.607 67.4173 185.232C67.0025 184.854 66.7951 184.352 66.7951 183.727C66.7951 183.213 66.9343 182.763 67.2127 182.376C67.494 181.99 67.8761 181.69 68.359 181.477C68.842 181.261 69.3888 181.153 69.9996 181.153C70.619 181.153 71.1616 181.261 71.6275 181.477C72.0962 181.69 72.4641 181.987 72.7312 182.368C72.9982 182.746 73.136 183.18 73.1445 183.672H71.6232ZM82.4716 185.636C82.4716 186.577 82.2955 187.382 81.9432 188.053C81.5938 188.72 81.1165 189.232 80.5114 189.587C79.9091 189.942 79.2259 190.119 78.4616 190.119C77.6974 190.119 77.0128 189.942 76.4077 189.587C75.8054 189.229 75.3281 188.716 74.9759 188.048C74.6264 187.378 74.4517 186.574 74.4517 185.636C74.4517 184.696 74.6264 183.892 74.9759 183.224C75.3281 182.554 75.8054 182.041 76.4077 181.686C77.0128 181.331 77.6974 181.153 78.4616 181.153C79.2259 181.153 79.9091 181.331 80.5114 181.686C81.1165 182.041 81.5938 182.554 81.9432 183.224C82.2955 183.892 82.4716 184.696 82.4716 185.636ZM80.8821 185.636C80.8821 184.974 80.7784 184.416 80.571 183.962C80.3665 183.504 80.0824 183.159 79.7188 182.926C79.3551 182.69 78.9361 182.572 78.4616 182.572C77.9872 182.572 77.5682 182.69 77.2045 182.926C76.8409 183.159 76.5554 183.504 76.348 183.962C76.1435 184.416 76.0412 184.974 76.0412 185.636C76.0412 186.298 76.1435 186.858 76.348 187.315C76.5554 187.77 76.8409 188.115 77.2045 188.351C77.5682 188.584 77.9872 188.7 78.4616 188.7C78.9361 188.7 79.3551 188.584 79.7188 188.351C80.0824 188.115 80.3665 187.77 80.571 187.315C80.7784 186.858 80.8821 186.298 80.8821 185.636ZM89.4826 190.128C88.886 190.128 88.3732 190.02 87.9442 189.804C87.5153 189.588 87.1843 189.297 86.9513 188.93C86.7212 188.561 86.6062 188.145 86.6062 187.682C86.6062 187.332 86.6772 187.023 86.8192 186.753C86.9641 186.483 87.163 186.233 87.4158 186.003C87.6715 185.773 87.967 185.544 88.3022 185.317L89.8491 184.264C90.0763 184.116 90.2482 183.96 90.3647 183.795C90.484 183.631 90.5437 183.437 90.5437 183.216C90.5437 183.028 90.4641 182.851 90.305 182.683C90.1488 182.516 89.9329 182.432 89.6573 182.432C89.4727 182.432 89.3093 182.476 89.1673 182.564C89.0281 182.649 88.9187 182.761 88.8391 182.901C88.7624 183.04 88.7241 183.188 88.7241 183.344C88.7241 183.534 88.7766 183.727 88.8817 183.923C88.9897 184.119 89.1289 184.322 89.2994 184.533C89.4727 184.743 89.6573 184.966 89.8533 185.202L93.9485 190H92.2781L88.8775 186.105C88.6246 185.81 88.3803 185.518 88.1445 185.232C87.9116 184.945 87.7198 184.646 87.5692 184.337C87.4215 184.024 87.3477 183.686 87.3477 183.322C87.3477 182.911 87.4428 182.543 87.6332 182.219C87.8235 181.892 88.0891 181.635 88.43 181.447C88.7738 181.26 89.1758 181.166 89.636 181.166C90.0962 181.166 90.4911 181.257 90.8207 181.439C91.1502 181.621 91.4045 181.862 91.5835 182.163C91.7624 182.464 91.8519 182.793 91.8519 183.148C91.8519 183.56 91.7496 183.929 91.5451 184.256C91.3406 184.58 91.0565 184.874 90.6928 185.138L88.9286 186.429C88.6388 186.639 88.4315 186.852 88.3065 187.068C88.1815 187.281 88.119 187.463 88.119 187.614C88.119 187.844 88.1772 188.053 88.2937 188.24C88.4102 188.428 88.5735 188.578 88.7837 188.692C88.9968 188.803 89.2454 188.858 89.5295 188.858C89.842 188.858 90.1502 188.788 90.4542 188.649C90.7582 188.507 91.0352 188.305 91.2852 188.044C91.5352 187.783 91.734 187.47 91.8817 187.107C92.0295 186.74 92.1033 186.334 92.1033 185.888H93.4286C93.4286 186.439 93.3675 186.919 93.2454 187.328C93.1232 187.734 92.9656 188.078 92.7724 188.359C92.5792 188.638 92.3746 188.861 92.1587 189.028C92.0906 189.077 92.0252 189.125 91.9627 189.173C91.9002 189.222 91.8349 189.27 91.7667 189.318C91.4599 189.597 91.1005 189.801 90.6886 189.932C90.2795 190.062 89.8775 190.128 89.4826 190.128ZM97.8764 181.273H99.8111L102.402 187.597H102.504L105.095 181.273H107.03V190H105.513V184.004H105.432L103.02 189.974H101.886L99.4744 183.991H99.3935V190H97.8764V181.273ZM108.751 190V181.273H114.342V182.598H110.332V184.967H113.959V186.293H110.332V190H108.751ZM115.814 190H114.126L117.199 181.273H119.15L122.227 190H120.539L118.208 183.062H118.14L115.814 190ZM115.869 186.578H120.471V187.848H115.869V186.578Z" fill="#666361"></path>
<rect x="48.3867" y="38.6445" width="83.2258" height="83.2258" rx="41.6129" fill="#2B2A2A"></rect>
<path fill-rule="evenodd" clip-rule="evenodd" d="M71.4531 69.3333C71.4531 66.4568 73.785 64.125 76.6615 64.125H103.328C106.205 64.125 108.536 66.4568 108.536 69.3333V86C108.536 88.8765 106.205 91.2083 103.328 91.2083H91.8706V94.125H96.6615C97.697 94.125 98.5365 94.9645 98.5365 96C98.5365 97.0355 97.697 97.875 96.6615 97.875H90.0351C90.022 97.8753 90.0088 97.8754 89.9956 97.8754C89.9824 97.8754 89.9692 97.8753 89.9561 97.875H83.3281C82.2926 97.875 81.4531 97.0355 81.4531 96C81.4531 94.9645 82.2926 94.125 83.3281 94.125H88.1206V91.2083H76.6615C73.785 91.2083 71.4531 88.8765 71.4531 86V69.3333ZM76.6615 67.875C75.856 67.875 75.2031 68.5279 75.2031 69.3333V86C75.2031 86.8054 75.856 87.4583 76.6615 87.4583H103.328C104.134 87.4583 104.786 86.8054 104.786 86V69.3333C104.786 68.5279 104.134 67.875 103.328 67.875H76.6615Z" fill="white"></path>
</svg>
