<svg width="139" height="140" viewBox="0 0 139 140" fill="none" xmlns="http://www.w3.org/2000/svg">
<g clip-path="url(#clip0_74_46825)">
<rect x="0.0078125" width="138.697" height="139.653" rx="12" fill="#171321"></rect>
<path d="M69.2693 97.6664L80.3746 63.3496H58.1641L69.2693 97.6664Z" fill="#E24329"></path>
<path d="M69.2664 97.6664L58.1612 63.3496H42.5977L69.2664 97.6664Z" fill="#FC6D26"></path>
<path d="M42.5968 63.3496L39.2221 73.7782C38.9142 74.7293 39.2514 75.7713 40.0572 76.3591L69.2655 97.6664L42.5968 63.3496Z" fill="#FCA326"></path>
<path d="M42.5977 63.3491H58.1613L51.4726 42.6805C51.1286 41.6168 49.6301 41.6171 49.286 42.6805L42.5977 63.3491Z" fill="#E24329"></path>
<path d="M69.2656 97.6664L80.371 63.3496H95.9347L69.2656 97.6664Z" fill="#FC6D26"></path>
<path d="M95.9347 63.3496L99.309 73.7782C99.6169 74.7293 99.2797 75.7713 98.4742 76.3591L69.2656 97.6664L95.9347 63.3496Z" fill="#FCA326"></path>
<path d="M95.934 63.3491H80.3711L87.0594 42.6805C87.4038 41.6168 88.9021 41.6171 89.2457 42.6805L95.934 63.3491Z" fill="#E24329"></path>
</g>
<defs>
<clipPath id="clip0_74_46825">
<rect x="0.0078125" width="138.697" height="139.653" rx="12" fill="white"></rect>
</clipPath>
</defs>
</svg>
