<svg width="28" height="28" viewBox="0 0 28 28" fill="none" xmlns="http://www.w3.org/2000/svg"><rect x="0.658203" width="27.2195" height="27.2195" rx="13.6098" fill="currentColor"></rect><path class=" transition-colors duration-300 group-hover:fill-heading-black" d="M19.6754 11.46C19.5368 10.5863 19.121 9.98138 18.1506 9.84696C16.6258 9.57813 14.2693 9.57812 14.2693 9.57812C14.2693 9.57812 11.9128 9.57813 10.388 9.84696C9.4177 9.98138 8.93254 10.5863 8.86323 11.46C8.72461 12.3337 8.72461 13.6106 8.72461 13.6106C8.72461 13.6106 8.72461 14.8876 8.86323 15.7613C9.00185 16.635 9.4177 17.2399 10.388 17.3743C11.9128 17.6432 14.2693 17.6432 14.2693 17.6432C14.2693 17.6432 16.6258 17.6432 18.1506 17.3743C19.121 17.1727 19.5368 16.635 19.6754 15.7613C19.814 14.8876 19.814 13.6106 19.814 13.6106C19.814 13.6106 19.814 12.3337 19.6754 11.46ZM12.8831 15.6269V11.5944L16.3486 13.6106L12.8831 15.6269Z" fill="white"></path></svg>