<svg width="199" height="82" viewBox="0 0 199 82" fill="none" xmlns="http://www.w3.org/2000/svg">
<g clip-path="url(#clip0_1549_96062)">
<path d="M28.5312 29.2332C28.5312 27.7151 29.7707 26.4844 31.2997 26.4844H42.1288C43.6578 26.4844 44.8973 27.7151 44.8973 29.2332V31.36C44.8973 32.119 44.2776 32.7344 43.5131 32.7344H29.9155C29.151 32.7344 28.5312 32.119 28.5312 31.36V29.2332Z" fill="#262626"></path>
<path d="M28.5312 37.8588C28.5312 37.0997 29.151 36.4844 29.9155 36.4844H55.977C57.506 36.4844 58.7455 37.7151 58.7455 39.2332V46.36C58.7455 47.119 58.1258 47.7344 57.3613 47.7344H31.2997C29.7707 47.7344 28.5312 46.5036 28.5312 44.9855V37.8588Z" fill="#262626"></path>
<path d="M42.3789 52.8588C42.3789 52.0998 42.9987 51.4844 43.7631 51.4844H57.3608C58.1252 51.4844 58.745 52.0998 58.745 52.8588V53.7355C58.745 55.2536 57.5054 56.4844 55.9765 56.4844H45.1474C43.6184 56.4844 42.3789 55.2536 42.3789 53.7355V52.8588Z" fill="#262626"></path>
<path d="M75.8598 44.9106H78.7698L84.1741 53.682H90.791L84.7978 44.2914C88.1235 43.1562 90.0635 40.6109 90.0635 36.9303C90.0635 31.7706 86.4259 28.9844 80.5712 28.9844H70.0742V53.682H75.8598V44.9106ZM75.8598 40.2325V33.8345H80.2595C82.9962 33.8345 84.3819 35.004 84.3819 37.0335C84.3819 39.0285 82.9962 40.2325 80.2595 40.2325H75.8598Z" fill="#262626"></path>
<path d="M100.746 54.0602C104.383 54.0602 107.709 52.2372 109.06 48.7629L104.418 47.2838C103.899 48.8662 102.547 49.6917 100.815 49.6917C98.7019 49.6917 97.2124 48.2814 96.8313 45.8047H109.199V44.36C109.199 39.2347 106.185 35.1758 100.642 35.1758C95.3762 35.1758 91.4961 39.2347 91.4961 44.6008C91.4961 50.242 95.2376 54.0602 100.746 54.0602ZM100.573 39.4412C102.617 39.4412 103.691 40.817 103.725 42.4337H97.0045C97.5587 40.4387 98.8752 39.4412 100.573 39.4412Z" fill="#262626"></path>
<path d="M112.341 48.8308C112.341 52.5458 114.315 53.853 118.265 53.853C119.581 53.853 120.62 53.7499 121.59 53.6122V49.1061C120.967 49.1748 120.655 49.2092 119.997 49.2092C118.611 49.2092 117.814 48.9341 117.814 47.4206V40.0938H121.383V35.5533H117.814V30.5312H112.341V35.5533H110.02V40.0938H112.341V48.8308Z" fill="#262626"></path>
<path d="M141.421 44.6352C141.421 38.9939 137.645 35.1758 132.275 35.1758C126.87 35.1758 123.129 38.9939 123.129 44.6352C123.129 50.2764 126.87 54.0602 132.275 54.0602C137.645 54.0602 141.421 50.2764 141.421 44.6352ZM128.637 44.6352C128.637 41.4705 130.058 39.6819 132.275 39.6819C134.492 39.6819 135.912 41.4705 135.912 44.6352C135.912 47.7998 134.492 49.5884 132.275 49.5884C130.058 49.5884 128.637 47.7998 128.637 44.6352Z" fill="#262626"></path>
<path d="M161.381 44.6352C161.381 38.9939 157.606 35.1758 152.236 35.1758C146.831 35.1758 143.09 38.9939 143.09 44.6352C143.09 50.2764 146.831 54.0602 152.236 54.0602C157.606 54.0602 161.381 50.2764 161.381 44.6352ZM148.598 44.6352C148.598 41.4705 150.019 39.6819 152.236 39.6819C154.454 39.6819 155.874 41.4705 155.874 44.6352C155.874 47.7998 154.454 49.5884 152.236 49.5884C150.019 49.5884 148.598 47.7998 148.598 44.6352Z" fill="#262626"></path>
<path d="M169.531 28.9844H163.988V53.682H169.531V28.9844Z" fill="#262626"></path>
</g>
<defs>
<clipPath id="clip0_1549_96062">
<rect width="141" height="30" fill="white" transform="translate(28.5312 26.4844)"></rect>
</clipPath>
</defs>
</svg>
