<svg width="180" height="212" viewBox="0 0 180 212" fill="none" xmlns="http://www.w3.org/2000/svg">
<rect y="0.933594" width="180" height="210.968" rx="12" fill="white"></rect>
<path d="M14.937 190.934V182.206H20.6131V183.532H16.5179V185.901H20.3191V187.226H16.5179V189.608H20.6472V190.934H14.937ZM29.3979 182.206V190.934H27.9917L23.8794 184.989H23.807V190.934H22.226V182.206H23.6408L27.7488 188.155H27.8255V182.206H29.3979ZM34.0779 190.934H31.1206V182.206H34.1376C35.0041 182.206 35.7484 182.381 36.3706 182.73C36.9956 183.077 37.4757 183.576 37.8109 184.226C38.1461 184.877 38.3137 185.655 38.3137 186.561C38.3137 187.471 38.1447 188.252 37.8066 188.905C37.4714 189.559 36.987 190.06 36.3535 190.409C35.7228 190.759 34.9643 190.934 34.0779 190.934ZM32.7015 189.566H34.0012C34.6092 189.566 35.1163 189.455 35.5225 189.233C35.9288 189.009 36.2342 188.675 36.4387 188.232C36.6433 187.786 36.7456 187.229 36.7456 186.561C36.7456 185.894 36.6433 185.34 36.4387 184.9C36.2342 184.456 35.9316 184.125 35.5311 183.907C35.1333 183.685 34.639 183.574 34.0481 183.574H32.7015V189.566ZM43.715 185.935V187.205H39.786V185.935H43.715ZM44.4831 183.532V182.206H51.4462V183.532H48.7488V190.934H47.1806V183.532H44.4831ZM60.2001 186.57C60.2001 187.51 60.024 188.316 59.6717 188.986C59.3223 189.654 58.845 190.165 58.2399 190.52C57.6376 190.875 56.9544 191.053 56.1902 191.053C55.426 191.053 54.7413 190.875 54.1362 190.52C53.5339 190.162 53.0566 189.65 52.7044 188.982C52.3549 188.311 52.1802 187.507 52.1802 186.57C52.1802 185.63 52.3549 184.826 52.7044 184.158C53.0566 183.488 53.5339 182.975 54.1362 182.62C54.7413 182.265 55.426 182.087 56.1902 182.087C56.9544 182.087 57.6376 182.265 58.2399 182.62C58.845 182.975 59.3223 183.488 59.6717 184.158C60.024 184.826 60.2001 185.63 60.2001 186.57ZM58.6106 186.57C58.6106 185.908 58.5069 185.35 58.2995 184.895C58.095 184.438 57.8109 184.093 57.4473 183.86C57.0836 183.624 56.6646 183.506 56.1902 183.506C55.7157 183.506 55.2967 183.624 54.9331 183.86C54.5694 184.093 54.2839 184.438 54.0765 184.895C53.872 185.35 53.7697 185.908 53.7697 186.57C53.7697 187.232 53.872 187.792 54.0765 188.249C54.2839 188.703 54.5694 189.049 54.9331 189.284C55.2967 189.517 55.7157 189.634 56.1902 189.634C56.6646 189.634 57.0836 189.517 57.4473 189.284C57.8109 189.049 58.095 188.703 58.2995 188.249C58.5069 187.792 58.6106 187.232 58.6106 186.57ZM65.5939 185.935V187.205H61.665V185.935H65.5939ZM67.2846 190.934V182.206H72.9608V183.532H68.8656V185.901H72.6667V187.226H68.8656V189.608H72.9949V190.934H67.2846ZM81.7456 182.206V190.934H80.3393L76.2271 184.989H76.1547V190.934H74.5737V182.206H75.9885L80.0964 188.155H80.1731V182.206H81.7456ZM86.4256 190.934H83.4682V182.206H86.4853C87.3517 182.206 88.0961 182.381 88.7182 182.73C89.3432 183.077 89.8233 183.576 90.1586 184.226C90.4938 184.877 90.6614 185.655 90.6614 186.561C90.6614 187.471 90.4924 188.252 90.1543 188.905C89.8191 189.559 89.3347 190.06 88.7012 190.409C88.0705 190.759 87.312 190.934 86.4256 190.934ZM85.0492 189.566H86.3489C86.9569 189.566 87.464 189.455 87.8702 189.233C88.2765 189.009 88.5819 188.675 88.7864 188.232C88.9909 187.786 89.0932 187.229 89.0932 186.561C89.0932 185.894 88.9909 185.34 88.7864 184.9C88.5819 184.456 88.2793 184.125 87.8787 183.907C87.481 183.685 86.9867 183.574 86.3958 183.574H85.0492V189.566ZM95.1401 190.934V182.206H100.816V183.532H96.7211V185.901H100.522V187.226H96.7211V189.608H100.85V190.934H95.1401ZM109.601 182.206V190.934H108.195L104.083 184.989H104.01V190.934H102.429V182.206H103.844L107.952 188.155H108.029V182.206H109.601ZM118.794 185.151H117.2C117.155 184.89 117.071 184.658 116.949 184.456C116.827 184.252 116.675 184.078 116.493 183.936C116.311 183.794 116.104 183.688 115.871 183.617C115.64 183.543 115.392 183.506 115.125 183.506C114.65 183.506 114.23 183.625 113.863 183.864C113.497 184.1 113.21 184.446 113.003 184.904C112.795 185.358 112.692 185.914 112.692 186.57C112.692 187.238 112.795 187.8 113.003 188.257C113.213 188.712 113.5 189.056 113.863 189.289C114.23 189.519 114.649 189.634 115.121 189.634C115.382 189.634 115.626 189.6 115.854 189.532C116.084 189.461 116.29 189.357 116.471 189.221C116.656 189.084 116.811 188.917 116.936 188.718C117.064 188.519 117.152 188.292 117.2 188.036L118.794 188.044C118.734 188.459 118.605 188.848 118.406 189.212C118.21 189.576 117.953 189.897 117.635 190.175C117.317 190.451 116.944 190.667 116.518 190.823C116.092 190.976 115.619 191.053 115.099 191.053C114.332 191.053 113.648 190.875 113.045 190.52C112.443 190.165 111.969 189.652 111.622 188.982C111.275 188.311 111.102 187.507 111.102 186.57C111.102 185.63 111.277 184.826 111.626 184.158C111.976 183.488 112.452 182.975 113.054 182.62C113.656 182.265 114.338 182.087 115.099 182.087C115.585 182.087 116.037 182.155 116.454 182.292C116.872 182.428 117.244 182.628 117.571 182.892C117.898 183.154 118.166 183.475 118.376 183.855C118.589 184.233 118.729 184.665 118.794 185.151ZM120.242 190.934V182.206H123.514C124.185 182.206 124.747 182.323 125.202 182.556C125.659 182.789 126.004 183.115 126.237 183.536C126.473 183.953 126.591 184.441 126.591 184.998C126.591 185.557 126.472 186.043 126.233 186.455C125.997 186.864 125.649 187.181 125.189 187.405C124.729 187.627 124.164 187.738 123.493 187.738H121.162V186.425H123.28C123.672 186.425 123.993 186.371 124.243 186.263C124.493 186.152 124.678 185.992 124.797 185.782C124.919 185.569 124.98 185.307 124.98 184.998C124.98 184.688 124.919 184.424 124.797 184.205C124.675 183.983 124.489 183.816 124.239 183.702C123.989 183.586 123.666 183.527 123.271 183.527H121.823V190.934H120.242ZM124.75 186.979L126.911 190.934H125.146L123.024 186.979H124.75ZM127.11 182.206H128.895L131.03 186.067H131.116L133.251 182.206H135.036L131.861 187.678V190.934H130.285V187.678L127.11 182.206ZM136.156 190.934V182.206H139.428C140.099 182.206 140.661 182.331 141.116 182.581C141.573 182.831 141.919 183.175 142.151 183.613C142.387 184.047 142.505 184.542 142.505 185.096C142.505 185.655 142.387 186.152 142.151 186.587C141.916 187.022 141.568 187.364 141.107 187.614C140.647 187.861 140.08 187.985 139.407 187.985H137.238V186.685H139.194C139.586 186.685 139.907 186.617 140.157 186.48C140.407 186.344 140.592 186.157 140.711 185.918C140.833 185.679 140.894 185.405 140.894 185.096C140.894 184.786 140.833 184.513 140.711 184.277C140.592 184.042 140.406 183.858 140.153 183.728C139.903 183.594 139.58 183.527 139.186 183.527H137.737V190.934H136.156ZM143.495 183.532V182.206H150.458V183.532H147.76V190.934H146.192V183.532H143.495ZM151.8 190.934V182.206H157.476V183.532H153.381V185.901H157.182V187.226H153.381V189.608H157.51V190.934H151.8ZM162.047 190.934H159.089V182.206H162.106C162.973 182.206 163.717 182.381 164.339 182.73C164.964 183.077 165.444 183.576 165.78 184.226C166.115 184.877 166.282 185.655 166.282 186.561C166.282 187.471 166.113 188.252 165.775 188.905C165.44 189.559 164.956 190.06 164.322 190.409C163.692 190.759 162.933 190.934 162.047 190.934ZM160.67 189.566H161.97C162.578 189.566 163.085 189.455 163.491 189.233C163.898 189.009 164.203 188.675 164.407 188.232C164.612 187.786 164.714 187.229 164.714 186.561C164.714 185.894 164.612 185.34 164.407 184.9C164.203 184.456 163.9 184.125 163.5 183.907C163.102 183.685 162.608 183.574 162.017 183.574H160.67V189.566Z" fill="#666361"></path>
<rect x="48.3867" y="39.6406" width="83.2258" height="83.2258" rx="41.6129" fill="#2B2A2A"></rect>
<path fill-rule="evenodd" clip-rule="evenodd" d="M89.3469 62.5725C89.7713 62.4133 90.2391 62.4133 90.6636 62.5725L103.997 67.5725C104.729 67.8469 105.214 68.5465 105.214 69.3281V80.9948C105.214 86.8319 101.352 91.4745 97.9066 94.4892C96.1445 96.031 94.3913 97.2354 93.0823 98.0535C92.4258 98.4638 91.8761 98.7801 91.4862 98.9959C91.2911 99.1039 91.1357 99.1869 91.0265 99.2443C90.9993 99.2586 90.9749 99.2713 90.9535 99.2823C90.932 99.2935 90.9135 99.303 90.8981 99.3109L90.8614 99.3296L90.8501 99.3353L90.8463 99.3372C90.8463 99.3372 90.8437 99.3385 90.0052 97.6615C89.1667 99.3385 89.1655 99.3379 89.1655 99.3379L89.1603 99.3353L89.1491 99.3296L89.1123 99.3109C89.0816 99.2952 89.0385 99.2729 88.9839 99.2443C88.8747 99.1869 88.7193 99.1039 88.5242 98.9959C88.1343 98.7801 87.5846 98.4638 86.9281 98.0535C85.6191 97.2354 83.8659 96.031 82.1038 94.4892C78.6585 91.4745 74.7969 86.8319 74.7969 80.9948V69.3281C74.7969 68.5465 75.2817 67.8469 76.0135 67.5725L89.3469 62.5725ZM90.0052 97.6615L89.1655 99.3379C89.6934 99.6019 90.3159 99.6024 90.8437 99.3385L90.0052 97.6615ZM90.0052 95.5263C90.3054 95.3545 90.6747 95.1361 91.0948 94.8735C92.2858 94.1292 93.8659 93.0419 95.4372 91.667C98.6585 88.8484 101.464 85.1577 101.464 80.9948V70.6275L90.0052 66.3306L78.5469 70.6275V80.9948C78.5469 85.1577 81.3519 88.8484 84.5732 91.667C86.1445 93.0419 87.7246 94.1292 88.9156 94.8735C89.3358 95.1361 89.705 95.3545 90.0052 95.5263Z" fill="white"></path>
</svg>
