<svg width="180" height="211" viewBox="0 0 180 211" fill="none" xmlns="http://www.w3.org/2000/svg">
<rect width="180" height="210.968" rx="12" fill="white"></rect>
<path d="M77.758 183.672C77.7182 183.3 77.5506 183.01 77.2551 182.803C76.9625 182.595 76.5819 182.491 76.1131 182.491C75.7836 182.491 75.5009 182.541 75.2651 182.641C75.0293 182.74 74.8489 182.875 74.7239 183.045C74.5989 183.216 74.535 183.411 74.5321 183.629C74.5321 183.811 74.5733 183.969 74.6557 184.102C74.7409 184.236 74.856 184.349 75.0009 184.443C75.1458 184.534 75.3063 184.611 75.4824 184.673C75.6586 184.736 75.8361 184.788 76.0151 184.831L76.8333 185.036C77.1628 185.112 77.4796 185.216 77.7836 185.347C78.0904 185.477 78.3645 185.642 78.606 185.841C78.8503 186.04 79.0435 186.28 79.1855 186.561C79.3276 186.842 79.3986 187.172 79.3986 187.55C79.3986 188.061 79.2679 188.511 79.0066 188.901C78.7452 189.287 78.3674 189.589 77.873 189.808C77.3816 190.024 76.7864 190.132 76.0875 190.132C75.4086 190.132 74.8191 190.027 74.3191 189.817C73.8219 189.607 73.4327 189.3 73.1515 188.896C72.873 188.493 72.7225 188.001 72.6998 187.422H74.2551C74.2779 187.726 74.3716 187.979 74.5364 188.18C74.7012 188.382 74.9157 188.533 75.1799 188.632C75.4469 188.732 75.7452 188.781 76.0748 188.781C76.4185 188.781 76.7196 188.73 76.9782 188.628C77.2395 188.523 77.4441 188.378 77.5918 188.193C77.7395 188.006 77.8148 187.787 77.8176 187.537C77.8148 187.31 77.748 187.122 77.6174 186.974C77.4867 186.824 77.3034 186.699 77.0676 186.599C76.8347 186.497 76.562 186.406 76.2495 186.327L75.2566 186.071C74.5378 185.886 73.9696 185.607 73.552 185.232C73.1373 184.854 72.9299 184.352 72.9299 183.727C72.9299 183.213 73.0691 182.763 73.3475 182.376C73.6287 181.99 74.0108 181.69 74.4938 181.477C74.9767 181.261 75.5236 181.153 76.1344 181.153C76.7537 181.153 77.2963 181.261 77.7623 181.477C78.231 181.69 78.5989 181.987 78.8659 182.368C79.133 182.746 79.2708 183.18 79.2793 183.672H77.758ZM88.6064 185.636C88.6064 186.577 88.4302 187.382 88.0779 188.053C87.7285 188.72 87.2512 189.232 86.6461 189.587C86.0439 189.942 85.3606 190.119 84.5964 190.119C83.8322 190.119 83.1475 189.942 82.5424 189.587C81.9402 189.229 81.4629 188.716 81.1106 188.048C80.7612 187.378 80.5865 186.574 80.5865 185.636C80.5865 184.696 80.7612 183.892 81.1106 183.224C81.4629 182.554 81.9402 182.041 82.5424 181.686C83.1475 181.331 83.8322 181.153 84.5964 181.153C85.3606 181.153 86.0439 181.331 86.6461 181.686C87.2512 182.041 87.7285 182.554 88.0779 183.224C88.4302 183.892 88.6064 184.696 88.6064 185.636ZM87.0169 185.636C87.0169 184.974 86.9132 184.416 86.7058 183.962C86.5012 183.504 86.2172 183.159 85.8535 182.926C85.4899 182.69 85.0708 182.572 84.5964 182.572C84.122 182.572 83.7029 182.69 83.3393 182.926C82.9757 183.159 82.6902 183.504 82.4828 183.962C82.2782 184.416 82.176 184.974 82.176 185.636C82.176 186.298 82.2782 186.858 82.4828 187.315C82.6902 187.77 82.9757 188.115 83.3393 188.351C83.7029 188.584 84.122 188.7 84.5964 188.7C85.0708 188.7 85.4899 188.584 85.8535 188.351C86.2172 188.115 86.5012 187.77 86.7058 187.315C86.9132 186.858 87.0169 186.298 87.0169 185.636ZM97.5712 184.217H95.9775C95.932 183.956 95.8482 183.724 95.726 183.523C95.6039 183.318 95.4519 183.145 95.2701 183.003C95.0882 182.861 94.8809 182.754 94.6479 182.683C94.4178 182.609 94.1692 182.572 93.9022 182.572C93.4277 182.572 93.0073 182.692 92.6408 182.93C92.2743 183.166 91.9874 183.513 91.78 183.97C91.5726 184.425 91.4689 184.98 91.4689 185.636C91.4689 186.304 91.5726 186.866 91.78 187.324C91.9902 187.778 92.2772 188.122 92.6408 188.355C93.0073 188.585 93.4263 188.7 93.8979 188.7C94.1593 188.7 94.4036 188.666 94.6309 188.598C94.861 188.527 95.0669 188.423 95.2488 188.287C95.4334 188.151 95.5882 187.983 95.7132 187.784C95.8411 187.585 95.9292 187.358 95.9775 187.102L97.5712 187.111C97.5115 187.526 97.3823 187.915 97.1834 188.278C96.9874 188.642 96.7303 188.963 96.4121 189.241C96.0939 189.517 95.7218 189.733 95.2956 189.889C94.8695 190.043 94.3965 190.119 93.8766 190.119C93.1096 190.119 92.4249 189.942 91.8226 189.587C91.2203 189.232 90.7459 188.719 90.3993 188.048C90.0527 187.378 89.8794 186.574 89.8794 185.636C89.8794 184.696 90.0542 183.892 90.4036 183.224C90.753 182.554 91.2289 182.041 91.8311 181.686C92.4334 181.331 93.1152 181.153 93.8766 181.153C94.3624 181.153 94.8141 181.222 95.2317 181.358C95.6493 181.494 96.0215 181.695 96.3482 181.959C96.6749 182.22 96.9434 182.541 97.1536 182.922C97.3667 183.3 97.5059 183.732 97.5712 184.217ZM101.91 190V188.858L104.94 185.888C105.23 185.595 105.471 185.335 105.665 185.108C105.858 184.881 106.003 184.661 106.099 184.447C106.196 184.234 106.244 184.007 106.244 183.766C106.244 183.49 106.182 183.254 106.057 183.058C105.932 182.859 105.76 182.706 105.541 182.598C105.322 182.49 105.074 182.436 104.795 182.436C104.508 182.436 104.257 182.496 104.041 182.615C103.825 182.732 103.657 182.898 103.538 183.114C103.422 183.33 103.363 183.587 103.363 183.885H101.859C101.859 183.331 101.986 182.849 102.238 182.44C102.491 182.031 102.839 181.714 103.282 181.49C103.729 181.266 104.24 181.153 104.817 181.153C105.402 181.153 105.916 181.263 106.359 181.482C106.802 181.7 107.146 182 107.39 182.381C107.638 182.761 107.761 183.196 107.761 183.685C107.761 184.011 107.699 184.332 107.574 184.648C107.449 184.963 107.229 185.312 106.913 185.696C106.601 186.08 106.162 186.544 105.596 187.089L104.092 188.619V188.679H107.893V190H101.91Z" fill="#666361"></path>
<rect x="48.3867" y="38.7109" width="83.2258" height="83.2258" rx="41.6129" fill="#2B2A2A"></rect>
<g clip-path="url(#clip0_272_74008)">
<path d="M119.393 81.1298C119.387 83.7707 119.035 86.3633 118.354 88.9148C118.272 89.2237 118.177 89.2908 117.856 89.1921C115.775 88.55 113.685 87.9266 111.594 87.3142C111.319 87.2325 111.235 87.1635 111.313 86.8471C113.272 78.9616 111.629 71.9229 106.146 65.9023C102.397 61.7855 97.6431 59.4778 92.1014 58.9808C85.4723 58.3872 79.6606 60.3804 74.7967 64.9401C70.957 68.5395 68.7411 73.0061 68.0577 78.2191C67.6834 81.0777 67.892 83.9085 68.6424 86.6927C68.7206 86.983 68.6908 87.0872 68.3799 87.1747C66.2701 87.7684 64.1659 88.3807 62.0654 89.0023C61.7619 89.0916 61.6725 89.0171 61.6017 88.7231C59.0953 78.2711 61.3559 68.9954 68.5959 61.0355C72.6609 56.567 77.7464 53.686 83.6642 52.4521C92.9096 50.524 101.306 52.4949 108.648 58.4504C114.35 63.0753 117.754 69.1164 119.007 76.3524C119.275 77.9343 119.391 79.5293 119.393 81.1298ZM78.076 56.5689C77.2286 56.5689 76.5323 57.237 76.5323 58.0503C76.5323 58.8841 77.2157 59.6025 78.0145 59.608C78.8561 59.6155 79.5656 58.9455 79.573 58.1359C79.5805 57.2724 78.9083 56.5689 78.076 56.5689ZM112.985 72.6302C113.276 72.2338 113.562 71.8411 113.853 71.4446C114.287 71.8597 114.635 71.9267 115.004 71.6866C115.331 71.4745 115.408 71.1413 115.229 70.622C115.143 70.3764 115.032 70.1419 114.937 69.8999C114.89 69.7789 114.838 69.7176 114.691 69.7808C113.927 70.1047 113.16 70.4192 112.391 70.7337C112.244 70.7933 112.216 70.8751 112.279 71.0203C112.352 71.1878 112.454 71.1059 112.548 71.0687C112.778 70.9775 113.002 70.8733 113.235 70.7877C113.337 70.7505 113.458 70.6165 113.56 70.7765C113.648 70.9123 113.7 71.0539 113.566 71.2139C113.367 71.4502 113.207 71.7201 113.006 71.9546C112.818 72.1723 112.769 72.3752 112.985 72.6302ZM83.3309 57.3356C83.45 57.5906 83.4947 57.8512 83.2955 58.0857C83.085 58.3332 82.8002 58.3983 82.4855 58.3481C82.4128 58.3369 82.3439 58.3053 82.275 58.2792C82.1391 58.2271 82.1074 58.3295 82.0608 58.4169C81.9882 58.5528 82.0851 58.603 82.1801 58.631C82.6362 58.7594 83.0682 58.6942 83.4482 58.4058C83.7797 58.1545 83.8187 57.7897 83.7257 57.4287C83.5803 56.8666 83.3886 56.3157 83.2209 55.7593C83.1521 55.5304 82.9361 55.5639 82.9026 55.683C82.8318 55.9249 82.7145 55.817 82.5897 55.8002C82.1298 55.7332 81.6568 56.0049 81.5134 56.4144C81.3626 56.848 81.5469 57.3859 81.9268 57.6241C82.3086 57.8623 82.8356 57.7972 83.1576 57.4771C83.2061 57.425 83.2209 57.3338 83.3309 57.3356ZM66.2775 74.9621C66.4079 74.7723 66.4935 74.6011 66.2719 74.4671C65.8809 74.2325 65.8269 73.9292 66.0261 73.5422C66.0876 73.423 66.136 73.2871 66.1528 73.155C66.1956 72.8163 66.3911 72.6953 66.7095 72.7214C66.9814 72.7418 67.1322 72.6338 67.1155 72.3082C66.1379 72.3993 65.1658 72.4851 64.1957 72.5855C63.9722 72.6079 63.8959 72.8665 64.069 73.0192C64.7953 73.6705 65.5345 74.3108 66.2775 74.9621ZM65.5364 81.2713C64.6668 81.7142 63.7972 82.1572 62.9257 82.5946C62.8158 82.6504 62.8009 82.7192 62.8009 82.8309C62.8009 82.9891 62.8885 83.0356 63.0188 83.0822C63.8232 83.3669 64.624 83.6647 65.4303 83.9475C65.5252 83.9811 65.6705 84.1393 65.7375 83.9513C65.7915 83.8006 65.7468 83.6181 65.5308 83.5939C65.056 83.538 64.9275 83.2497 64.9759 82.8178C64.9889 82.6969 64.9759 82.5685 64.9498 82.4475C64.8772 82.1367 64.9536 81.9264 65.285 81.8351C65.5606 81.7607 65.6612 81.5802 65.5364 81.2713ZM68.3296 69.7641C68.3389 69.3435 68.1936 69.0978 67.9087 68.9452C67.622 68.7908 67.3334 68.8001 67.0764 69.0122C66.866 69.1853 66.676 69.3807 66.4693 69.5556C66.3259 69.6766 66.1639 69.7138 65.9908 69.6059C65.812 69.4942 65.7543 69.3304 65.7859 69.1295C65.8269 68.8671 65.9572 68.6623 66.2105 68.5655C66.3948 68.4948 66.2794 68.3888 66.2608 68.2957C66.2291 68.1375 66.1341 68.184 66.0373 68.2306C65.7077 68.3868 65.5438 68.6716 65.4545 69.0047C65.3483 69.4012 65.4861 69.7567 65.7934 69.9483C66.1211 70.1512 66.4395 70.1103 66.7747 69.8162C66.933 69.6784 67.0764 69.5222 67.2328 69.3826C67.3687 69.2634 67.5196 69.1908 67.7076 69.2857C67.8976 69.3807 67.9776 69.5315 67.9683 69.7362C67.9553 70.0488 67.8082 70.2889 67.5196 70.4025C67.3315 70.4769 67.3427 70.5867 67.3985 70.7207C67.4749 70.9087 67.6108 70.8045 67.7039 70.7486C68.1061 70.5048 68.2979 70.1326 68.3296 69.7641ZM114.071 75.6303C113.933 75.9076 113.862 76.1272 113.909 76.371C113.987 76.7786 114.276 77.0596 114.708 77.1414C115.112 77.2178 115.559 77.0242 115.763 76.6799C115.97 76.3338 115.937 75.8927 115.689 75.5651C115.639 75.4982 115.473 75.4199 115.575 75.3529C115.717 75.2618 115.691 75.1725 115.642 75.0794C115.574 74.9454 115.439 75.0161 115.341 75.0347C114.587 75.1761 113.836 75.3269 113.084 75.4739C112.976 75.4944 112.857 75.4963 112.883 75.6675C112.911 75.8443 113.009 75.8425 113.149 75.8126C113.436 75.7475 113.724 75.6973 114.071 75.6303ZM64.9144 75.3902C64.9256 74.9062 64.7152 74.6272 64.2683 74.536C63.8679 74.454 63.5551 74.6458 63.3987 75.0998C63.3112 75.3548 63.2739 75.6285 63.2013 75.889C63.1361 76.1235 63.1845 76.237 63.4527 76.2854C64.1342 76.4064 64.8064 76.5757 65.488 76.693C65.6444 76.719 65.9312 76.9702 65.9889 76.6018C66.0336 76.3058 65.7263 76.4045 65.5681 76.3562C65.3446 76.2872 65.0578 76.3151 64.894 76.183C64.6798 76.01 64.92 75.7363 64.9089 75.5018C64.9051 75.4646 64.9107 75.4274 64.9144 75.3902ZM103.859 60.3022C103.118 60.3376 102.624 59.783 102.725 59.0571C102.797 58.5305 103.252 58.0857 103.79 58.0094C104.187 57.9535 104.637 58.1843 104.784 58.5751C104.863 58.7854 104.978 58.8897 105.155 58.7892C105.328 58.6924 105.177 58.5286 105.121 58.4132C104.827 57.8046 104.034 57.4975 103.375 57.7265C102.663 57.974 102.218 58.7538 102.358 59.5113C102.479 60.1738 103.168 60.7117 103.846 60.6633C103.98 60.654 104.183 60.6949 104.185 60.4846C104.183 60.2613 104.004 60.2631 103.859 60.3022ZM65.8139 78.2098C65.8287 77.9958 65.7878 77.7631 65.6537 77.562C65.5811 77.4542 65.5345 77.2476 65.3409 77.3425C65.1249 77.4485 65.2422 77.5844 65.3297 77.7315C65.6965 78.3419 65.4098 79.0622 64.7245 79.278C64.205 79.4418 63.6445 79.2631 63.3335 78.8332C63.0374 78.4238 63.0616 78.0498 63.4639 77.5602C63.5905 77.4076 63.4843 77.3369 63.4248 77.2476C63.3316 77.1098 63.2441 77.2233 63.1864 77.2867C63.0896 77.3965 62.9965 77.5193 62.935 77.6514C62.6874 78.1781 62.7954 78.8277 63.1864 79.2445C63.6184 79.7023 64.3372 79.855 64.9349 79.6167C65.4898 79.3934 65.8139 78.8853 65.8139 78.2098ZM114.333 72.7028C113.888 72.699 113.464 72.967 113.328 73.3356C113.194 73.704 113.335 74.2568 113.643 74.4838C113.732 74.5489 113.84 74.7202 113.976 74.575C114.127 74.4131 113.974 74.3312 113.857 74.2307C113.538 73.9553 113.51 73.5477 113.775 73.2853C113.909 73.1513 114.007 73.1103 114.069 73.3542C114.155 73.6891 114.276 74.0148 114.361 74.3498C114.417 74.5639 114.512 74.5843 114.7 74.5006C115.128 74.3089 115.352 73.9478 115.275 73.5309C115.184 73.0247 114.823 72.7083 114.333 72.7028ZM68.4115 66.5965C68.1583 66.576 67.9534 66.6709 67.7803 66.8533C67.4767 67.1753 67.4116 67.6554 67.6257 68.0184C67.8585 68.4129 68.3929 68.6381 68.81 68.5153C69.2271 68.3925 69.5418 67.9532 69.5213 67.4936C69.5158 67.3781 69.5847 67.1883 69.3593 67.1939C69.1489 67.2014 69.2048 67.3558 69.2066 67.4936C69.2085 67.903 68.918 68.197 68.5493 68.1859C68.3482 68.1802 68.2625 68.13 68.3985 67.9271C68.5623 67.6797 68.7132 67.4246 68.8696 67.1715C69.0949 66.8087 69.0558 66.7137 68.6331 66.6188C68.5605 66.604 68.486 66.604 68.4115 66.5965ZM73.7278 60.7191C73.7241 61.1974 74.104 61.6664 74.5714 61.7595C75.0015 61.8469 75.549 61.5324 75.6924 61.0969C75.7259 60.9927 75.8655 60.8308 75.6738 60.7489C75.482 60.667 75.4428 60.814 75.387 60.9722C75.2604 61.3407 74.8824 61.5194 74.5584 61.3891C74.3703 61.3128 74.2809 61.2235 74.5026 61.0653C74.7744 60.8717 75.0258 60.6503 75.3032 60.4679C75.5155 60.3264 75.4782 60.2222 75.3219 60.0696C75.0276 59.7811 74.6906 59.6918 74.3442 59.8332C73.9719 59.9877 73.7316 60.332 73.7278 60.7191ZM92.6452 55.5434C92.4106 55.5248 92.2001 55.5508 92.0027 55.6271C91.7718 55.7165 91.6564 55.9026 91.6471 56.1464C91.6359 56.3809 91.7495 56.5484 91.9562 56.6526C92.1629 56.7568 92.3807 56.7885 92.6042 56.7215C92.7494 56.6768 92.8835 56.5465 93.0232 56.7643C93.0661 56.8313 93.2541 56.8424 93.2635 56.6303C93.2764 56.3083 93.3175 55.99 93.3434 55.6681C93.3695 55.361 93.3621 55.0558 93.0455 54.8901C92.7085 54.7133 92.3528 54.7226 92.0065 54.8846C91.9376 54.9162 91.8239 54.9497 91.9004 55.0707C91.9525 55.1507 92.0009 55.2493 92.1313 55.1749C92.2746 55.093 92.4347 55.0651 92.5987 55.0837C92.8109 55.1079 93.0232 55.1972 93.0083 55.4299C92.9935 55.7016 92.7494 55.4727 92.6452 55.5434ZM114.253 78.6713C114.255 79.2837 114.646 79.695 115.229 79.6987C115.814 79.7023 116.253 79.2837 116.261 78.7122C116.268 78.1093 115.834 77.6589 115.25 77.6644C114.654 77.6682 114.249 78.0777 114.253 78.6713ZM97.5462 57.773C98.1123 57.7711 98.5406 57.33 98.5425 56.7494C98.5444 56.2041 98.0472 55.7537 97.455 55.763C96.9001 55.7723 96.4755 56.232 96.4848 56.8145C96.4941 57.3617 96.9504 57.7749 97.5462 57.773ZM112.106 66.9724C112.112 66.3974 111.646 65.893 111.106 65.8874C110.576 65.8818 110.095 66.3378 110.084 66.8571C110.071 67.4396 110.518 67.9383 111.063 67.9532C111.616 67.9682 112.102 67.5103 112.106 66.9724ZM105.699 62.0759C106.255 62.074 106.691 61.6199 106.684 61.0485C106.678 60.5069 106.209 60.0454 105.656 60.0361C105.112 60.0268 104.648 60.4958 104.648 61.056C104.647 61.6143 105.123 62.0777 105.699 62.0759ZM84.9974 55.1488C84.6418 55.16 84.4071 55.2307 84.2079 55.3889C84.1241 55.4559 83.9546 55.5155 84.0608 55.6699C84.1688 55.8281 84.2786 55.7351 84.3997 55.6495C84.6026 55.5024 84.8279 55.3908 85.0868 55.5248C85.178 55.5713 85.2506 55.6513 85.2451 55.7574C85.2377 55.8709 85.124 55.8654 85.0459 55.8821C84.8019 55.9361 84.5654 56.0049 84.3625 56.1538C84.1799 56.2878 84.0869 56.4721 84.1223 56.701C84.1539 56.9094 84.2564 57.0881 84.4667 57.1439C84.7479 57.2184 85.0328 57.2128 85.2767 57.0174C85.3829 56.9336 85.4573 56.7587 85.625 56.9634C85.6529 56.9988 85.8838 56.995 85.8317 56.7773C85.7423 56.4051 85.6808 56.0254 85.5784 55.6588C85.4872 55.3275 85.2656 55.1302 84.9974 55.1488ZM99.9466 56.9653C100.328 56.9727 100.522 57.2482 100.392 57.6092C100.284 57.9107 100.149 58.2048 100.019 58.4988C99.967 58.6142 99.9391 58.6998 100.086 58.7668C100.237 58.8357 100.285 58.7519 100.332 58.6384C100.464 58.3183 100.609 58.0038 100.727 57.6781C100.93 57.1197 100.565 56.647 99.967 56.6861C99.8348 56.6954 99.6932 56.7959 99.6635 56.5391C99.6542 56.4591 99.4568 56.3623 99.3693 56.5819C99.1831 57.0527 98.9819 57.518 98.7865 57.9852C98.7399 58.095 98.7119 58.1899 98.861 58.2513C99.0099 58.3127 99.0584 58.2308 99.1049 58.1136C99.2073 57.8623 99.3134 57.6111 99.4289 57.3635C99.535 57.1421 99.7027 56.9876 99.9466 56.9653ZM86.7143 55.9082C86.6957 55.3833 86.8744 55.1246 87.2134 55.0986C87.5113 55.0762 87.6454 55.2605 87.6937 55.7537C87.718 55.9994 87.7497 56.245 87.7738 56.4926C87.7869 56.6321 87.8502 56.6842 87.9936 56.6675C88.1445 56.6507 88.1314 56.5577 88.1202 56.4572C88.0792 56.1129 88.0438 55.7686 87.9918 55.4261C87.9024 54.8362 87.3624 54.5961 86.854 54.9143C86.7404 54.9851 86.6529 55.1656 86.4946 54.9385C86.4536 54.8808 86.2507 54.9087 86.2768 55.1116C86.3419 55.6271 86.3977 56.1427 86.4592 56.6582C86.4722 56.7754 86.5281 56.8275 86.6566 56.8145C86.8018 56.7996 86.8056 56.714 86.7944 56.6079C86.7628 56.3474 86.7348 56.0906 86.7143 55.9082ZM108.563 62.5597C108.566 62.2564 108.319 61.953 107.995 61.8581C107.879 61.8246 107.699 61.9009 107.76 61.6273C107.79 61.4989 107.626 61.3761 107.46 61.5585C107.134 61.9158 106.792 62.2564 106.468 62.6137C106.403 62.6844 106.227 62.7459 106.384 62.9059C106.535 63.0622 106.605 62.9431 106.708 62.8501C106.963 62.6193 107.151 62.3122 107.468 62.1466C107.736 62.007 107.95 62.1001 108.125 62.3085C108.3 62.5169 108.2 62.7068 108.052 62.8724C107.838 63.1125 107.609 63.3396 107.386 63.5722C107.306 63.6559 107.229 63.7248 107.36 63.844C107.477 63.95 107.54 63.9128 107.63 63.8141C107.864 63.5591 108.11 63.3135 108.347 63.0604C108.477 62.9227 108.557 62.7552 108.563 62.5597ZM114.179 83.9792C114.179 84.3867 114.335 84.6232 114.652 84.6734C115.019 84.7311 115.196 84.5115 115.305 84.2044C115.346 84.0889 115.391 83.9718 115.445 83.8619C115.49 83.7689 115.557 83.6926 115.676 83.7187C115.79 83.7447 115.827 83.8378 115.842 83.94C115.866 84.0964 115.838 84.2453 115.711 84.344C115.575 84.45 115.596 84.5673 115.691 84.6584C115.829 84.7906 115.918 84.6418 115.989 84.5561C116.184 84.3161 116.203 84.0351 116.123 83.7484C116.061 83.5269 115.912 83.3873 115.678 83.3576C115.436 83.3278 115.272 83.4413 115.171 83.6517C115.093 83.8192 115.03 83.994 114.951 84.1616C114.909 84.2564 114.834 84.3272 114.721 84.3123C114.594 84.2956 114.525 84.2026 114.501 84.0889C114.456 83.8676 114.505 83.6647 114.689 83.5232C114.827 83.4172 114.743 83.326 114.683 83.2404C114.59 83.1082 114.508 83.2143 114.441 83.2738C114.229 83.4599 114.175 83.7093 114.179 83.9792ZM90.1295 56.2916C90.4982 55.8467 90.8054 55.4764 91.1126 55.1079C91.1964 55.0074 91.2597 54.8976 91.2039 54.7692C91.1592 54.6687 91.0512 54.7115 90.9711 54.7096C90.6359 54.7003 90.3026 54.6966 89.9675 54.6966C89.8781 54.6966 89.7495 54.6594 89.7402 54.812C89.7309 54.9832 89.8613 54.9683 89.973 54.9683C90.2132 54.972 90.4535 54.9609 90.7253 55.0372C90.3846 55.4503 90.0642 55.8263 89.7626 56.2152C89.6658 56.3399 89.5038 56.5465 89.8371 56.5744C90.23 56.6098 90.6285 56.5968 91.0251 56.6061C91.1369 56.6079 91.2263 56.58 91.217 56.4442C91.2077 56.3176 91.1052 56.3362 91.0214 56.3325C90.7514 56.3195 90.4814 56.3083 90.1295 56.2916ZM73.0966 63.1051C73.5118 63.1125 73.9532 62.8073 74.0593 62.422C74.0872 62.3178 74.1804 62.1689 73.9867 62.1168C73.834 62.0759 73.7614 62.1466 73.7521 62.3085C73.7484 62.3755 73.6962 62.4444 73.6515 62.5021C73.4728 62.7328 73.2288 62.824 72.9607 62.7198C72.6553 62.6007 72.4375 62.3643 72.4356 62.0219C72.4337 61.7167 72.631 61.5194 72.9235 61.4449C73.0836 61.404 73.2325 61.3631 73.1637 61.1695C73.0966 60.9815 72.9253 61.0951 72.8191 61.123C72.3555 61.2439 72.0445 61.7353 72.1134 62.2024C72.186 62.6956 72.6236 63.0976 73.0966 63.1051ZM71.1377 64.7967C70.9142 64.7279 70.7764 64.6889 70.6386 64.6423C70.3574 64.5474 70.0725 64.458 69.7969 64.3502C69.607 64.2757 69.5493 64.4208 69.4804 64.525C69.4171 64.6181 69.5232 64.648 69.5884 64.6684C70.1284 64.8489 70.6703 65.0239 71.2084 65.208C71.3388 65.2527 71.4151 65.2062 71.4933 65.1076C71.5641 65.0201 71.5846 64.9494 71.5287 64.8433C71.2587 64.3427 70.9924 63.8402 70.7317 63.334C70.6498 63.1758 70.5939 63.2149 70.4952 63.321C70.376 63.4475 70.4524 63.5443 70.512 63.6522C70.7056 64.0058 70.8993 64.3613 71.1377 64.7967ZM115.324 82.0306C115.324 82.0251 115.324 82.0213 115.324 82.0158C115.164 82.0158 115.002 82.012 114.842 82.0158C114.41 82.0269 114.192 82.3322 114.313 82.7435C114.341 82.8346 114.376 82.896 114.486 82.896C114.609 82.896 114.631 82.8346 114.618 82.7322C114.572 82.386 114.784 82.3415 115.052 82.3601C115.225 82.3731 115.398 82.3935 115.57 82.3842C115.84 82.3694 116.039 82.4028 115.968 82.7546C115.952 82.8402 115.938 82.963 116.095 82.9667C116.248 82.9705 116.233 82.857 116.244 82.7621C116.264 82.5815 116.242 82.3694 116.542 82.4382C116.667 82.4661 116.791 82.4698 116.804 82.2818C116.817 82.0846 116.681 82.0957 116.56 82.0995C116.38 82.1032 116.242 82.0827 116.285 81.8445C116.302 81.7552 116.268 81.6696 116.151 81.664C116.028 81.6585 116.006 81.7533 116.006 81.8371C116.006 82.0696 115.877 82.0882 115.693 82.0567C115.572 82.0344 115.447 82.038 115.324 82.0306ZM109.196 63.442C109.196 63.5591 109.112 63.6002 109.05 63.6559C108.821 63.8644 108.581 64.0617 108.367 64.285C108.092 64.5697 108.2 65.0108 108.559 65.169C108.665 65.2155 108.721 65.1746 108.782 65.1076C108.855 65.0313 108.818 64.9792 108.749 64.929C108.449 64.7075 108.574 64.5213 108.795 64.3371C108.948 64.2106 109.103 64.084 109.239 63.9407C109.399 63.7732 109.523 63.7378 109.672 63.9556C109.726 64.0356 109.793 64.2013 109.954 64.0486C110.112 63.8978 109.952 63.8197 109.877 63.7546C109.695 63.5945 109.721 63.481 109.903 63.3489C109.993 63.2838 110.127 63.2149 109.987 63.0585C109.853 62.9096 109.779 63.0157 109.684 63.0939C109.577 63.1814 109.484 63.3451 109.334 63.1404C109.28 63.0678 109.222 62.9617 109.097 63.0622C108.969 63.1665 109.023 63.2484 109.114 63.3358C109.145 63.3693 109.172 63.4121 109.196 63.442ZM94.8891 55.4466C94.9951 55.4168 95.1553 55.5564 95.1981 55.3591C95.2447 55.1377 95.0548 55.1693 94.9318 55.1544C94.7419 55.1321 94.6693 55.0614 94.7308 54.8622C94.7643 54.7506 94.8444 54.5868 94.6097 54.5551C94.4161 54.5291 94.4142 54.6742 94.4011 54.7878C94.3825 54.946 94.3435 55.0521 94.1516 55.013C94.0548 54.9944 93.9468 54.9739 93.9337 55.1284C93.9226 55.2698 94.0195 55.2959 94.1218 55.3014C94.3137 55.3126 94.2913 55.4205 94.2634 55.5583C94.2019 55.8616 94.1442 56.1669 94.1088 56.4739C94.0604 56.8964 94.3621 57.1607 94.7773 57.09C94.8853 57.0714 94.9245 57.0192 94.9393 56.9243C94.9542 56.8275 94.9095 56.7885 94.8183 56.7885C94.4161 56.7903 94.431 56.5335 94.483 56.2525C94.5204 56.0571 94.5688 55.8654 94.593 55.6699C94.6135 55.4782 94.6581 55.3461 94.8891 55.4466ZM64.1975 80.4543C64.1975 80.445 64.1975 80.4338 64.1975 80.4245C63.8139 80.4245 63.4322 80.4264 63.0486 80.4245C62.9052 80.4245 62.7414 80.3649 62.7432 80.6125C62.7432 80.8451 62.9108 80.7855 63.03 80.7893C63.8084 80.8023 64.5867 80.8079 65.3651 80.8191C65.4936 80.8209 65.6109 80.8451 65.6165 80.6516C65.6221 80.4357 65.4861 80.4543 65.3465 80.4561C64.9647 80.4543 64.5811 80.4543 64.1975 80.4543ZM111.374 69.0605C111.408 69.0419 111.441 69.0253 111.473 69.0067C112.259 68.56 113.045 68.1133 113.834 67.6704C113.948 67.6071 113.961 67.5494 113.899 67.4359C113.834 67.3167 113.763 67.3131 113.659 67.3726C112.862 67.8266 112.065 68.2771 111.268 68.7311C111.205 68.7665 111.136 68.8056 111.196 68.9005C111.242 68.9713 111.259 69.0698 111.374 69.0605ZM115.372 80.3054C115.372 80.3091 115.372 80.3129 115.372 80.3165C115.125 80.3165 114.879 80.3165 114.631 80.3165C114.516 80.3165 114.408 80.3129 114.402 80.4784C114.395 80.6664 114.514 80.6664 114.646 80.6645C114.868 80.6627 115.091 80.6627 115.313 80.6645C115.806 80.672 115.894 80.7335 116.007 81.2285C116.039 81.3643 116.104 81.3811 116.21 81.3793C116.357 81.3773 116.363 81.2749 116.348 81.1745C116.333 81.0777 116.307 80.9809 116.268 80.8935C116.214 80.7707 116.039 80.6738 116.274 80.5324C116.343 80.4915 116.315 80.2961 116.115 80.3016C115.866 80.3129 115.62 80.3054 115.372 80.3054ZM70.106 66.8328C70.1638 66.7695 70.2141 66.7175 70.2569 66.6616C70.3221 66.5779 70.2587 66.5295 70.1991 66.4848C69.9925 66.3303 69.7802 66.1796 69.5753 66.0195C69.1936 65.7217 69.1526 65.5766 69.3724 65.1522C69.4413 65.0201 69.3835 64.9792 69.3091 64.9122C69.2048 64.8191 69.1322 64.8582 69.0782 64.9642C69.0353 65.0518 68.9906 65.1429 68.9664 65.236C68.9292 65.3756 68.9851 65.5394 68.7225 65.5487C68.5977 65.5524 68.581 65.7367 68.7448 65.8483C69.1508 66.1293 69.5456 66.4271 69.9459 66.7175C69.9943 66.7529 70.0427 66.7881 70.106 66.8328ZM111.054 65.1336C111.017 65.0945 110.963 65.0276 110.901 64.9699C110.76 64.834 110.453 64.8657 110.503 64.5232C110.52 64.4115 110.369 64.3967 110.253 64.4934C109.874 64.8098 109.482 65.115 109.097 65.424C109 65.5003 108.883 65.5635 109.015 65.7144C109.145 65.8651 109.231 65.7496 109.324 65.679C109.492 65.5505 109.656 65.4184 109.821 65.2918C110.231 64.981 110.332 64.9773 110.747 65.3031C110.836 65.3737 110.894 65.37 110.972 65.316C111.022 65.277 111.078 65.2434 111.054 65.1336ZM80.1019 56.6303C79.9417 56.6619 79.8337 56.6917 79.925 56.8964C80.1243 57.3487 80.2975 57.8121 80.4837 58.2699C80.5264 58.3741 80.5618 58.4839 80.7201 58.4244C80.8989 58.3574 80.8449 58.2457 80.7946 58.1266C80.709 57.92 80.6251 57.7153 80.547 57.5068C80.3775 57.0509 80.4129 56.9206 80.8225 56.6489C80.9398 56.5707 80.9287 56.5 80.8971 56.4051C80.8504 56.2655 80.7519 56.2916 80.6605 56.3455C80.5768 56.3958 80.5005 56.4609 80.4259 56.5223C80.329 56.6042 80.2956 56.8722 80.1019 56.6303ZM72.3909 64.0914C72.4504 64.0356 72.5137 63.9927 72.5548 63.9332C72.6274 63.829 72.5268 63.7807 72.469 63.7248C72.1171 63.3787 71.7652 63.0343 71.4133 62.6882C71.3332 62.61 71.2736 62.5225 71.1451 62.6454C71.0129 62.7738 71.0762 62.8501 71.173 62.9431C71.5194 63.2763 71.8639 63.6113 72.2102 63.9444C72.2642 63.9965 72.3257 64.0374 72.3909 64.0914ZM89.1407 55.6327C89.1239 55.6327 89.1072 55.6327 89.0904 55.6327C89.0904 55.3982 89.0904 55.1656 89.0904 54.9311C89.0904 54.8157 89.0941 54.7115 88.9266 54.7077C88.7366 54.704 88.7366 54.8213 88.7421 54.9516C88.7626 55.4429 88.7832 55.9342 88.8055 56.4255C88.8092 56.5261 88.8129 56.6321 88.9581 56.6247C89.0997 56.6191 89.1444 56.5409 89.1426 56.4069C89.1369 56.1483 89.1407 55.8896 89.1407 55.6327ZM96.0826 55.5862C96.1161 55.4224 96.0547 55.3889 95.9541 55.3684C95.8257 55.3424 95.7717 55.4019 95.7456 55.5117C95.632 56.0161 95.5203 56.5205 95.4012 57.0248C95.3713 57.1551 95.4178 57.2091 95.5371 57.2295C95.6338 57.2482 95.7009 57.2314 95.727 57.1179C95.848 56.5912 95.9728 56.0626 96.0826 55.5862ZM70.8583 62.1708C70.8472 62.0331 70.7783 61.9437 70.6349 61.927C70.4822 61.9102 70.3984 61.9958 70.3872 62.1373C70.3761 62.2769 70.445 62.3736 70.5995 62.3829C70.7503 62.3922 70.8285 62.3141 70.8583 62.1708ZM96.1013 54.892C96.2913 54.8808 96.3582 54.7896 96.3508 54.6445C96.3433 54.4974 96.2502 54.4137 96.1068 54.4267C95.9691 54.4379 95.8759 54.5309 95.8852 54.6761C95.8965 54.8176 95.9914 54.892 96.1013 54.892ZM88.8706 53.7456C88.7273 53.7679 88.6435 53.8442 88.6472 53.9931C88.6509 54.1438 88.744 54.222 88.8855 54.2183C89.0308 54.2146 89.1108 54.1234 89.1072 53.9763C89.1034 53.8256 89.0121 53.7567 88.8706 53.7456Z" fill="white"></path>
<path d="M89.9857 110.513C82.3045 110.401 75.5916 107.816 69.9438 102.582C66.1636 99.0814 63.5287 94.8417 61.9497 89.9395C61.851 89.6361 61.8919 89.5319 62.2141 89.4406C64.3239 88.847 66.4281 88.2328 68.5285 87.6131C68.8023 87.5312 68.8935 87.5852 68.9922 87.8606C71.871 95.8728 77.4388 100.961 85.7922 102.634C93.1383 104.105 99.6669 102.104 105.192 97.0229C107.909 94.5253 109.801 91.4712 110.978 87.9779C111.063 87.721 111.149 87.6651 111.413 87.7452C113.521 88.3892 115.631 89.022 117.744 89.6454C118.013 89.7255 118.095 89.7999 117.998 90.0977C116.534 94.598 114.149 98.5417 110.793 101.875C106.115 106.522 100.499 109.323 93.954 110.232C93.3525 110.315 92.7492 110.386 92.1421 110.425C91.4271 110.473 90.7102 110.531 89.9857 110.513ZM102.134 105.13C101.781 104.898 101.453 104.674 101.119 104.464C100.967 104.367 100.918 104.306 101.069 104.138C101.337 103.838 101.337 103.477 101.116 103.146C100.903 102.828 100.604 102.746 100.239 102.822C99.8085 102.913 99.4416 103.157 99.0357 103.308C98.8159 103.39 98.8104 103.494 98.9053 103.693C99.2535 104.419 99.585 105.151 99.909 105.888C99.9966 106.087 100.078 106.15 100.291 106.037C100.468 105.942 100.578 105.876 100.445 105.655C100.326 105.454 100.237 105.234 100.151 105.015C100.116 104.927 99.9798 104.825 100.127 104.726C100.254 104.641 100.384 104.592 100.533 104.715C100.725 104.871 100.952 104.987 101.129 105.156C101.46 105.474 101.769 105.441 102.134 105.13ZM75.9584 101.998C75.951 101.653 75.5767 101.315 75.1186 101.302C74.9715 101.298 74.9063 101.289 74.8802 101.119C74.8282 100.771 74.5711 100.602 74.2583 100.507C74.1353 100.47 74.0162 100.513 73.9678 100.286C73.9082 100.008 73.64 100.003 73.4576 100.232C73.1745 100.591 72.8952 100.956 72.6122 101.317C72.4874 101.475 72.3515 101.59 72.6122 101.786C72.8561 101.966 72.9269 101.815 73.0424 101.668C73.2173 101.443 73.3886 101.216 73.5767 101.002C73.7518 100.803 73.966 100.794 74.1727 100.956C74.3924 101.127 74.3327 101.32 74.1875 101.506C73.992 101.761 73.8002 102.022 73.5898 102.266C73.4315 102.448 73.5731 102.511 73.6866 102.608C73.8133 102.716 73.91 102.787 74.0404 102.601C74.234 102.329 74.4407 102.063 74.6642 101.817C74.8225 101.644 75.0255 101.611 75.2284 101.773C75.4444 101.944 75.4072 102.134 75.2638 102.324C75.0776 102.571 74.897 102.824 74.6941 103.057C74.5487 103.222 74.5861 103.317 74.7461 103.438C74.8951 103.552 74.992 103.611 75.1261 103.412C75.3122 103.135 75.5338 102.884 75.7387 102.618C75.8709 102.443 75.9547 102.251 75.9584 101.998ZM86.202 107.855C86.4663 107.825 86.783 108.121 86.9077 107.747C87.0492 107.324 87.323 107.257 87.7028 107.33C87.8611 107.36 88.0231 107.382 88.1813 107.376C88.39 107.369 88.4812 107.455 88.5464 107.652C88.7177 108.177 88.7531 108.188 89.3228 108.086C88.9858 107.142 88.6451 106.204 88.3211 105.258C88.2577 105.072 88.133 105.069 87.9859 105.041C87.8033 105.004 87.7196 105.089 87.6395 105.234C87.323 105.821 86.997 106.403 86.675 106.987C86.5148 107.278 86.3583 107.566 86.202 107.855ZM95.5666 105.292C95.5666 105.888 95.8124 106.565 96.1382 106.9C96.4288 107.198 96.7788 107.265 97.1624 107.162C97.5497 107.058 97.816 106.82 97.8997 106.412C98.0265 105.808 97.8532 105.257 97.5684 104.739C97.2853 104.226 96.8422 104.051 96.317 104.196C95.8217 104.334 95.5666 104.704 95.5666 105.292ZM110.106 98.3871C110.395 98.3964 110.84 97.9982 110.847 97.7581C110.853 97.6037 110.719 97.5552 110.622 97.492C110.501 97.412 110.491 97.5479 110.451 97.6111C110.3 97.8437 110.13 97.8475 109.931 97.6707C109.812 97.5645 109.687 97.4585 109.549 97.3747C109.324 97.2389 109.305 97.1012 109.499 96.9187C109.624 96.8015 109.642 96.7029 109.475 96.5707C109.292 96.4255 109.212 96.5131 109.132 96.6489C109.013 96.8554 108.879 96.8983 108.708 96.7122C108.562 96.554 108.454 96.5391 108.307 96.7382C108.171 96.9206 108.162 97.0304 108.365 97.1402C108.626 97.2817 108.56 97.4473 108.382 97.5924C108.164 97.7693 107.976 97.9535 107.968 98.2588C107.966 98.3798 107.886 98.322 107.816 98.3276C107.639 98.3426 107.544 98.4988 107.475 98.6329C107.41 98.7594 107.57 98.8134 107.644 98.8823C108.006 99.2192 108.382 99.5429 108.736 99.8873C108.905 100.053 108.989 99.9729 109.117 99.8389C109.261 99.6918 109.283 99.5876 109.104 99.4648C109.033 99.4164 108.974 99.3513 108.909 99.2936C108.136 98.5975 108.14 98.5845 108.801 97.7917C108.929 97.639 109.015 97.6242 109.153 97.7581C109.251 97.8512 109.363 97.9313 109.473 98.0112C109.683 98.1657 109.866 98.363 110.106 98.3871ZM105.071 103.163C105.171 103.137 105.205 103.126 105.24 103.118C105.816 103.012 106.147 102.675 106.166 102.176C106.186 101.633 105.825 101.138 105.317 101.015C104.866 100.907 104.386 101.162 104.147 101.652C104.099 101.752 104.091 101.782 103.95 101.754C103.715 101.709 103.51 101.985 103.628 102.143C104.14 102.843 104.663 103.531 105.171 104.233C105.318 104.434 105.413 104.296 105.531 104.218C105.652 104.138 105.756 104.071 105.622 103.905C105.434 103.678 105.268 103.433 105.071 103.163ZM85.1908 107.73C85.5558 107.739 85.9431 107.486 86.0549 107.069C86.1777 106.606 86.04 106.316 85.5595 106.033C85.3994 105.938 85.2336 105.854 85.0773 105.754C84.9468 105.67 84.852 105.554 84.9022 105.381C84.9543 105.199 85.0959 105.132 85.2709 105.13C85.4888 105.126 85.6749 105.195 85.8426 105.348C86.0715 105.558 86.1945 105.279 86.3193 105.184C86.4794 105.061 86.282 104.977 86.2001 104.916C85.8183 104.635 85.3845 104.564 84.9301 104.672C84.5726 104.756 84.3492 104.994 84.2877 105.361C84.2244 105.739 84.3957 106.007 84.7086 106.197C84.9096 106.319 85.1163 106.429 85.3119 106.56C85.4422 106.647 85.5111 106.777 85.4646 106.945C85.4217 107.095 85.3062 107.161 85.1685 107.194C84.8706 107.265 84.636 107.151 84.4441 106.932C84.2188 106.673 84.0958 106.963 83.9619 107.041C83.7868 107.144 83.9581 107.257 84.0345 107.33C84.3138 107.605 84.6694 107.702 85.1908 107.73ZM90.5351 108.179C90.591 108.171 90.6897 108.164 90.7864 108.149C91.2967 108.063 91.6077 107.76 91.6431 107.315C91.6822 106.824 91.4829 106.565 90.928 106.383C90.7399 106.321 90.5482 106.267 90.3657 106.195C90.2464 106.146 90.159 106.051 90.159 105.912C90.159 105.759 90.2464 105.66 90.3805 105.599C90.6151 105.493 90.8404 105.517 91.0528 105.653C91.3377 105.837 91.3899 105.528 91.4886 105.417C91.6413 105.242 91.4122 105.199 91.3116 105.156C90.8629 104.964 90.4141 104.983 89.9895 105.223C89.6822 105.394 89.5351 105.668 89.5612 106.027C89.5873 106.379 89.7865 106.595 90.1012 106.712C90.2856 106.781 90.4811 106.824 90.6673 106.891C90.8833 106.969 91.1068 107.071 91.0323 107.36C90.9652 107.62 90.7362 107.667 90.5016 107.676C90.3619 107.682 90.2185 107.646 90.1198 107.553C89.8256 107.27 89.6785 107.57 89.5835 107.728C89.4588 107.933 89.7232 107.97 89.8424 108.039C90.0397 108.153 90.267 108.171 90.5351 108.179ZM70.1914 95.3051C70.2547 95.3795 70.3143 95.4373 70.3627 95.5025C70.5489 95.7649 70.7407 96.0255 70.9121 96.2972C71.0126 96.4572 71.0964 96.4461 71.2323 96.3437C71.3627 96.245 71.4632 96.1799 71.3292 95.9975C71.0145 95.5676 70.7165 95.1264 70.4205 94.6835C70.3404 94.5644 70.2696 94.5496 70.1523 94.6314C69.441 95.1264 68.7278 95.6215 68.009 96.1054C67.8023 96.245 67.9289 96.3455 68.0109 96.4647C68.0928 96.5837 68.1487 96.7401 68.346 96.5857C68.5602 96.4182 68.7985 96.2804 69.0145 96.1166C69.143 96.018 69.2175 96.0291 69.305 96.1669C69.4652 96.4182 69.6533 96.6508 69.806 96.9039C69.9214 97.0955 70.0201 97.0714 70.1896 96.9653C70.3813 96.8443 70.3218 96.7457 70.2249 96.6116C70.0797 96.4107 69.9382 96.2078 69.8078 95.9975C69.7482 95.9007 69.5769 95.8021 69.6737 95.6923C69.8041 95.5415 69.9996 95.4429 70.1914 95.3051ZM81.5188 106.022C81.4871 105.893 81.4648 105.835 81.4591 105.776C81.4349 105.43 81.4219 105.084 81.394 104.737C81.3716 104.462 81.1127 104.451 80.9452 104.443C80.7329 104.434 80.8446 104.65 80.852 104.756C80.8856 105.275 80.9471 105.793 80.9843 106.31C81.0197 106.809 80.7273 107.04 80.2506 106.87C80.0793 106.809 80.0625 106.904 80.0141 106.999C79.9564 107.108 79.8837 107.205 80.042 107.311C80.3624 107.525 80.8223 107.54 81.0737 107.267C81.7087 106.576 82.3175 105.862 82.9376 105.152C82.5913 104.898 82.3455 104.935 82.1239 105.279C81.9674 105.525 81.7552 105.737 81.5188 106.022ZM71.8692 98.4895C71.8617 97.8605 71.3012 97.2873 70.6905 97.2855C70.13 97.2817 69.6421 97.76 69.6384 98.3183C69.6328 98.953 70.2193 99.5522 70.8394 99.5429C71.4018 99.5336 71.8766 99.0497 71.8692 98.4895ZM102.518 104.008C102.903 103.775 103.283 103.55 103.659 103.321C103.743 103.269 103.868 103.254 103.788 103.081C103.585 102.647 103.065 102.387 102.618 102.523C102.097 102.679 101.749 103.142 101.771 103.649C101.792 104.118 102.147 104.544 102.589 104.628C103.116 104.728 103.706 104.436 103.916 103.963C103.954 103.878 104.045 103.777 103.963 103.691C103.874 103.6 103.732 103.608 103.613 103.621C103.495 103.634 103.497 103.766 103.451 103.848C103.222 104.239 102.862 104.309 102.518 104.008ZM76.3215 103.438C76.7311 103.68 77.1073 103.894 77.4723 104.123C77.6436 104.231 77.7219 104.192 77.8113 104.021C78.0607 103.543 77.9862 103.051 77.6008 102.746C77.154 102.392 76.5468 102.381 76.1632 102.72C75.8038 103.036 75.6903 103.513 75.8728 103.935C76.072 104.399 76.6102 104.708 77.1111 104.644C77.1985 104.633 77.3532 104.661 77.3178 104.51C77.2879 104.384 77.2824 104.201 77.085 104.181C77.0124 104.173 76.936 104.194 76.8634 104.188C76.4649 104.162 76.2582 103.894 76.3215 103.438ZM105.916 100.52C105.905 101.093 106.359 101.574 106.925 101.588C107.56 101.605 108.158 101.03 108.162 100.401C108.164 99.8352 107.695 99.3588 107.128 99.355C106.495 99.3531 105.927 99.8966 105.916 100.52ZM93.7175 107.855C93.9857 107.782 94.2891 107.872 94.3673 107.633C94.643 106.79 94.8906 105.936 95.1066 105.074C95.1979 104.706 95.0359 104.585 94.6653 104.652C94.1793 104.737 93.6951 104.838 93.2073 104.912C93.0173 104.942 92.9502 105.007 92.9969 105.199C93.036 105.363 93.0732 105.465 93.2873 105.409C93.5723 105.333 93.8702 105.307 94.1606 105.247C94.4213 105.195 94.5219 105.227 94.4213 105.534C94.1756 106.282 93.9614 107.041 93.7175 107.855ZM109.648 96.1352C109.644 96.3846 109.754 96.5614 109.972 96.6768C110.186 96.7903 110.382 96.7457 110.559 96.6043C110.704 96.4888 110.834 96.3567 110.976 96.2375C111.054 96.1724 111.149 96.1204 111.244 96.1966C111.333 96.2693 111.322 96.3716 111.29 96.4702C111.227 96.6656 111.071 96.755 110.892 96.8257C110.653 96.9206 110.791 97.103 110.829 97.2333C110.881 97.4156 111.022 97.2928 111.099 97.2519C111.484 97.0453 111.706 96.714 111.767 96.2841C111.804 96.031 111.722 95.8226 111.486 95.6886C111.251 95.5545 111.033 95.5899 110.83 95.7481C110.685 95.8616 110.553 95.9937 110.41 96.1129C110.339 96.1724 110.253 96.2041 110.173 96.139C110.095 96.0757 110.104 95.9882 110.141 95.9007C110.203 95.7536 110.322 95.6811 110.458 95.6067C110.65 95.5025 110.564 95.3051 110.51 95.1786C110.452 95.0427 110.309 95.1507 110.227 95.1991C109.877 95.4113 109.67 95.7184 109.648 96.1352ZM81.0439 103.265C80.9917 103.111 80.8204 103.122 80.6993 103.057C80.528 102.964 80.5151 103.122 80.4778 103.209C80.1296 104.026 79.7906 104.849 79.4369 105.664C79.353 105.856 79.3493 105.962 79.5765 106.053C79.7925 106.139 79.8689 106.092 79.9526 105.888C80.2823 105.076 80.6286 104.27 80.9693 103.463C80.9936 103.407 81.014 103.347 81.0439 103.265ZM71.4558 100.712C71.5508 100.635 71.601 100.6 71.6439 100.557C71.8264 100.373 72.0014 100.183 72.1876 100.003C72.4911 99.7068 72.7127 99.6918 73.0144 99.9766C73.1447 100.099 73.2266 100.124 73.3384 99.9822C73.3961 99.9077 73.5191 99.8575 73.4706 99.7422C73.398 99.5672 73.2341 99.4964 73.0665 99.4462C72.9492 99.4108 72.8189 99.4816 72.8486 99.2229C72.8784 98.9716 72.521 98.8804 72.3311 99.0721C71.9828 99.422 71.6383 99.7756 71.2956 100.131C71.2342 100.196 71.1039 100.25 71.1765 100.368C71.2528 100.49 71.359 100.596 71.4558 100.712ZM78.1408 105.383C78.2507 105.389 78.2786 105.314 78.3102 105.249C78.4182 105.028 78.5244 104.804 78.6342 104.583C78.8429 104.17 79.0626 104.073 79.4666 104.289C79.679 104.402 79.6883 104.265 79.7516 104.153C79.8242 104.025 79.8782 103.905 79.6901 103.825C79.5504 103.766 79.4108 103.736 79.2563 103.751C79.1799 103.758 79.0496 103.892 79.0644 103.641C79.0737 103.492 78.828 103.442 78.6846 103.403C78.5468 103.366 78.5412 103.541 78.4965 103.63C78.2786 104.06 78.0663 104.492 77.8578 104.925C77.746 105.16 77.9006 105.393 78.1408 105.383Z" fill="white"></path>
<path d="M80.1487 87.78C80.132 85.3141 81.8897 83.4698 84.7015 83.5703C87.0013 83.6521 88.6679 85.3942 88.6456 87.8154C88.6213 90.2776 86.7927 92.029 84.2844 91.9898C81.8191 91.9507 80.1227 90.2237 80.1487 87.78ZM81.6589 87.7298C81.6589 89.7249 83.2007 91.0351 85.0349 90.6126C87.2843 90.0934 87.6735 87.1584 86.4333 85.7756C85.6829 84.9382 84.4707 84.6515 83.3701 85.0629C82.3144 85.4555 81.6589 86.4773 81.6589 87.7298Z" fill="white"></path>
<path d="M78.1223 85.5001C77.6177 84.9474 76.994 84.791 76.29 84.9231C75.7947 85.0162 75.4763 85.3307 75.4149 85.7643C75.3571 86.1663 75.5508 86.4977 76.0293 86.7191C76.3869 86.8847 76.7687 86.9983 77.141 87.1342C77.3161 87.1974 77.4948 87.2495 77.6661 87.3183C78.7517 87.7576 79.2173 88.4146 79.2025 89.4829C79.1875 90.5567 78.6233 91.4035 77.5954 91.7498C76.2825 92.1927 75.0312 92.0717 73.9102 91.1803C73.6961 91.0108 73.5807 90.8489 73.8823 90.6498C73.9735 90.5902 74.0406 90.4934 74.1207 90.4153C74.2995 90.244 74.454 89.9891 74.6662 89.9258C74.8935 89.8588 74.9922 90.2013 75.1839 90.3241C75.7817 90.7056 76.4 90.7969 77.0553 90.5065C77.4353 90.3371 77.6755 90.0431 77.6922 89.6206C77.709 89.2093 77.4855 88.917 77.1354 88.7236C76.83 88.5542 76.4985 88.4499 76.1709 88.3383C75.8543 88.2303 75.5378 88.1223 75.2305 87.9922C74.4633 87.6665 73.9828 87.1174 73.914 86.2576C73.8394 85.3251 74.1561 84.5807 74.9605 84.0689C76.0758 83.358 77.871 83.4175 78.9101 84.1824C79.1204 84.3368 79.1521 84.443 78.9547 84.631C78.668 84.9045 78.4054 85.2023 78.1223 85.5001Z" fill="white"></path>
<path d="M103.106 90.6625C104.076 90.6625 104.963 90.6568 105.851 90.6643C106.569 90.6698 106.478 90.5508 106.484 91.2897C106.489 91.9895 106.486 91.9895 105.786 91.9895C104.234 91.9895 102.683 91.9838 101.134 91.9951C100.875 91.9969 100.817 91.9225 100.795 91.6656C100.756 91.2152 100.907 90.9099 101.248 90.6121C102.078 89.8863 102.89 89.1399 103.626 88.3137C103.964 87.9321 104.29 87.5393 104.499 87.0703C104.774 86.4506 104.869 85.8047 104.391 85.2501C103.92 84.7029 103.272 84.7326 102.633 84.8815C102.268 84.9653 101.935 85.1403 101.635 85.3636C101.479 85.479 101.404 85.4474 101.344 85.2742C101.292 85.1217 101.223 84.9764 101.162 84.8275C100.953 84.3232 100.953 84.3195 101.413 84.0589C102.227 83.5973 103.106 83.4186 104.03 83.5266C105.847 83.7407 106.774 85.3618 106.108 87.1299C105.758 88.0604 105.102 88.7695 104.408 89.4489C104.002 89.8435 103.581 90.2195 103.106 90.6625Z" fill="white"></path>
<path d="M89.4649 87.7956C89.4574 84.0045 93.0551 82.9735 95.2095 83.8687C95.6397 84.0474 95.9991 84.3284 96.3286 84.6523C96.459 84.7787 96.5093 84.8867 96.3082 84.9891C96.2653 85.0114 96.2281 85.0486 96.189 85.0765C95.9488 85.2515 95.7309 85.5046 95.4628 85.5827C95.1611 85.6703 95.0029 85.2924 94.757 85.1547C93.934 84.6875 92.7218 84.8291 91.908 85.5176C90.4947 86.7143 90.692 89.3274 92.2711 90.2969C93.2971 90.926 94.4404 90.7976 95.2803 89.9285C95.4609 89.7405 95.5782 89.7387 95.7645 89.8969C95.9526 90.0569 96.1536 90.2113 96.3696 90.3248C96.6993 90.498 96.6303 90.6562 96.418 90.8757C95.541 91.7877 94.4461 92.0817 93.232 91.9645C90.9024 91.7394 89.4649 90.1314 89.4649 87.7956Z" fill="white"></path>
<path d="M89.1402 69.7773C90.4251 69.7866 91.4866 70.1644 92.3077 71.1135C92.453 71.281 92.4847 71.4002 92.2649 71.5118C92.2426 71.523 92.224 71.5398 92.2034 71.5546C91.7696 71.8766 91.7696 71.8766 91.3804 71.508C90.2203 70.4082 88.226 70.4045 87.0864 71.5286C86.2764 72.327 86.0622 73.3078 86.4291 74.3686C86.8164 75.4852 87.6822 76.064 88.8293 76.2054C89.8703 76.3339 90.8012 76.0602 91.535 75.2786C91.7044 75.0981 91.8124 75.126 91.9894 75.2563C92.5517 75.6713 92.5573 75.6657 92.0173 76.1347C90.7082 77.27 88.4811 77.4542 87.0007 76.5478C85.66 75.729 85.025 74.1582 85.3843 72.5503C85.699 71.1378 87.0789 69.969 88.6095 69.8201C88.8051 69.796 89.0043 69.7866 89.1402 69.7773Z" fill="white"></path>
<path d="M82.59 76.9678C82.2381 76.9678 81.9457 76.9678 81.6534 76.9678C81.4727 76.9678 81.4486 76.8041 81.3908 76.6943C81.0947 76.123 80.8024 75.5498 80.5231 74.971C80.4374 74.7923 80.335 74.7197 80.1283 74.7215C79.3108 74.7346 78.4915 74.7327 77.6741 74.7215C77.486 74.7197 77.3891 74.783 77.3072 74.9523C77.039 75.5087 76.7337 76.0485 76.4785 76.6124C76.3519 76.8916 76.1937 76.9884 75.8901 76.9772C75.2029 76.9549 75.2011 76.9698 75.5103 76.3538C76.5791 74.219 77.646 72.0825 78.7168 69.9497C78.7764 69.8324 78.8024 69.6891 78.9515 69.6016C80.1581 72.0415 81.3592 74.4759 82.59 76.9678ZM79.9477 73.8133C79.6031 73.1285 79.2773 72.4789 78.9179 71.7605C78.551 72.4882 78.2252 73.1378 77.8844 73.8133C78.6014 73.8133 79.2512 73.8133 79.9477 73.8133Z" fill="white"></path>
<path d="M104.729 76.9672C104.384 76.9672 104.105 76.9597 103.824 76.969C103.66 76.9746 103.617 76.8593 103.563 76.7513C103.26 76.1557 102.947 75.5657 102.656 74.9628C102.567 74.7785 102.463 74.7152 102.26 74.719C101.442 74.7301 100.623 74.7301 99.8054 74.719C99.6154 74.7172 99.5222 74.7841 99.4422 74.9517C99.1741 75.5081 98.8743 76.0515 98.6154 76.6135C98.4888 76.889 98.3286 77.01 98.0232 76.9728C97.8203 76.9485 97.6098 76.9672 97.3398 76.9672C98.5893 74.4789 99.8109 72.0426 101.064 69.5469C102.297 72.039 103.498 74.4732 104.729 76.9672ZM101.055 71.7654C100.699 72.4763 100.368 73.1351 100.02 73.8331C100.682 73.8331 101.274 73.8294 101.867 73.8349C102.038 73.8368 102.09 73.7959 102.003 73.6247C101.69 73.0234 101.386 72.4205 101.055 71.7654Z" fill="white"></path>
<path d="M93.7324 73.4628C93.7324 72.3964 93.7399 71.3301 93.7267 70.2656C93.7231 70.0032 93.7714 69.8897 94.0694 69.899C94.9372 69.9214 95.805 69.8878 96.6708 69.9641C97.911 70.0721 98.6596 70.9858 98.4901 72.1937C98.384 72.953 97.8272 73.5094 96.9893 73.6899C96.3412 73.8295 95.6802 73.7866 95.0265 73.8145C94.7695 73.8258 94.6894 73.8909 94.6932 74.1514C94.7082 74.9815 94.6894 75.8132 94.7044 76.6433C94.7082 76.8983 94.6447 76.9857 94.3767 76.9802C93.7324 76.9689 93.7324 76.9839 93.7324 76.3288C93.7324 75.3722 93.7324 74.4176 93.7324 73.4628ZM94.6987 71.8605C94.6987 72.134 94.7044 72.4057 94.6969 72.6793C94.6932 72.8338 94.7454 72.9101 94.9074 72.9064C95.4772 72.899 96.0507 72.9455 96.6168 72.8543C97.1922 72.7612 97.5404 72.3426 97.52 71.8065C97.4994 71.2984 97.1214 70.9263 96.5498 70.8612C96.019 70.7997 95.4846 70.8276 94.9521 70.8183C94.7584 70.8146 94.6894 70.8891 94.6987 71.0807C94.7082 71.3395 94.6987 71.5999 94.6987 71.8605Z" fill="white"></path>
<path d="M84.1145 73.4315C84.1145 74.5108 84.107 75.5885 84.1201 76.668C84.1238 76.9173 84.0437 76.9788 83.8054 76.977C83.1481 76.9732 83.1481 76.9844 83.1481 76.3106C83.1481 74.2895 83.1536 72.2682 83.1407 70.2489C83.1388 69.9679 83.2169 69.8915 83.4944 69.8989C84.1145 69.9139 84.1145 69.8989 84.1145 70.5317C84.1145 71.4958 84.1145 72.4636 84.1145 73.4315Z" fill="white"></path>
<path d="M78.0648 59.2484C77.454 59.2409 76.9158 58.6696 76.9102 58.0219C76.9047 57.417 77.4502 56.8959 78.0666 56.9145C78.6699 56.9332 79.2099 57.5269 79.2006 58.1634C79.1931 58.7626 78.6755 59.2558 78.0648 59.2484Z" fill="white"></path>
<path d="M114.961 71.0521C114.948 71.2903 114.78 71.4319 114.51 71.4449C114.278 71.4542 113.805 70.8641 113.894 70.6128C113.996 70.3205 114.359 70.3485 114.603 70.2255C114.698 70.1772 114.965 70.7524 114.961 71.0521Z" fill="white"></path>
<path d="M83.1462 56.7846C83.1518 57.1421 82.8538 57.4456 82.4944 57.4493C82.1443 57.453 81.8223 57.1179 81.8203 56.7511C81.8203 56.3899 82.1089 56.0994 82.4796 56.0938C82.8464 56.0882 83.1406 56.3917 83.1462 56.7846Z" fill="white"></path>
<path d="M64.4609 72.9146C64.947 72.8717 65.325 72.84 65.703 72.8066C65.8669 72.7916 65.8985 72.8661 65.8483 73.004C65.839 73.0262 65.8259 73.0485 65.8203 73.0728C65.5931 73.8846 65.5931 73.8865 64.9544 73.3446C64.8148 73.2273 64.6788 73.1045 64.4609 72.9146Z" fill="white"></path>
<path d="M63.2852 82.8122C63.7041 82.611 64.0505 82.4528 64.3876 82.2778C64.5868 82.1753 64.6017 82.2647 64.6147 82.436C64.6855 83.3074 64.6892 83.3074 63.8773 83.0281C63.706 82.9704 63.5347 82.9034 63.2852 82.8122Z" fill="white"></path>
<path d="M114.866 76.7951C114.501 76.7988 114.203 76.512 114.192 76.149C114.182 75.7934 114.497 75.488 114.886 75.4732C115.26 75.4582 115.579 75.7655 115.579 76.1435C115.583 76.4934 115.257 76.7913 114.866 76.7951Z" fill="white"></path>
<path d="M64.5698 75.4729C64.4395 75.6368 64.6759 76.0707 64.2644 76.0502C64.0447 76.0409 63.6164 76.1638 63.5922 75.756C63.5624 75.244 63.8212 74.9143 64.1322 74.918C64.4152 74.9236 64.5847 75.1247 64.5698 75.4729Z" fill="white"></path>
<path d="M114.967 73.6676C114.964 73.7663 114.95 73.8779 114.87 73.9617C114.813 74.0213 114.74 74.1032 114.671 74.1069C114.565 74.1126 114.572 73.9896 114.546 73.9115C114.487 73.7252 114.424 73.541 114.373 73.351C114.345 73.2505 114.26 73.1201 114.375 73.0513C114.466 72.9954 114.589 73.0681 114.682 73.1257C114.874 73.2487 114.949 73.4366 114.967 73.6676Z" fill="white"></path>
<path d="M68.3554 66.9141C68.4429 66.9179 68.549 66.9179 68.5826 67.0035C68.6012 67.05 68.5453 67.1339 68.5099 67.1934C68.3963 67.3833 68.279 67.5733 68.158 67.7595C68.1189 67.8191 68.0667 67.9047 68.0127 67.9103C67.9141 67.9214 67.8898 67.8098 67.8582 67.7353C67.7055 67.3946 67.9941 66.9197 68.3554 66.9141Z" fill="white"></path>
<path d="M74.6792 60.082C74.789 60.0932 74.9286 60.1286 74.9826 60.2348C75.0516 60.3708 74.8821 60.4025 74.8095 60.4639C74.6513 60.5999 74.48 60.721 74.3105 60.8439C74.2547 60.8849 74.2007 60.9632 74.1186 60.911C74.048 60.8663 74.061 60.7806 74.0591 60.7098C74.0442 60.4006 74.3532 60.0802 74.6792 60.082Z" fill="white"></path>
<path d="M92.6036 55.8283C92.7078 55.8916 92.9573 55.7278 92.9704 56.0144C92.9816 56.2508 92.7023 56.4909 92.4415 56.4779C92.2367 56.4668 92.0392 56.4128 92.0169 56.1596C91.9965 55.9493 92.218 55.8227 92.6036 55.8283Z" fill="white"></path>
<path d="M115.937 78.6845C115.935 79.0607 115.636 79.3381 115.233 79.3381C114.835 79.3363 114.556 79.0552 114.567 78.6604C114.576 78.2897 114.894 78.003 115.284 78.0161C115.656 78.029 115.939 78.3176 115.937 78.6845Z" fill="white"></path>
<path d="M97.5294 57.4632C97.1626 57.4725 96.8572 57.1894 96.8479 56.83C96.8386 56.4408 97.1197 56.1093 97.4754 56.0907C97.8627 56.0721 98.1793 56.3644 98.1793 56.7388C98.1774 57.1261 97.8832 57.4557 97.5294 57.4632Z" fill="white"></path>
<path d="M111.147 66.2463C111.482 66.2556 111.808 66.602 111.791 66.9371C111.775 67.2909 111.402 67.6094 111.024 67.5944C110.691 67.5815 110.395 67.2704 110.398 66.9353C110.402 66.5927 110.789 66.237 111.147 66.2463Z" fill="white"></path>
<path d="M105.694 60.3672C106.01 60.3672 106.346 60.6894 106.359 61.0041C106.372 61.3542 106.01 61.7434 105.666 61.7527C105.331 61.762 104.983 61.4268 104.984 61.0972C104.984 60.7359 105.344 60.3672 105.694 60.3672Z" fill="white"></path>
<path d="M84.8123 56.8857C84.6093 56.8819 84.479 56.7944 84.4845 56.5784C84.4883 56.3699 84.9129 56.1259 85.2201 56.1371C85.3952 56.1427 85.3747 56.2693 85.3747 56.3717C85.3747 56.6641 85.1196 56.8931 84.8123 56.8857Z" fill="white"></path>
<path d="M100.671 103.644C100.671 103.905 100.502 104.015 100.321 104.095C100.161 104.166 99.9745 104.369 99.8349 104.246C99.6841 104.113 99.6058 103.871 99.5537 103.663C99.5257 103.551 99.7082 103.536 99.7995 103.488C99.9634 103.402 100.131 103.315 100.319 103.316C100.541 103.318 100.639 103.464 100.671 103.644Z" fill="white"></path>
<path d="M88.2714 106.844C88.2286 106.865 88.2063 106.885 88.184 106.885C87.3534 106.919 87.3534 106.917 87.696 106.187C87.7575 106.057 87.8283 105.932 87.9307 105.734C88.0611 106.157 88.1672 106.502 88.2714 106.844Z" fill="white"></path>
<path d="M96.0977 105.318C96.1032 105.001 96.1796 104.759 96.4812 104.675C96.7736 104.595 96.9487 104.778 97.0846 104.997C97.2895 105.331 97.39 105.701 97.3918 106.09C97.3937 106.347 97.3267 106.585 97.0324 106.672C96.7364 106.762 96.5632 106.587 96.4235 106.369C96.2131 106.039 96.1274 105.669 96.0977 105.318Z" fill="white"></path>
<path d="M105.022 102.733C104.705 102.736 104.432 102.464 104.43 102.142C104.428 101.843 104.713 101.541 105.013 101.528C105.327 101.513 105.636 101.822 105.629 102.144C105.621 102.448 105.331 102.731 105.022 102.733Z" fill="white"></path>
<path d="M70.7338 97.8088C71.0411 97.7995 71.3632 98.1123 71.3632 98.4234C71.3632 98.7214 71.0616 99.0138 70.7581 99.0138C70.4527 99.0138 70.1678 98.7307 70.1603 98.4197C70.1529 98.0994 70.4154 97.8199 70.7338 97.8088Z" fill="white"></path>
<path d="M103.145 103.108C103.117 103.139 103.093 103.182 103.056 103.205C102.845 103.335 102.633 103.458 102.421 103.585C102.35 103.627 102.279 103.65 102.253 103.54C102.194 103.298 102.318 103.134 102.507 103.015C102.698 102.894 102.899 102.871 103.086 103.035C103.106 103.054 103.119 103.074 103.145 103.108Z" fill="white"></path>
<path d="M76.9118 102.871C77.0924 102.897 77.2489 102.964 77.3643 103.102C77.4611 103.219 77.5468 103.37 77.4481 103.504C77.3233 103.674 77.2228 103.474 77.1166 103.434C77.005 103.391 76.8988 103.32 76.8019 103.245C76.7237 103.186 76.5487 103.184 76.6046 103.033C76.6492 102.91 76.7963 102.897 76.9118 102.871Z" fill="white"></path>
<path d="M107.019 101.065C106.699 101.06 106.436 100.788 106.441 100.464C106.447 100.134 106.745 99.8529 107.073 99.8677C107.382 99.8827 107.656 100.182 107.641 100.49C107.624 100.795 107.326 101.069 107.019 101.065Z" fill="white"></path>
<path d="M104.681 80.1953H75.4453V80.3816H104.681V80.1953Z" fill="white"></path>
</g>
<defs>
<clipPath id="clip0_272_74008">
<rect width="60" height="60" fill="white" transform="translate(60 51.0352)"></rect>
</clipPath>
</defs>
</svg>
