<svg width="28" height="29" viewBox="0 0 28 29" fill="none" xmlns="http://www.w3.org/2000/svg"><rect y="0.988281" width="28" height="28" rx="14" fill="currentColor"></rect><path class="transition-colors duration-300 group-hover:fill-heading-black" fill="white" d="M19.9516 10.8781C19.7667 9.48128 18.5693 8.38051 17.1498 8.16721C16.9104 8.13117 16.003 8 13.9011 8H13.8854C11.7829 8 11.3319 8.13117 11.0924 8.16721C9.71243 8.3746 8.45223 9.3637 8.14648 10.777C7.99942 11.4731 7.98373 12.2447 8.01105 12.9526C8.04999 13.9677 8.05755 14.981 8.14823 15.992C8.21091 16.6635 8.32027 17.3297 8.47548 17.9855C8.76612 19.1968 9.94262 20.2048 11.0953 20.616C12.3294 21.0449 13.6566 21.1161 14.9282 20.8216C15.0681 20.7886 15.2065 20.7502 15.3432 20.7064C15.6519 20.6066 16.014 20.4949 16.2803 20.2987C16.2839 20.296 16.2869 20.2924 16.289 20.2883C16.2911 20.2842 16.2923 20.2797 16.2925 20.2751V19.2955C16.2924 19.2911 16.2914 19.2869 16.2895 19.283C16.2876 19.2791 16.2849 19.2758 16.2815 19.2731C16.2782 19.2704 16.2743 19.2686 16.2702 19.2676C16.266 19.2667 16.2617 19.2667 16.2576 19.2677C15.4429 19.4655 14.608 19.5647 13.7703 19.5631C12.3288 19.5631 11.941 18.8677 11.83 18.5782C11.7408 18.3279 11.6841 18.0669 11.6614 17.8018C11.6612 17.7973 11.662 17.7929 11.6638 17.7888C11.6656 17.7847 11.6683 17.7811 11.6717 17.7783C11.6751 17.7755 11.6791 17.7735 11.6834 17.7726C11.6876 17.7716 11.6921 17.7717 11.6963 17.7728C12.4975 17.9693 13.3188 18.0685 14.1429 18.0682C14.3411 18.0682 14.5387 18.0682 14.737 18.0629C15.5659 18.0393 16.4395 17.9962 17.255 17.8343C17.2754 17.8301 17.2957 17.8266 17.3132 17.8213C18.5995 17.5701 19.8237 16.7819 19.9481 14.786C19.9527 14.7074 19.9644 13.963 19.9644 13.8814C19.965 13.6043 20.0521 11.9156 19.9516 10.8781ZM17.9718 15.8584H16.6191V12.4905C16.6191 11.7815 16.3285 11.4199 15.7373 11.4199C15.0875 11.4199 14.762 11.8477 14.762 12.6926V14.5361H13.4175V12.6926C13.4175 11.8477 13.0914 11.4199 12.4415 11.4199C11.8538 11.4199 11.5603 11.7815 11.5597 12.4905V15.8584H10.2083V12.3883C10.2083 11.6793 10.3863 11.116 10.7425 10.6985C11.1098 10.2819 11.5917 10.068 12.1898 10.068C12.8821 10.068 13.4053 10.3386 13.754 10.8793L14.0906 11.4536L14.4277 10.8793C14.7765 10.3386 15.2996 10.068 15.9908 10.068C16.5883 10.068 17.0702 10.2819 17.4387 10.6985C17.7949 11.1156 17.9729 11.6789 17.9729 12.3883L17.9718 15.8584Z"></path></svg>