<svg xmlns="http://www.w3.org/2000/svg" fill="none" viewBox="0 0 160 35" height="35" width="160">
<g clip-path="url(#clip0_2535_1148)">
<g clip-path="url(#clip1_2535_1148)">
<path fill="#737373" d="M66.5353 7.26954V27.841H62.9808V11.6981H62.9334L56.5827 27.841H54.213L47.7201 11.6981H47.6727V27.841H44.4026V7.26954H49.5211L55.3979 22.5076H55.4926L61.7012 7.26954H66.5353ZM69.4737 8.84097C69.4737 8.26954 69.6633 7.79335 70.0898 7.41239C70.5163 7.03144 70.9903 6.84097 71.559 6.84097C72.1751 6.84097 72.6964 7.03144 73.0756 7.41239C73.4547 7.79335 73.6917 8.26954 73.6917 8.84097C73.6917 9.41239 73.5021 9.88859 73.0756 10.2695C72.649 10.6505 72.1751 10.841 71.559 10.841C70.9429 10.841 70.4689 10.6505 70.0898 10.2695C69.7106 9.84097 69.4737 9.36478 69.4737 8.84097ZM73.3125 13.0791V27.841H69.8528V13.0791H73.3125ZM83.7865 25.3172C84.3078 25.3172 84.8765 25.2219 85.4926 24.9362C86.1087 24.6981 86.6775 24.3648 87.1988 23.9838V27.2219C86.6301 27.5553 86.014 27.7933 85.3031 27.9362C84.5922 28.0791 83.8339 28.1743 82.9808 28.1743C80.8007 28.1743 79.0471 27.5076 77.7201 26.1267C76.3457 24.7457 75.6822 22.9838 75.6822 20.8886C75.6822 18.5076 76.3931 16.5553 77.7675 15.0314C79.1419 13.5076 81.0851 12.7457 83.6443 12.7457C84.3078 12.7457 84.9713 12.841 85.5874 12.9838C86.2509 13.1267 86.7723 13.3648 87.1514 13.5553V16.8886C86.6301 16.5076 86.0614 16.1743 85.54 15.9838C84.9713 15.7933 84.4026 15.6505 83.8339 15.6505C82.4595 15.6505 81.3694 16.0791 80.5163 16.9838C79.6633 17.8886 79.2841 19.0791 79.2841 20.6029C79.2841 22.0791 79.7106 23.2695 80.5163 24.0791C81.322 24.8886 82.4121 25.3172 83.7865 25.3172ZM97.0092 12.841C97.2936 12.841 97.5306 12.841 97.7675 12.8886C98.0045 12.9362 98.1941 12.9838 98.3362 13.0314V16.5553C98.1467 16.4124 97.9097 16.2695 97.5306 16.1743C97.1514 16.0791 96.7723 15.9838 96.2509 15.9838C95.3979 15.9838 94.687 16.3648 94.1182 17.0791C93.5495 17.7933 93.2178 18.8886 93.2178 20.4124V27.841H89.758V13.0791H93.2178V15.4124H93.2652C93.5969 14.6029 94.0708 13.9838 94.687 13.5076C95.3505 13.0791 96.1088 12.841 97.0092 12.841ZM98.5258 20.6981C98.5258 18.2695 99.2367 16.3172 100.564 14.8886C101.938 13.46 103.834 12.7457 106.251 12.7457C108.526 12.7457 110.327 13.4124 111.606 14.7933C112.886 16.1743 113.55 18.0314 113.55 20.3648C113.55 22.7457 112.839 24.6505 111.512 26.0791C110.137 27.5076 108.289 28.2219 105.919 28.2219C103.644 28.2219 101.843 27.5553 100.516 26.2219C99.1893 24.841 98.5258 22.9838 98.5258 20.6981ZM102.128 20.5553C102.128 22.0791 102.459 23.2695 103.17 24.0791C103.881 24.8886 104.877 25.3172 106.156 25.3172C107.388 25.3172 108.384 24.9362 109.047 24.0791C109.711 23.2695 110.042 22.0791 110.042 20.46C110.042 18.8886 109.711 17.6981 109.047 16.841C108.384 16.0314 107.388 15.6029 106.204 15.6029C104.924 15.6029 103.976 16.0314 103.265 16.8886C102.459 17.7933 102.128 18.9838 102.128 20.5553ZM118.715 16.9838C118.715 17.46 118.858 17.8886 119.189 18.1743C119.521 18.46 120.185 18.7933 121.275 19.2219C122.649 19.7933 123.644 20.4124 124.166 21.0791C124.734 21.7933 125.019 22.6029 125.019 23.6029C125.019 24.9838 124.497 26.0791 123.407 26.9362C122.365 27.7933 120.895 28.1743 119.095 28.1743C118.478 28.1743 117.815 28.0791 117.057 27.9362C116.298 27.7933 115.682 27.6029 115.161 27.3648V23.9362C115.777 24.3648 116.488 24.7457 117.199 24.9838C117.91 25.2219 118.573 25.3648 119.189 25.3648C119.948 25.3648 120.564 25.2695 120.895 25.0314C121.275 24.7933 121.464 24.46 121.464 23.9362C121.464 23.46 121.275 23.0791 120.895 22.6981C120.516 22.3648 119.758 21.9838 118.715 21.5553C117.436 21.0314 116.535 20.4124 116.014 19.7457C115.493 19.0791 115.208 18.2219 115.208 17.1743C115.208 15.841 115.73 14.7457 116.772 13.8886C117.815 13.0314 119.189 12.6029 120.848 12.6029C121.369 12.6029 121.938 12.6505 122.554 12.7933C123.17 12.9362 123.739 13.0791 124.166 13.2219V16.6029C123.692 16.3172 123.17 16.0314 122.554 15.7933C121.938 15.5553 121.322 15.46 120.753 15.46C120.09 15.46 119.568 15.6029 119.237 15.841C118.905 16.1743 118.715 16.5076 118.715 16.9838ZM126.488 20.6981C126.488 18.2695 127.199 16.3172 128.526 14.8886C129.9 13.46 131.796 12.7457 134.213 12.7457C136.488 12.7457 138.289 13.4124 139.568 14.7933C140.848 16.1743 141.512 18.0314 141.512 20.3648C141.512 22.7457 140.801 24.6505 139.474 26.0791C138.099 27.5076 136.251 28.2219 133.881 28.2219C131.606 28.2219 129.805 27.5553 128.478 26.2219C127.199 24.841 126.488 22.9838 126.488 20.6981ZM130.09 20.5553C130.09 22.0791 130.422 23.2695 131.132 24.0791C131.843 24.8886 132.839 25.3172 134.118 25.3172C135.35 25.3172 136.346 24.9362 137.009 24.0791C137.673 23.2695 138.004 22.0791 138.004 20.46C138.004 18.8886 137.673 17.6981 137.009 16.841C136.346 16.0314 135.35 15.6029 134.166 15.6029C132.886 15.6029 131.938 16.0314 131.227 16.8886C130.469 17.7933 130.09 18.9838 130.09 20.5553ZM153.028 15.9362H147.862V27.841H144.355V15.9362H141.891V13.0791H144.355V11.0314C144.355 9.50763 144.877 8.22192 145.872 7.22192C146.867 6.22192 148.147 5.74573 149.711 5.74573C150.137 5.74573 150.516 5.79335 150.848 5.79335C151.18 5.79335 151.464 5.88858 151.701 5.98382V8.98382C151.606 8.9362 151.369 8.84097 151.085 8.74573C150.801 8.65049 150.469 8.60287 150.09 8.60287C149.379 8.60287 148.81 8.84097 148.431 9.26954C148.052 9.69811 147.862 10.4124 147.862 11.2695V13.0314H153.028V9.69811L156.488 8.65049V13.0314H159.995V15.8886H156.488V22.7933C156.488 23.6981 156.677 24.3172 156.962 24.6981C157.294 25.0791 157.815 25.2695 158.526 25.2695C158.715 25.2695 158.952 25.2219 159.237 25.1267C159.521 25.0314 159.758 24.9362 159.948 24.7933V27.6505C159.711 27.7933 159.379 27.8886 158.858 27.9838C158.336 28.0791 157.862 28.1267 157.341 28.1267C155.872 28.1267 154.782 27.7457 154.071 26.9838C153.36 26.2219 152.981 25.0314 152.981 23.46L153.028 15.9362Z"></path>
<path fill="#F25022" d="M16.2036 0.412109H-0.00488281V16.6978H16.2036V0.412109Z"></path>
<path fill="#7FBA00" d="M34.1183 0.412109H17.9098V16.6978H34.1183V0.412109Z"></path>
<path fill="#00A4EF" d="M16.2036 18.4124H-0.00488281V34.6981H16.2036V18.4124Z"></path>
<path fill="#FFB900" d="M34.1183 18.4124H17.9098V34.6981H34.1183V18.4124Z"></path>
</g>
</g>
<defs>
<clipPath id="clip0_2535_1148">
<rect transform="translate(-0.00488281 0.412109)" fill="white" height="34.2857" width="160"></rect>
</clipPath>
<clipPath id="clip1_2535_1148">
<rect transform="translate(-0.00488281 0.412109)" fill="white" height="34.2857" width="160"></rect>
</clipPath>
</defs>
</svg>
