<svg xmlns="http://www.w3.org/2000/svg" fill="none" viewBox="0 0 230 100" height="100" width="230">
<g clip-path="url(#clip0_30_287)">
<path fill="#0AAD0A" d="M43.9803 40.6662C42.781 40.6662 41.8946 41.1877 41.1124 42.3348L38.8181 45.672V36.1819H33.2908V45.672L30.9965 42.3348C30.2144 41.1877 29.3279 40.6662 28.1286 40.6662C26.2514 40.6662 25 42.022 25 43.6906C25 45.0985 25.6779 46.037 27.0857 46.9756L36.0023 52.7114L44.9189 46.9756C46.3268 46.037 47.0046 45.1506 47.0046 43.6906C47.0568 42.022 45.8053 40.6662 43.9803 40.6662Z"></path>
<path fill="#FF7009" d="M36.0023 54.1194C41.3209 54.1194 45.6489 58.0823 45.6489 63.766H26.3557C26.3557 58.0823 30.7358 54.1194 36.0023 54.1194Z"></path>
<path fill="#003D29" d="M56.9641 42.2306C54.9305 42.2306 53.627 40.9791 53.627 38.9977C53.627 37.0683 54.9827 35.8169 56.9641 35.8169C58.9978 35.8169 60.3013 37.0683 60.3013 39.0498C60.3013 41.0313 58.9978 42.2306 56.9641 42.2306ZM59.9363 43.482V63.7659H53.9398V43.482H59.9363Z"></path>
<path fill="#003D29" d="M68.8528 43.4821V47.2364H69.1656C70.3128 44.5771 72.2943 43.0649 75.475 43.0649C79.803 43.0649 82.4623 45.62 82.4623 50.6258V63.766H76.4658V51.7729C76.4658 48.9572 75.2665 47.7057 72.8679 47.7057C70.4171 47.7057 69.0092 49.0615 69.0092 51.9294V63.766H63.0127V43.4821H68.8528Z"></path>
<path fill="#003D29" d="M90.0753 57.3522C90.2839 59.1251 91.3789 60.0115 93.3082 60.0115C95.4461 60.0115 96.2804 59.1772 96.2804 58.0822C96.2804 56.9872 95.7068 56.3093 93.8818 56.1529L91.2746 55.84C86.6338 55.3186 84.7045 53.2328 84.7045 49.7913C84.7045 45.9327 87.6246 43.1169 93.2039 43.1169C98.679 43.1169 101.234 45.7241 101.599 49.687H96.0718C95.9154 48.1749 95.029 47.2884 93.0996 47.2884C91.1182 47.2884 90.2317 48.1227 90.2317 49.2178C90.2317 50.2085 90.8575 50.7299 92.3696 50.9385L95.2897 51.3035C99.8783 51.9292 101.86 53.7543 101.86 57.4043C101.86 61.3672 98.7833 64.183 93.2561 64.183C87.5724 64.183 84.7045 61.4715 84.2874 57.3522H90.0753Z"></path>
<path fill="#003D29" d="M105.353 57.8216V48.2272H102.798V44.2643C106.136 44.0557 107.439 42.8043 107.543 39.7278H111.35V43.4821H115.886V48.2272H111.35V56.7788C111.35 58.8124 112.184 59.4381 113.853 59.4381C114.322 59.4381 114.844 59.3859 115.365 59.2817V63.8182C114.374 64.0789 113.436 64.1832 112.393 64.1832C107.439 64.1832 105.353 61.941 105.353 57.8216Z"></path>
<path fill="#003D29" d="M129.34 60.3766H129.079C128.14 62.7753 126.367 64.131 123.239 64.131C119.224 64.131 117.034 61.6281 117.034 58.3952C117.034 55.423 118.702 53.3372 123.343 52.4508L126.785 51.8251C128.557 51.5122 129.183 50.8865 129.183 49.8436C129.183 48.4357 128.192 47.6536 126.315 47.6536C124.23 47.6536 123.187 48.5922 122.978 50.2086H117.294C117.92 45.8286 121.101 43.0649 126.524 43.0649C132.364 43.0649 135.18 46.0371 135.18 50.5736V63.7138H129.392V60.3766H129.34ZM129.131 54.4323C128.61 54.7973 127.932 55.1101 126.993 55.3187L125.22 55.7359C123.656 56.1009 123.082 56.8309 123.082 57.9259C123.082 59.3338 124.073 60.1681 125.794 60.1681C127.827 60.1681 129.183 59.0731 129.183 56.4659V54.4323H129.131Z"></path>
<path fill="#003D29" d="M148.163 43.0649C154.473 43.0649 158.018 46.5064 158.436 52.0337H152.491C152.178 49.5308 150.823 47.9143 148.111 47.9143C145.035 47.9143 143.314 49.8436 143.314 53.4415C143.314 57.3002 145.191 59.2295 148.163 59.2295C150.718 59.2295 152.283 57.7173 152.596 55.0058H158.54C157.966 60.6895 154.16 64.0788 147.955 64.0788C141.124 64.0788 137.213 59.9595 137.213 53.598C137.317 47.2886 141.593 43.0649 148.163 43.0649Z"></path>
<path fill="#003D29" d="M172.41 60.3766H172.149C171.211 62.7753 169.438 64.131 166.309 64.131C162.294 64.131 160.104 61.6281 160.104 58.3952C160.104 55.423 161.773 53.3372 166.414 52.4508L169.855 51.8251C171.628 51.5122 172.254 50.8865 172.254 49.8436C172.254 48.4357 171.263 47.6536 169.386 47.6536C167.3 47.6536 166.257 48.5922 166.049 50.2086H160.365C160.991 45.8286 164.171 43.0649 169.594 43.0649C175.434 43.0649 178.25 46.0371 178.25 50.5736V63.7138H172.462V60.3766H172.41ZM172.202 54.4323C171.68 54.7973 171.002 55.1101 170.064 55.3187L168.291 55.7359C166.726 56.1009 166.153 56.8309 166.153 57.9259C166.153 59.3338 167.144 60.1681 168.864 60.1681C170.898 60.1681 172.254 59.0731 172.254 56.4659V54.4323H172.202Z"></path>
<path fill="#003D29" d="M186.75 43.4819V48.3835H187.063C188.053 44.2641 189.513 43.1169 191.495 43.1169C191.912 43.1169 192.329 43.1691 192.694 43.3255V48.957C192.225 48.9049 191.703 48.8527 191.078 48.8527C188.262 48.8527 187.115 49.9999 187.115 53.1807V63.818H181.118V43.4819H186.75Z"></path>
<path fill="#003D29" d="M194.519 43.6907C196.083 43.065 196.709 41.8135 196.813 39.7278H200.516V43.4821H205.052V48.2272H200.516V56.7788C200.516 58.8124 201.35 59.4381 203.018 59.4381C203.488 59.4381 204.009 59.3859 204.531 59.2817V63.8182C203.54 64.0789 202.601 64.1832 201.558 64.1832C196.657 64.1832 194.519 61.9931 194.519 57.8216V43.6907Z"></path>
</g>
<defs>
<clipPath id="clip0_30_287">
<rect transform="translate(25 35.8169)" fill="white" height="28.3662" width="180"></rect>
</clipPath>
</defs>
</svg>
