<svg xmlns="http://www.w3.org/2000/svg" fill="none" viewBox="0 0 209 100" height="100" width="209">
<g clip-path="url(#clip0_158_173)">
<path fill="#1F1E1E" d="M135.924 46.7834V62.7087H130.691V49.5023L135.924 46.7834Z" opacity="0.7"></path>
<path fill="#1F1E1E" d="M65.8931 63.1092L78.1215 56.7136L76.614 52.8076L68.5633 56.563L65.8931 63.1092Z" opacity="0.7"></path>
<path fill="#1F1E1E" d="M130.691 49.4887L143.958 42.6977L141.716 38.9059L130.691 44.2953V49.4887Z" opacity="0.5"></path>
<path fill="#1F1E1E" d="M93.328 45.5223V62.7087H88.3379V38.2328L93.328 45.5223Z" opacity="0.7"></path>
<path fill="#1F1E1E" d="M73.454 44.5722L65.8929 63.1092L62.0039 59.7605L71.0131 38.2328L73.454 44.5722Z" opacity="0.5"></path>
<path fill="#1F1E1E" d="M71.0132 38.2328H76.168L85.7018 62.7087H80.4255L71.0132 38.2328Z"></path>
<path fill="#1F1E1E" d="M94.0998 38.2328L105.09 54.9547V62.7087L88.3379 38.2328H94.0998Z"></path>
<path fill="#1F1E1E" d="M119.696 38.2328H114.502V62.7129H119.696V38.2328Z"></path>
<path fill="#1F1E1E" d="M130.691 42.6977H122.697V38.2328H141.318L143.958 42.6977H135.924H130.691Z"></path>
<path fill="#1F1E1E" d="M159.292 53.4211V62.7087H154.137V53.4211" opacity="0.5"></path>
<path fill="#1F1E1E" d="M154.137 53.421L162.86 38.2328H168.336L159.292 53.421H154.137Z"></path>
<path fill="#1F1E1E" d="M154.138 53.421L145.172 38.2328H150.812L156.886 48.6409L154.138 53.421Z" opacity="0.7"></path>
<path fill="#1F1E1E" d="M42.6552 41.0575C42.6552 44.4658 44.7969 46.4937 49.0847 47.5631L53.6283 48.5984C57.6862 49.5143 60.1575 51.7893 60.1575 55.4959C60.1891 57.1107 59.6548 58.687 58.6444 59.9608C58.6444 56.2628 56.6978 54.2646 52.0025 53.0632L47.5412 52.0663C43.9688 51.2653 41.2114 49.3951 41.2114 45.369C41.1927 43.8142 41.7005 42.2975 42.6552 41.0575Z"></path>
<path fill="#1F1E1E" d="M105.09 53.698V38.2328H110.08V62.7087H105.09V53.698Z" opacity="0.7"></path>
<path fill="#1F1E1E" d="M55.8523 54.5883C57.7902 55.8068 58.64 57.5109 58.64 59.9565C57.0359 61.9758 54.2178 63.1091 50.9055 63.1091C45.3301 63.1091 41.4281 60.4123 40.561 55.7259H45.9154C46.6047 57.8774 48.4299 58.8743 50.8665 58.8743C53.8407 58.8743 55.8176 57.3149 55.8566 54.5798" opacity="0.7"></path>
<path fill="#1F1E1E" d="M45.4384 46.1103C44.5534 45.5934 43.8274 44.8508 43.3373 43.9612C42.8473 43.0715 42.6115 42.0681 42.655 41.0574C44.2028 39.0551 46.8951 37.8323 50.1771 37.8323C55.8565 37.8323 59.1428 40.7805 59.9535 44.9301H54.803C54.2351 43.2941 52.813 42.0203 50.2204 42.0203C47.4501 42.0203 45.5598 43.6051 45.4514 46.1103" opacity="0.7"></path>
</g>
<defs>
<clipPath id="clip0_158_173">
<rect transform="translate(40 37)" fill="white" height="26.9293" width="129"></rect>
</clipPath>
</defs>
</svg>
