<svg xmlns="http://www.w3.org/2000/svg" fill="none" viewBox="0 0 201 100" height="100" width="201">
<path fill="#262626" d="M25 36.7863C25 35.1489 26.3274 33.8215 27.9648 33.8215H39.5619C41.1993 33.8215 42.5268 35.1489 42.5268 36.7864V39.0802C42.5268 39.8989 41.8631 40.5626 41.0444 40.5626H26.4824C25.6637 40.5626 25 39.8989 25 39.0802V36.7863Z"></path>
<path fill="#262626" d="M25 46.0898C25 45.2711 25.6637 44.6074 26.4824 44.6074H54.3923C56.0297 44.6074 57.3571 45.9348 57.3571 47.5723V55.259C57.3571 56.0776 56.6934 56.7414 55.8748 56.7414H27.9648C26.3274 56.7414 25 55.4139 25 53.7765V46.0898Z"></path>
<path fill="#262626" d="M39.8303 62.2683C39.8303 61.4496 40.494 60.7859 41.3127 60.7859H55.8747C56.6934 60.7859 57.3571 61.4496 57.3571 62.2683V63.2139C57.3571 64.8513 56.0297 66.1787 54.3922 66.1787H42.7952C41.1578 66.1787 39.8303 64.8513 39.8303 63.2139V62.2683Z"></path>
<path fill="#262626" d="M75.6868 53.6954H78.8032L84.5908 63.156H91.677L85.2587 53.0275C88.8203 51.8032 90.8979 49.0578 90.8979 45.088C90.8979 39.523 87.0024 36.5178 80.7324 36.5178H69.491V63.156H75.6868V53.6954ZM75.6868 48.6497V41.749H80.3986C83.3294 41.749 84.8134 43.0104 84.8134 45.1994C84.8134 47.3511 83.3294 48.6497 80.3986 48.6497H75.6868Z"></path>
<path fill="#262626" d="M102.338 63.5642C106.233 63.5642 109.795 61.598 111.242 57.8507L106.27 56.2554C105.714 57.9621 104.267 58.8525 102.412 58.8525C100.149 58.8525 98.5536 57.3314 98.1455 54.6601H111.39V53.1019C111.39 47.5738 108.163 43.196 102.227 43.196C96.5872 43.196 92.4319 47.5738 92.4319 53.3616C92.4319 59.4461 96.4388 63.5642 102.338 63.5642ZM102.152 47.7966C104.341 47.7966 105.491 49.2805 105.528 51.0242H98.331C98.9245 48.8724 100.334 47.7966 102.152 47.7966Z"></path>
<path fill="#262626" d="M114.755 57.9249C114.755 61.9318 116.87 63.3416 121.099 63.3416C122.509 63.3416 123.622 63.2304 124.661 63.082V58.2218C123.993 58.296 123.659 58.333 122.954 58.333C121.47 58.333 120.617 58.0363 120.617 56.4039V48.5014H124.438V43.6042H120.617V38.1875H114.755V43.6042H112.269V48.5014H114.755V57.9249Z"></path>
<path fill="#262626" d="M145.897 53.3987C145.897 47.3142 141.853 43.196 136.103 43.196C130.315 43.196 126.308 47.3142 126.308 53.3987C126.308 59.4832 130.315 63.5642 136.103 63.5642C141.853 63.5642 145.897 59.4832 145.897 53.3987ZM132.207 53.3987C132.207 49.9854 133.728 48.0562 136.103 48.0562C138.477 48.0562 139.998 49.9854 139.998 53.3987C139.998 56.8119 138.477 58.7411 136.103 58.7411C133.728 58.7411 132.207 56.8119 132.207 53.3987Z"></path>
<path fill="#262626" d="M167.273 53.3987C167.273 47.3142 163.23 43.196 157.479 43.196C151.691 43.196 147.684 47.3142 147.684 53.3987C147.684 59.4832 151.691 63.5642 157.479 63.5642C163.23 63.5642 167.273 59.4832 167.273 53.3987ZM153.583 53.3987C153.583 49.9854 155.104 48.0562 157.479 48.0562C159.854 48.0562 161.375 49.9854 161.375 53.3987C161.375 56.8119 159.854 58.7411 157.479 58.7411C155.104 58.7411 153.583 56.8119 153.583 53.3987Z"></path>
<path fill="#262626" d="M176 36.5178H170.064V63.156H176V36.5178Z"></path>
</svg>
