<svg viewBox="0 0 243 192" xmlns="http://www.w3.org/2000/svg">
  <g transform="translate(50,68) scale(0.7)">
    <g clip-path="url(#clip0_243_337)">
      <path fill="url(#paint0_linear_243_337)" d="M183 0.824951H0V91.3195H92.5055"></path>
      <path fill="white" d="M90.4949 18.6316V61.2646L74.8092 18.6316H59.1235L45.8509 54.0251C44.2422 45.1767 34.9916 41.9591 27.752 39.5459C22.9257 37.9371 17.6971 35.9262 17.6971 33.1108C17.6971 31.0998 20.5125 29.0888 25.7411 29.491C29.3608 29.8932 32.5784 29.8932 39.0136 33.1108L45.4487 22.2514C39.4158 19.0338 31.3718 17.425 24.9367 17.425C17.2949 17.425 10.8597 19.8382 6.83775 23.8602C4.02237 26.6756 2.81577 30.2954 2.41357 34.3174C2.41357 39.9481 4.42456 43.9701 8.84874 47.1877C12.4685 49.6009 16.8927 51.2097 20.9147 52.4163C26.1432 54.0251 30.1652 55.6338 30.1652 58.4492C29.763 62.069 25.7411 62.8734 22.9257 62.8734C18.0993 63.2756 14.0773 62.4712 8.04434 58.8514L2.41357 69.7108C8.44654 73.3306 14.8817 74.9393 22.5235 74.9393C27.752 74.9393 35.796 73.3306 40.2202 69.3086L39.4158 72.9284H54.6993L57.5147 66.091C63.5477 67.6998 70.385 68.102 76.418 66.091L78.429 72.9284H105.778V56.8404H111.409C125.486 56.8404 133.932 50.0031 133.932 37.9371C133.932 24.2624 125.888 18.6316 108.594 18.6316H90.4949ZM61.1345 54.0251L66.7652 35.9262H67.1674L72.7982 54.0251C68.7762 55.2316 64.7542 55.2316 61.1345 54.0251ZM105.778 44.7745V30.2954H109.8C115.029 30.2954 119.051 31.9042 119.051 37.1327C119.051 42.7635 115.029 44.7745 109.8 44.7745H105.778Z"></path>
    </g>
    <defs>
      <linearGradient gradientUnits="userSpaceOnUse" y2="91.3195" x2="0" y1="0.824951" x1="0" id="paint0_linear_243_337">
        <stop stop-color="#00AAEE"></stop>
        <stop stop-color="#0055AA" offset="1"></stop>
      </linearGradient>
      <clipPath id="clip0_243_337">
        <rect transform="translate(0 0.532959)" fill="white" height="90.4945" width="183"></rect>
      </clipPath>
    </defs>
  </g>
</svg>
