<svg xmlns="http://www.w3.org/2000/svg" fill="none" viewBox="0 0 209 100" height="100" width="209">
<path fill="#222222" d="M177.813 40.5131H183.217V63.6152H177.813V40.5131ZM119.987 59.1644C115.465 59.1644 112.781 56.3384 112.781 52.4174C112.781 48.5671 114.83 45.3172 119.598 45.3172C122.071 45.3526 124.508 45.9178 126.699 47.0128V41.9614C124.403 41.0077 121.965 40.4778 119.492 40.4778C112.145 40.4778 107.482 45.5292 107.482 52.3821C107.482 59.235 112.604 63.7918 119.916 63.7918C122.424 63.7918 124.932 63.2973 127.264 62.3435V57.3982C127.228 57.3982 123.731 59.1644 119.987 59.1644ZM49.6563 40.5131C46.4772 40.5131 44.4637 41.6435 42.3795 44.1162C40.4014 41.7848 38.07 40.5485 34.9614 40.5485C29.0623 40.5131 25 44.9287 25 50.8278V63.6152H30.334V50.298C30.334 47.472 32.0295 45.3526 34.9614 45.3526C37.8934 45.3526 39.7655 47.472 39.7655 50.298V63.6152H44.9935V50.298C44.9935 47.472 46.7598 45.3526 49.6563 45.3526C52.5529 45.3526 54.5311 47.472 54.5311 50.298V63.6152H59.8651V50.8278C59.8297 44.9287 55.5555 40.5131 49.6563 40.5131ZM180.533 32C182.193 32 183.535 33.3423 183.535 34.9672C183.535 36.5922 182.193 37.9345 180.533 37.9345C178.873 37.9345 177.53 36.5922 177.53 34.9672C177.53 33.3423 178.873 32 180.533 32ZM143.195 40.5131C136.413 40.5131 131.467 45.3879 131.467 52.1348C131.467 58.9877 136.095 63.7565 142.7 63.7565C145.88 63.7565 148.564 61.9197 149.412 59.8355V63.6152H154.711V52.1348C154.711 45.07 150.26 40.5131 143.195 40.5131ZM143.124 59.0937C139.239 59.0937 136.801 56.4091 136.801 52.1348C136.801 48.1785 139.521 45.176 143.124 45.176C146.975 45.176 149.341 47.8959 149.341 52.1348C149.341 55.4906 147.257 59.0937 143.124 59.0937ZM102.078 45.3526C99.181 45.3526 97.4501 47.7546 97.4501 50.9691V63.6152H92.1514V50.8278C92.1514 44.9287 96.2137 40.5131 102.078 40.5131H103.985V45.3526H102.078ZM170.43 45.3526C167.533 45.3526 165.803 47.7546 165.803 50.9691V63.6152H160.504V50.8278C160.504 44.9287 164.566 40.5131 170.43 40.5131H172.338V45.3526H170.43ZM76.2202 40.4778C69.0494 40.4778 64.7751 46.2357 64.7751 52.1702C64.7751 59.4116 70.0031 63.7565 77.1739 63.7565C80.0352 63.7565 82.8965 63.2267 85.5811 62.2729V57.6101C85.5811 57.6101 81.3422 59.3763 77.4212 59.3763C73.4296 59.3763 70.639 57.6101 70.1444 54.0423H86.3229C86.4289 53.1946 86.4996 52.3468 86.4642 51.499C86.4642 45.07 81.5895 40.4778 76.2202 40.4778ZM70.1797 49.8388C70.9569 45.9178 73.8535 44.9287 76.0789 44.9287C78.5163 44.9287 81.3775 46.483 81.8014 49.8388H70.1797Z"></path>
</svg>
