<svg width="199" height="81" viewBox="0 0 199 81" fill="none" xmlns="http://www.w3.org/2000/svg">
<g clip-path="url(#clip0_74_46671)">
<path d="M30.5563 31.2591C29.3862 31.2591 28.5214 31.775 27.7584 32.91L25.52 36.2118V26.8223H20.1276V36.2118L17.8893 32.91C17.1262 31.775 16.2614 31.2591 15.0914 31.2591C13.26 31.2591 12.0391 32.6004 12.0391 34.2513C12.0391 35.6443 12.7004 36.5729 14.0739 37.5015L22.7729 43.1765L31.472 37.5015C32.8455 36.5729 33.5068 35.6959 33.5068 34.2513C33.5577 32.6004 32.3368 31.2591 30.5563 31.2591Z" fill="#0AAD0A"></path>
<path d="M22.7745 44.5703C27.9634 44.5703 32.1857 48.4912 32.1857 54.1146H13.3633C13.3633 48.4912 17.6365 44.5703 22.7745 44.5703Z" fill="#FF7009"></path>
<path d="M43.2206 32.8066C41.2366 32.8066 39.9648 31.5684 39.9648 29.608C39.9648 27.6991 41.2875 26.4609 43.2206 26.4609C45.2046 26.4609 46.4764 27.6991 46.4764 29.6596C46.4764 31.62 45.2046 32.8066 43.2206 32.8066ZM46.1203 34.0448V54.1135H40.2701V34.0448H46.1203Z" fill="#003D29"></path>
<path d="M54.8187 34.0455V37.7601H55.1239C56.2431 35.1289 58.1762 33.6328 61.2794 33.6328C65.5017 33.6328 68.0962 36.1608 68.0962 41.1135V54.1143H62.2459V42.2484C62.2459 39.4626 61.0759 38.2244 58.7358 38.2244C56.3448 38.2244 54.9713 39.5657 54.9713 42.4032V54.1143H49.1211V34.0455H54.8187Z" fill="#003D29"></path>
<path d="M75.5217 47.7678C75.7252 49.5219 76.7935 50.399 78.6758 50.399C80.7615 50.399 81.5754 49.5735 81.5754 48.4901C81.5754 47.4067 81.0159 46.736 79.2354 46.5812L76.6918 46.2717C72.1642 45.7558 70.282 43.6922 70.282 40.2872C70.282 36.4695 73.1308 33.6836 78.574 33.6836C83.9155 33.6836 86.4082 36.2631 86.7643 40.184H81.372C81.2194 38.6879 80.3545 37.8108 78.4723 37.8108C76.5392 37.8108 75.6744 38.6363 75.6744 39.7197C75.6744 40.6999 76.2848 41.2158 77.7601 41.4222L80.6089 41.7833C85.0856 42.4024 87.0187 44.2081 87.0187 47.8194C87.0187 51.7403 84.0173 54.5262 78.6249 54.5262C73.0799 54.5262 70.282 51.8435 69.875 47.7678H75.5217Z" fill="#003D29"></path>
<path d="M90.4302 48.232V38.7393H87.9375V34.8185C91.1933 34.6121 92.4651 33.3739 92.5668 30.3301H96.2804V34.0446H100.706V38.7393H96.2804V47.2002C96.2804 49.2122 97.0944 49.8313 98.7223 49.8313C99.1801 49.8313 99.6888 49.7797 100.198 49.6766V54.1649C99.231 54.4229 98.3153 54.5261 97.2979 54.5261C92.4651 54.5261 90.4302 52.3077 90.4302 48.232Z" fill="#003D29"></path>
<path d="M113.83 50.7609H113.576C112.66 53.1341 110.93 54.4754 107.878 54.4754C103.961 54.4754 101.824 51.9991 101.824 48.8005C101.824 45.8598 103.452 43.7962 107.98 42.9191L111.337 42.3C113.067 41.9905 113.677 41.3714 113.677 40.3396C113.677 38.9466 112.711 38.1728 110.879 38.1728C108.844 38.1728 107.827 39.1014 107.624 40.7007H102.079C102.689 36.3671 105.792 33.6328 111.083 33.6328C116.78 33.6328 119.528 36.5735 119.528 41.0619V54.0627H113.881V50.7609H113.83ZM113.626 44.8796C113.118 45.2407 112.456 45.5502 111.541 45.7566L109.811 46.1693C108.285 46.5305 107.725 47.2527 107.725 48.3361C107.725 49.7291 108.692 50.5545 110.371 50.5545C112.355 50.5545 113.677 49.4711 113.677 46.8916V44.8796H113.626Z" fill="#003D29"></path>
<path d="M132.195 33.6328C138.35 33.6328 141.809 37.0378 142.216 42.5064H136.417C136.112 40.03 134.789 38.4307 132.144 38.4307C129.142 38.4307 127.464 40.3396 127.464 43.8993C127.464 47.7171 129.295 49.6259 132.195 49.6259C134.687 49.6259 136.214 48.1298 136.519 45.4471H142.318C141.759 51.0704 138.045 54.4238 131.991 54.4238C125.327 54.4238 121.512 50.3482 121.512 44.0541C121.613 37.8117 125.785 33.6328 132.195 33.6328Z" fill="#003D29"></path>
<path d="M155.849 50.7609H155.595C154.679 53.1341 152.95 54.4754 149.897 54.4754C145.98 54.4754 143.844 51.9991 143.844 48.8005C143.844 45.8598 145.472 43.7962 149.999 42.9191L153.357 42.3C155.086 41.9905 155.697 41.3714 155.697 40.3396C155.697 38.9466 154.73 38.1728 152.899 38.1728C150.864 38.1728 149.847 39.1014 149.643 40.7007H144.098C144.709 36.3671 147.812 33.6328 153.102 33.6328C158.8 33.6328 161.547 36.5735 161.547 41.0619V54.0627H155.9V50.7609H155.849ZM155.646 44.8796C155.137 45.2407 154.476 45.5502 153.56 45.7566L151.831 46.1693C150.304 46.5305 149.745 47.2527 149.745 48.3361C149.745 49.7291 150.711 50.5545 152.39 50.5545C154.374 50.5545 155.697 49.4711 155.697 46.8916V44.8796H155.646Z" fill="#003D29"></path>
<path d="M169.838 34.0447V38.8942H170.143C171.11 34.8186 172.534 33.6836 174.467 33.6836C174.874 33.6836 175.281 33.7352 175.637 33.89V39.4617C175.179 39.4102 174.671 39.3586 174.06 39.3586C171.313 39.3586 170.194 40.4936 170.194 43.6406V54.1651H164.344V34.0447H169.838Z" fill="#003D29"></path>
<path d="M177.422 34.251C178.948 33.6319 179.558 32.3937 179.66 30.3301H183.272V34.0446H187.698V38.7393H183.272V47.2002C183.272 49.2122 184.086 49.8313 185.714 49.8313C186.172 49.8313 186.68 49.7797 187.189 49.6766V54.1649C186.223 54.4229 185.307 54.5261 184.29 54.5261C179.508 54.5261 177.422 52.3593 177.422 48.232V34.251Z" fill="#003D29"></path>
</g>
<defs>
<clipPath id="clip0_74_46671">
<rect width="175.608" height="28.0653" fill="white" transform="translate(12.0391 26.4609)"></rect>
</clipPath>
</defs>
</svg>
