<svg width="199" height="81" viewBox="0 0 199 81" fill="none" xmlns="http://www.w3.org/2000/svg">
<g clip-path="url(#clip0_74_46700)">
<path d="M162.872 40.9039C162.872 36.7727 165.982 33.8886 170.103 33.8886C174.224 33.8886 177.334 36.8117 177.334 40.9039C177.334 44.9571 174.224 47.9191 170.103 47.9191C165.982 47.9191 162.872 44.9571 162.872 40.9039ZM173.213 40.9039C173.213 38.9552 172.008 37.5521 170.103 37.5521C168.198 37.5521 166.993 38.9552 166.993 40.9039C166.993 42.8526 168.198 44.2556 170.103 44.2556C172.008 44.2556 173.213 42.8526 173.213 40.9039ZM160.15 37.6301C160.422 38.1757 160.539 38.7603 160.539 39.3839C160.539 40.9039 159.761 42.229 158.517 43.3202C160.228 44.1776 161.239 46.1263 161.239 48.036C161.239 51.5826 158.401 53.9211 154.086 53.9211C149.77 53.9211 146.932 51.5826 146.932 48.036C146.932 46.1263 147.943 44.1776 149.653 43.3202C148.371 42.229 147.632 40.9039 147.632 39.3839C147.632 36.305 150.042 34.0056 153.852 34.0056C156.107 34.0056 156.768 34.3953 158.051 34.3953C158.906 34.3953 159.489 34.2784 160.539 33.7328C160.889 33.5379 161.161 33.4599 161.394 33.4599C161.9 33.4599 162.172 33.9666 162.172 34.6291C162.211 35.9932 161.55 37.1234 160.15 37.6301ZM157.195 47.9191C157.195 46.3212 155.99 45.2299 154.086 45.2299C152.181 45.2299 150.975 46.3212 150.975 47.9191C150.975 49.4391 152.297 50.6083 154.086 50.6083C155.874 50.6083 157.195 49.4001 157.195 47.9191ZM151.597 39.6177C151.597 40.9428 152.725 42.0341 154.086 42.0341C155.485 42.0341 156.573 40.9428 156.573 39.6177C156.573 38.1757 155.563 37.2014 154.086 37.2014C152.608 37.2404 151.597 38.2147 151.597 39.6177ZM145.066 41.1767V46.0873C145.066 47.0227 144.716 47.4514 143.705 47.4514H142.345C141.334 47.4514 140.984 47.0617 140.984 46.0873V41.2936C140.984 40.0854 140.789 39.228 140.362 38.6434C139.895 38.0588 139.195 37.747 138.301 37.747C137.446 37.747 136.668 38.0588 136.163 38.6434C135.696 39.189 135.385 40.0854 135.385 41.2546V46.0484C135.385 47.0617 134.997 47.4125 134.025 47.4125H132.664C131.731 47.4125 131.304 47.0617 131.304 46.0484V35.0578C131.304 34.4343 131.615 34.1225 132.081 34.1225C132.781 34.1225 133.753 34.7071 134.491 35.8373C135.58 34.5512 137.252 33.8886 138.884 33.8886C140.867 33.8886 142.461 34.5902 143.511 35.7984C144.522 37.0065 145.066 38.5655 145.066 41.1767ZM123.839 30.1082C123.839 28.8611 124.85 27.8867 126.172 27.8867C127.416 27.8867 128.504 28.8611 128.504 30.1082C128.504 31.3164 127.416 32.3297 126.172 32.3297C124.85 32.3297 123.839 31.3164 123.839 30.1082ZM124.111 46.0873V35.7594C124.111 34.824 124.461 34.3953 125.472 34.3953H126.833C127.843 34.3953 128.193 34.785 128.193 35.7594V46.0873C128.193 47.0227 127.843 47.4514 126.833 47.4514H125.472C124.461 47.4125 124.111 47.0227 124.111 46.0873ZM116.919 46.0873V33.1092C116.919 29.8744 118.746 28.0036 120.223 28.0036C120.69 28.0036 121.001 28.3154 121.001 28.939V46.0873C121.001 47.1006 120.612 47.4514 119.64 47.4514H118.28C117.347 47.4125 116.919 47.0617 116.919 46.0873ZM100.085 40.9039C100.085 36.7727 103.195 33.8886 107.316 33.8886C111.437 33.8886 114.547 36.8117 114.547 40.9039C114.547 44.9571 111.437 47.9191 107.316 47.9191C103.195 47.9191 100.085 44.9571 100.085 40.9039ZM110.465 40.9039C110.465 38.9552 109.26 37.5521 107.355 37.5521C105.45 37.5521 104.245 38.9552 104.245 40.9039C104.245 42.8526 105.45 44.2556 107.355 44.2556C109.26 44.2556 110.465 42.8526 110.465 40.9039ZM98.0246 35.7594V46.7889C98.0246 47.4125 97.7136 47.7242 97.2472 47.7242C96.5474 47.7242 95.5754 47.1396 94.8757 46.0484C93.8647 47.2566 92.3097 47.997 90.5602 47.997C88.8107 47.997 87.4113 47.3735 86.3615 46.3991C85.1563 45.2299 84.4953 43.3982 84.4953 40.7869V35.7594C84.4953 34.824 84.8453 34.3953 85.856 34.3953H87.2168C88.2275 34.3953 88.5775 34.785 88.5775 35.7594V40.3972C88.5775 41.9562 88.8498 42.8136 89.355 43.3592C89.7827 43.8269 90.4047 44.0607 91.1822 44.0607C91.9597 44.0607 92.6984 43.7489 93.1262 43.2423C93.6314 42.6967 93.9037 41.8003 93.9037 40.5141V35.7594C93.9037 34.7461 94.2924 34.3953 95.2644 34.3953H96.6252C97.5969 34.3953 98.0246 34.7461 98.0246 35.7594ZM81.6963 28.939V46.7889C81.6963 47.4125 81.3853 47.7242 80.9186 47.7242C80.2188 47.7242 79.2471 47.1396 78.5471 46.0484C77.6919 47.0617 75.9424 47.9581 73.9209 47.9581C69.8777 47.9581 67.1562 44.9571 67.1562 40.9428C67.1562 36.9676 69.9165 33.9276 73.9209 33.9276C75.3981 33.9276 76.6811 34.3953 77.6531 35.0578V33.1481C77.6531 29.9133 79.4804 28.0426 80.9576 28.0426C81.4241 28.0036 81.6963 28.3154 81.6963 28.939ZM77.6141 40.9039C77.6141 38.8772 76.2146 37.5521 74.4652 37.5521C72.6767 37.5521 71.2772 38.8772 71.2772 40.9039C71.2772 42.9305 72.6767 44.2556 74.4652 44.2556C76.2146 44.2556 77.6141 42.9305 77.6141 40.9039Z" fill="#58CC02"></path>
<path d="M33.0975 55.3616C33.4474 54.543 34.3805 54.1534 35.1969 54.504L37.5295 55.4783C38.3459 55.8292 38.7347 56.7645 38.3848 57.583C38.0349 58.4016 37.1019 58.7912 36.2854 58.4403L33.9528 57.466C33.1364 57.1154 32.7476 56.1801 33.0975 55.3616Z" fill="#F49000"></path>
<path d="M59.339 45.8123C58.5615 45.4226 57.5898 45.7344 57.2008 46.5138L56.0345 48.7743C55.6458 49.5538 55.9568 50.5281 56.7343 50.9178C57.5118 51.3076 58.4838 50.9958 58.8725 50.2163L60.039 47.9559C60.4278 47.1764 60.1168 46.202 59.339 45.8123Z" fill="#F49000"></path>
<path d="M59.4545 27.3786C59.1822 26.4043 58.055 26.0145 57.2385 26.5601L51.9513 30.1457L50.1628 25.1961C49.9686 24.6504 49.6963 24.1828 49.3076 23.754C47.7136 22.0782 45.07 22.0002 43.3982 23.5592C40.9101 25.8976 39.0829 27.3006 37.9554 27.6904C36.828 28.1191 34.4954 28.236 30.9965 28.0411C30.4522 28.0022 29.9079 28.0801 29.3636 28.3139C27.1865 29.0934 26.0979 31.4708 26.8755 33.6533L28.7027 38.6419L22.288 39.3045C21.316 39.4214 20.694 40.4737 21.1217 41.3701C23.0266 45.6961 27.4975 48.3463 32.3183 47.9176C35.3118 52.9063 41.4933 55.2836 47.1693 53.2179C52.8453 51.1524 56.0723 45.3454 55.139 39.5773C59.0657 36.8102 60.7375 31.9385 59.4545 27.3786Z" fill="#58CC02"></path>
<path d="M51.3656 32.9516L50.3549 30.1456C49.6939 28.3918 48.0999 27.2615 46.3504 27.1056C46.156 26.7549 45.8839 26.4041 45.5729 26.1313C45.4174 25.9754 45.0675 26.0533 44.9509 26.3262L44.5232 27.3395H44.4843C44.29 26.7938 43.979 26.2482 43.4735 25.8585C43.318 25.6636 42.9681 25.7805 42.8515 26.0533L40.9077 30.8081C40.1301 31.8604 38.6917 32.3671 37.4087 32.0163L32.899 29.6779C32.6657 29.522 32.4324 29.6389 32.3547 29.9507C32.2381 30.5743 32.3547 31.1979 32.588 31.7824H32.5491L31.4994 31.2368C31.2272 31.0809 30.9162 31.2368 30.8774 31.5486C30.7996 32.0163 30.8385 32.484 30.9551 32.9516C29.8666 34.1988 29.4389 35.9526 30.0609 37.6285L31.0717 40.4346C31.9659 42.8509 34.6096 44.0591 37.0199 43.2017L37.3698 43.0848C39.1582 42.4222 40.2856 40.7853 40.4022 38.9925C41.8018 38.4859 42.7738 38.1351 43.3958 37.9013C44.6398 39.1484 46.5448 39.6551 48.2943 39.0315L48.6053 38.9146C51.0156 38.0182 52.2209 35.368 51.3656 32.9516Z" fill="#89E219"></path>
<path d="M40.9898 36.0692C41.8839 35.7574 42.8947 36.2251 43.2446 37.1215L44.2554 39.8496C44.5664 40.746 44.0999 41.7593 43.2058 42.1101C42.3116 42.4219 41.3008 41.9542 40.9509 41.0578L39.9401 38.3297C39.629 37.3943 40.0956 36.381 40.9898 36.0692Z" fill="#F49000"></path>
<path d="M41.2243 36.6931C41.9241 36.4203 42.7017 36.81 42.9738 37.5115L43.6347 39.3432C43.9068 40.0448 43.5181 40.8242 42.8183 41.0971C42.1185 41.3699 41.3409 40.9801 41.0688 40.2786L40.4079 38.4469C40.1746 37.7453 40.5245 36.9659 41.2243 36.6931Z" fill="#B66E28"></path>
<path d="M39.2445 38.2912C39.0502 37.161 39.7111 36.0308 40.9163 35.5631C41.966 35.1733 43.2489 35.641 43.7932 36.6154L43.832 36.7323L41.6938 37.9794L39.2834 38.4082L39.2445 38.2912Z" fill="#FFC200"></path>
<path d="M40.5584 36.8882C40.4418 36.8882 40.364 36.8492 40.2863 36.7713C40.1696 36.6154 40.1696 36.4205 40.3251 36.2646C40.675 35.9528 41.1027 35.8359 41.5692 35.8359C41.7636 35.8359 41.9191 35.9918 41.9191 36.1867C41.9191 36.3816 41.7636 36.5375 41.5692 36.5375C41.2582 36.5375 41.0249 36.6154 40.7916 36.8103C40.7139 36.8492 40.6362 36.8882 40.5584 36.8882Z" fill="#FFDE00"></path>
<path d="M49.6957 32.6782L49.1514 31.1972C48.5294 29.4434 46.5466 28.5081 44.7971 29.1706C43.0477 29.8332 42.1146 31.7818 42.7755 33.5356L43.4753 35.4453C43.6697 35.9909 44.0196 36.4587 44.4084 36.8484C46.2745 35.0946 48.0628 33.7305 49.6957 32.6782Z" fill="white"></path>
<path d="M38.7331 38.9156C38.8108 38.37 38.7719 37.7854 38.5387 37.2397L37.8389 35.33C37.2169 33.5762 35.2341 32.6409 33.4846 33.3034C31.7352 33.966 30.8021 35.9146 31.463 37.6685L32.0073 39.1105C33.9123 38.8377 36.206 38.7207 38.7331 38.9156Z" fill="white"></path>
<path d="M34.3411 38.8778C35.2353 38.8389 36.2072 38.7999 37.2181 38.8389C37.4124 38.4491 37.4513 38.0204 37.2958 37.5917L36.7126 35.9548C36.4016 35.0974 35.4686 34.6687 34.6522 34.9805C34.4189 35.0584 34.2245 35.1754 34.069 35.3313C34.3411 35.4482 34.5355 35.643 34.6522 35.9548C34.8466 36.5005 34.5744 37.085 34.0301 37.2799C33.9524 37.3189 33.8746 37.3189 33.7969 37.3189L34.2634 38.683C34.3023 38.7609 34.3411 38.7999 34.3411 38.8778Z" fill="#122431"></path>
<path d="M45.5011 35.8761C46.2398 35.2135 46.9785 34.6289 47.6783 34.0833C47.6783 34.0053 47.6394 33.8884 47.6005 33.8105L47.0174 32.1736C46.7063 31.3162 45.7733 30.8874 44.9569 31.1992C44.6847 31.3162 44.4515 31.4721 44.296 31.6669C44.5292 31.7838 44.7236 31.9787 44.8014 32.2515C44.9958 32.7972 44.7236 33.3817 44.1793 33.5766C44.1405 33.5766 44.1405 33.5766 44.1016 33.5766L44.5681 34.9017C44.7236 35.3694 45.0735 35.7202 45.5011 35.8761Z" fill="#122431"></path>
<path d="M40.1704 46.4372L43.0862 45.3849C43.2417 45.3459 43.3972 45.4239 43.3972 45.5798C43.3972 46.3593 42.8918 47.0608 42.1142 47.3336C41.3367 47.6064 40.4814 47.4115 40.0149 46.788C39.9371 46.6711 40.0149 46.4762 40.1704 46.4372Z" fill="#89E219"></path>
<path d="M45.2633 44.5661L48.1791 43.5138C48.3346 43.4749 48.4901 43.5528 48.4901 43.7087C48.4901 44.4882 47.9847 45.1897 47.2071 45.4625C46.4296 45.7353 45.5743 45.5405 45.1078 44.9169C45.0689 44.8 45.1078 44.6051 45.2633 44.5661Z" fill="#89E219"></path>
<path d="M43.6313 47.9567L46.5471 46.9045C46.7026 46.8655 46.8581 46.9434 46.8581 47.0993C46.8581 47.8788 46.3527 48.5803 45.5752 48.8531C44.7976 49.1259 43.9423 48.9311 43.4758 48.3075C43.3981 48.1906 43.4758 48.0347 43.6313 47.9567Z" fill="#89E219"></path>
</g>
<defs>
<clipPath id="clip0_74_46700">
<rect width="156.364" height="36.1284" fill="white" transform="translate(20.9688 22.4297)"></rect>
</clipPath>
</defs>
</svg>
