<svg xmlns="http://www.w3.org/2000/svg" fill="none" viewBox="0 0 199 82" height="82" width="199">
<path fill="#000B1B" d="M60.761 48.0099V33.7548H64.545V39.062H68.8131V33.7548H72.5971V48.0099H68.8131V42.3518H64.545V48.0099H60.761ZM78.7932 48.2731C77.5905 48.2731 76.7178 47.871 76.1751 47.0669C75.6324 46.2481 75.3612 45.1589 75.3612 43.7991V37.0445H79.1452V43.3167C79.1452 44.0186 79.2333 44.4862 79.4092 44.7202C79.5998 44.9541 79.8785 45.0711 80.2453 45.0711C80.5971 45.0711 80.8906 44.998 81.1253 44.8519C81.36 44.7057 81.5946 44.4571 81.8293 44.1061V37.0445H85.6133V48.0099H82.5332L82.2692 46.5626H82.1811C81.7413 47.0888 81.2499 47.5056 80.7072 47.8126C80.1793 48.1196 79.5413 48.2731 78.7932 48.2731ZM92.172 52.5278C91.3361 52.5278 90.566 52.4327 89.8619 52.2427C89.1581 52.0671 88.5934 51.782 88.1681 51.3872C87.7573 50.9926 87.5521 50.4661 87.5521 49.8082C87.5521 48.9457 88.0652 48.2439 89.092 47.7029V47.6151C88.8108 47.4079 88.5656 47.1559 88.366 46.8696C88.1753 46.5626 88.08 46.1822 88.08 45.7291C88.08 45.3489 88.1901 44.9761 88.41 44.6107C88.6447 44.2451 88.9454 43.9308 89.312 43.6676V43.5799C88.9159 43.3167 88.5641 42.9439 88.2561 42.4613C87.9627 41.9642 87.816 41.4013 87.816 40.7727C87.816 39.8661 88.036 39.1206 88.4761 38.5358C88.9307 37.9362 89.5174 37.4977 90.236 37.2199C90.9548 36.9275 91.7174 36.7812 92.524 36.7812C93.1693 36.7812 93.756 36.8689 94.2839 37.0445H98.3762V39.7639H96.7921C96.836 39.8955 96.8727 40.0636 96.902 40.2682C96.946 40.4729 96.9681 40.6849 96.9681 40.9042C96.9681 41.7669 96.7701 42.4687 96.3741 43.0097C95.978 43.536 95.4428 43.9235 94.7681 44.172C94.0933 44.4206 93.3454 44.5448 92.524 44.5448C92.1575 44.5448 91.7467 44.4937 91.292 44.3912C91.1159 44.5521 91.0281 44.7641 91.0281 45.0272C91.0281 45.2612 91.1454 45.4293 91.3801 45.5318C91.6293 45.634 92.0254 45.6852 92.5681 45.6852H94.2181C95.5967 45.6852 96.6601 45.9119 97.4081 46.3651C98.1708 46.8038 98.5521 47.5273 98.5521 48.5362C98.5521 49.3258 98.2881 50.0202 97.7602 50.6198C97.2468 51.2191 96.5134 51.687 95.56 52.0232C94.6067 52.3596 93.4773 52.5278 92.172 52.5278ZM92.524 42.3079C92.8761 42.3079 93.162 42.1836 93.382 41.935C93.6021 41.6866 93.712 41.299 93.712 40.7727C93.712 40.2609 93.6021 39.8881 93.382 39.6541C93.162 39.4057 92.8761 39.2815 92.524 39.2815C92.172 39.2815 91.886 39.4057 91.6661 39.6541C91.4459 39.8881 91.3361 40.2609 91.3361 40.7727C91.3361 41.299 91.4459 41.6866 91.6661 41.935C91.886 42.1836 92.172 42.3079 92.524 42.3079ZM92.788 50.203C93.404 50.203 93.9174 50.108 94.328 49.9179C94.7388 49.7424 94.944 49.5012 94.944 49.1941C94.944 48.9018 94.8121 48.719 94.5481 48.6459C94.2987 48.5728 93.9394 48.5362 93.47 48.5362H92.6121C92.172 48.5362 91.8347 48.5217 91.6 48.4923C91.3801 48.4778 91.1894 48.4486 91.0281 48.4047C90.7641 48.6679 90.632 48.931 90.632 49.1941C90.632 49.5451 90.8299 49.8009 91.226 49.9618C91.6368 50.1227 92.1575 50.203 92.788 50.203ZM104.182 52.5278C103.346 52.5278 102.576 52.4327 101.872 52.2427C101.168 52.0671 100.603 51.782 100.178 51.3872C99.7672 50.9926 99.5618 50.4661 99.5618 49.8082C99.5618 48.9457 100.075 48.2439 101.102 47.7029V47.6151C100.821 47.4079 100.575 47.1559 100.376 46.8696C100.185 46.5626 100.09 46.1822 100.09 45.7291C100.09 45.3489 100.2 44.9761 100.42 44.6107C100.654 44.2451 100.955 43.9308 101.322 43.6676V43.5799C100.926 43.3167 100.574 42.9439 100.266 42.4613C99.9724 41.9642 99.8258 41.4013 99.8258 40.7727C99.8258 39.8661 100.046 39.1206 100.486 38.5358C100.94 37.9362 101.527 37.4977 102.246 37.2199C102.965 36.9275 103.727 36.7812 104.534 36.7812C105.179 36.7812 105.766 36.8689 106.294 37.0445H110.386V39.7639H108.802C108.846 39.8955 108.882 40.0636 108.912 40.2682C108.956 40.4729 108.978 40.6849 108.978 40.9042C108.978 41.7669 108.78 42.4687 108.384 43.0097C107.988 43.536 107.453 43.9235 106.778 44.172C106.103 44.4206 105.355 44.5448 104.534 44.5448C104.167 44.5448 103.757 44.4937 103.302 44.3912C103.126 44.5521 103.038 44.7641 103.038 45.0272C103.038 45.2612 103.155 45.4293 103.39 45.5318C103.639 45.634 104.035 45.6852 104.578 45.6852H106.228C107.606 45.6852 108.67 45.9119 109.418 46.3651C110.181 46.8038 110.562 47.5273 110.562 48.5362C110.562 49.3258 110.298 50.0202 109.77 50.6198C109.257 51.2191 108.523 51.687 107.57 52.0232C106.617 52.3596 105.487 52.5278 104.182 52.5278ZM104.534 42.3079C104.886 42.3079 105.172 42.1836 105.392 41.935C105.612 41.6866 105.722 41.299 105.722 40.7727C105.722 40.2609 105.612 39.8881 105.392 39.6541C105.172 39.4057 104.886 39.2815 104.534 39.2815C104.182 39.2815 103.896 39.4057 103.676 39.6541C103.456 39.8881 103.346 40.2609 103.346 40.7727C103.346 41.299 103.456 41.6866 103.676 41.935C103.896 42.1836 104.182 42.3079 104.534 42.3079ZM104.798 50.203C105.414 50.203 105.927 50.108 106.338 49.9179C106.749 49.7424 106.954 49.5012 106.954 49.1941C106.954 48.9018 106.822 48.719 106.558 48.6459C106.309 48.5728 105.949 48.5362 105.48 48.5362H104.622C104.182 48.5362 103.844 48.5217 103.61 48.4923C103.39 48.4778 103.199 48.4486 103.038 48.4047C102.774 48.6679 102.642 48.931 102.642 49.1941C102.642 49.5451 102.84 49.8009 103.236 49.9618C103.647 50.1227 104.167 50.203 104.798 50.203ZM112.188 48.0099V37.0445H115.972V48.0099H112.188ZM114.08 35.6847C113.464 35.6847 112.965 35.5166 112.584 35.1804C112.202 34.8295 112.012 34.3688 112.012 33.7987C112.012 33.2285 112.202 32.7751 112.584 32.4389C112.965 32.088 113.464 31.9126 114.08 31.9126C114.696 31.9126 115.194 32.088 115.576 32.4389C115.957 32.7751 116.148 33.2285 116.148 33.7987C116.148 34.3688 115.957 34.8295 115.576 35.1804C115.194 35.5166 114.696 35.6847 114.08 35.6847ZM118.526 48.0099V37.0445H121.606L121.87 38.3602H121.958C122.398 37.9362 122.896 37.5708 123.454 37.2638C124.026 36.942 124.686 36.7812 125.434 36.7812C126.651 36.7812 127.524 37.1907 128.052 38.0095C128.594 38.8136 128.866 39.8955 128.866 41.2551V48.0099H125.082V41.7377C125.082 41.0359 124.994 40.568 124.818 40.334C124.642 40.1001 124.363 39.9831 123.982 39.9831C123.63 39.9831 123.336 40.0562 123.102 40.2026C122.867 40.3487 122.603 40.5535 122.31 40.8166V48.0099H118.526ZM135.334 52.5278C134.498 52.5278 133.728 52.4327 133.024 52.2427C132.321 52.0671 131.756 51.782 131.33 51.3872C130.92 50.9926 130.714 50.4661 130.714 49.8082C130.714 48.9457 131.228 48.2439 132.254 47.7029V47.6151C131.973 47.4079 131.728 47.1559 131.528 46.8696C131.338 46.5626 131.242 46.1822 131.242 45.7291C131.242 45.3489 131.352 44.9761 131.572 44.6107C131.807 44.2451 132.108 43.9308 132.474 43.6676V43.5799C132.078 43.3167 131.726 42.9439 131.418 42.4613C131.125 41.9642 130.978 41.4013 130.978 40.7727C130.978 39.8661 131.198 39.1206 131.638 38.5358C132.093 37.9362 132.68 37.4977 133.398 37.2199C134.117 36.9275 134.88 36.7812 135.686 36.7812C136.332 36.7812 136.918 36.8689 137.446 37.0445H141.538V39.7639H139.954C139.998 39.8955 140.035 40.0636 140.064 40.2682C140.108 40.4729 140.13 40.6849 140.13 40.9042C140.13 41.7669 139.933 42.4687 139.536 43.0097C139.14 43.536 138.605 43.9235 137.93 44.172C137.256 44.4206 136.508 44.5448 135.686 44.5448C135.32 44.5448 134.909 44.4937 134.454 44.3912C134.278 44.5521 134.19 44.7641 134.19 45.0272C134.19 45.2612 134.308 45.4293 134.543 45.5318C134.792 45.634 135.188 45.6852 135.73 45.6852H137.381C138.759 45.6852 139.822 45.9119 140.571 46.3651C141.333 46.8038 141.714 47.5273 141.714 48.5362C141.714 49.3258 141.451 50.0202 140.922 50.6198C140.409 51.2191 139.676 51.687 138.722 52.0232C137.769 52.3596 136.64 52.5278 135.334 52.5278ZM135.686 42.3079C136.038 42.3079 136.324 42.1836 136.544 41.935C136.765 41.6866 136.874 41.299 136.874 40.7727C136.874 40.2609 136.765 39.8881 136.544 39.6541C136.324 39.4057 136.038 39.2815 135.686 39.2815C135.334 39.2815 135.048 39.4057 134.828 39.6541C134.608 39.8881 134.498 40.2609 134.498 40.7727C134.498 41.299 134.608 41.6866 134.828 41.935C135.048 42.1836 135.334 42.3079 135.686 42.3079ZM135.95 50.203C136.566 50.203 137.08 50.108 137.49 49.9179C137.901 49.7424 138.106 49.5012 138.106 49.1941C138.106 48.9018 137.974 48.719 137.711 48.6459C137.461 48.5728 137.102 48.5362 136.632 48.5362H135.774C135.334 48.5362 134.997 48.5217 134.762 48.4923C134.543 48.4778 134.352 48.4486 134.19 48.4047C133.926 48.6679 133.794 48.931 133.794 49.1941C133.794 49.5451 133.992 49.8009 134.388 49.9618C134.799 50.1227 135.32 50.203 135.95 50.203ZM148.053 48.0099V33.7548H157.381V36.9128H151.837V39.6322H156.589V42.7902H151.837V48.0099H148.053ZM161.519 48.2731C160.829 48.2731 160.235 48.1196 159.737 47.8126C159.261 47.4996 158.874 47.069 158.615 46.5626C158.351 46.0508 158.219 45.4951 158.219 44.8958C158.219 43.7552 158.688 42.8635 159.627 42.2201C160.565 41.5621 162.091 41.1236 164.203 40.9042C164.115 40.144 163.601 39.7639 162.663 39.7639C162.267 39.7639 161.849 39.8442 161.409 40.0051C160.969 40.1512 160.463 40.3779 159.891 40.6849L158.571 38.2287C159.348 37.7608 160.133 37.4027 160.925 37.154C161.73 36.9058 162.568 36.7801 163.411 36.7812C164.848 36.7812 165.97 37.1907 166.777 38.0095C167.583 38.8136 167.987 40.1148 167.987 41.9131V48.0099H164.907L164.643 46.9572H164.555C164.115 47.352 163.645 47.6737 163.147 47.9221C162.663 48.1561 162.12 48.2731 161.519 48.2731ZM162.839 45.3781C163.147 45.3781 163.403 45.3123 163.609 45.1808C163.814 45.0347 164.012 44.8519 164.203 44.6326V43.1412C163.308 43.2728 162.685 43.4701 162.333 43.7333C161.995 43.9966 161.827 44.2817 161.827 44.5887C161.827 45.115 162.164 45.3781 162.839 45.3781ZM175.426 48.2731C174.384 48.2731 173.446 48.0464 172.61 47.5932C171.774 47.14 171.106 46.4893 170.608 45.6413C170.124 44.7788 169.882 43.7407 169.882 42.5271C169.882 41.3137 170.153 40.2829 170.696 39.4349C171.253 38.5722 171.979 37.9145 172.874 37.4611C173.768 37.0079 174.736 36.7812 175.778 36.7812C176.438 36.7812 177.032 36.8836 177.56 37.0882C178.102 37.2929 178.579 37.5708 178.99 37.9217L177.23 40.334C176.995 40.1295 176.782 39.9906 176.592 39.9175C176.402 39.8444 176.201 39.8073 175.998 39.8078C175.294 39.8078 174.744 40.0562 174.348 40.5535C173.952 41.0359 173.754 41.6938 173.754 42.5271C173.754 43.3606 173.959 44.0258 174.37 44.5229C174.78 45.0053 175.279 45.2467 175.866 45.2467C176.174 45.2467 176.474 45.1808 176.768 45.0492C177.068 44.9073 177.356 44.7384 177.626 44.5448L179.078 47.0011C178.535 47.4836 177.934 47.8199 177.274 48.0099C176.614 48.1853 175.998 48.2731 175.426 48.2731ZM185.269 48.2731C184.198 48.2731 183.23 48.0464 182.365 47.5932C181.514 47.14 180.839 46.4893 180.341 45.6413C179.842 44.7788 179.593 43.7407 179.593 42.5271C179.593 41.3429 179.842 40.3268 180.341 39.4788C180.854 38.6161 181.514 37.9509 182.321 37.483C183.127 37.0151 183.978 36.7812 184.873 36.7812C185.958 36.7812 186.853 37.0226 187.557 37.5049C188.275 37.9728 188.803 38.6088 189.141 39.4129C189.493 40.2171 189.669 41.1089 189.669 42.0886C189.669 42.4101 189.647 42.7246 189.603 43.0316C189.573 43.324 189.544 43.536 189.515 43.6676H183.245C183.421 44.3256 183.736 44.786 184.191 45.0492C184.645 45.2978 185.181 45.422 185.797 45.422C186.501 45.422 187.249 45.2028 188.041 44.7641L189.273 47.0011C188.686 47.4104 188.026 47.7248 187.293 47.9441C186.559 48.1633 185.885 48.2731 185.269 48.2731ZM183.201 41.2112H186.457C186.457 40.7872 186.347 40.4218 186.127 40.1148C185.921 39.7931 185.533 39.6322 184.961 39.6322C184.55 39.6322 184.183 39.7566 183.861 40.0051C183.538 40.2537 183.318 40.6558 183.201 41.2112Z"></path>
<path fill="white" d="M52.6274 50.0993C52.5159 49.6796 52.3352 49.2815 52.0928 48.9209C52.1448 48.7308 52.1842 48.5378 52.2108 48.343C52.3828 47.1058 51.9527 45.9731 51.1417 45.0966C50.7024 44.6179 50.2316 44.302 49.7329 44.108C50.0602 42.712 50.226 41.2833 50.2268 39.8496C50.2268 39.1949 50.1896 38.5536 50.1273 37.9217C50.0947 37.6062 50.0555 37.2913 50.0096 36.9774C49.8667 36.0514 49.6548 35.1372 49.3757 34.2425C49.1927 33.6547 48.9811 33.0761 48.7417 32.5089C48.3826 31.6688 47.9633 30.8556 47.487 30.0754C47.1745 29.5565 46.8343 29.0547 46.4677 28.5722C46.2881 28.3285 46.1009 28.0906 45.9061 27.8587C45.3292 27.1597 44.7024 26.5032 44.0301 25.8946C43.8071 25.69 43.5776 25.4925 43.3419 25.3023C43.1099 25.1094 42.8727 24.9227 42.6307 24.7423C42.1437 24.381 41.6403 24.042 41.1223 23.7264C38.2602 21.9935 34.9039 21 31.3165 21C20.8719 21 12.4065 29.439 12.4065 39.8504C12.4062 41.3021 12.5749 42.7488 12.9093 44.1616C12.4607 44.3558 12.0306 44.6583 11.632 45.0962C10.8212 45.9721 10.3909 47.1008 10.5631 48.3379C10.589 48.5345 10.6285 48.7291 10.6808 48.9204C10.4386 49.2813 10.258 49.6796 10.1462 50.0993C9.89702 51.0435 9.97906 51.8951 10.2958 52.641C9.95164 53.6163 10.0376 54.6548 10.486 55.5577C10.8121 56.217 11.2787 56.727 11.8538 57.1831C12.5377 57.7249 13.3938 58.1855 14.4266 58.6271C15.6586 59.1509 17.1622 59.643 17.8461 59.8235C19.6127 60.2796 21.3066 60.5686 23.0235 60.5825C25.4692 60.6053 27.5755 60.0318 29.0837 58.5646C29.8245 58.655 30.5701 58.7004 31.3165 58.7002C32.1051 58.6985 32.8928 58.6488 33.6754 58.5519C35.1799 60.0285 37.2943 60.6071 39.7491 60.5838C41.4656 60.5703 43.1595 60.2813 44.9215 59.8246C45.61 59.644 47.1132 59.1519 48.3458 58.6283C49.3786 58.1857 50.2345 57.7253 50.9232 57.1841C51.4939 56.7282 51.9601 56.2181 52.2864 55.5587C52.7394 54.6558 52.821 53.6174 52.4812 52.642C52.795 51.8961 52.8764 51.0427 52.6274 50.0993ZM50.8748 52.5779C51.2218 53.2344 51.244 53.9761 50.9377 54.667C50.4733 55.7142 49.3198 56.5388 47.0796 57.4242C45.6866 57.9752 44.4108 58.3271 44.3996 58.3304C42.557 58.8068 40.8906 59.0486 39.448 59.0486C37.0592 59.0486 35.2818 58.3917 34.1545 57.094C32.2482 57.4176 30.3016 57.4286 28.3917 57.1265C27.2631 58.4027 25.4955 59.0486 23.1269 59.0486C21.6841 59.0486 20.0179 58.8068 18.1753 58.3304C18.1639 58.3271 16.8889 57.9752 15.4954 57.4242C13.2551 56.5388 12.1014 55.7146 11.6372 54.667C11.3309 53.9761 11.3531 53.2344 11.7001 52.5779C11.7323 52.517 11.7666 52.4574 11.8034 52.4C11.5953 52.0886 11.4558 51.7367 11.394 51.3678C11.3321 50.9988 11.3493 50.6208 11.4445 50.2589C11.5824 49.7368 11.8673 49.3024 12.254 48.9904C12.0678 48.6853 11.9456 48.3457 11.8947 47.9921C11.7834 47.2232 12.0393 46.4553 12.6154 45.8295C13.0638 45.3423 13.6979 45.0742 14.4 45.0742H14.4187C13.8894 43.383 13.621 41.6213 13.6227 39.8498C13.6227 30.1872 21.4808 22.3536 31.1749 22.3536C40.8692 22.3536 48.7271 30.1866 48.7271 39.8498C48.7284 41.6261 48.4582 43.3923 47.9257 45.0875C48.0104 45.0792 48.0935 45.0748 48.1749 45.0748C48.8769 45.0748 49.5111 45.3427 49.9595 45.8299C50.5352 46.4553 50.7917 47.2238 50.6802 47.9925C50.6293 48.3461 50.5072 48.6859 50.3209 48.991C50.7076 49.3028 50.9925 49.7372 51.1304 50.2595C51.2253 50.6214 51.2426 50.9992 51.1807 51.3684C51.1188 51.7373 50.9795 52.0891 50.7716 52.4006C50.8083 52.4574 50.843 52.517 50.8748 52.5779Z"></path>
<path fill="#FF9D00" d="M50.7715 52.4006C50.9794 52.089 51.1187 51.7373 51.1806 51.3684C51.2425 50.9992 51.2253 50.6214 51.1304 50.2595C50.9925 49.7374 50.7075 49.303 50.3208 48.991C50.5069 48.6859 50.6292 48.3463 50.6801 47.9927C50.7914 47.2238 50.5355 46.4559 49.9594 45.8301C49.511 45.3429 48.8768 45.0748 48.1748 45.0748C48.0932 45.0748 48.0103 45.079 47.9256 45.0874C48.4575 43.3923 48.7272 41.6261 48.7256 39.85C48.7256 30.1876 40.8674 22.3538 31.1742 22.3538C21.4809 22.3538 13.6219 30.1868 13.6219 39.85C13.6203 41.6215 13.8887 43.3832 14.418 45.0744H14.3993C13.6973 45.0744 13.0633 45.3425 12.6149 45.8297C12.0392 46.4551 11.7829 47.2234 11.8942 47.9923C11.945 48.3459 12.0673 48.6854 12.2535 48.9906C11.8668 49.3026 11.5819 49.737 11.4442 50.2593C11.3491 50.6212 11.3319 50.9992 11.3939 51.3684C11.4558 51.7373 11.5954 52.0892 11.8035 52.4006C11.7663 52.458 11.7322 52.5176 11.7002 52.5785C11.3534 53.235 11.331 53.9767 11.6373 54.6676C12.1015 55.7146 13.2552 56.5396 15.4955 57.4249C16.8884 57.9758 18.1642 58.3277 18.1754 58.331C20.018 58.8074 21.6843 59.0494 23.1268 59.0494C25.4957 59.0494 27.2631 58.4035 28.3918 57.1271C30.3017 57.4292 32.2483 57.4182 34.1547 57.0946C35.2818 58.3923 37.0593 59.0494 39.4481 59.0494C40.8907 59.0494 42.5571 58.8074 44.3997 58.331C44.4109 58.3277 45.6861 57.9758 47.0797 57.4249C49.32 56.5396 50.4737 55.7146 50.9378 54.6676C51.2442 53.9767 51.2219 53.235 50.8749 52.5785C50.8431 52.517 50.8082 52.4576 50.7715 52.4006ZM27.5841 55.1293C27.4869 55.2988 27.3829 55.4643 27.272 55.6251C26.9802 56.051 26.5964 56.3762 26.1511 56.6183C25.2994 57.081 24.2217 57.2429 23.1266 57.2429C21.397 57.2429 19.6238 56.8394 18.6298 56.5822C18.581 56.5696 12.5376 54.868 13.3027 53.4196C13.4315 53.1762 13.6435 53.0789 13.9102 53.0789C14.9875 53.0789 16.9491 54.678 17.7923 54.678C17.9804 54.678 18.1133 54.5978 18.1675 54.403C18.5268 53.1184 12.7069 52.5785 13.197 50.7185C13.2836 50.3893 13.5181 50.2558 13.8481 50.2558C15.2722 50.2556 18.4689 52.7524 19.1374 52.7524C19.1887 52.7524 19.2255 52.7375 19.2454 52.706L19.2541 52.6917C19.5677 52.1752 19.3879 51.7996 17.2379 50.487L17.0315 50.3618C14.666 48.9343 13.0053 48.0755 13.9499 47.0507C14.0585 46.9323 14.2124 46.8799 14.3995 46.8799C14.6215 46.8799 14.8901 46.954 15.1858 47.0781C16.4352 47.6033 18.1669 49.0357 18.8903 49.6606C19.1036 49.8456 19.2292 49.9587 19.2292 49.9587C19.2292 49.9587 20.1451 50.9081 20.699 50.9081C20.8265 50.9081 20.9345 50.8582 21.0078 50.7342C21.4008 50.0742 17.3603 47.0222 17.1324 45.763C16.9781 44.9096 17.2408 44.4775 17.727 44.4775C17.958 44.4775 18.24 44.5755 18.5513 44.7723C19.5171 45.3835 21.3817 48.5776 22.0643 49.82C22.2932 50.2365 22.6838 50.4125 23.0359 50.4125C23.7343 50.4125 24.2803 49.7204 23.0998 48.8409C21.3256 47.5174 21.9482 45.3543 22.7949 45.2212C22.8311 45.2156 22.8676 45.2127 22.904 45.2125C23.6741 45.2125 24.0138 46.5354 24.0138 46.5354C24.0138 46.5354 25.0093 49.0277 26.7196 50.7311C28.2716 52.2774 28.4882 53.5465 27.5841 55.1293ZM33.1146 55.4212L33.0259 55.4318L32.8745 55.4492C32.7949 55.4572 32.7154 55.4651 32.6354 55.4725L32.5574 55.4796L32.4863 55.4856L32.3852 55.4937C32.348 55.4964 32.3108 55.4993 32.2737 55.5015L32.1623 55.509L32.1378 55.5104L32.0502 55.5156L32.013 55.5175L31.9092 55.5227L31.7885 55.5276L31.6789 55.5313L31.6057 55.5334H31.5688C31.5459 55.5334 31.5233 55.5347 31.5004 55.5349H31.4641C31.4413 55.5349 31.4186 55.5349 31.3958 55.5361L31.3029 55.5371H31.1729C31.071 55.5371 30.9694 55.5361 30.8678 55.5342L30.7856 55.5324C30.7623 55.5324 30.7389 55.5311 30.7156 55.5305L30.6286 55.5278L30.5202 55.5237L30.4228 55.5195L30.3974 55.5185L30.3046 55.5135C30.2788 55.5121 30.2531 55.5109 30.2276 55.5092L30.1675 55.5057C30.0921 55.5009 30.0168 55.4955 29.9414 55.4897L29.8624 55.4835L29.7628 55.475L29.6462 55.4643C29.5812 55.4583 29.5162 55.4516 29.4512 55.4444H29.4481C30.3972 53.3337 29.9173 51.3626 27.9993 49.4521C26.7416 48.2 25.9046 46.3505 25.7312 45.9446C25.3798 44.7427 24.4496 43.4068 22.905 43.4068C22.7744 43.407 22.6442 43.4173 22.5152 43.4376C21.8384 43.5436 21.2469 43.932 20.8249 44.5162C20.369 43.9508 19.9256 43.5014 19.5247 43.2474C18.9204 42.8656 18.3175 42.6718 17.7297 42.6718C16.9966 42.6718 16.3409 42.972 15.884 43.5165L15.8726 43.5304L15.8469 43.4225L15.8458 43.4179C15.7589 43.0474 15.6859 42.6735 15.6269 42.2975C15.6269 42.2948 15.6269 42.2923 15.6257 42.2898L15.6128 42.2047C15.6058 42.1588 15.5991 42.1126 15.5925 42.0667C15.5871 42.0284 15.5817 41.9901 15.5767 41.952C15.5717 41.9139 15.5663 41.8756 15.5617 41.8373C15.5567 41.7988 15.5522 41.7605 15.5476 41.7222C15.5432 41.6857 15.539 41.6493 15.5349 41.6128L15.5337 41.6035C15.515 41.4354 15.4989 41.2671 15.4855 41.0986L15.4782 41.0011C15.4761 40.9744 15.4743 40.9474 15.4726 40.9203C15.4726 40.9141 15.4718 40.9077 15.4714 40.9019L15.4645 40.7938C15.462 40.7547 15.4602 40.7156 15.4581 40.6764C15.456 40.6375 15.4539 40.5984 15.4523 40.5591L15.4481 40.4566L15.4469 40.4255L15.4438 40.3307L15.4415 40.2504C15.4415 40.2183 15.44 40.186 15.4394 40.1539L15.4377 40.0527C15.4373 40.0189 15.4377 39.9854 15.4369 39.9516C15.4359 39.9177 15.4369 39.8839 15.4369 39.85C15.4369 31.1853 22.4838 24.1605 31.1767 24.1605C39.8695 24.1605 46.9162 31.1849 46.9162 39.85V40.0527C46.9162 40.0864 46.9154 40.1204 46.9146 40.1539C46.9146 40.182 46.9135 40.2096 46.9127 40.2377C46.9127 40.2628 46.9117 40.2876 46.9106 40.3119C46.9106 40.3435 46.9088 40.375 46.9077 40.4067V40.4094C46.905 40.4781 46.9021 40.5468 46.8992 40.6156L46.898 40.6383L46.8926 40.741L46.8876 40.8224C46.8759 41.0151 46.8608 41.2079 46.8423 41.4002V41.4029C46.839 41.4389 46.8352 41.4752 46.8313 41.5112C46.8222 41.595 46.8128 41.6789 46.8035 41.7627L46.7929 41.847L46.7798 41.946C46.7752 41.9822 46.7702 42.0182 46.765 42.0542C46.7594 42.0946 46.7534 42.1348 46.7476 42.1749L46.7331 42.2698L46.716 42.3774C46.7102 42.4132 46.7044 42.4488 46.6975 42.4847C46.6905 42.5203 46.6851 42.5559 46.6788 42.5917C46.6664 42.6629 46.6535 42.7339 46.6396 42.8049C46.612 42.9463 46.5831 43.0873 46.5526 43.2281C46.5449 43.2631 46.537 43.2983 46.5289 43.3333C46.0859 42.9041 45.4994 42.6704 44.8523 42.6704C44.2651 42.6704 43.6616 42.8639 43.0575 43.2459C42.6564 43.4997 42.2134 43.9494 41.7571 44.5148C41.3345 43.9304 40.743 43.5422 40.067 43.436C39.938 43.4159 39.8076 43.4055 39.677 43.4053C38.132 43.4053 37.2024 44.7413 36.8508 45.9431C36.6766 46.3491 35.8396 48.1983 34.5804 49.4525C32.6639 51.3568 32.1802 53.3192 33.1146 55.4212ZM49.3638 51.1961L49.3576 51.2145C49.3532 51.2263 49.3488 51.2381 49.3441 51.2497C49.3366 51.2673 49.3287 51.2845 49.3204 51.3017C49.3002 51.3427 49.2774 51.3824 49.2523 51.4205C49.2176 51.4721 49.1796 51.5214 49.1382 51.5677C49.1287 51.5785 49.1196 51.5891 49.1088 51.5996C49.0942 51.6156 49.0786 51.6311 49.0633 51.6466C48.7835 51.923 48.3574 52.165 47.8755 52.3874C47.8209 52.412 47.7657 52.4366 47.7096 52.4613L47.6539 52.4859C47.6168 52.5023 47.5798 52.5186 47.5407 52.5346C47.5027 52.5507 47.4645 52.5667 47.4263 52.5824L47.3104 52.6302C47.0394 52.7414 46.7617 52.8472 46.4907 52.9519L46.375 52.9967L46.2604 53.0414C46.1844 53.071 46.1092 53.1006 46.035 53.1302L45.9247 53.1745L45.8165 53.2188L45.7632 53.241C45.7279 53.2559 45.693 53.2704 45.6585 53.2853C44.8614 53.626 44.2882 53.9728 44.4087 54.4032C44.412 54.4154 44.4157 54.427 44.4199 54.4382C44.4307 54.4701 44.4454 54.5003 44.4637 54.5285C44.4745 54.5455 44.4869 54.5614 44.5009 54.5759C44.6425 54.7225 44.9002 54.6993 45.2253 54.5829C45.2516 54.5734 45.2786 54.5633 45.3058 54.5525C45.3245 54.5455 45.343 54.538 45.3617 54.5306L45.3898 54.5188C45.4641 54.4873 45.5428 54.4523 45.6234 54.414C45.6435 54.4047 45.6639 54.3956 45.6843 54.3848C46.0816 54.1912 46.532 53.9302 46.979 53.6927C47.0475 53.6556 47.1162 53.6202 47.1846 53.585C47.2963 53.5273 47.4091 53.4716 47.5229 53.4184C47.9461 53.22 48.3439 53.0793 48.6639 53.0793C48.8138 53.0793 48.9466 53.1099 49.0568 53.1803L49.0753 53.1925C49.1312 53.2318 49.1798 53.2801 49.2195 53.3356C49.2286 53.3486 49.2381 53.3621 49.2462 53.3759C49.255 53.3902 49.2633 53.4049 49.2712 53.4198C49.4292 53.7188 49.2969 54.0287 48.9875 54.3324C48.6903 54.6239 48.228 54.9098 47.7023 55.1746C47.6635 55.1943 47.6242 55.214 47.5848 55.233C46.0207 55.9986 43.9729 56.5752 43.9443 56.5824C43.3985 56.7234 42.618 56.9087 41.7389 57.0472L41.6087 57.0673L41.5875 57.0704C41.3881 57.1002 41.1881 57.1265 40.9877 57.1493L40.9692 57.1512C40.6047 57.1926 40.2309 57.2226 39.8564 57.2352H39.8508C39.7162 57.2402 39.5819 57.2425 39.4473 57.2425H39.2923C39.0872 57.2396 38.8822 57.2305 38.6776 57.2147C38.6728 57.2147 38.6678 57.2147 38.6629 57.2137C38.5898 57.2081 38.5164 57.2013 38.4435 57.1932C38.3181 57.1797 38.1929 57.1632 38.068 57.1437C38.0195 57.1356 37.9675 57.1271 37.9175 57.1184C37.8946 57.1143 37.872 57.1102 37.8494 57.1056L37.844 57.1046C37.7719 57.0909 37.7002 57.0758 37.6288 57.0594C37.5875 57.0501 37.5459 57.0408 37.505 57.0298L37.4805 57.0234C37.4602 57.0185 37.4402 57.0131 37.4203 57.0077L37.4093 57.0048L37.3451 56.9864C37.3218 56.9797 37.2988 56.9729 37.2755 56.9661L37.2672 56.9636L37.2068 56.9452C37.1839 56.9381 37.1613 56.9307 37.1387 56.9234C37.12 56.9172 37.1015 56.9108 37.0828 56.9048L37.0419 56.8905C37.0024 56.8768 36.9634 56.8624 36.9243 56.8474L36.8874 56.8332L36.8568 56.8209C36.7981 56.7973 36.7395 56.7727 36.6816 56.7468L36.6429 56.7284L36.6365 56.7255C36.6228 56.7191 36.6093 56.7127 36.5956 56.7069C36.5688 56.694 36.5422 56.6808 36.5158 56.6673L36.5079 56.6634L36.4697 56.6433C36.4018 56.6081 36.3351 56.5704 36.2699 56.5303L36.2342 56.5085C36.2157 56.4974 36.1989 56.486 36.1812 56.4746L36.1347 56.4437C36.1179 56.4326 36.1011 56.4212 36.0847 56.4094L36.0548 56.3882C36.0232 56.3657 35.9922 56.3427 35.9617 56.3189C35.9455 56.3065 35.9295 56.2936 35.9135 56.2818C35.878 56.2535 35.8433 56.2243 35.8091 56.1943L35.8076 56.193C35.7742 56.1642 35.7416 56.1344 35.7098 56.104L35.7081 56.1019C35.6915 56.0862 35.6753 56.0705 35.6591 56.0541C35.6431 56.0377 35.6269 56.0216 35.6114 56.0052C35.5956 55.9887 35.5798 55.9719 35.5644 55.9547C35.5495 55.9386 35.5349 55.9222 35.5204 55.9057L35.5154 55.9001C35.4404 55.8133 35.3702 55.7224 35.3052 55.6278L35.2795 55.5899C35.2624 55.5649 35.2456 55.5396 35.229 55.5144L35.18 55.4392C35.1559 55.4026 35.1324 55.3655 35.1096 55.3283C35.0932 55.3018 35.077 55.2752 35.061 55.2485C35.0475 55.2258 35.034 55.2032 35.0211 55.1808C35.0138 55.1686 35.007 55.1562 35.0001 55.1438C34.9933 55.1309 34.9852 55.1179 34.9779 55.1049L34.9663 55.0844C34.9623 55.0775 34.9611 55.0755 34.959 55.0709C34.9449 55.0463 34.9312 55.0212 34.9179 54.9958C34.9119 54.9848 34.9059 54.9736 34.8994 54.9626L34.8807 54.927L34.8622 54.8916L34.8265 54.8198C34.8207 54.808 34.8151 54.7962 34.8095 54.7844C34.7972 54.7589 34.7856 54.7339 34.774 54.7088C34.7694 54.6987 34.7646 54.6885 34.7605 54.6784C34.7445 54.6438 34.7293 54.6088 34.715 54.5734C34.7052 54.55 34.6963 54.5268 34.6867 54.5036C34.66 54.4353 34.6348 54.3664 34.6118 54.2966C34.6049 54.2759 34.5981 54.2554 34.592 54.2347C34.5771 54.1877 34.5636 54.1403 34.5515 54.0925C34.5368 54.0368 34.5237 53.9805 34.5127 53.924C34.5056 53.8906 34.4994 53.8571 34.4942 53.8233C34.4886 53.79 34.4838 53.7567 34.4799 53.7235C34.4714 53.6575 34.4654 53.5913 34.4618 53.5248C34.4618 53.5138 34.4608 53.5026 34.4606 53.4917C34.4595 53.4697 34.4589 53.4478 34.4587 53.4258C34.4471 52.5414 34.8963 51.6907 35.8564 50.734C37.5665 49.0308 38.5621 46.5383 38.5621 46.5383C38.5621 46.5383 38.5889 46.4338 38.6448 46.2835C38.6635 46.2336 38.683 46.1839 38.7036 46.1348C38.727 46.0793 38.7522 46.0245 38.7792 45.9706L38.7871 45.9549C38.8217 45.8862 38.8593 45.8193 38.9002 45.7541C38.9096 45.739 38.9187 45.7239 38.9295 45.709C38.9598 45.6638 38.992 45.6201 39.0259 45.5777C39.0521 45.5452 39.0799 45.5137 39.1092 45.4839C39.2084 45.3821 39.3216 45.2988 39.4498 45.2543L39.466 45.2491C39.4768 45.2456 39.4874 45.2423 39.4984 45.2392C39.5112 45.2359 39.5241 45.2328 39.537 45.2301L39.5428 45.2291C39.57 45.2237 39.5972 45.2199 39.6249 45.2181H39.6273C39.6417 45.2181 39.656 45.2166 39.6708 45.2166C39.7075 45.2168 39.7441 45.2197 39.7804 45.2253C39.9345 45.2496 40.0813 45.3411 40.2076 45.4823L40.2246 45.5021C40.2658 45.5502 40.3031 45.6015 40.3364 45.6553C40.3613 45.6953 40.3848 45.7373 40.407 45.7814C40.4159 45.8 40.4244 45.817 40.433 45.8352C40.4371 45.8446 40.4413 45.8537 40.4452 45.8632C40.4535 45.8816 40.4612 45.9003 40.4689 45.9197C40.5123 46.0307 40.5459 46.1452 40.5696 46.2619C40.5947 46.388 40.6093 46.516 40.6134 46.6445C40.6149 46.7011 40.6149 46.7582 40.6134 46.8162C40.6124 46.8381 40.6114 46.8603 40.6097 46.8824C40.5927 47.1286 40.5389 47.3708 40.45 47.6012C40.4411 47.624 40.4313 47.6472 40.4222 47.6704C40.3775 47.7768 40.3256 47.8799 40.267 47.9793C40.2336 48.036 40.1974 48.0923 40.1588 48.1482L40.1351 48.1817C40.0435 48.3093 39.9414 48.4289 39.8296 48.5395C39.7196 48.6494 39.6016 48.7511 39.4768 48.844C39.3515 48.9362 39.2342 49.0384 39.1258 49.1496C38.8136 49.4763 38.7409 49.7643 38.8111 49.9827C38.8195 50.0073 38.8292 50.0316 38.8404 50.055C38.8664 50.1057 38.9 50.1523 38.9403 50.1928L38.9513 50.2038C38.9628 50.2148 38.9748 50.2253 38.9871 50.2355L38.9995 50.2456C39.0298 50.2688 39.0618 50.2895 39.0953 50.3075C39.1048 50.3127 39.1137 50.3179 39.1247 50.3229C39.1706 50.3456 39.2186 50.3638 39.268 50.3777L39.2818 50.3812L39.3002 50.3862L39.3164 50.3901L39.3337 50.3939L39.3509 50.3974L39.3673 50.4001C39.3796 50.4024 39.392 50.4042 39.4043 50.4059L39.4163 50.4075L39.4377 50.4098L39.451 50.411L39.473 50.4127H39.4857L39.5085 50.4137H39.5806L39.6012 50.4127L39.6249 50.4113L39.6537 50.4086L39.6807 50.4053C39.6867 50.4053 39.693 50.4036 39.6992 50.4026C39.7943 50.3887 39.8869 50.362 39.9746 50.3231C39.9933 50.3152 40.0118 50.3065 40.0288 50.2974C40.0654 50.2792 40.1009 50.2587 40.1349 50.2361C40.1825 50.2051 40.2273 50.1701 40.2695 50.132L40.2988 50.1042C40.3034 50.0997 40.3081 50.0953 40.3125 50.0906C40.3412 50.062 40.3682 50.0318 40.3933 50.0001C40.4377 49.9442 40.4772 49.8848 40.5115 49.8223C40.9179 49.0856 41.3439 48.3598 41.7889 47.6457L41.85 47.5482L41.9117 47.4505C41.9426 47.4012 41.9736 47.3524 42.0045 47.3041L42.0359 47.2555L42.0984 47.1584C42.1823 47.029 42.2664 46.901 42.3511 46.7743L42.4145 46.6799C42.5416 46.4924 42.6685 46.3098 42.7939 46.1361L42.8566 46.0503C42.9931 45.8624 43.1353 45.6787 43.283 45.4994L43.3418 45.4295C43.3513 45.4177 43.3603 45.4063 43.3709 45.3949L43.4284 45.3284C43.4379 45.3175 43.4471 45.3067 43.457 45.2961L43.5127 45.2334L43.5407 45.2032C43.5677 45.174 43.5952 45.1452 43.623 45.1166C43.6417 45.0982 43.6589 45.0796 43.677 45.0624C43.7823 44.9549 43.8984 44.8587 44.0236 44.7752L44.0525 44.7568L44.0818 44.7382C44.1004 44.7266 44.1193 44.7154 44.1387 44.7049C44.6296 44.4272 45.0363 44.4067 45.2701 44.6398C45.412 44.7812 45.4903 45.0154 45.4861 45.3411C45.4861 45.3556 45.4861 45.3698 45.4849 45.3847V45.4009C45.4849 45.4156 45.4836 45.4307 45.4826 45.4458C45.4826 45.4642 45.4803 45.4829 45.4784 45.5013C45.4766 45.5199 45.4757 45.534 45.4739 45.5504C45.4739 45.5551 45.4728 45.5599 45.4722 45.5647C45.4707 45.5791 45.4689 45.5938 45.467 45.6083C45.467 45.6129 45.467 45.6172 45.4651 45.6218C45.4631 45.6415 45.4602 45.6611 45.4566 45.6806C45.4543 45.6986 45.4514 45.7166 45.4479 45.7346C45.4465 45.745 45.4444 45.7551 45.4427 45.7655C45.4373 45.7949 45.4303 45.8241 45.4217 45.8526C45.4057 45.906 45.3862 45.9584 45.3632 46.0094C45.3532 46.0315 45.3426 46.0537 45.3318 46.0754C45.3094 46.1203 45.284 46.1663 45.2562 46.2139C45.2423 46.2373 45.228 46.2615 45.2126 46.2857L45.1893 46.3226C45.1657 46.3597 45.1409 46.3971 45.1152 46.435C45.0894 46.4729 45.0618 46.5116 45.0321 46.5507C44.9937 46.6029 44.9532 46.6561 44.9104 46.71L44.878 46.7507C44.7864 46.8644 44.6926 46.9762 44.5966 47.0861L44.5204 47.172L44.4816 47.2155C44.4286 47.2745 44.3754 47.3331 44.3218 47.3913L44.2807 47.4356C44.2535 47.465 44.2251 47.4948 44.1979 47.5244C44.17 47.5544 44.1418 47.5842 44.1135 47.6141L44.028 47.7039L43.9414 47.794C43.9125 47.824 43.8834 47.8544 43.8541 47.8844L43.6778 48.0656C42.8356 48.9266 41.9482 49.7848 41.6479 50.3197C41.628 50.3547 41.6099 50.3906 41.5935 50.4272C41.5509 50.5245 41.5331 50.6077 41.5451 50.675C41.549 50.6972 41.5569 50.7185 41.5684 50.7377C41.5854 50.7669 41.606 50.7938 41.6296 50.8179C41.6406 50.8286 41.6521 50.8388 41.6645 50.8479C41.7262 50.8918 41.801 50.9143 41.8768 50.9121H41.9004L41.9247 50.9104L41.9493 50.9075L41.9694 50.9046C41.9721 50.9044 41.9748 50.9038 41.9775 50.9032L41.996 50.8996L42.001 50.8984L42.0213 50.8941L42.0286 50.8922L42.0504 50.8866L42.0764 50.8789C42.0934 50.8738 42.1104 50.868 42.1279 50.8615C42.1655 50.8483 42.2022 50.833 42.2381 50.8158C42.2473 50.8114 42.2566 50.8073 42.2656 50.8025L42.2932 50.7889C42.3293 50.7707 42.3652 50.751 42.4014 50.7297C42.4303 50.7127 42.4589 50.6953 42.4876 50.6769L42.5154 50.6585C42.5245 50.6527 42.5339 50.6467 42.543 50.6398L42.5706 50.6214L42.5852 50.6112L42.6251 50.5835C42.6622 50.5578 42.6969 50.5315 42.7322 50.5048L42.7353 50.5026L42.791 50.4595C42.8672 50.3995 42.9397 50.339 43.0051 50.2821L43.0487 50.2438L43.0529 50.24L43.0755 50.22C43.1291 50.1721 43.1769 50.1274 43.2168 50.0904L43.233 50.0746L43.2722 50.0376L43.2957 50.0148L43.3038 50.0065L43.3061 50.0042C43.326 49.9844 43.326 49.9844 43.3459 49.9643L43.3476 49.9626L43.3551 49.956C43.3574 49.9535 43.3605 49.951 43.364 49.9479L43.3669 49.9452L43.3748 49.9382L43.417 49.9011L43.4406 49.8798C43.4523 49.8699 43.4649 49.8585 43.4778 49.8463L43.5063 49.8214C43.5112 49.8173 43.5162 49.8125 43.5214 49.808L43.5511 49.7821L43.5949 49.744L43.618 49.7239C43.7083 49.6454 43.8184 49.5508 43.9445 49.4442L43.9962 49.4007L44.0818 49.3293L44.169 49.2564C44.2832 49.162 44.4062 49.0616 44.5362 48.9573L44.6215 48.889C44.6942 48.8314 44.769 48.7724 44.8446 48.7132C44.8749 48.6894 44.9058 48.6656 44.9374 48.642C45.0149 48.5823 45.0928 48.5229 45.1709 48.4643C45.349 48.3302 45.5328 48.1958 45.7187 48.0648L45.7987 48.0095C45.8543 47.971 45.91 47.9327 45.9659 47.8952L46.0163 47.861C46.1162 47.794 46.217 47.7283 46.3185 47.6642L46.369 47.6325L46.419 47.6014C46.4691 47.5706 46.5191 47.5399 46.5686 47.5103L46.6182 47.4809L46.7177 47.4232C46.7503 47.4043 46.7827 47.3859 46.8151 47.3677L46.8346 47.3567L46.9119 47.3147C46.9439 47.2973 46.976 47.2805 47.0078 47.2642L47.0556 47.2397L47.1017 47.2164C47.2072 47.1636 47.3146 47.1147 47.4238 47.07C47.4388 47.0638 47.4535 47.0578 47.4683 47.0513C47.4975 47.0391 47.5266 47.028 47.5555 47.018C47.5844 47.0083 47.6128 46.9981 47.6408 46.9882C47.6664 46.9797 47.6911 46.9718 47.7152 46.9644L47.7233 46.9619C47.7362 46.958 47.749 46.9542 47.7619 46.9509L47.7657 46.9499C47.7918 46.9424 47.818 46.9356 47.8444 46.9294H47.8465C47.8853 46.9201 47.9231 46.9122 47.9601 46.906C47.9727 46.9039 47.9852 46.9019 47.9972 46.9002C48.0332 46.8948 48.0693 46.8911 48.1054 46.8886C48.1283 46.887 48.1513 46.8863 48.1742 46.8863H48.1916C48.2149 46.8863 48.2373 46.8878 48.2595 46.8901C48.2697 46.8901 48.2799 46.8919 48.2899 46.8934H48.294C48.304 46.8944 48.3142 46.8961 48.3239 46.8981C48.3337 46.9002 48.3436 46.9017 48.3532 46.9039H48.3565C48.3661 46.906 48.375 46.9087 48.385 46.9114C48.4643 46.9327 48.5372 46.9729 48.5976 47.0284L48.603 47.0337L48.6136 47.0441L48.624 47.0551C48.7073 47.1424 48.7763 47.2424 48.8282 47.3513L48.8363 47.3698C48.8539 47.4112 48.8678 47.454 48.8776 47.4979C48.9046 47.6203 48.8973 47.7478 48.8564 47.8662C48.8388 47.9178 48.8172 47.9679 48.7916 48.0159L48.7746 48.0465C48.7098 48.1548 48.6334 48.2556 48.5463 48.3472L48.5277 48.3668C48.4867 48.4101 48.4442 48.4521 48.4003 48.4925C48.3864 48.5055 48.3721 48.5186 48.3576 48.5316L48.3355 48.5515C48.2899 48.5919 48.2431 48.6312 48.1958 48.6697C48.1875 48.6763 48.179 48.683 48.1709 48.69C48.1378 48.7165 48.1038 48.7434 48.0685 48.7703C47.9468 48.8631 47.8228 48.9525 47.6965 49.0388C47.6222 49.0896 47.5453 49.1407 47.466 49.1927C47.3181 49.2894 47.1692 49.384 47.0188 49.4767C46.9754 49.5034 46.9318 49.5305 46.8874 49.5575C46.4789 49.808 46.0259 50.0759 45.5428 50.3672L45.4178 50.4429C45.2809 50.5262 45.1517 50.6057 45.0303 50.6812L44.969 50.7197L44.8531 50.7939C44.8072 50.8228 44.7625 50.8514 44.7191 50.8796C44.6863 50.9005 44.6543 50.9212 44.623 50.9417L44.5611 50.9822C44.531 51.0019 44.5011 51.0216 44.4712 51.0417L44.4421 51.0601C44.4114 51.0806 44.3814 51.1007 44.3524 51.1205L44.3048 51.1528L44.2489 51.1916L44.1974 51.2274C44.116 51.2843 44.0357 51.3425 43.9559 51.4017L43.9281 51.4228C43.8967 51.4464 43.8664 51.47 43.8371 51.493L43.7989 51.5234C43.7345 51.575 43.6761 51.6245 43.6234 51.6717L43.5976 51.6953C43.5829 51.7087 43.5684 51.7222 43.5547 51.7354C43.5449 51.7445 43.536 51.7539 43.5262 51.763L43.5127 51.7762C43.483 51.8058 43.4541 51.8363 43.4261 51.8675L43.4124 51.8832C43.3819 51.9184 43.3553 51.9522 43.3318 51.9851L43.3214 52C43.2944 52.0394 43.2705 52.081 43.2502 52.1242L43.2431 52.1393L43.2388 52.1499L43.2352 52.159L43.2305 52.1716C43.229 52.176 43.2261 52.1836 43.2244 52.1903C43.2159 52.2149 43.2097 52.2404 43.2055 52.2663L43.2035 52.2801L43.2018 52.2928L43.2008 52.305V52.37C43.2008 52.3754 43.2008 52.381 43.202 52.3865C43.2022 52.3899 43.2026 52.3932 43.203 52.3965C43.203 52.4019 43.2045 52.4072 43.2051 52.4128L43.2091 52.4356V52.4366C43.2105 52.4439 43.212 52.4511 43.2138 52.4584C43.2157 52.4656 43.2176 52.4737 43.2199 52.4814C43.2265 52.5048 43.2346 52.5279 43.244 52.5505C43.244 52.5522 43.2454 52.554 43.246 52.5557C43.2485 52.5613 43.2508 52.5671 43.2535 52.5727C43.2637 52.5963 43.2751 52.6192 43.2876 52.6418L43.3007 52.6652L43.3144 52.6888L43.3287 52.7124C43.3312 52.7163 43.3339 52.7199 43.337 52.7234L43.3418 52.7283L43.3468 52.7329L43.3524 52.7373C43.3561 52.7399 43.3601 52.7422 43.3642 52.7445C43.3684 52.7464 43.3729 52.7484 43.3775 52.7501C43.3825 52.7517 43.3875 52.7532 43.3925 52.7544C43.5123 52.7814 43.7586 52.6824 44.0857 52.5101L44.1445 52.4791L44.244 52.425L44.2928 52.3981C44.3272 52.3795 44.3628 52.3588 44.3987 52.3383L44.4645 52.3012C44.8971 52.053 45.4141 51.734 45.9482 51.4226C45.9981 51.3934 46.0483 51.3644 46.0986 51.3354L46.1995 51.2713C46.25 51.2423 46.3002 51.2137 46.3507 51.1856C46.5655 51.0638 46.7831 50.9468 47.003 50.8348L47.1017 50.7849C47.1673 50.7527 47.2323 50.7212 47.2965 50.6905C47.4209 50.6317 47.5466 50.5761 47.6734 50.5233L47.743 50.4951L47.7515 50.4918C48.12 50.3462 48.4541 50.2562 48.7245 50.2562C48.7831 50.2558 48.8415 50.2605 48.8992 50.2705H48.9009C48.9196 50.2738 48.9364 50.2775 48.9534 50.2819H48.9565C48.9814 50.2879 49.006 50.2955 49.0296 50.3051C49.0485 50.3119 49.0668 50.32 49.0845 50.3295C49.1619 50.3686 49.2282 50.4264 49.2776 50.4976C49.2818 50.5036 49.2857 50.5098 49.2894 50.5162C49.3077 50.544 49.3235 50.5732 49.3364 50.6038C49.3441 50.6214 49.3511 50.6396 49.3578 50.6593C49.3644 50.6792 49.3702 50.6982 49.3763 50.7187C49.4203 50.8756 49.4159 51.0417 49.3638 51.1961Z"></path>
<path fill="#FFD21E" d="M46.9139 39.9513V39.8499C46.9139 31.1848 39.8697 24.1604 31.1766 24.1604C22.484 24.1604 15.4371 31.1852 15.4371 39.8499L15.4369 39.8838C15.4367 39.9064 15.4365 39.9287 15.4369 39.9513C15.4379 39.985 15.4382 40.0188 15.4379 40.0525L15.4392 40.1271L15.4396 40.154L15.4406 40.1908C15.441 40.2107 15.4417 40.2304 15.4417 40.2502L15.4437 40.3308L15.4471 40.4254L15.4481 40.4565L15.4523 40.5544V40.5589L15.4581 40.6734V40.6763C15.4602 40.7155 15.4622 40.7546 15.4647 40.7935C15.4668 40.8297 15.4691 40.8658 15.4716 40.9018L15.4722 40.9082C15.474 40.939 15.4761 40.9701 15.4784 41.0009L15.4791 41.009C15.4811 41.0388 15.4834 41.0688 15.4859 41.0985L15.4863 41.1043L15.4905 41.156C15.5029 41.3053 15.5175 41.4545 15.5341 41.6034L15.5351 41.6127L15.5476 41.722L15.5619 41.8371C15.5715 41.9137 15.5818 41.9901 15.5927 42.0665C15.5991 42.1127 15.6059 42.1587 15.6128 42.2046L15.6138 42.2102C15.6294 42.3141 15.6461 42.4181 15.6641 42.5216C15.7158 42.822 15.7764 43.1209 15.846 43.4178L15.8471 43.4226L15.8537 43.4505C15.8599 43.477 15.8662 43.5035 15.8728 43.5302L15.8842 43.5164C16.3412 42.9719 16.9966 42.6717 17.7299 42.6717C18.3177 42.6717 18.9208 42.8653 19.525 43.2472C19.9258 43.5011 20.369 43.9507 20.8251 44.5161C21.2471 43.9317 21.8385 43.5435 22.5152 43.4375C22.6443 43.4172 22.7748 43.4069 22.9052 43.4066C24.4497 43.4066 25.38 44.7428 25.7314 45.9444C25.9048 46.3506 26.7418 48.1996 28.0036 49.4505C29.9216 51.3608 30.4016 53.3321 29.4524 55.4428H29.4556C29.5204 55.4499 29.5854 55.4565 29.6506 55.4625C29.6894 55.4662 29.7283 55.4699 29.7671 55.4733L29.7808 55.4745C29.8093 55.4772 29.8379 55.4797 29.8666 55.4817L29.9455 55.4882C30.0207 55.494 30.0961 55.4991 30.1719 55.5041L30.2317 55.5076L30.2792 55.5103L30.3089 55.512L30.4016 55.5169L30.4269 55.518L30.5245 55.5221L30.6327 55.5263L30.7199 55.5287L30.7345 55.5294C30.7528 55.53 30.7715 55.5308 30.7899 55.5308L30.8097 55.5312C30.9322 55.5341 31.0545 55.5356 31.1771 55.5356H31.3071L31.4001 55.5345C31.423 55.5333 31.4456 55.5333 31.4684 55.5333H31.5046L31.5359 55.5327C31.5482 55.5323 31.5607 55.5318 31.5729 55.5318H31.6101L31.683 55.5298L31.7926 55.5261L31.9135 55.5209C31.9482 55.5194 31.9827 55.5178 32.0173 55.5159L32.0545 55.5138L32.1096 55.5107L32.1422 55.5089L32.1665 55.5074L32.278 55.5C32.3152 55.4977 32.3523 55.4948 32.3895 55.4919L32.4905 55.484L32.5617 55.478L32.6396 55.471C32.7195 55.4635 32.7993 55.4557 32.8786 55.4474C32.9293 55.4418 32.9796 55.4362 33.03 55.4302L33.1187 55.4196C32.1843 53.3176 32.668 51.3552 34.5783 49.4524C35.8373 48.1984 36.6743 46.349 36.8487 45.943C37.2003 44.7412 38.1297 43.4052 39.6747 43.4052C39.8053 43.4054 39.9357 43.4155 40.0647 43.436C40.7407 43.542 41.3324 43.9304 41.755 44.5147C42.2113 43.9493 42.6543 43.4996 43.0551 43.2458C43.6593 42.8638 44.2628 42.6702 44.85 42.6702C45.4971 42.6702 46.0838 42.9042 46.5268 43.3332C46.5511 43.2251 46.5746 43.117 46.597 43.0085C46.6107 42.9408 46.6242 42.8729 46.6375 42.8048C46.6537 42.7212 46.6691 42.6371 46.6832 42.5531C46.6869 42.5303 46.6909 42.5075 46.6952 42.4845C46.7021 42.4487 46.7081 42.4133 46.7137 42.3773L46.716 42.3636L46.7307 42.2698L46.7453 42.1748L46.7455 42.1738C46.7513 42.134 46.7573 42.0941 46.7627 42.0541C46.7671 42.0239 46.7712 41.9937 46.7752 41.9632L46.7777 41.9458L46.7906 41.8469L46.8012 41.7626C46.8076 41.7071 46.8138 41.6516 46.8198 41.596C46.8225 41.5738 46.8248 41.5514 46.8271 41.5291L46.8292 41.5111C46.8331 41.474 46.8367 41.4372 46.84 41.4001L46.8483 41.314C46.8655 41.1231 46.8794 40.9322 46.8902 40.7409V40.7397L46.8959 40.6382L46.8969 40.6155L46.901 40.5192C46.9027 40.483 46.9042 40.4463 46.9054 40.4092V40.4066L46.9064 40.3799C46.9075 40.3571 46.9083 40.3343 46.9083 40.3117L46.9087 40.3024C46.9096 40.2813 46.9104 40.2594 46.9104 40.2376L46.911 40.219C46.9116 40.1972 46.9123 40.1757 46.9123 40.154L46.9127 40.1356C46.9133 40.1078 46.9139 40.0803 46.9139 40.0525V39.9513ZM27.273 55.625C28.5193 53.8027 28.4311 52.4351 26.7208 50.7312C25.0105 49.0273 24.0151 46.5355 24.0151 46.5355C24.0151 46.5355 23.6435 45.0879 22.7962 45.2211C21.9488 45.354 21.3272 47.5168 23.1013 48.8408C24.8753 50.1648 22.7484 51.0625 22.0655 49.8201C21.3825 48.5775 19.5183 45.3836 18.5515 44.7726C17.585 44.1617 16.9052 44.5041 17.1331 45.7633C17.2462 46.3883 18.2988 47.4549 19.2822 48.4516C20.2799 49.4629 21.2064 50.4018 21.0084 50.7341C20.6153 51.3941 19.2307 49.9588 19.2307 49.9588C19.2307 49.9588 14.895 46.0258 13.9511 47.0508C13.0811 47.9955 14.4228 48.7986 16.4905 50.0362C16.6664 50.1416 16.8475 50.2501 17.0329 50.3619C19.3985 51.7896 19.5825 52.1661 19.2469 52.7063C19.1229 52.9059 18.331 52.432 17.3569 51.849C15.6965 50.8552 13.5069 49.5449 13.1978 50.7177C12.9301 51.7328 14.5409 52.3547 16.0018 52.9189C17.2188 53.3889 18.332 53.8187 18.1684 54.4021C17.9987 55.0068 17.0788 54.5025 16.0732 53.951C14.9445 53.3317 13.7077 52.6533 13.3031 53.4189C12.538 54.866 18.5804 56.5697 18.63 56.5821C20.5823 57.0869 25.5401 58.1564 27.273 55.625ZM35.3029 55.625C34.0564 53.8027 34.1449 52.4351 35.8551 50.7312C37.5654 49.0273 38.5611 46.5355 38.5611 46.5355C38.5611 46.5355 38.9324 45.0879 39.7798 45.2211C40.6271 45.354 41.2489 47.5168 39.4747 48.8408C37.7004 50.1648 39.8275 51.0625 40.5106 49.8201C41.1935 48.5775 43.0568 45.3836 44.0234 44.7726C44.9899 44.1617 45.6699 44.5041 45.4421 45.7633C45.3289 46.3883 44.2763 47.4551 43.2927 48.4518C42.2952 49.4629 41.3688 50.4018 41.5667 50.7341C41.9596 51.3941 43.3455 49.9579 43.3455 49.9579C43.3455 49.9579 47.6809 46.025 48.6248 47.05C49.4948 47.9947 48.153 48.7979 46.0853 50.0358C45.9094 50.141 45.7285 50.2492 45.543 50.3612C43.1773 51.7887 42.9935 52.1655 43.3291 52.7055C43.4531 52.905 44.245 52.4311 45.2188 51.8483C46.8794 50.8546 49.0691 49.5441 49.3781 50.7169C49.6458 51.732 48.035 52.3541 46.5739 52.9183C45.3569 53.3882 44.2439 53.8178 44.4074 54.4015C44.5771 55.0062 45.4965 54.5017 46.5017 53.9501C47.6304 53.3309 48.8674 52.6522 49.2722 53.4181C50.0373 54.8662 43.9941 56.568 43.9451 56.5807C41.9928 57.0869 37.035 58.1564 35.3029 55.625Z" clip-rule="evenodd" fill-rule="evenodd"></path>
<path fill="#32343D" d="M36.2883 35.5791C36.5336 35.6657 36.7161 35.9292 36.8897 36.1797C37.1244 36.5187 37.3429 36.8338 37.6781 36.6561C38.0737 36.4466 38.3979 36.1249 38.61 35.7315C38.822 35.3383 38.9122 34.8911 38.8692 34.4467C38.8372 34.1144 38.7317 33.7933 38.5601 33.5065C38.3886 33.2198 38.1554 32.9745 37.8775 32.7884C37.5994 32.6023 37.2833 32.4801 36.9522 32.4304C36.621 32.3807 36.2829 32.4049 35.9622 32.5012C35.5334 32.63 35.1525 32.8825 34.8675 33.227C34.5828 33.5715 34.4067 33.9924 34.3616 34.4365C34.3167 34.8808 34.405 35.3283 34.6152 35.7226C34.7705 36.0139 35.1153 35.8767 35.4791 35.7315C35.7645 35.6179 36.0615 35.4994 36.2883 35.5791ZM25.6183 35.5794C25.373 35.6659 25.1903 35.9294 25.0166 36.18C24.7819 36.5187 24.5635 36.834 24.2283 36.6563C23.9327 36.4996 23.6758 36.2793 23.4758 36.0116C23.2758 35.7439 23.1379 35.4355 23.0719 35.1082C23.0058 34.781 23.0133 34.4433 23.0939 34.1193C23.1747 33.7954 23.3263 33.4933 23.5379 33.2347C23.75 32.9763 24.0166 32.768 24.319 32.6246C24.6214 32.4813 24.952 32.4066 25.2868 32.4059C25.6216 32.4052 25.9525 32.4784 26.2555 32.6204C26.5585 32.7624 26.8262 32.9696 27.0393 33.2271C27.3242 33.5715 27.5003 33.9925 27.5454 34.4368C27.5903 34.8811 27.502 35.3286 27.2916 35.7228C27.1358 36.0141 26.7911 35.8767 26.4272 35.7315C26.1421 35.6179 25.8451 35.4994 25.6183 35.5794ZM34.6376 45.2583C36.3288 43.93 36.95 41.7617 36.95 40.426C36.95 39.3701 36.2372 39.7024 35.0964 40.2653L35.0322 40.2972C33.9849 40.8141 32.5909 41.5023 31.0607 41.5023C29.5302 41.5023 28.1363 40.8139 27.0893 40.297C25.9115 39.7154 25.1728 39.3506 25.1728 40.4262C25.1728 41.804 25.8337 44.0666 27.6478 45.3812C27.887 44.8968 28.2239 44.4668 28.6376 44.1181C29.0511 43.7695 29.5325 43.5099 30.0515 43.3552C30.2326 43.3014 30.4191 43.6122 30.6102 43.9302C30.7944 44.2372 30.9826 44.5511 31.1743 44.5511C31.3782 44.5511 31.5788 44.2417 31.7747 43.9397C31.9792 43.6242 32.1786 43.3165 32.3716 43.378C33.3427 43.6888 34.155 44.3627 34.6376 45.2583Z" clip-rule="evenodd" fill-rule="evenodd"></path>
<path fill="#FF323D" d="M34.6369 45.2583C33.7561 45.9502 32.5854 46.4141 31.061 46.4141C29.6286 46.4141 28.5081 46.0046 27.6477 45.3812C27.8872 44.897 28.2242 44.467 28.6377 44.1186C29.0512 43.7699 29.5326 43.5101 30.0514 43.3552C30.4072 43.2494 30.7839 44.5511 31.174 44.5511C31.5916 44.5511 31.9939 43.2577 32.3715 43.378C33.3422 43.689 34.1542 44.3629 34.6369 45.2583Z"></path>
<path fill="#FFAD03" d="M21.5745 37.4578C21.4138 37.5657 21.2333 37.6408 21.0434 37.6789C20.8535 37.717 20.6579 37.7174 20.4679 37.6802C20.2778 37.6427 20.097 37.5684 19.9359 37.4613C19.7747 37.3541 19.6363 37.2164 19.5287 37.0558C19.421 36.8953 19.3463 36.715 19.3086 36.5258C19.2709 36.3363 19.2712 36.1413 19.3092 35.9519C19.3473 35.7627 19.4225 35.5827 19.5305 35.4223C19.6385 35.262 19.7771 35.1245 19.9385 35.0177C20.2631 34.803 20.6599 34.7252 21.0419 34.8016C21.4239 34.8779 21.76 35.1021 21.9765 35.425C22.1929 35.748 22.2723 36.1432 22.1969 36.5241C22.1215 36.9053 21.8976 37.2411 21.5745 37.4578ZM42.6361 37.4578C42.4754 37.5657 42.2949 37.6408 42.1051 37.6789C41.9152 37.717 41.7196 37.7174 41.5296 37.6802C41.3395 37.6427 41.1587 37.5684 40.9975 37.4613C40.8363 37.3541 40.698 37.2164 40.5904 37.0558C40.4826 36.8953 40.4079 36.715 40.3703 36.5258C40.3327 36.3363 40.3329 36.1413 40.3709 35.9519C40.4089 35.7627 40.4841 35.5827 40.5921 35.4223C40.7001 35.262 40.8388 35.1245 41.0002 35.0177C41.3248 34.803 41.7217 34.7252 42.1036 34.8016C42.4855 34.8779 42.8216 35.1021 43.0382 35.425C43.2546 35.748 43.3339 36.1432 43.2585 36.5241C43.1832 36.9053 42.9593 37.2411 42.6361 37.4578Z" clip-rule="evenodd" fill-rule="evenodd"></path>
</svg>
